<?xml version="1.0" encoding="utf-8"?>
<!-- Generator: Adobe Illustrator 24.0.2, SVG Export Plug-In . SVG Version: 6.00 Build 0)  -->
<svg version="1.1" id="Capa_1" xmlns="http://www.w3.org/2000/svg" xmlns:xlink="http://www.w3.org/1999/xlink" x="0px" y="0px"
	 viewBox="0 0 420 478" style="enable-background:new 0 0 420 478;" xml:space="preserve">
<g>
	<g>
		<path d="M1.2,61.89c3.03,96.95,4.76,193.95,5.17,290.95c0.12,27.24,0.13,54.48,0.04,81.72c-0.02,5.85,7.99,6.51,9.82,1.33
			c34.66-98.28,71.84-195.67,111.58-292.01c11.24-27.26,22.69-54.43,34.34-81.51c1.45-3.37-0.18-7.51-4.32-7.52
			c-49.65-0.2-99.3-0.4-148.95-0.6c-6.44-0.03-6.44,9.97,0,10c49.65,0.2,99.3,0.4,148.95,0.6c-1.44-2.51-2.88-5.02-4.32-7.52
			c-41.31,96.07-80.15,193.2-116.39,291.3c-10.39,28.13-20.57,56.34-30.54,84.61c3.27,0.44,6.55,0.89,9.82,1.33
			c0.32-97-0.66-194.01-2.96-290.98c-0.65-27.23-1.4-54.46-2.25-81.69C11,55.47,1,55.44,1.2,61.89L1.2,61.89z"/>
	</g>
</g>
<g>
	<g>
		<path d="M258.27,60.44c35.62,99.43,72.91,198.26,111.88,296.43c11.12,28.02,22.38,55.99,33.77,83.9c2.19,5.37,9.06,4.35,9.82-1.33
			c4.68-34.85,3.26-70.35,3.25-105.43c-0.01-36.22-0.01-72.44-0.02-108.66c-0.01-35.89-0.01-71.77-0.02-107.66
			c0-17.94,0.11-35.89-0.01-53.83c-0.05-6.75-2.25-12.39-9.62-13.37c-8.65-1.15-17.81-0.54-26.53-0.74
			c-40.62-0.92-81.25-1.83-121.87-2.75c-3.31-0.07-5.6,3.25-4.82,6.33c0.53,2.1,1.07,4.2,1.6,6.31c1.59,6.23,11.23,3.59,9.64-2.66
			c-0.53-2.1-1.07-4.2-1.6-6.31c-1.61,2.11-3.21,4.22-4.82,6.33c34.63,0.78,69.26,1.56,103.89,2.34c8.66,0.2,17.32,0.39,25.97,0.59
			c4,0.09,7.99,0.18,11.99,0.27c1.17,0.03,4.28-0.49,5.27,0.14c1.75,1.13,0.9,4.75,0.9,6.51c0,16.95,0.01,33.89,0.01,50.84
			c0.01,69.12,0.03,138.23,0.04,207.35c0.01,38.01,1.82,76.63-3.25,114.4c3.27-0.44,6.55-0.89,9.82-1.33
			c-39.89-97.75-78.14-196.16-114.7-295.2c-10.46-28.32-20.77-56.7-30.95-85.12C265.76,51.76,256.09,54.36,258.27,60.44
			L258.27,60.44z"/>
	</g>
</g>
<g>
	<g>
		<path d="M149.23,363.5c9.79-27.16,19.59-54.33,29.38-81.49c9.53-26.44,18.74-53.1,31.58-78.17c-2.88,0-5.76,0-8.63,0
			c7.52,13.96,11.58,29.29,16.47,44.29c5.01,15.35,11.61,30.06,18.11,44.83c13.98,31.73,27.96,63.46,41.93,95.18
			c7.99,18.13,15.97,36.26,23.96,54.39c1.44-2.51,2.88-5.02,4.32-7.52c-18.07-0.17-36.13-0.35-54.2-0.52
			c-2.36-0.02-5.64,0.69-7.5-1.1c-1.05-1-1.53-4.36-1.98-5.66c-1.54-4.4-3.09-8.8-4.63-13.2c-3.09-8.8-6.17-17.6-9.26-26.4
			c-1.54-4.4-3.09-8.8-4.63-13.2c-1.3-3.72-2.25-8.27-4.41-11.59c-4.13-6.34-13.35-5-19.86-5.29c-18.5-0.83-37.01-1.65-55.51-2.48
			c-6.43-0.29-6.42,9.71,0,10c18.5,0.83,37.01,1.65,55.51,2.48c2.64,0.12,5.29,0.22,7.93,0.35c2.24,0.11,2.62-0.2,4.06,1.64
			c1.36,1.73,1.91,5.45,2.65,7.54c0.66,1.89,1.32,3.77,1.98,5.66c3.09,8.8,6.17,17.6,9.26,26.4c3.08,8.79,5.99,17.68,9.26,26.4
			c3.15,8.42,9.09,8.37,17.15,8.44c18.07,0.17,36.13,0.35,54.2,0.52c4.13,0.04,5.78-4.2,4.32-7.52
			c-13.98-31.73-27.96-63.46-41.93-95.18c-7.06-16.02-14.11-32.03-21.17-48.05c-6.72-15.26-13.77-30.42-19.06-46.25
			c-5.56-16.63-9.95-33.68-18.32-49.21c-1.73-3.2-6.94-3.31-8.63,0c-12.95,25.28-22.34,52.13-31.95,78.8
			c-10.01,27.75-20.01,55.5-30.02,83.26C137.4,366.9,147.06,369.52,149.23,363.5L149.23,363.5z"/>
	</g>
</g>
<g>
	<g>
		<path d="M18.14,377.83c1.42,1.42,3,2.69,4.68,3.78c0.66,0.43,1.69,0.15,2.05-0.54c0.4-0.75,0.16-1.59-0.54-2.05
			c-0.6-0.39-1.18-0.8-1.74-1.24c0.1,0.08,0.2,0.16,0.3,0.23c-0.92-0.72-1.8-1.49-2.63-2.31c-0.56-0.55-1.57-0.6-2.12,0
			C17.59,376.31,17.54,377.24,18.14,377.83L18.14,377.83z"/>
	</g>
</g>
<g>
	<g>
		<path d="M17.34,359.12c2.79,3.42,5.57,6.83,8.36,10.25c0.51,0.63,1.59,0.53,2.12,0c0.62-0.62,0.51-1.49,0-2.12
			c-2.79-3.42-5.57-6.83-8.36-10.25c-0.51-0.63-1.59-0.53-2.12,0C16.72,357.62,16.83,358.49,17.34,359.12L17.34,359.12z"/>
	</g>
</g>
<g>
	<g>
		<path d="M18.13,337.16c4.7,4.4,8.98,9.24,12.77,14.44c0.48,0.65,1.3,0.98,2.05,0.54c0.65-0.38,1.02-1.39,0.54-2.05
			c-3.94-5.42-8.35-10.47-13.24-15.05C18.85,333.72,16.72,335.84,18.13,337.16L18.13,337.16z"/>
	</g>
</g>
<g>
	<g>
		<path d="M19.37,313.41c4.83,6.78,10.09,13.25,15.76,19.34c1.32,1.42,3.44-0.71,2.12-2.12c-5.5-5.91-10.61-12.16-15.29-18.74
			c-0.47-0.66-1.31-0.97-2.05-0.54C19.25,311.74,18.89,312.75,19.37,313.41L19.37,313.41z"/>
	</g>
</g>
<g>
	<g>
		<path d="M19.78,290.04c3.46,3.86,6.2,8.32,9.43,12.36c3.34,4.18,6.97,8.12,10.6,12.05c1.31,1.42,3.43-0.7,2.12-2.12
			c-3.63-3.93-7.25-7.87-10.6-12.05c-3.24-4.05-5.97-8.49-9.43-12.36C20.61,286.48,18.5,288.6,19.78,290.04L19.78,290.04z"/>
	</g>
</g>
<g>
	<g>
		<path d="M19.48,263.79c5.39,5.65,10.79,11.3,16.18,16.95c2.64,2.76,5.28,5.53,7.92,8.29c2.38,2.49,4.74,5.7,7.92,7.21
			c1.73,0.82,3.26-1.76,1.51-2.59c-1.48-0.7-2.6-1.81-3.73-2.98c-1.31-1.37-2.62-2.75-3.93-4.12c-2.64-2.76-5.28-5.53-7.92-8.29
			c-5.28-5.53-10.56-11.06-15.84-16.59C20.26,260.27,18.14,262.39,19.48,263.79L19.48,263.79z"/>
	</g>
</g>
<g>
	<g>
		<path d="M19.46,238.16c10.71,15.06,25.2,26.57,39.65,37.84c1.5,1.17,3.64-0.93,2.12-2.12c-14.21-11.08-28.64-22.41-39.18-37.23
			C20.94,235.09,18.34,236.58,19.46,238.16L19.46,238.16z"/>
	</g>
</g>
<g>
	<g>
		<path d="M19.5,210.06c11.56,15.11,24.84,28.85,39.68,40.77c1.49,1.2,3.63-0.91,2.12-2.12c-14.62-11.75-27.81-25.27-39.21-40.16
			C20.93,207.03,18.33,208.52,19.5,210.06L19.5,210.06z"/>
	</g>
</g>
<g>
	<g>
		<path d="M21.35,178.87c12.42,12.8,25.51,24.94,39.22,36.35c3.88,3.22,7.8,6.38,11.77,9.49c1.5,1.18,3.64-0.93,2.12-2.12
			c-14.02-10.96-27.46-22.67-40.23-35.07c-3.64-3.53-7.23-7.12-10.76-10.77C22.13,175.36,20.01,177.48,21.35,178.87L21.35,178.87z"
			/>
	</g>
</g>
<g>
	<g>
		<path d="M18.45,144.31c18.22,14.98,36.75,29.59,55.58,43.8c5.29,3.99,10.6,7.95,15.93,11.88c1.56,1.15,3.05-1.46,1.51-2.59
			c-18.77-13.83-37.26-28.05-55.45-42.64c-5.18-4.16-10.33-8.35-15.46-12.56C19.09,140.98,16.96,143.09,18.45,144.31L18.45,144.31z"
			/>
	</g>
</g>
<g>
	<g>
		<path d="M23.96,116.96c5.04,3.84,9.4,8.5,14.12,12.71c4.4,3.93,8.97,7.66,13.58,11.33c9.27,7.36,18.75,14.49,27.45,22.53
			c4.9,4.53,9.53,9.36,13.69,14.58c1.2,1.51,3.31-0.63,2.12-2.12c-14.98-18.8-35.59-31.61-53.46-47.32
			c-5.37-4.72-10.29-9.96-15.99-14.3C23.94,113.2,22.44,115.8,23.96,116.96L23.96,116.96z"/>
	</g>
</g>
<g>
	<g>
		<path d="M22.2,88.37c5.58,2.69,9.74,7.34,13.75,11.92c4.2,4.8,8.54,9.35,13.46,13.42c9.76,8.06,20.72,14.43,31.38,21.19
			c6.06,3.84,12.04,7.82,17.64,12.32c1.49,1.2,3.63-0.91,2.12-2.12c-9.99-8.05-21.1-14.46-31.89-21.35
			c-5.44-3.47-10.81-7.08-15.85-11.12c-4.93-3.96-9.39-8.34-13.55-13.09c-4.56-5.21-9.19-10.69-15.55-13.76
			C21.99,84.94,20.46,87.53,22.2,88.37L22.2,88.37z"/>
	</g>
</g>
<g>
	<g>
		<path d="M41.92,71.72c15.98,16.49,33.2,31.75,51.49,45.62c5.18,3.93,10.46,7.74,15.81,11.44c1.59,1.1,3.09-1.5,1.51-2.59
			c-18.75-12.96-36.48-27.37-53.02-43.06c-4.65-4.41-9.21-8.93-13.67-13.53C42.69,68.21,40.57,70.33,41.92,71.72L41.92,71.72z"/>
	</g>
</g>
<g>
	<g>
		<path d="M76.76,72.13c4.3,0.91,7.26,4.67,10.26,7.58c3.35,3.23,6.84,6.31,10.47,9.22c7.24,5.81,14.99,10.97,23.17,15.37
			c1.7,0.91,3.22-1.67,1.51-2.59c-13.05-7.02-24.81-15.97-35.33-26.39c-2.65-2.62-5.53-5.29-9.29-6.09
			C75.67,68.84,74.87,71.73,76.76,72.13L76.76,72.13z"/>
	</g>
</g>
<g>
	<g>
		<path d="M102.86,71.66c2.27,0.23,4.25,1.67,5.98,3.05c2.15,1.72,4.27,3.49,6.4,5.24c4.31,3.53,8.62,7.06,12.93,10.59
			c1.48,1.21,3.62-0.9,2.12-2.12c-4.69-3.85-9.39-7.69-14.08-11.54c-3.92-3.21-8.04-7.69-13.35-8.22
			C100.94,68.46,100.95,71.46,102.86,71.66L102.86,71.66z"/>
	</g>
</g>
<g>
	<g>
		<path d="M122.28,70.83c1.89,0.64,3.33,2.6,4.56,4.2c1.75,2.27,3.5,4.55,5.25,6.82c0.49,0.64,1.29,0.98,2.05,0.54
			c0.63-0.37,1.04-1.41,0.54-2.05c-1.88-2.45-3.77-4.89-5.65-7.34c-1.63-2.11-3.35-4.18-5.96-5.06c-0.77-0.26-1.64,0.3-1.85,1.05
			C121.01,69.8,121.51,70.57,122.28,70.83L122.28,70.83z"/>
	</g>
</g>
<g>
	<g>
		<path d="M137.17,66.46c0.24,0.26,0.47,0.52,0.69,0.79c0.11,0.13,0.21,0.25,0.31,0.38c0.05,0.06,0.1,0.13,0.15,0.19
			c0.14,0.17-0.14-0.19-0.01-0.01c0.42,0.56,0.82,1.14,1.2,1.73c0.36,0.58,0.7,1.18,1.01,1.79c0.15,0.3,0.3,0.6,0.44,0.9
			c0.08,0.17,0.15,0.34,0.23,0.52c0.09,0.21-0.09-0.22-0.01-0.01c0.04,0.1,0.08,0.19,0.12,0.29c0.29,0.73,1.01,1.32,1.85,1.05
			c0.7-0.23,1.36-1.07,1.05-1.85c-1.16-2.91-2.79-5.58-4.91-7.89c-0.53-0.58-1.59-0.58-2.12,0C136.6,64.96,136.6,65.84,137.17,66.46
			L137.17,66.46z"/>
	</g>
</g>
<g>
	<g>
		<path d="M399.65,397.09c1.63-4.11,3.54-8.11,5.7-11.97c0.94-1.69-1.65-3.2-2.59-1.51c-2.29,4.09-4.28,8.33-6,12.68
			c-0.3,0.75,0.33,1.65,1.05,1.85C398.65,398.37,399.35,397.84,399.65,397.09L399.65,397.09z"/>
	</g>
</g>
<g>
	<g>
		<path d="M396.37,380.32c3.55-6.25,7.1-12.51,10.66-18.76c0.95-1.68-1.64-3.19-2.59-1.51c-3.55,6.25-7.1,12.51-10.66,18.76
			C392.82,380.49,395.41,382,396.37,380.32L396.37,380.32z"/>
	</g>
</g>
<g>
	<g>
		<path d="M389.58,360c-0.07-1.18,0.49-2.09,1.08-3.07c0.69-1.14,1.39-2.27,2.09-3.4c1.35-2.2,2.7-4.4,4.05-6.59
			c2.74-4.47,5.48-8.93,8.22-13.4c1.01-1.65-1.58-3.16-2.59-1.51c-2.92,4.75-5.83,9.5-8.75,14.25c-1.44,2.34-2.87,4.68-4.31,7.02
			c-1.25,2.04-2.94,4.19-2.8,6.71C386.69,361.92,389.69,361.94,389.58,360L389.58,360z"/>
	</g>
</g>
<g>
	<g>
		<path d="M380.98,335.95c6.75-8.1,13.11-16.53,19.04-25.25c1.09-1.6-1.51-3.1-2.59-1.51c-5.79,8.51-11.98,16.74-18.57,24.64
			C377.63,335.3,379.74,337.43,380.98,335.95L380.98,335.95z"/>
	</g>
</g>
<g>
	<g>
		<path d="M375.86,311.34c1.93-3.33,4.75-5.98,7.33-8.79c2.69-2.92,5.29-5.93,7.8-9c5.04-6.16,9.73-12.6,14.06-19.28
			c1.05-1.63-1.54-3.13-2.59-1.51c-4.36,6.72-9.07,13.21-14.17,19.39c-2.53,3.06-5.14,6.05-7.84,8.96
			c-2.57,2.77-5.28,5.44-7.18,8.73C372.3,311.5,374.89,313.01,375.86,311.34L375.86,311.34z"/>
	</g>
</g>
<g>
	<g>
		<path d="M366.37,287.51c12.98-11.09,24.13-24.22,33.14-38.71c1.02-1.64-1.57-3.15-2.59-1.51c-8.88,14.28-19.88,27.17-32.67,38.1
			C362.78,286.65,364.91,288.76,366.37,287.51L366.37,287.51z"/>
	</g>
</g>
<g>
	<g>
		<path d="M353.77,266.61c4.56-6.08,10.48-10.96,16.43-15.63c6.73-5.27,13.48-10.5,20.23-15.75c3.84-2.99,7.69-5.99,11.53-8.98
			c1.52-1.18-0.62-3.29-2.12-2.12c-6.9,5.38-13.81,10.75-20.71,16.13c-6.42,5-13.04,9.82-19.09,15.26
			c-3.24,2.92-6.23,6.08-8.85,9.57C350.02,266.64,352.63,268.14,353.77,266.61L353.77,266.61z"/>
	</g>
</g>
<g>
	<g>
		<path d="M344.35,236.69c14.03-11.48,28.35-22.59,42.96-33.32c4.16-3.05,8.34-6.07,12.54-9.06c1.56-1.11,0.06-3.71-1.51-2.59
			c-14.9,10.6-29.51,21.59-43.83,32.96c-4.12,3.27-8.21,6.57-12.28,9.89C340.73,235.79,342.86,237.9,344.35,236.69L344.35,236.69z"
			/>
	</g>
</g>
<g>
	<g>
		<path d="M334.35,206.27c0.75-2.51,3.61-3.73,5.72-4.9c2.63-1.46,5.3-2.84,8-4.18c5.52-2.75,11.13-5.31,16.7-7.96
			c10.09-4.8,20.08-9.95,28.97-16.78c4.91-3.77,9.43-7.99,13.34-12.8c1.21-1.49-0.9-3.62-2.12-2.12
			c-15.01,18.46-37.74,26.79-58.4,37.07c-3.12,1.55-6.21,3.16-9.24,4.87c-2.53,1.43-4.97,3.08-5.85,6
			C330.9,207.33,333.79,208.12,334.35,206.27L334.35,206.27z"/>
	</g>
</g>
<g>
	<g>
		<path d="M323.64,181.62c18.73-14.27,38.25-27.48,58.48-39.53c5.69-3.39,11.43-6.68,17.23-9.88c1.69-0.93,0.18-3.53-1.51-2.59
			c-20.57,11.36-40.49,23.9-59.62,37.54c-5.43,3.87-10.79,7.82-16.09,11.86C320.61,180.18,322.1,182.79,323.64,181.62L323.64,181.62
			z"/>
	</g>
</g>
<g>
	<g>
		<path d="M312.21,153.17c11.23-9.63,24.21-16.82,36.57-24.86c6.29-4.09,12.29-8.49,18.07-13.28c2.85-2.36,5.73-4.66,8.84-6.68
			c2.72-1.76,5.53-3.37,8.31-5.01c6.33-3.73,12.48-7.79,16.91-13.76c1.15-1.55-1.45-3.05-2.59-1.51c-3.87,5.2-9.34,8.81-14.84,12.09
			c-5.88,3.51-11.65,6.93-16.97,11.27c-5.83,4.75-11.69,9.31-17.98,13.45c-6.12,4.03-12.4,7.81-18.57,11.76
			c-6.9,4.42-13.66,9.08-19.89,14.42C308.62,152.31,310.75,154.43,312.21,153.17L312.21,153.17z"/>
	</g>
</g>
<g>
	<g>
		<path d="M303.78,121.54c9.91-8.92,20.99-15.98,32.75-22.2c12.03-6.37,24.1-12.66,35.93-19.4c6.71-3.82,13.35-7.76,19.91-11.82
			c1.64-1.01,0.13-3.61-1.51-2.59c-11.75,7.27-23.76,14.13-35.92,20.7c-11.93,6.45-24.34,12.22-35.71,19.65
			c-6.2,4.05-12.07,8.6-17.57,13.55C300.23,120.71,302.35,122.83,303.78,121.54L303.78,121.54z"/>
	</g>
</g>
<g>
	<g>
		<path d="M295.12,93.52c10.91-11.05,22.72-21.2,35.32-30.26c1.55-1.12,0.06-3.72-1.51-2.59c-12.82,9.22-24.84,19.5-35.93,30.73
			C291.64,92.77,293.76,94.9,295.12,93.52L295.12,93.52z"/>
	</g>
</g>
<g>
	<g>
		<path d="M281.16,73.94c4.7-3.71,9.03-7.86,12.95-12.38c0.53-0.61,0.6-1.52,0-2.12c-0.54-0.54-1.59-0.61-2.12,0
			c-3.92,4.52-8.26,8.67-12.95,12.38c-0.64,0.5-0.53,1.6,0,2.12C279.67,74.57,280.52,74.44,281.16,73.94L281.16,73.94z"/>
	</g>
</g>
<g>
	<g>
		<path d="M289.45,79.73c5.58-4.35,10.84-9.09,15.75-14.18c1.34-1.39-0.78-3.51-2.12-2.12c-4.91,5.09-10.17,9.83-15.75,14.18
			c-0.64,0.5-0.52,1.6,0,2.12C287.96,80.36,288.81,80.23,289.45,79.73L289.45,79.73z"/>
	</g>
</g>
<g>
	<g>
		<path d="M273.94,64.98c0.36-0.1,0.73-0.26,1.05-0.47c0.32-0.22,0.64-0.47,0.89-0.77c0.25-0.31,0.48-0.62,0.64-0.98
			c0.1-0.23,0.21-0.47,0.28-0.72c0.07-0.26,0.1-0.53,0.13-0.79c0.01-0.21-0.04-0.4-0.13-0.58c-0.06-0.19-0.16-0.35-0.31-0.48
			c-0.26-0.26-0.69-0.46-1.06-0.44c-0.39,0.02-0.79,0.14-1.06,0.44c-0.08,0.1-0.16,0.2-0.23,0.3c-0.14,0.23-0.2,0.49-0.2,0.76
			c0,0.02-0.01,0.04-0.01,0.07c0.02-0.13,0.04-0.27,0.05-0.4c-0.03,0.23-0.1,0.46-0.19,0.67c0.05-0.12,0.1-0.24,0.15-0.36
			c-0.1,0.22-0.22,0.43-0.36,0.63c0.08-0.1,0.16-0.2,0.23-0.3c-0.15,0.19-0.31,0.36-0.5,0.51c0.1-0.08,0.2-0.16,0.3-0.23
			c-0.17,0.13-0.35,0.24-0.55,0.32c0.12-0.05,0.24-0.1,0.36-0.15c-0.09,0.04-0.18,0.07-0.27,0.09c-0.36,0.1-0.7,0.36-0.9,0.69
			c-0.19,0.32-0.27,0.8-0.15,1.16c0.12,0.36,0.34,0.71,0.69,0.9C273.14,65.01,273.55,65.09,273.94,64.98L273.94,64.98z"/>
	</g>
</g>
<g>
	<g>
		<path d="M202.72,230.01c0.08-0.12,0.17-0.23,0.25-0.35c0.15-0.21-0.17,0.21-0.05,0.07c0.05-0.06,0.09-0.11,0.13-0.17
			c0.17-0.21,0.35-0.41,0.54-0.61c0.19-0.19,0.38-0.38,0.58-0.56c0.1-0.09,0.21-0.19,0.32-0.28c0.09-0.08,0.48-0.36,0.09-0.08
			c0.43-0.31,0.87-0.61,1.34-0.87c0.24-0.13,0.49-0.26,0.75-0.37c0.05-0.02,0.1-0.04,0.15-0.07c-0.39,0.18-0.18,0.08-0.09,0.04
			c0.14-0.06,0.28-0.11,0.43-0.16c0.74-0.26,1.31-1.04,1.05-1.85c-0.24-0.73-1.05-1.32-1.85-1.05c-2.56,0.89-4.69,2.57-6.23,4.79
			c-0.45,0.65-0.14,1.69,0.54,2.05C201.43,230.95,202.24,230.7,202.72,230.01L202.72,230.01z"/>
	</g>
</g>
<g>
	<g>
		<path d="M196.88,245.43c4.87-4.21,9.73-8.42,14.6-12.63c0.61-0.53,0.54-1.58,0-2.12c-0.61-0.61-1.51-0.53-2.12,0
			c-4.87,4.21-9.73,8.42-14.6,12.63c-0.61,0.53-0.54,1.58,0,2.12C195.37,246.04,196.27,245.96,196.88,245.43L196.88,245.43z"/>
	</g>
</g>
<g>
	<g>
		<path d="M186.17,271.54c7.48-8.16,15.46-15.85,23.9-23.02c1.47-1.25-0.66-3.36-2.12-2.12c-8.44,7.17-16.41,14.86-23.9,23.02
			C182.75,270.84,184.87,272.97,186.17,271.54L186.17,271.54z"/>
	</g>
</g>
<g>
	<g>
		<path d="M178.12,294.8c13.26-10.14,25.28-21.79,35.83-34.72c1.21-1.48-0.9-3.62-2.12-2.12c-10.38,12.72-22.18,24.28-35.22,34.25
			C175.09,293.36,176.58,295.97,178.12,294.8L178.12,294.8z"/>
	</g>
</g>
<g>
	<g>
		<path d="M173.74,314.74c12.96-9.53,26.04-19.17,36.82-31.22c3.28-3.66,6.27-7.56,9.27-11.45c0.5-0.65,0.09-1.67-0.54-2.05
			c-0.77-0.46-1.56-0.1-2.05,0.54c-5.03,6.55-10.27,12.81-16.26,18.51c-5.7,5.42-11.82,10.38-18.08,15.15
			c-3.53,2.68-7.1,5.31-10.67,7.94C170.69,313.28,172.19,315.89,173.74,314.74L173.74,314.74z"/>
	</g>
</g>
<g>
	<g>
		<path d="M169.13,331.93c16.5-8.22,32.01-18.37,46.22-30.11c4.06-3.35,8-6.84,11.84-10.45c1.41-1.33-0.71-3.44-2.12-2.12
			c-13.35,12.55-28.08,23.6-43.92,32.81c-4.43,2.57-8.94,5-13.52,7.28C165.89,330.2,167.41,332.79,169.13,331.93L169.13,331.93z"/>
	</g>
</g>
<g>
	<g>
		<path d="M164.85,350.17c10.25-5.03,20.5-10.05,30.75-15.08c9.17-4.5,18.64-8.67,27.32-14.07c4.69-2.92,9.11-6.28,12.93-10.28
			c1.33-1.4-0.78-3.52-2.12-2.12c-6.73,7.04-15.25,11.82-23.88,16.14c-9.75,4.88-19.57,9.61-29.36,14.41
			c-5.72,2.8-11.44,5.61-17.16,8.41C161.6,348.43,163.12,351.01,164.85,350.17L164.85,350.17z"/>
	</g>
</g>
<g>
	<g>
		<path d="M194.14,354.79c15.87-9.9,31.48-20.22,46.81-30.95c1.57-1.1,0.07-3.7-1.51-2.59c-15.33,10.73-30.93,21.05-46.81,30.95
			C190.99,353.21,192.5,355.81,194.14,354.79L194.14,354.79z"/>
	</g>
</g>
<g>
	<g>
		<path d="M225.89,362.14c7.98-5.4,15.79-11.04,23.44-16.9c0.65-0.5,0.97-1.29,0.54-2.05c-0.36-0.64-1.41-1.03-2.05-0.54
			c-7.65,5.86-15.46,11.5-23.44,16.9C222.78,360.63,224.28,363.23,225.89,362.14L225.89,362.14z"/>
	</g>
</g>
<g>
	<g>
		<path d="M235.73,383.79c8.49-6.69,16.45-14.04,23.81-21.97c1.31-1.41-0.8-3.54-2.12-2.12c-7.36,7.92-15.31,15.27-23.81,21.97
			C232.1,382.86,234.23,384.97,235.73,383.79L235.73,383.79z"/>
	</g>
</g>
<g>
	<g>
		<path d="M246.18,402.76c7.37-6.63,14.75-13.26,22.12-19.9c1.44-1.29-0.69-3.41-2.12-2.12c-7.37,6.63-14.75,13.26-22.12,19.9
			C242.62,401.93,244.74,404.05,246.18,402.76L246.18,402.76z"/>
	</g>
</g>
<g>
	<g>
		<path d="M251.39,420.49c8.92-6.64,17.08-14.23,24.34-22.66c1.25-1.46-0.86-3.59-2.12-2.12c-7.08,8.22-15.02,15.7-23.73,22.19
			C248.34,419.04,249.84,421.65,251.39,420.49L251.39,420.49z"/>
	</g>
</g>
<g>
	<g>
		<path d="M265.85,428.38c5.39-4.83,10.09-10.41,14.01-16.49c1.05-1.63-1.55-3.13-2.59-1.51c-3.79,5.87-8.34,11.21-13.54,15.88
			C262.29,427.55,264.42,429.67,265.85,428.38L265.85,428.38z"/>
	</g>
</g>
<g>
	<g>
		<path d="M283.1,432.28c2.21-2.3,4.21-4.8,6-7.44c0.44-0.65,0.15-1.69-0.54-2.05c-0.76-0.4-1.58-0.16-2.05,0.54
			c-0.42,0.62-0.85,1.23-1.29,1.83c-0.12,0.16-0.24,0.32-0.35,0.47c-0.05,0.07-0.11,0.14-0.16,0.21c-0.02,0.02-0.18,0.24-0.08,0.11
			c0.11-0.15-0.1,0.13-0.12,0.16c-0.05,0.07-0.11,0.14-0.16,0.21c-0.12,0.15-0.25,0.31-0.37,0.46c-0.95,1.17-1.94,2.3-2.98,3.39
			c-0.54,0.57-0.61,1.57,0,2.12C281.56,432.82,282.52,432.89,283.1,432.28L283.1,432.28z"/>
	</g>
</g>
</svg>
