<?xml version="1.0" encoding="utf-8"?>
<!-- Generator: Adobe Illustrator 24.0.2, SVG Export Plug-In . SVG Version: 6.00 Build 0)  -->
<svg version="1.1" id="Capa_1" xmlns="http://www.w3.org/2000/svg" xmlns:xlink="http://www.w3.org/1999/xlink" x="0px" y="0px"
	 viewBox="0 0 420 478" style="enable-background:new 0 0 420 478;" xml:space="preserve">
<g>
	<g>
		<path d="M15.73,342.05c-0.58-47.3-1.16-94.6-1.73-141.9c-0.27-22.41-2.7-46.62,3.13-68.52c2.98-11.2,9.6-17.55,19.26-23.42
			c8.91-5.42,18.09-10.38,27.37-15.12c18.85-9.63,38.15-18.35,56.87-28.24c18.1-9.56,34.48-21.24,51.66-32.27
			c16.34-10.49,34.33-18.48,53.98-13.12c19.07,5.2,34.69,18.85,50.25,30.37c19.97,14.8,40.95,28.25,62.73,40.23
			c19.47,10.71,41.52,19.13,56.5,36.2c4.25,4.85,11.3-2.25,7.07-7.07c-13.77-15.7-33.06-24.18-51.14-33.77
			c-20.59-10.92-40.48-23.15-59.53-36.58c-17.03-12-32.99-26.59-52.23-35.04c-18.54-8.14-37.39-7.65-55.75,0.69
			c-18.96,8.61-35.05,22.59-52.96,33.07c-19.3,11.29-39.63,20.65-59.68,30.5c-9.63,4.73-19.21,9.57-28.58,14.79
			c-9.17,5.1-19.65,10.26-26.6,18.34c-6.73,7.84-9.4,18.03-10.85,28.04c-1.68,11.65-1.89,23.38-1.79,35.13
			c0.47,55.9,1.36,111.8,2.04,167.7C5.81,348.48,15.81,348.49,15.73,342.05L15.73,342.05z"/>
	</g>
</g>
<g>
	<g>
		<path d="M17.9,359.05c33.48,26.66,68.79,50.95,105.81,72.43c17.87,10.37,36.18,21.42,55.79,28.2c9.53,3.29,19.82,5.38,29.94,4.57
			c10.32-0.83,19.67-4.68,28.58-9.79c19.6-11.25,38.67-23.55,57.96-35.33c19.81-12.11,39.61-24.21,59.42-36.32
			c9.43-5.76,18.97-11.37,28.27-17.33c7.22-4.63,14.27-9.92,19-17.21c5.26-8.11,5.87-17.76,5.23-27.15
			c-0.77-11.38-1.09-22.07,0.83-33.4c4.18-24.71,8.62-48.86,9.18-74.01c0.56-25.21-1.72-50.41-6.5-75.16
			c-1.22-6.31-10.86-3.64-9.64,2.66c8.13,42.07,8.31,85.56,0.37,127.68c-1.87,9.93-4.05,19.84-4.85,29.93
			c-0.83,10.49,1.41,20.83,0.81,31.28c-1.12,19.57-22.13,28.42-36.7,37.33c-37.07,22.65-74.13,45.31-111.2,67.96
			c-8.82,5.39-17.57,11.52-27.16,15.46c-9.48,3.9-19.69,4.4-29.67,2.32c-19.7-4.1-37.67-15.08-55.01-24.84
			c-39.75-22.38-77.7-47.93-113.38-76.35C19.99,348.01,12.87,355.04,17.9,359.05L17.9,359.05z"/>
	</g>
</g>
<g>
	<g>
		<path d="M273.17,194.16c-15.2-24.7-44.6-40.14-73.69-37.16c-28.58,2.93-54.07,22.44-64.62,49.13
			c-10.7,27.09-3.69,59.79,16.1,80.92c21.32,22.76,61.13,34.17,90.49,21.79c7.41-3.12,14.09-7.94,19.07-14.28
			c2.56-3.25,4.57-6.75,6.07-10.61c0.57-1.46,0.93-4.58,2.63-5.08c1.45-0.42,5.09,2.31,6.4,2.99
			c19.86,10.33,39.71,20.65,59.57,30.98c-0.6-2.28-1.2-4.56-1.79-6.84c-25.69,47.45-79.87,69.03-131.48,72.09
			c-13.94,0.83-27.85,0.06-41.2-4.28c-13.25-4.31-25.41-11.46-37.18-18.78c-22.52-14.01-41.95-30.57-51.16-56.2
			c-4.56-12.71-7.17-26.04-9.63-39.28c-2.54-13.63-4.48-27.33-3.64-41.23c1.48-24.33,10.76-47.75,24.54-67.69
			c27.98-40.51,76.24-66.58,125.58-66.79c51.09-0.21,101.63,30.58,120.98,78.62c0.77-1.88,1.53-3.76,2.3-5.65
			c-20.87,14.18-42.53,27.11-64.9,38.76c-5.71,2.97-0.66,11.61,5.05,8.63c22.38-11.65,44.04-24.59,64.9-38.76
			c1.67-1.13,3.15-3.54,2.3-5.65c-18.29-45.39-61.76-77.86-110.05-84.54C177.31,68,122.62,90.08,87.65,129.47
			c-17.45,19.66-30.53,43.66-35.92,69.49c-5.97,28.58-0.76,57.84,6.09,85.82c3.39,13.84,8.14,27.67,16.12,39.59
			c7.19,10.73,16.59,19.56,26.85,27.3c22.79,17.2,49.68,33.17,78.54,36.13c16.94,1.73,34.36-0.12,51.05-3.14
			c16.32-2.95,32.27-7.8,47.32-14.81c26.78-12.48,50.21-32.65,64.36-58.78c1.24-2.29,0.67-5.56-1.79-6.84
			c-15.77-8.2-31.54-16.4-47.31-24.6c-6.71-3.49-14.27-9.01-21.76-10.49c-7.07-1.4-11.09,3.41-13.28,9.45
			c-11.34,31.31-53.58,28.68-78.39,16.84c-25.54-12.19-41.16-38.2-39.52-66.55c1.54-26.71,20.85-50.34,46.01-58.81
			c29.2-9.83,62.5,3.09,78.54,29.16C267.91,204.68,276.56,199.66,273.17,194.16L273.17,194.16z"/>
	</g>
</g>
<g>
	<g>
		<path d="M297.24,222.34c21.89,1.77,43.83,2.4,65.79,1.89c6.42-0.15,6.45-10.15,0-10c-21.95,0.51-43.9-0.11-65.79-1.89
			C290.83,211.82,290.86,221.82,297.24,222.34L297.24,222.34z"/>
	</g>
</g>
<g>
	<g>
		<path d="M297.22,255.53c13.55-0.22,27.1-0.29,40.65-0.2c6.61,0.05,13.22,0.13,19.83,0.25c4.56,0.09,11.6,1.82,15.28-1.59
			c1.99-1.84,1.85-5.21,0-7.07c-0.09-0.09-0.17-0.17-0.26-0.26c-1.92-1.93-5.14-1.88-7.07,0c-0.06,0.06-0.13,0.12-0.19,0.19
			c-4.61,4.5,2.46,11.57,7.07,7.07c0.06-0.06,0.13-0.12,0.19-0.19c-2.36,0-4.71,0-7.07,0c0.09,0.09,0.17,0.17,0.26,0.26
			c0-2.36,0-4.71,0-7.07c-0.11,0.1-0.22,0.2-0.33,0.3c1.18-0.49,2.36-0.98,3.54-1.46c-5.28,0.62-11.05-0.18-16.37-0.26
			c-6.28-0.1-12.56-0.16-18.84-0.19c-12.23-0.06-24.46,0.02-36.68,0.22C290.79,245.63,290.77,255.63,297.22,255.53L297.22,255.53z"
			/>
	</g>
</g>
<g>
	<g>
		<path d="M312.25,203.06c-0.94,22.09-1.19,44.2-0.74,66.31c0.13,6.43,10.13,6.45,10,0c-0.45-22.11-0.2-44.21,0.74-66.31
			C322.52,196.63,312.52,196.64,312.25,203.06L312.25,203.06z"/>
	</g>
</g>
<g>
	<g>
		<path d="M345.7,203.71c-3.1,22.29-2.82,44.57,0.93,66.76c1.07,6.33,10.71,3.65,9.64-2.66c-3.42-20.28-3.76-41.07-0.93-61.45
			C356.22,200.07,346.58,197.35,345.7,203.71L345.7,203.71z"/>
	</g>
</g>
<g>
	<g>
		<path d="M23.08,346.77c0.18,0.58,0.33,1.18,0.45,1.78c0.03,0.14,0.05,0.28,0.08,0.42c0.02,0.09,0.03,0.19,0.04,0.28
			c0.02,0.16,0.03,0.19,0.01,0.08c-0.01-0.11-0.01-0.08,0.01,0.08c0.01,0.09,0.02,0.19,0.03,0.28c0.01,0.14,0.03,0.28,0.04,0.42
			c0.04,0.61,0.06,1.22,0.03,1.83c-0.01,0.28-0.03,0.56-0.05,0.84c-0.01,0.14-0.03,0.28-0.04,0.42c-0.02,0.18-0.02,0.19,0,0.02
			c-0.01,0.09-0.03,0.19-0.04,0.28c-0.12,0.77,0.19,1.65,1.05,1.85c0.72,0.16,1.72-0.22,1.85-1.05c0.43-2.79,0.28-5.62-0.56-8.32
			c-0.23-0.75-1.06-1.3-1.85-1.05C23.38,345.16,22.83,345.96,23.08,346.77L23.08,346.77z"/>
	</g>
</g>
<g>
	<g>
		<path d="M29.75,345.3c0.76,4.79,1.7,9.56,2.83,14.28c0.45,1.88,3.34,1.08,2.89-0.8c-1.13-4.72-2.07-9.48-2.83-14.28
			c-0.13-0.8-1.13-1.25-1.85-1.05C29.95,343.69,29.63,344.5,29.75,345.3L29.75,345.3z"/>
	</g>
</g>
<g>
	<g>
		<path d="M41.49,337.51c1.53,9.05,3.24,18.07,5.11,27.05c0.39,1.89,3.29,1.09,2.89-0.8c-1.87-8.99-3.58-18.01-5.11-27.05
			C44.06,334.82,41.17,335.62,41.49,337.51L41.49,337.51z"/>
	</g>
</g>
<g>
	<g>
		<path d="M51.65,327.62c1.59,14.81,3.54,29.57,5.86,44.28c0.3,1.9,3.19,1.09,2.89-0.8c-2.28-14.44-4.2-28.94-5.76-43.48
			C54.44,325.72,51.44,325.7,51.65,327.62L51.65,327.62z"/>
	</g>
</g>
<g>
	<g>
		<path d="M62.57,329.5c3.88,14.85,2.62,30.44,6.03,45.37c0.95,4.15,2.3,8.19,4.12,12.04c0.82,1.74,3.41,0.22,2.59-1.51
			c-6.5-13.76-5.78-29.42-7.58-44.19c-0.51-4.21-1.2-8.39-2.28-12.5C64.97,326.84,62.08,327.63,62.57,329.5L62.57,329.5z"/>
	</g>
</g>
<g>
	<g>
		<path d="M77.31,342.64c3.11,18.38,8.77,36.25,16.75,53.09c0.83,1.74,3.41,0.22,2.59-1.51c-7.86-16.6-13.38-34.27-16.44-52.38
			C79.88,339.94,76.99,340.75,77.31,342.64L77.31,342.64z"/>
	</g>
</g>
<g>
	<g>
		<path d="M97.19,357.94c2.81,18.14,5.76,36.48,13.56,53.26c0.81,1.75,3.4,0.23,2.59-1.51c-7.68-16.51-10.5-34.7-13.26-52.54
			C99.79,355.24,96.9,356.05,97.19,357.94L97.19,357.94z"/>
	</g>
</g>
<g>
	<g>
		<path d="M114.22,368.6c1.5,14.74,5.68,29.08,12.36,42.31c0.87,1.72,3.46,0.21,2.59-1.51c-6.42-12.73-10.5-26.61-11.95-40.8
			C117.03,366.7,114.03,366.68,114.22,368.6L114.22,368.6z"/>
	</g>
</g>
<g>
	<g>
		<path d="M131.54,383.52c3.25,14.13,6.52,28.3,11.63,41.89c0.67,1.79,3.57,1.01,2.89-0.8c-5.11-13.6-8.39-27.76-11.63-41.89
			C134.01,380.84,131.11,381.64,131.54,383.52L131.54,383.52z"/>
	</g>
</g>
<g>
	<g>
		<path d="M147.55,388.7c2.43,14.65,7.78,28.8,15.64,41.4c2.22,3.55,4.64,6.95,7.23,10.24c1.19,1.52,3.3-0.62,2.12-2.12
			c-8.9-11.31-15.52-24.4-19.42-38.24c-1.12-3.97-2.01-8-2.68-12.07C150.13,386,147.24,386.81,147.55,388.7L147.55,388.7z"/>
	</g>
</g>
<g>
	<g>
		<path d="M169.17,393.46c0.44,4.73,1.55,9.33,2.85,13.89c1.22,4.28,2.47,8.55,3.87,12.78c2.67,8.1,6.06,15.97,11.41,22.68
			c1.2,1.51,3.31-0.63,2.12-2.12c-5.09-6.39-8.25-14.05-10.77-21.76c-1.29-3.94-2.46-7.93-3.6-11.91
			c-1.28-4.44-2.44-8.93-2.87-13.55C171.99,391.55,168.99,391.53,169.17,393.46L169.17,393.46z"/>
	</g>
</g>
<g>
	<g>
		<path d="M191.59,398.5c3.64,15.51,7.49,31.47,16.67,44.78c1.09,1.58,3.69,0.08,2.59-1.51c-9.04-13.11-12.78-28.79-16.37-44.07
			C194.04,395.83,191.15,396.62,191.59,398.5L191.59,398.5z"/>
	</g>
</g>
<g>
	<g>
		<path d="M210.22,399.29c-0.04,6.97,3.14,13.8,5.66,20.16c2.61,6.6,5.47,13.1,8.57,19.49c0.84,1.74,3.43,0.22,2.59-1.51
			c-2.98-6.16-5.75-12.42-8.27-18.78c-1.23-3.12-2.43-6.26-3.53-9.43c-1.12-3.22-2.04-6.5-2.03-9.94
			C213.23,397.36,210.23,397.36,210.22,399.29L210.22,399.29z"/>
	</g>
</g>
<g>
	<g>
		<path d="M221,400.51c3.24,11.2,7.57,22.07,12.92,32.43c0.89,1.72,3.48,0.2,2.59-1.51c-5.23-10.14-9.45-20.75-12.62-31.71
			C223.36,397.86,220.46,398.64,221,400.51L221,400.51z"/>
	</g>
</g>
<g>
	<g>
		<path d="M234.69,392.3c3.8,12.38,8.33,24.53,13.52,36.39c0.77,1.76,3.36,0.24,2.59-1.51c-5.09-11.63-9.49-23.54-13.21-35.68
			C237.02,389.67,234.13,390.45,234.69,392.3L234.69,392.3z"/>
	</g>
</g>
<g>
	<g>
		<path d="M254.34,386.89c5.71,12.44,13.17,24.01,22.1,34.38c1.26,1.47,3.38-0.66,2.12-2.12c-8.76-10.18-16.03-21.57-21.63-33.77
			C256.12,383.63,253.54,385.15,254.34,386.89L254.34,386.89z"/>
	</g>
</g>
<g>
	<g>
		<path d="M274.19,383.92c3.92,7.89,8.4,15.49,13.42,22.73c1.09,1.58,3.69,0.08,2.59-1.51c-5.02-7.24-9.5-14.84-13.42-22.73
			C275.92,380.67,273.33,382.19,274.19,383.92L274.19,383.92z"/>
	</g>
</g>
<g>
	<g>
		<path d="M285.15,370.74c6.54,9.05,13.09,18.09,19.63,27.14c1.12,1.55,3.72,0.05,2.59-1.51c-6.54-9.05-13.09-18.09-19.63-27.14
			C286.62,367.68,284.01,369.17,285.15,370.74L285.15,370.74z"/>
	</g>
</g>
<g>
	<g>
		<path d="M301.34,362.38c6.59,6.58,12.64,13.67,18.07,21.24c1.12,1.55,3.72,0.06,2.59-1.51c-5.58-7.77-11.77-15.09-18.54-21.85
			C302.09,358.89,299.97,361.01,301.34,362.38L301.34,362.38z"/>
	</g>
</g>
<g>
	<g>
		<path d="M315.14,354.66c4.89,7.63,10.84,14.55,17.69,20.48c1.45,1.26,3.58-0.85,2.12-2.12c-6.66-5.77-12.47-12.45-17.22-19.88
			C316.69,351.52,314.09,353.02,315.14,354.66L315.14,354.66z"/>
	</g>
</g>
<g>
	<g>
		<path d="M330.3,342.68c2.36,1.67,4.28,3.86,6.16,6.04c1.87,2.16,3.76,4.27,5.81,6.27c4.15,4.04,8.73,7.64,13.61,10.74
			c1.63,1.04,3.14-1.56,1.51-2.59c-4.93-3.13-9.5-6.77-13.63-10.89c-4.02-4-7.28-8.85-11.95-12.15
			C330.24,338.97,328.73,341.57,330.3,342.68L330.3,342.68z"/>
	</g>
</g>
<g>
	<g>
		<path d="M341.85,327.7c10.93,10.14,23.3,18.67,36.69,25.24c1.73,0.85,3.25-1.74,1.51-2.59c-13.16-6.46-25.33-14.8-36.08-24.77
			C342.55,324.27,340.43,326.39,341.85,327.7L341.85,327.7z"/>
	</g>
</g>
<g>
	<g>
		<path d="M156.48,262.85c1.67,4.93,3.33,9.86,5,14.79c0.62,1.82,3.51,1.04,2.89-0.8c-1.67-4.93-3.33-9.86-5-14.79
			C158.75,260.23,155.86,261.01,156.48,262.85L156.48,262.85z"/>
	</g>
</g>
<g>
	<g>
		<path d="M165.31,261.85c0.63,0.21,0.89,1.3,1.1,1.85c0.39,1.05,0.78,2.11,1.17,3.17c0.73,1.96,1.45,3.92,2.18,5.88
			c1.51,4.07,3.01,8.14,4.52,12.21c0.66,1.79,3.57,1.02,2.89-0.8c-1.73-4.67-3.46-9.35-5.19-14.02c-0.84-2.26-1.67-4.52-2.51-6.79
			c-0.68-1.85-1.33-3.72-3.36-4.4C164.27,258.35,163.49,261.24,165.31,261.85L165.31,261.85z"/>
	</g>
</g>
<g>
	<g>
		<path d="M175.35,257.77c4.34,11.55,10.08,22.51,17.16,32.61c1.1,1.57,3.7,0.07,2.59-1.51c-6.93-9.88-12.62-20.6-16.86-31.9
			C177.57,255.18,174.67,255.96,175.35,257.77L175.35,257.77z"/>
	</g>
</g>
<g>
	<g>
		<path d="M189.9,249.46c9.31,15.26,19.83,29.77,31.42,43.38c1.25,1.47,3.37-0.66,2.12-2.12c-11.43-13.42-21.78-27.73-30.95-42.78
			C191.49,246.3,188.9,247.81,189.9,249.46L189.9,249.46z"/>
	</g>
</g>
<g>
	<g>
		<path d="M210.46,248.68c7.34,13.52,17.08,25.71,28.66,35.83c1.45,1.27,3.58-0.85,2.12-2.12c-11.41-9.97-20.97-21.9-28.19-35.23
			C212.13,245.47,209.54,246.98,210.46,248.68L210.46,248.68z"/>
	</g>
</g>
<g>
	<g>
		<path d="M227.15,243c6.87,10.28,13.73,20.55,20.6,30.83c1.07,1.6,3.67,0.1,2.59-1.51c-6.87-10.28-13.73-20.55-20.6-30.83
			C228.67,239.89,226.07,241.39,227.15,243L227.15,243z"/>
	</g>
</g>
<g>
	<g>
		<path d="M245.86,233.53c2.48,9.34,6.7,18.17,12.42,25.95c1.13,1.54,3.74,0.04,2.59-1.51c-5.59-7.59-9.7-16.12-12.12-25.23
			C248.26,230.86,245.37,231.66,245.86,233.53L245.86,233.53z"/>
	</g>
</g>
<g>
	<g>
		<path d="M260.69,225.5c5.63,14.21,11.36,28.68,20.44,41.1c2.53,3.46,5.29,6.74,8.33,9.77c1.37,1.36,3.49-0.76,2.12-2.12
			c-10.58-10.55-17.43-24.03-23.18-37.65c-1.66-3.94-3.24-7.92-4.82-11.89C262.88,222.93,259.97,223.7,260.69,225.5L260.69,225.5z"
			/>
	</g>
</g>
<g>
	<g>
		<path d="M328.41,280.74c4.04,7.12,8.47,14,13.29,20.62c1.13,1.55,3.73,0.05,2.59-1.51c-4.82-6.62-9.25-13.5-13.29-20.62
			C330.04,277.55,327.45,279.06,328.41,280.74L328.41,280.74z"/>
	</g>
</g>
<g>
	<g>
		<path d="M350.95,291.42c2.89,6.29,6.28,12.33,10.16,18.06c1.91,2.82,3.93,5.58,6.07,8.23c1.81,2.25,3.95,4.37,6.86,5.02
			c1.88,0.42,2.68-2.47,0.8-2.89c-2.75-0.62-4.54-2.97-6.19-5.07c-2.01-2.56-3.91-5.21-5.7-7.92c-3.57-5.39-6.7-11.06-9.41-16.94
			C352.74,288.15,350.15,289.68,350.95,291.42L350.95,291.42z"/>
	</g>
</g>
<g>
	<g>
		<path d="M368.95,288.29c5.71,9.26,12.25,17.99,19.5,26.1c1.29,1.44,3.41-0.69,2.12-2.12c-7.09-7.92-13.45-16.45-19.03-25.49
			C370.53,285.14,367.93,286.64,368.95,288.29L368.95,288.29z"/>
	</g>
</g>
<g>
	<g>
		<path d="M377.78,269.97c4.03,7.08,9.47,13.22,15.93,18.17c0.64,0.49,1.68,0.1,2.05-0.54c0.45-0.77,0.11-1.56-0.54-2.05
			c-6.04-4.62-11.09-10.49-14.85-17.09C379.41,266.78,376.82,268.29,377.78,269.97L377.78,269.97z"/>
	</g>
</g>
<g>
	<g>
		<path d="M383.52,250.18c3.12,8.63,8.34,16.39,15.22,22.45c1.44,1.27,3.57-0.84,2.12-2.12c-6.49-5.72-11.51-12.98-14.45-21.13
			C385.76,247.58,382.86,248.36,383.52,250.18L383.52,250.18z"/>
	</g>
</g>
<g>
	<g>
		<path d="M384.17,231.1c0.96,7.05,7.13,11.61,10.32,17.59c0.91,1.7,3.5,0.19,2.59-1.51c-3.04-5.72-9.1-10.15-10.02-16.87
			c-0.11-0.8-1.14-1.24-1.85-1.05C384.35,229.5,384.06,230.3,384.17,231.1L384.17,231.1z"/>
	</g>
</g>
<g>
	<g>
		<path d="M364.29,232.15c2.21,2.77,4.54,5.44,6.99,8c0.54,0.57,1.58,0.59,2.12,0c0.56-0.61,0.58-1.51,0-2.12
			c-2.45-2.56-4.78-5.23-6.99-8c-0.49-0.62-1.62-0.55-2.12,0C363.69,230.69,363.76,231.5,364.29,232.15L364.29,232.15z"/>
	</g>
</g>
<g>
	<g>
		<path d="M348.57,173.71c10.36,12.5,21.75,24.14,34.03,34.76c3.52,3.05,7.12,6.01,10.79,8.89c1.5,1.18,3.64-0.93,2.12-2.12
			c-12.77-10.03-24.7-21.1-35.65-33.1c-3.14-3.44-6.19-6.96-9.17-10.55C349.46,170.1,347.35,172.23,348.57,173.71L348.57,173.71z"/>
	</g>
</g>
<g>
	<g>
		<path d="M362.78,166.38c9.71,11.25,20.7,21.31,32.73,30.04c1.56,1.14,3.06-1.47,1.51-2.59c-11.81-8.57-22.59-18.52-32.12-29.57
			C363.63,162.79,361.52,164.92,362.78,166.38L362.78,166.38z"/>
	</g>
</g>
<g>
	<g>
		<path d="M375.76,155.79c5.11,7.01,11.18,13.2,18.08,18.46c0.65,0.49,1.68,0.1,2.05-0.54c0.45-0.77,0.11-1.56-0.54-2.05
			c-6.47-4.92-12.23-10.81-17.01-17.38c-0.48-0.65-1.3-0.98-2.05-0.54C375.65,154.12,375.28,155.14,375.76,155.79L375.76,155.79z"/>
	</g>
</g>
<g>
	<g>
		<path d="M384.01,147.34c3.63,4.28,7.27,8.57,10.9,12.85c0.52,0.62,1.58,0.54,2.12,0c0.61-0.61,0.53-1.5,0-2.12
			c-3.63-4.28-7.27-8.57-10.9-12.85c-0.52-0.62-1.58-0.54-2.12,0C383.4,145.83,383.48,146.72,384.01,147.34L384.01,147.34z"/>
	</g>
</g>
<g>
	<g>
		<path d="M392.15,144.34c1.81,2.33,3.61,4.67,5.42,7c0.22,0.28,0.72,0.44,1.06,0.44c0.37,0,0.81-0.16,1.06-0.44
			c0.61-0.66,0.52-1.46,0-2.12c-1.81-2.33-3.61-4.67-5.42-7c-0.22-0.28-0.72-0.44-1.06-0.44c-0.37,0-0.81,0.16-1.06,0.44
			C391.54,142.88,391.63,143.68,392.15,144.34L392.15,144.34z"/>
	</g>
</g>
<g>
	<g>
		<path d="M330.45,178.57c4.16,3.39,8.49,6.57,12.97,9.53c0.68,0.45,1.66,0.13,2.05-0.54c0.43-0.73,0.14-1.61-0.54-2.05
			c-4.27-2.81-8.4-5.83-12.36-9.06c-0.63-0.51-1.51-0.61-2.12,0C329.92,176.97,329.82,178.05,330.45,178.57L330.45,178.57z"/>
	</g>
</g>
<g>
	<g>
		<path d="M270.27,218.04c4.3,8.6,8.95,17.01,13.96,25.21c1,1.65,3.6,0.14,2.59-1.51c-5-8.21-9.66-16.62-13.96-25.21
			C272,214.8,269.41,216.32,270.27,218.04L270.27,218.04z"/>
	</g>
</g>
</svg>
