<?xml version="1.0" encoding="utf-8"?>
<!-- Generator: Adobe Illustrator 24.0.2, SVG Export Plug-In . SVG Version: 6.00 Build 0)  -->
<svg version="1.1" id="Capa_1" xmlns="http://www.w3.org/2000/svg" xmlns:xlink="http://www.w3.org/1999/xlink" x="0px" y="0px"
	 viewBox="0 0 420 478" style="enable-background:new 0 0 420 478;" xml:space="preserve">
<style type="text/css">
	.st0{fill:#69EDFF;}
</style>
<g>
	<g>
		<path class="st0" d="M15.51,25.83c9.4,96.65,18.11,193.38,26.12,290.16c2.27,27.42,4.48,54.84,6.64,82.26
			c0.5,6.37,10.51,6.43,10,0c-7.61-96.81-15.92-193.57-24.93-290.26c-2.55-27.39-5.16-54.78-7.82-82.16
			C24.9,19.48,14.89,19.42,15.51,25.83L15.51,25.83z"/>
	</g>
</g>
<g>
	<g>
		<path class="st0" d="M62.86,421.09c20.92,8.79,43.06,13.77,64.85,19.87c22.43,6.28,44.56,13.61,66.34,21.88
			c6.02,2.29,8.63-7.38,2.66-9.64c-21.78-8.27-43.9-15.6-66.34-21.88c-21.78-6.1-43.93-11.08-64.85-19.87
			C59.59,408.95,57.01,418.63,62.86,421.09L62.86,421.09z"/>
	</g>
</g>
<g>
	<g>
		<path class="st0" d="M224.64,463.25c9.65-5.41,20.18-8.53,30.81-11.35c11.67-3.1,23.42-5.85,35.18-8.56
			c23.2-5.36,46.43-10.64,69.08-18.04c6.09-1.99,3.48-11.65-2.66-9.64c-23.26,7.6-47.13,12.96-70.94,18.47
			c-22.26,5.15-46.38,9.2-66.53,20.49C213.98,457.76,219.02,466.4,224.64,463.25L224.64,463.25z"/>
	</g>
</g>
<g>
	<g>
		<path class="st0" d="M38.02,28.51c45.51-3.12,91.13,1.47,136.64,2.59c45.72,1.12,91.46,0.48,137.18-0.8
			c25.85-0.72,51.68-1.65,77.52-2.58c6.42-0.23,6.45-10.23,0-10c-45.71,1.64-91.43,3.28-137.17,3.79
			c-45.73,0.51-91.33-0.69-137.01-2.79c-25.71-1.18-51.45-1.97-77.15-0.21C31.64,18.94,31.59,28.95,38.02,28.51L38.02,28.51z"/>
	</g>
</g>
<g>
	<g>
		<path class="st0" d="M397.93,35.95c-9.17,96.12-18.4,192.23-27.52,288.36c-2.55,26.88-4.89,53.79-5.01,80.81
			c-0.03,6.44,9.97,6.44,10,0c0.2-47.9,6.43-95.77,10.98-143.4c4.59-48.07,9.18-96.14,13.77-144.21
			c2.59-27.18,5.19-54.37,7.78-81.55C408.55,29.55,398.54,29.59,397.93,35.95L397.93,35.95z"/>
	</g>
</g>
<g>
	<g>
		<path class="st0" d="M89.54,105.88c0.93,13.76,3.2,27.42,6.81,40.73c0.5,1.86,3.4,1.07,2.89-0.8c-3.54-13.06-5.79-26.43-6.7-39.93
			C92.41,103.97,89.41,103.95,89.54,105.88L89.54,105.88z"/>
	</g>
</g>
<g>
	<g>
		<path class="st0" d="M101.28,103.72c14.36-1.01,28.76-0.3,43.11,0.72c14.37,1.02,28.74,2.16,43.11,3.1
			c28.59,1.87,57.23,3.19,85.88,3.05c16.22-0.08,32.43-0.64,48.6-1.82c1.91-0.14,1.93-3.14,0-3c-28.73,2.09-57.56,2.2-86.34,1.23
			c-28.65-0.97-57.24-3.03-85.82-5.17c-16.15-1.21-32.37-2.26-48.55-1.12C99.36,100.86,99.35,103.86,101.28,103.72L101.28,103.72z"
			/>
	</g>
</g>
<g>
	<g>
		<path class="st0" d="M107.48,152.35c20.81-0.01,41.63-0.03,62.44-0.04c20.9-0.01,41.79-0.03,62.69-0.04
			c11.74-0.01,23.48-0.02,35.22-0.02c1.93,0,1.93-3,0-3c-20.81,0.01-41.63,0.03-62.44,0.04c-20.9,0.01-41.79,0.03-62.69,0.04
			c-11.74,0.01-23.48,0.02-35.22,0.02C105.55,149.35,105.55,152.35,107.48,152.35L107.48,152.35z"/>
	</g>
</g>
<g>
	<g>
		<path class="st0" d="M277.65,157.57c-1.72,7.48-3.45,14.97-5.17,22.45c-0.43,1.88,2.46,2.68,2.89,0.8
			c1.72-7.48,3.45-14.97,5.17-22.45C280.97,156.49,278.08,155.69,277.65,157.57L277.65,157.57z"/>
	</g>
</g>
<g>
	<g>
		<path class="st0" d="M109.52,201.14c20.21-0.5,40.43-0.94,60.64-1.32c20.13-0.37,40.27-0.68,60.4-0.92
			c11.4-0.14,22.8-0.25,34.2-0.35c1.93-0.02,1.93-3.02,0-3c-20.22,0.17-40.44,0.41-60.65,0.71c-20.13,0.3-40.27,0.66-60.4,1.09
			c-11.4,0.24-22.79,0.51-34.19,0.79C107.6,198.19,107.59,201.19,109.52,201.14L109.52,201.14z"/>
	</g>
</g>
<g>
	<g>
		<path class="st0" d="M94.61,212.1c0.89,9.76,2.51,19.44,4.89,28.96c0.47,1.87,3.36,1.08,2.89-0.8
			c-2.31-9.25-3.92-18.66-4.79-28.16C97.44,210.2,94.44,210.18,94.61,212.1L94.61,212.1z"/>
	</g>
</g>
<g>
	<g>
		<path class="st0" d="M108.5,249.29c19.49-0.88,39-1.26,58.5-1.13c19.59,0.13,39.17,0.77,58.73,1.91
			c10.97,0.64,21.94,1.45,32.89,2.41c1.92,0.17,1.91-2.83,0-3c-19.43-1.71-38.91-2.92-58.4-3.62c-19.58-0.7-39.17-0.9-58.76-0.58
			c-10.99,0.18-21.98,0.52-32.96,1.01C106.58,246.38,106.57,249.38,108.5,249.29L108.5,249.29z"/>
	</g>
</g>
<g>
	<g>
		<path class="st0" d="M267.46,258.06c-0.94,13.88-2.56,27.71-4.85,41.43c-0.32,1.89,2.58,2.7,2.89,0.8
			c2.33-13.99,3.99-28.08,4.95-42.23C270.59,256.13,267.59,256.14,267.46,258.06L267.46,258.06z"/>
	</g>
</g>
<g>
	<g>
		<path class="st0" d="M158.85,309.32c13.14,7.42,26.91,13.68,41.13,18.71c1.82,0.65,2.61-2.25,0.8-2.89
			c-13.98-4.95-27.5-11.12-40.41-18.41C158.68,305.77,157.17,308.36,158.85,309.32L158.85,309.32z"/>
	</g>
</g>
<g>
	<g>
		<path class="st0" d="M221.62,325.76c12.78-6.26,26.18-11.18,39.96-14.72c1.87-0.48,1.08-3.37-0.8-2.89
			c-14.03,3.6-27.66,8.65-40.68,15.02C218.37,324.01,219.89,326.6,221.62,325.76L221.62,325.76z"/>
	</g>
</g>
<g>
	<g>
		<path class="st0" d="M156.89,296.85c0.53-6.63,0.27-13.26-0.69-19.84c-0.12-0.8-1.13-1.24-1.85-1.05
			c-0.86,0.24-1.17,1.04-1.05,1.85c0.92,6.3,1.09,12.7,0.58,19.04C153.74,298.77,156.74,298.76,156.89,296.85L156.89,296.85z"/>
	</g>
</g>
<g>
	<g>
		<path class="st0" d="M113.61,273.77c11.89-0.98,23.83-1.29,35.75-0.92c1.93,0.06,1.93-2.94,0-3c-11.92-0.37-23.86-0.07-35.75,0.92
			C111.7,270.93,111.68,273.93,113.61,273.77L113.61,273.77z"/>
	</g>
</g>
<g>
	<g>
		<path class="st0" d="M103.52,280.04c4.74,15.35,8.04,31.15,9.74,47.12c0.48,4.52,0.84,9.06,1.08,13.6c0.1,1.92,3.1,1.93,3,0
			c-0.86-16.23-3.25-32.38-7.19-48.15c-1.12-4.49-2.37-8.95-3.74-13.37C105.85,277.4,102.95,278.19,103.52,280.04L103.52,280.04z"/>
	</g>
</g>
<g>
	<g>
		<path class="st0" d="M122.36,351.61c21.62,4.85,43.24,9.71,64.86,14.56c6.18,1.39,12.35,2.77,18.53,4.16
			c1.88,0.42,2.68-2.47,0.8-2.89c-21.62-4.85-43.24-9.71-64.86-14.56c-6.18-1.39-12.35-2.77-18.53-4.16
			C121.28,348.3,120.47,351.19,122.36,351.61L122.36,351.61z"/>
	</g>
</g>
<g>
	<g>
		<path class="st0" d="M217.99,376.4c22.08-7.63,44.07-15.51,65.97-23.65c6.17-2.29,12.33-4.6,18.48-6.93
			c1.79-0.68,1.01-3.58-0.8-2.89c-21.85,8.27-43.79,16.3-65.82,24.07c-6.21,2.19-12.42,4.36-18.64,6.51
			C215.38,374.13,216.16,377.03,217.99,376.4L217.99,376.4z"/>
	</g>
</g>
<g>
	<g>
		<path class="st0" d="M329.99,112c-1.06,29.61-4.9,59.01-8.86,88.34c-3.95,29.23-8.03,58.49-9.56,87.97
			c-0.85,16.45-0.89,32.95,0.31,49.38c0.14,1.91,3.14,1.93,3,0c-2.15-29.4-0.28-58.9,2.96-88.15c3.27-29.42,7.9-58.67,11.23-88.08
			c1.86-16.44,3.32-32.93,3.91-49.46C333.06,110.07,330.06,110.07,329.99,112L329.99,112z"/>
	</g>
</g>
<g>
	<g>
		<path class="st0" d="M219.61,92.27c11.59-16.01,22.54-32.49,32.79-49.39c1-1.65-1.59-3.16-2.59-1.51
			c-10.26,16.9-21.2,33.38-32.79,49.39C215.88,92.32,218.48,93.82,219.61,92.27L219.61,92.27z"/>
	</g>
</g>
<g>
	<g>
		<path class="st0" d="M241.54,90.33c11.97-16.66,24.53-32.89,37.66-48.65c1.23-1.47-0.88-3.61-2.12-2.12
			c-10.33,12.39-20.31,25.06-29.92,38.01c-2.77,3.72-5.5,7.47-8.21,11.24C237.82,90.39,240.42,91.89,241.54,90.33L241.54,90.33z"/>
	</g>
</g>
<g>
	<g>
		<path class="st0" d="M266.07,91.03c12.28-16.43,24.56-32.87,36.84-49.3c1.16-1.55-1.45-3.04-2.59-1.51
			c-12.28,16.43-24.56,32.87-36.84,49.3C262.32,91.06,264.92,92.56,266.07,91.03L266.07,91.03z"/>
	</g>
</g>
<g>
	<g>
		<path class="st0" d="M294.33,89.91c11.06-16.62,22.39-33.05,33.99-49.3c1.12-1.57-1.48-3.07-2.59-1.51
			c-11.6,16.24-22.93,32.68-33.99,49.3C290.66,90,293.26,91.51,294.33,89.91L294.33,89.91z"/>
	</g>
</g>
<g>
	<g>
		<path class="st0" d="M320.89,90.6c9.71-13.85,19.41-27.71,29.12-41.56c2.76-3.94,5.52-7.88,8.28-11.82
			c1.11-1.58-1.49-3.09-2.59-1.51c-9.71,13.85-19.41,27.71-29.12,41.56c-2.76,3.94-5.52,7.88-8.28,11.82
			C317.19,90.67,319.79,92.17,320.89,90.6L320.89,90.6z"/>
	</g>
</g>
<g>
	<g>
		<path class="st0" d="M347.75,97.62c11.11-13.18,21.73-26.78,31.83-40.75c2.88-3.98,5.71-7.99,8.51-12.03
			c1.1-1.59-1.5-3.09-2.59-1.51c-9.7,14.04-19.92,27.72-30.64,40.99c-3.04,3.76-6.11,7.49-9.23,11.18
			C344.39,96.97,346.5,99.1,347.75,97.62L347.75,97.62z"/>
	</g>
</g>
<g>
	<g>
		<path class="st0" d="M341.35,145.77c10.24-14.72,20.83-29.19,31.78-43.39c3.11-4.04,6.26-8.05,9.43-12.04
			c1.19-1.5-0.92-3.63-2.12-2.12c-11.28,14.2-22.22,28.68-32.78,43.42c-3,4.18-5.96,8.39-8.9,12.61
			C337.66,145.85,340.26,147.35,341.35,145.77L341.35,145.77z"/>
	</g>
</g>
<g>
	<g>
		<path class="st0" d="M340.59,188.57c11.75-14.62,22.89-29.73,33.37-45.29c3-4.45,5.94-8.94,8.83-13.47
			c1.04-1.63-1.55-3.14-2.59-1.51c-9.99,15.63-20.62,30.85-31.88,45.59c-3.23,4.23-6.51,8.41-9.84,12.56
			C337.27,187.94,339.38,190.08,340.59,188.57L340.59,188.57z"/>
	</g>
</g>
<g>
	<g>
		<path class="st0" d="M335.43,227.61c11.03-13.85,21.97-27.77,32.8-41.78c3.05-3.94,6.09-7.89,9.13-11.85
			c1.17-1.53-1.43-3.03-2.59-1.51c-10.65,13.88-21.4,27.68-32.25,41.41c-3.06,3.88-6.13,7.75-9.21,11.61
			C332.11,226.98,334.22,229.12,335.43,227.61L335.43,227.61z"/>
	</g>
</g>
<g>
	<g>
		<path class="st0" d="M330.27,267.06c13.13-16.58,26-33.37,38.61-50.36c3.59-4.84,7.16-9.7,10.71-14.58
			c1.14-1.56-1.46-3.06-2.59-1.51c-12.35,16.96-24.96,33.73-37.83,50.29c-3.65,4.7-7.32,9.38-11.02,14.04
			C326.96,266.44,329.07,268.57,330.27,267.06L330.27,267.06z"/>
	</g>
</g>
<g>
	<g>
		<path class="st0" d="M328.96,305.24c14.81-14.08,26.36-31.09,36.95-48.45c2.99-4.9,5.91-9.84,8.83-14.78
			c0.98-1.67-1.61-3.18-2.59-1.51c-10.23,17.31-20.53,34.77-33.58,50.16c-3.69,4.36-7.6,8.53-11.74,12.46
			C325.43,304.46,327.56,306.58,328.96,305.24L328.96,305.24z"/>
	</g>
</g>
<g>
	<g>
		<path class="st0" d="M324.97,341.76c10.32-13.22,20.63-26.45,30.95-39.67c2.96-3.8,5.92-7.59,8.89-11.39
			c1.17-1.5-0.93-3.64-2.12-2.12c-10.32,13.22-20.63,26.45-30.95,39.67c-2.96,3.8-5.92,7.59-8.89,11.39
			C321.67,341.14,323.78,343.28,324.97,341.76L324.97,341.76z"/>
	</g>
</g>
<g>
	<g>
		<path class="st0" d="M233.44,377.06c-4.24,14.86-9,29.56-14.28,44.09c-0.66,1.82,2.24,2.6,2.89,0.8
			c5.28-14.52,10.04-29.23,14.28-44.09C236.86,376,233.97,375.21,233.44,377.06L233.44,377.06z"/>
	</g>
</g>
<g>
	<g>
		<path class="st0" d="M255.18,372.04c-5.36,19.36-11.67,38.45-18.92,57.19c-0.7,1.8,2.2,2.58,2.89,0.8
			c7.25-18.74,13.56-37.82,18.92-57.19C258.59,370.98,255.7,370.18,255.18,372.04L255.18,372.04z"/>
	</g>
</g>
<g>
	<g>
		<path class="st0" d="M275.8,366.99c-4.43,16.47-9.26,32.83-14.51,49.06c-1.48,4.58-3,9.15-4.54,13.71
			c-0.62,1.83,2.28,2.62,2.89,0.8c5.47-16.15,10.55-32.44,15.2-48.85c1.31-4.63,2.59-9.27,3.84-13.92
			C279.2,365.92,276.3,365.12,275.8,366.99L275.8,366.99z"/>
	</g>
</g>
<g>
	<g>
		<path class="st0" d="M304.1,359.76c-4.04,16.64-9.27,32.98-15.67,48.86c-1.83,4.54-3.76,9.04-5.79,13.5
			c-0.79,1.74,1.79,3.27,2.59,1.51c7.15-15.78,13.18-32.07,17.97-48.73c1.37-4.76,2.63-9.54,3.79-14.35
			C307.45,358.68,304.55,357.88,304.1,359.76L304.1,359.76z"/>
	</g>
</g>
<g>
	<g>
		<path class="st0" d="M305.8,407.86c9.37-16.67,18.75-33.35,28.12-50.02c2.69-4.78,5.38-9.57,8.07-14.35
			c0.95-1.69-1.64-3.2-2.59-1.51c-9.37,16.67-18.75,33.35-28.12,50.02c-2.69,4.78-5.38,9.57-8.07,14.35
			C302.26,408.03,304.85,409.55,305.8,407.86L305.8,407.86z"/>
	</g>
</g>
<g>
	<g>
		<path class="st0" d="M335.63,402.99c10.05-16.62,18.76-34.02,26.08-52c0.73-1.79-2.17-2.57-2.89-0.8
			c-7.22,17.74-15.86,34.9-25.77,51.29C332.03,403.13,334.63,404.64,335.63,402.99L335.63,402.99z"/>
	</g>
</g>
</svg>
