<?xml version="1.0" encoding="utf-8"?>
<!-- Generator: Adobe Illustrator 24.0.2, SVG Export Plug-In . SVG Version: 6.00 Build 0)  -->
<svg version="1.1" id="Capa_1" xmlns="http://www.w3.org/2000/svg" xmlns:xlink="http://www.w3.org/1999/xlink" x="0px" y="0px"
	 viewBox="0 0 650 650" style="enable-background:new 0 0 650 650;" xml:space="preserve">
<style type="text/css">
	.st0{fill:#17CEFF;}
</style>
<g>
	<g>
		<path class="st0" d="M239.8,626.1c-15.8-2-30.8-8.2-45.2-14.7c-14-6.3-28.1-12.7-41.5-20.2c-26.8-14.9-48-36.1-66-60.8
			c-34.4-47-58.3-101.7-68-159.2c-9.2-54.6-4.5-111.1,15.3-163c18.5-48.4,49.8-92.5,90.9-124.3c48.3-37.4,109.6-54.4,169.1-63.8
			c60.5-9.5,124.6-7.6,181.2,17.7c24.9,11.1,48.1,26.4,67.2,46c21.4,22,36.4,49.2,49.9,76.6c13.9,28.2,25.6,57.4,32.9,88
			c6.8,28.6,10,57.9,9.8,87.3c-0.6,58.7-15.1,117.6-43.3,169.1c-7.2,13.2-15.6,25.9-26.2,36.6c-10.8,10.8-23.5,19.4-36,28.1
			c-24.9,17.3-50.1,34.5-77.6,47.2c-13.3,6.2-27.1,11-41.3,14.4c-6.3,1.5-3.6,11.1,2.7,9.6c30.5-7.2,58.5-21.6,84.9-38.2
			c13.1-8.3,25.9-17.1,38.6-25.9c12.9-9,26.1-18,37.1-29.4c21.1-21.8,34.8-50.7,45.8-78.7c11-28.2,18.4-57.7,22.3-87.7
			c8-61.5,0.6-124.5-21.8-182.3c-11.7-30.2-26-60.2-43.6-87.4c-16.1-25-36.6-46.2-61.3-62.7c-51-34.1-113.5-45.9-174-43
			c-33.7,1.6-67.1,7.3-99.8,15.5c-31.6,7.9-62.9,18.5-91.3,34.6c-46.7,26.4-84.4,67.5-109.5,114.7C14.5,219.6,2.3,275.6,4.8,331.5
			C7.6,391.9,26.4,451,57,503c15.4,26.1,33.6,51.7,56.2,72.1c23.7,21.4,53.2,34.8,82.2,47.5c14.4,6.3,28.9,11.5,44.5,13.5
			C246.1,636.9,246.1,626.9,239.8,626.1L239.8,626.1z"/>
	</g>
</g>
<g>
	<g>
		<path class="st0" d="M248,627.8c1.4-19.5,2.1-39.1,1.9-58.7c-0.1-6.2,1.7-17.1-6.4-19.1c-3.6-0.9-7.5,1.2-10.9,2.1
			c-4.5,1.2-9.1,2.2-13.8,2.7c-16.8,1.8-34.6-0.8-49.8-8.3c-7.5-3.7-12.9-8.8-16.9-16.2c-3.5-6.5-5.7-13.7-8.6-20.5
			c-5.9-13.8-15.2-26.3-26.9-35.8c-2.9-2.4-5.9-4.6-9.1-6.7c-1.2-0.8-9.6-4.5-9.8-5.7c-0.6-3.2,7.8-2.9,9.5-2.8
			c4.9,0.4,9.7,2.1,14.1,4.3c14.7,7.2,27.7,18.5,37.6,31.5c4.9,6.4,9.1,13.3,14.9,18.9c5.6,5.5,12.3,9.2,19.7,11.6
			c16.4,5.2,38.4,7.5,52.4-4.4c7.1-6,8.8-13.8,9.4-22.8c0.6-9.4,4.6-16.8,13.3-21.1c5.8-2.8,0.7-11.4-5-8.6
			c-6.6,3.2-12.1,8.7-15.2,15.4c-1.6,3.4-2.4,6.9-2.8,10.6c-0.5,4.8,0,10-2.4,14.4c-8.6,15.6-34.1,11.2-47.8,6.6
			c-16.9-5.7-24-22.4-35.3-34.8c-11-12.1-25.1-23.1-40.6-28.9c-7.4-2.8-16.9-4.3-24.3-0.9c-6,2.8-10.5,9.7-6.4,16
			c2,3,5.4,4.5,8.4,6.1c3.6,2,7.1,4.3,10.5,6.8c6.4,4.9,12.2,10.7,17,17.2c4.6,6.3,8.3,13.2,11.2,20.4c2.9,7.2,5.4,14.7,9.5,21.4
			c8.7,14.1,25,20.8,40.6,24.3c9.3,2.1,19,2.9,28.6,2.3c4.7-0.3,9.4-0.9,14.1-1.8c2.5-0.5,5-1.1,7.5-1.8c1-0.3,2.4-0.5,3.3-1
			c2.7-1.4,0.1-0.2,0.4-1.3c-0.6,2.4,0.1,6.3,0.2,8.8c0,2.9,0,5.9,0,8.8c0,5.5-0.1,11.1-0.2,16.6c-0.3,11.4-0.9,22.8-1.7,34.2
			C237.6,634.2,247.6,634.2,248,627.8L248,627.8z"/>
	</g>
</g>
<g>
	<g>
		<path class="st0" d="M265.8,463.1c-40.4-5.6-83.3-18.5-109.1-52.3c-12.7-16.6-18.2-36.6-19.8-57.3c-1.6-20.7-1.3-42.2,0.4-62.9
			c0.8-9.8,2.4-19.6,5.5-29c1.5-4.4,3.3-8.7,5.6-12.7c2.6-4.6,6.2-8.5,8.8-13.1c5.3-9.4,2.5-20.2,1.9-30.3
			c-0.6-11.4-0.3-22.8,1-34.1c0.7-5.8,1.6-11.6,2.8-17.4c0.5-2.5,1.1-4.9,1.7-7.4c0.6-2.2,0.8-6.3,2.3-8.1c2-2.4,5.1,0.1,7.5,1.4
			c2.6,1.4,5.2,2.8,7.8,4.2c5.2,2.8,10.4,5.6,15.5,8.4c10.6,5.7,21.1,11.5,31.7,17.1c9.1,4.9,18.5,9.2,29,9.8
			c11.5,0.7,23.1-2.5,34.5-3.9c11.4-1.3,23-2.1,34.5-2.3c11.5-0.2,23.1,0.3,34.5,1.3c11.3,1,22.4,3.2,33.7,4.3
			c22.9,2.1,42.9-11.4,63.2-19.7c5-2,10-4,15.1-5.8c2.7-1,5.4-1.9,8.1-2.9c2.3-0.8,5.8-2.7,8.4-2.5c3.8,0.3,4.4,5.4,4.9,8.5
			c1.1,6.5,1.5,13.2,1.6,19.7c0.3,20.6-7.9,43.3,2.2,62.6c4.7,9,11.2,16.8,15.5,26c4.3,9.2,7.2,19.1,9.3,29
			c4.1,20.2,4.3,41.3,2.3,61.7c-1.9,19.9-6.9,40.7-20.1,56.2c-12.9,15.1-31.4,23.9-49.9,29.8c-10.9,3.4-22,6-33.1,8.7
			c-5.5,1.3-11.1,2.7-16.6,4.2c-4.9,1.3-10.4,2.4-14.8,5.1c-9.9,6.2-3.3,17.2-0.4,25.5c3.5,10.2,6.4,20.7,8.6,31.3
			c4.4,21.3,6.1,43.2,5,65c-0.5,11-1.8,21.9-3.8,32.7c-1.1,6.3,8.5,9,9.6,2.7c8.1-44.7,5-91.2-9.8-134.3c-1-2.8-2-5.7-3.1-8.5
			c-0.9-2.5-2.7-4.8,0.2-6.4c5-2.8,12.1-3.7,17.6-5.1c11.7-3,23.5-5.5,35.1-8.8c19.9-5.6,39.6-13.5,55.2-27.4
			c15.5-13.8,24-32.9,27.9-53c4-20.6,4.6-42.3,2.5-63.2c-2.1-20.9-7.3-41.7-18.1-60c-5.9-9.9-13.4-18.2-14-30.2
			c-0.6-11.4,2.1-22.7,2.6-34.1c0.5-11.3,0.3-23.5-2.3-34.6c-2-8.7-8.2-15-17.6-12.9c-11.3,2.5-22.6,7.8-33.3,12.2
			c-11,4.5-21.6,10.1-32.6,14.4c-11.8,4.7-22.6,4.4-34.9,2.5c-11.8-1.8-23.7-3.2-35.6-3.8c-24.1-1.3-48.3,0.1-72.2,3.8
			c-12.4,1.9-23.3,3-35.1-2.3c-10.9-4.9-21.2-11.1-31.7-16.8c-10.9-5.9-21.8-11.9-32.8-17.7c-4.2-2.3-8.9-4.8-13.8-3.2
			c-4.3,1.4-6.6,5.5-7.9,9.5c-7.3,22-9,47.2-7.6,70.2c0.3,5.4,1.4,10.9,1.2,16.4c-0.3,6.1-4,9.9-7.2,14.7c-5.7,8.3-9.5,17.8-12,27.5
			c-5.2,20.3-5,41.8-5,62.6c-0.1,22.2,1,45,9.6,65.8c16.1,38.9,54.8,61.8,94,72c11,2.9,22.1,4.9,33.3,6.4
			C269.5,473.6,272.2,464,265.8,463.1L265.8,463.1z"/>
	</g>
</g>
<g>
	<g>
		<path class="st0" d="M401.3,617.5c0,6.1,1.9,12.1,5.5,17.1c1.6,2.2,4.3,3.3,6.8,1.8c2.1-1.2,3.4-4.7,1.8-6.8
			c-2.7-3.6-4.2-7.5-4.2-12C411.2,611,401.2,611,401.3,617.5L401.3,617.5z"/>
	</g>
</g>
<g>
	<g>
		<path class="st0" d="M221.8,611.2c3.8-3,7.5-6.1,11.1-9.3c0.6-0.5,0.5-1.6,0-2.1c-0.6-0.6-1.5-0.5-2.1,0
			c-3.6,3.2-7.3,6.3-11.1,9.3c-0.6,0.5-0.5,1.6,0,2.1C220.3,611.9,221.2,611.7,221.8,611.2L221.8,611.2z"/>
	</g>
</g>
<g>
	<g>
		<path class="st0" d="M201.7,606.6c8.4-8.3,16.8-16.5,25.2-24.8c1.4-1.4-0.7-3.5-2.1-2.1c-8.4,8.3-16.8,16.5-25.2,24.8
			C198.2,605.8,200.3,608,201.7,606.6L201.7,606.6z"/>
	</g>
</g>
<g>
	<g>
		<path class="st0" d="M182.7,597.5c4.8-9.3,13.7-15.4,20.2-23.3c1.2-1.5-0.9-3.6-2.1-2.1c-6.7,8.1-15.8,14.4-20.7,23.9
			C179.3,597.7,181.9,599.2,182.7,597.5L182.7,597.5z"/>
	</g>
</g>
<g>
	<g>
		<path class="st0" d="M160.7,583.8c0.2-1.4,0.9-2.4,1.8-3.4c1.1-1.2,2.3-2.4,3.5-3.6c2.5-2.6,5-5.1,7.4-7.7
			c1.3-1.4-0.8-3.5-2.1-2.1c-2.6,2.7-5.2,5.4-7.9,8.1c-2.2,2.2-5.2,4.7-5.6,7.9c-0.1,0.8,0.2,1.6,1,1.8
			C159.6,585.1,160.6,584.6,160.7,583.8L160.7,583.8z"/>
	</g>
</g>
<g>
	<g>
		<path class="st0" d="M141.9,570.5c2.5-2.6,5-5.2,7.4-7.7c0.5-0.6,0.6-1.6,0-2.1c-0.6-0.5-1.5-0.6-2.1,0c-2.5,2.6-5,5.2-7.4,7.7
			c-0.5,0.6-0.6,1.6,0,2.1C140.4,571,141.3,571.1,141.9,570.5L141.9,570.5z"/>
	</g>
</g>
<g>
	<g>
		<path class="st0" d="M127.7,561.5c3.7-4.3,7.6-8.4,11.7-12.4c1.4-1.3-0.7-3.5-2.1-2.1c-4.1,3.9-8,8.1-11.7,12.4
			c-0.5,0.6-0.6,1.5,0,2.1C126.1,562,127.2,562.1,127.7,561.5L127.7,561.5z"/>
	</g>
</g>
<g>
	<g>
		<path class="st0" d="M115.9,551.9c4.9-5.6,9.8-11.2,14.7-16.8c1.3-1.4-0.8-3.6-2.1-2.1c-4.9,5.6-9.8,11.2-14.7,16.8
			C112.5,551.2,114.6,553.4,115.9,551.9L115.9,551.9z"/>
	</g>
</g>
<g>
	<g>
		<path class="st0" d="M104.2,536.1c6.1-6.3,11.6-13.2,16.3-20.6c1-1.6-1.6-3.1-2.6-1.5c-4.6,7.2-9.9,13.8-15.8,19.9
			C100.7,535.4,102.8,537.5,104.2,536.1L104.2,536.1z"/>
	</g>
</g>
<g>
	<g>
		<path class="st0" d="M95.4,523.2c1.1-3.8,3.4-7.1,5.9-10.1c2.8-3.5,5.7-7,8.5-10.5c0.5-0.6,0.6-1.5,0-2.1c-0.5-0.5-1.6-0.6-2.1,0
			c-3,3.7-6,7.4-8.9,11.1c-2.6,3.3-5,6.8-6.2,10.9C92,524.2,94.9,525,95.4,523.2L95.4,523.2z"/>
	</g>
</g>
<g>
	<g>
		<path class="st0" d="M89.1,505.8c0.1-1.8,0.9-3.5,1.8-5.1c1-1.7,2-3.4,3-5c2.1-3.5,4.3-7.1,6.4-10.6c1-1.7-1.6-3.2-2.6-1.5
			c-2.3,3.8-4.5,7.5-6.8,11.3c-2,3.4-4.6,6.8-4.8,10.9C86,507.7,89,507.7,89.1,505.8L89.1,505.8z"/>
	</g>
</g>
<g>
	<g>
		<path class="st0" d="M72,491.8c4.6-8,8.9-16.1,12.8-24.5c0.8-1.7-1.8-3.3-2.6-1.5c-3.9,8.3-8.2,16.5-12.8,24.5
			C68.4,492,71,493.5,72,491.8L72,491.8z"/>
	</g>
</g>
<g>
	<g>
		<path class="st0" d="M239.3,474.4c-1.5,4.9-3.3,9.8-5.3,14.5c-0.3,0.7-0.2,1.6,0.5,2.1c0.6,0.4,1.7,0.2,2.1-0.5
			c2.1-5,4-10,5.6-15.2C242.7,473.3,239.8,472.5,239.3,474.4L239.3,474.4z"/>
	</g>
</g>
<g>
	<g>
		<path class="st0" d="M227.4,474.5c-5.5,8.5-6,19.1-11.4,27.6c-1,1.6,1.6,3.1,2.6,1.5c5.4-8.5,5.9-19.1,11.4-27.6
			C231,474.4,228.4,472.9,227.4,474.5L227.4,474.5z"/>
	</g>
</g>
<g>
	<g>
		<path class="st0" d="M211.1,468.7c-4.4,9.5-8.8,19-13.2,28.5c-0.8,1.7,1.8,3.3,2.6,1.5c4.4-9.5,8.8-19,13.2-28.5
			C214.4,468.5,211.9,467,211.1,468.7L211.1,468.7z"/>
	</g>
</g>
<g>
	<g>
		<path class="st0" d="M192.9,460.3c-6,7.7-12.1,15.5-18.1,23.2c-1.2,1.5,0.9,3.6,2.1,2.1c6-7.7,12.1-15.5,18.1-23.2
			C196.2,460.9,194,458.7,192.9,460.3L192.9,460.3z"/>
	</g>
</g>
<g>
	<g>
		<path class="st0" d="M176.3,446.5c-2,0.3-3.4,1.5-4.7,3c-1.6,1.7-3.1,3.4-4.7,5c-3.1,3.4-6.2,6.7-9.3,10.1
			c-1.3,1.4,0.8,3.5,2.1,2.1c2.9-3.1,5.7-6.2,8.6-9.3c1.4-1.5,2.8-3,4.2-4.5c0.7-0.7,1.3-1.5,2-2.2c0.5-0.5,1.1-1.1,1.8-1.2
			c0.8-0.1,1.5-0.6,1.5-1.5C177.8,447.3,177.1,446.4,176.3,446.5L176.3,446.5z"/>
	</g>
</g>
<g>
	<g>
		<path class="st0" d="M152.9,429.1c-6.6,5.3-12.9,11-19,17c-1.4,1.4,0.7,3.5,2.1,2.1c6-6,12.4-11.6,19-17c0.6-0.5,0.5-1.6,0-2.1
			C154.4,428.4,153.5,428.6,152.9,429.1L152.9,429.1z"/>
	</g>
</g>
<g>
	<g>
		<path class="st0" d="M138.4,417.6c-7.6,7.7-16.2,14.3-25.7,19.6c-1.7,0.9-0.2,3.5,1.5,2.6c9.7-5.4,18.5-12.2,26.3-20.1
			C141.9,418.3,139.7,416.2,138.4,417.6L138.4,417.6z"/>
	</g>
</g>
<g>
	<g>
		<path class="st0" d="M60.2,456.7c-0.6-1.9,1.4-3.6,2.6-4.8c1.6-1.6,3.2-3.3,4.7-4.9c3.2-3.3,6.5-6.5,9.8-9.7
			c6.6-6.4,13.4-12.5,20.3-18.5c3.9-3.4,7.9-6.7,11.9-10c1.5-1.2-0.6-3.3-2.1-2.1c-14.9,12.2-29.2,25.2-42.6,38.9
			c-1.8,1.9-3.7,3.7-5.4,5.6c-1.5,1.7-2.8,3.9-2,6.3C57.9,459.3,60.8,458.5,60.2,456.7L60.2,456.7z"/>
	</g>
</g>
<g>
	<g>
		<path class="st0" d="M78.2,451.6c4.4-3.6,8.9-7.2,13.3-10.8c0.6-0.5,0.5-1.6,0-2.1c-0.6-0.6-1.5-0.5-2.1,0
			c-4.4,3.6-8.9,7.2-13.3,10.8c-0.6,0.5-0.5,1.6,0,2.1C76.7,452.2,77.6,452.1,78.2,451.6L78.2,451.6z"/>
	</g>
</g>
<g>
	<g>
		<path class="st0" d="M48.1,431.5c14.1-16.5,29-32.3,44.8-47.2c4.5-4.2,9-8.4,13.6-12.5c1.4-1.3-0.7-3.4-2.1-2.1
			c-16.2,14.4-31.7,29.7-46.3,45.8c-4.1,4.6-8.2,9.2-12.2,13.9C44.8,430.9,46.9,433,48.1,431.5L48.1,431.5z"/>
	</g>
</g>
<g>
	<g>
		<path class="st0" d="M46.1,394.6c16.6-17.6,32.9-35.5,48.9-53.7c4.5-5.1,9-10.3,13.4-15.4c1.3-1.5-0.9-3.6-2.1-2.1
			c-15.8,18.3-31.9,36.4-48.4,54.2c-4.6,5-9.3,10-14,15C42.7,393.9,44.8,396,46.1,394.6L46.1,394.6z"/>
	</g>
</g>
<g>
	<g>
		<path class="st0" d="M33.3,361.7c17.8-22.4,35.9-44.5,54.5-66.2c5.2-6.1,10.5-12.2,15.8-18.3c1.3-1.4-0.8-3.6-2.1-2.1
			c-18.8,21.5-37.2,43.4-55.2,65.6c-5.1,6.3-10.1,12.6-15.1,18.9C30,361.1,32.1,363.2,33.3,361.7L33.3,361.7z"/>
	</g>
</g>
<g>
	<g>
		<path class="st0" d="M39.5,303.5c10.7-14,21.6-27.8,32.8-41.3c11.1-13.5,22.5-26.7,34.2-39.7c6.6-7.4,13.3-14.7,20.1-22
			c1.3-1.4-0.8-3.5-2.1-2.1c-12,12.9-23.8,26-35.4,39.3c-11.6,13.4-22.9,27-33.9,40.9c-6.2,7.7-12.3,15.6-18.3,23.4
			C35.7,303.5,38.3,305,39.5,303.5L39.5,303.5z"/>
	</g>
</g>
<g>
	<g>
		<path class="st0" d="M39.8,231.8c15.8-18.7,30.7-38.2,44.7-58.3c3.9-5.7,7.8-11.4,11.6-17.2c1.1-1.6-1.5-3.1-2.6-1.5
			c-13.3,20.3-27.5,40-42.6,58.9c-4.3,5.4-8.7,10.7-13.2,16C36.4,231.2,38.5,233.3,39.8,231.8L39.8,231.8z"/>
	</g>
</g>
<g>
	<g>
		<path class="st0" d="M59.3,234.7c17.3-16.6,34.6-33.2,51.9-49.8c4.9-4.7,9.8-9.4,14.8-14.2c1.4-1.3-0.7-3.5-2.1-2.1
			c-17.3,16.6-34.6,33.2-51.9,49.8c-4.9,4.7-9.8,9.4-14.8,14.2C55.8,233.9,57.9,236,59.3,234.7L59.3,234.7z"/>
	</g>
</g>
<g>
	<g>
		<path class="st0" d="M101.3,136.7c4.2-9.9,11.6-17.8,19-25.3c8.7-8.7,17.4-17.4,26.2-26.1c4.9-4.9,9.9-9.8,14.9-14.8
			c1.4-1.4-0.7-3.5-2.1-2.1c-9,8.9-17.9,17.8-26.9,26.7c-4.4,4.4-8.7,8.7-13.1,13.1c-3.8,3.8-7.5,7.6-10.9,11.7
			c-3.9,4.7-7.3,9.7-9.6,15.2c-0.3,0.8-0.2,1.6,0.5,2.1C99.9,137.6,101,137.4,101.3,136.7L101.3,136.7z"/>
	</g>
</g>
<g>
	<g>
		<path class="st0" d="M117.2,145.3c19-15.9,37.1-32.9,54.3-50.7c4.9-5.1,9.6-10.2,14.4-15.4c1.3-1.4-0.8-3.6-2.1-2.1
			c-16.6,18.4-34.2,35.9-52.8,52.4c-5.2,4.7-10.5,9.3-15.9,13.8C113.6,144.4,115.7,146.5,117.2,145.3L117.2,145.3z"/>
	</g>
</g>
<g>
	<g>
		<path class="st0" d="M179.8,116.8c5.8-9.9,13.2-18.7,20.9-27.1c8.2-9,16.6-17.9,24.9-26.9c4.9-5.2,9.7-10.5,14.6-15.7
			c1.3-1.4-0.8-3.5-2.1-2.1c-8.6,9.3-17.3,18.6-25.9,28c-8.1,8.7-16.4,17.3-23.9,26.6c-4,5-7.8,10.2-11,15.8
			C176.3,117,178.9,118.5,179.8,116.8L179.8,116.8z"/>
	</g>
</g>
<g>
	<g>
		<path class="st0" d="M191.2,73.7c7.2-8,15.2-15.4,23.7-22c1.5-1.2-0.6-3.3-2.1-2.1c-8.5,6.6-16.5,14-23.7,22
			C187.7,73,189.9,75.2,191.2,73.7L191.2,73.7z"/>
	</g>
</g>
<g>
	<g>
		<path class="st0" d="M212.5,139.6c17.4-23.5,36.5-45.7,57.1-66.4c5.8-5.9,11.7-11.6,17.8-17.2c1.4-1.3-0.7-3.4-2.1-2.1
			c-21.6,20.1-41.7,41.8-60.2,64.7c-5.2,6.4-10.2,12.9-15.1,19.5C208.7,139.6,211.3,141.1,212.5,139.6L212.5,139.6z"/>
	</g>
</g>
<g>
	<g>
		<path class="st0" d="M210.9,119.7c13.6-19.7,28.3-38.7,44-56.8c4.4-5.1,9-10.2,13.6-15.2c1.3-1.4-0.8-3.5-2.1-2.1
			c-16.4,17.7-31.7,36.4-46,55.8c-4.1,5.5-8,11.1-11.9,16.8C207.2,119.8,209.8,121.3,210.9,119.7L210.9,119.7z"/>
	</g>
</g>
<g>
	<g>
		<path class="st0" d="M246.9,149.4c13-16.1,26-32.1,39.1-48.1c13.1-16,26.3-31.9,39.5-47.7c7.5-9,15-17.9,22.5-26.9
			c1.2-1.5-0.9-3.6-2.1-2.1c-13.3,15.8-26.5,31.7-39.7,47.6c-13.2,15.9-26.3,31.9-39.3,47.9c-7.4,9.1-14.7,18.1-22.1,27.2
			C243.6,148.8,245.7,151,246.9,149.4L246.9,149.4z"/>
	</g>
</g>
<g>
	<g>
		<path class="st0" d="M299.3,143.2c8.6-14.3,17.9-28.2,27.7-41.7c9.9-13.5,20.5-26.6,31.7-39.2c6.2-7,12.7-13.9,19.3-20.6
			c1.4-1.4-0.8-3.5-2.1-2.1c-11.8,12-23.1,24.6-33.7,37.6c-10.6,13-20.7,26.6-30.1,40.5c-5.3,7.9-10.4,15.9-15.3,24
			C295.7,143.4,298.3,144.9,299.3,143.2L299.3,143.2z"/>
	</g>
</g>
<g>
	<g>
		<path class="st0" d="M281.3,45.7c5.2-4.5,10.2-9.2,14.8-14.3c1.3-1.4-0.8-3.5-2.1-2.1c-4.6,5.1-9.6,9.8-14.8,14.3
			c-0.6,0.5-0.5,1.6,0,2.1C279.8,46.3,280.7,46.3,281.3,45.7L281.3,45.7z"/>
	</g>
</g>
<g>
	<g>
		<path class="st0" d="M338.8,146.6c18.7-23.5,37.6-46.9,56.6-70.2c5.3-6.5,10.7-13,16-19.5c1.2-1.5-0.9-3.6-2.1-2.1
			c-19.1,23.2-38,46.5-56.8,70c-5.3,6.6-10.5,13.1-15.8,19.7C335.4,145.9,337.6,148.1,338.8,146.6L338.8,146.6z"/>
	</g>
</g>
<g>
	<g>
		<path class="st0" d="M387.4,148.3c1.4-3.3,3.7-5.9,6.1-8.6c2.5-2.9,5.1-5.8,7.6-8.6c5.1-5.8,10.1-11.5,15.2-17.3
			c10.2-11.6,20.4-23.3,30.7-34.9c5.8-6.6,11.6-13.3,17.5-19.9c1.3-1.4-0.8-3.6-2.1-2.1c-20.7,23.5-41.3,47-62,70.5
			c-2.9,3.3-5.7,6.5-8.6,9.8c-2.6,3-5.3,5.9-6.9,9.6C384.1,148.5,386.6,150.1,387.4,148.3L387.4,148.3z"/>
	</g>
</g>
<g>
	<g>
		<path class="st0" d="M425.5,143.8c12-9,23.2-19,33.5-29.8c10.2-10.8,19.6-22.5,27.9-34.8c4.7-7,9.1-14.3,13.2-21.7
			c-0.9-0.1-1.8-0.2-2.7-0.4c0.3,1.2,0.6,2.4,1,3.6c0.5,1.9,3.4,1.1,2.9-0.8c-0.3-1.2-0.6-2.4-1-3.6c-0.3-1.2-2.1-1.5-2.7-0.4
			c-7.1,13-15.2,25.4-24.3,37c-9.1,11.6-19.1,22.4-30,32.3c-6.2,5.6-12.6,11-19.2,16C422.5,142.4,424,145,425.5,143.8L425.5,143.8z"
			/>
	</g>
</g>
<g>
	<g>
		<path class="st0" d="M466,139.3c4.6-9.2,13.1-15.4,21.1-21.5c8.8-6.8,17.1-14.2,24.5-22.5c4.3-4.8,8.3-9.8,12-14.9
			c1.1-1.6-1.5-3.1-2.6-1.5c-6.6,9.2-14.2,17.8-22.5,25.5c-4,3.7-8.2,7.3-12.6,10.6c-4.1,3.1-8.2,6.2-12,9.6
			c-4.2,3.8-8,8.2-10.5,13.3C462.6,139.5,465.2,141,466,139.3L466,139.3z"/>
	</g>
</g>
<g>
	<g>
		<path class="st0" d="M510.9,143.4c7.2-13.9,16.5-26.6,27.6-37.6c1.4-1.4-0.8-3.5-2.1-2.1c-11.3,11.2-20.8,24.1-28.1,38.2
			C507.4,143.6,510,145.1,510.9,143.4L510.9,143.4z"/>
	</g>
</g>
<g>
	<g>
		<path class="st0" d="M517.5,185.6c4.9-18.3,18.1-32.7,27.8-48.5c2.8-4.5,5.3-9.2,7.3-14.1c0.3-0.8-0.3-1.6-1-1.8
			c-0.9-0.2-1.5,0.3-1.8,1c-7.3,17.4-20.8,31.3-29.4,48c-2.4,4.7-4.4,9.5-5.7,14.6C514.1,186.6,517,187.4,517.5,185.6L517.5,185.6z"
			/>
	</g>
</g>
<g>
	<g>
		<path class="st0" d="M518,230.5c13.2-18.6,26.4-37.2,39.6-55.8c3.8-5.3,7.5-10.6,11.3-15.9c1.1-1.6-1.5-3.1-2.6-1.5
			c-13.2,18.6-26.4,37.2-39.6,55.8c-3.8,5.3-7.5,10.6-11.3,15.9C514.3,230.5,516.9,232,518,230.5L518,230.5z"/>
	</g>
</g>
<g>
	<g>
		<path class="st0" d="M533.9,251.3c13-17.9,25.3-36.3,36.8-55.1c3.2-5.3,6.4-10.6,9.5-16c1-1.7-1.6-3.2-2.6-1.5
			c-11.1,19.1-23,37.8-35.6,56c-3.5,5.1-7.1,10.2-10.8,15.2C530.2,251.3,532.8,252.8,533.9,251.3L533.9,251.3z"/>
	</g>
</g>
<g>
	<g>
		<path class="st0" d="M538.5,286.3c16.9-18.2,32.5-37.7,46.5-58.3c4-5.8,7.8-11.7,11.5-17.7c1-1.6-1.6-3.2-2.6-1.5
			c-13,20.9-27.5,40.9-43.5,59.6c-4.6,5.3-9.2,10.6-14,15.7C535.1,285.6,537.2,287.7,538.5,286.3L538.5,286.3z"/>
	</g>
</g>
<g>
	<g>
		<path class="st0" d="M547.5,321.4c14.8-20.4,35.3-35.9,49.5-56.8c3.9-5.8,7.3-12,9.7-18.6c0.7-1.8-2.2-2.6-2.9-0.8
			c-8.9,23.6-28.9,40.4-45.5,58.5c-4.8,5.2-9.3,10.5-13.4,16.2C543.7,321.5,546.4,323,547.5,321.4L547.5,321.4z"/>
	</g>
</g>
<g>
	<g>
		<path class="st0" d="M540.2,371.4c18.8-18.8,37.7-37.8,52.1-60.2c4-6.3,7.6-12.8,10.7-19.5c0.8-1.7-1.8-3.3-2.6-1.5
			c-11.1,24-28.4,44.2-46.6,63.1c-5.2,5.4-10.5,10.7-15.8,16C536.8,370.7,538.9,372.8,540.2,371.4L540.2,371.4z"/>
	</g>
</g>
<g>
	<g>
		<path class="st0" d="M547.5,395.9c11-10.5,22.1-21.1,32.4-32.3c5.2-5.7,10.2-11.5,14.8-17.6c4.3-5.5,8.2-11.3,12.4-16.9
			c4.7-6.3,9.9-12.3,16.1-17.1c1.5-1.2-0.6-3.3-2.1-2.1c-11.1,8.6-18.6,20.6-26.9,31.7c-9.1,12.2-19.6,23.4-30.3,34.1
			c-6.1,6.1-12.4,12-18.6,18C543.9,395.1,546.1,397.2,547.5,395.9L547.5,395.9z"/>
	</g>
</g>
<g>
	<g>
		<path class="st0" d="M410.7,484.7c4.4-5.3,9-10.5,13.7-15.5c1.3-1.4-0.8-3.5-2.1-2.1c-4.7,5-9.3,10.2-13.7,15.5
			c-0.5,0.6-0.6,1.5,0,2.1C409.1,485.2,410.2,485.3,410.7,484.7L410.7,484.7z"/>
	</g>
</g>
<g>
	<g>
		<path class="st0" d="M416,512.7c8.2-16.7,18.3-32.5,30-46.9c1.2-1.5-0.9-3.6-2.1-2.1c-11.9,14.7-22.1,30.6-30.5,47.5
			C412.6,513,415.2,514.5,416,512.7L416,512.7z"/>
	</g>
</g>
<g>
	<g>
		<path class="st0" d="M424.2,529.3c12.4-17.7,23.9-36.1,34.2-55.1c2.9-5.4,5.8-10.8,8.5-16.2c0.9-1.7-1.7-3.2-2.6-1.5
			c-9.7,19.3-20.5,38.1-32.4,56.2c-3.4,5.1-6.8,10.2-10.3,15.2C420.5,529.3,423.1,530.8,424.2,529.3L424.2,529.3z"/>
	</g>
</g>
<g>
	<g>
		<path class="st0" d="M424.8,575.5c10.8-13.9,20.6-28.4,29.5-43.5c8.9-15.1,16.8-30.9,23.7-47c3.9-9.1,7.4-18.3,10.6-27.6
			c-1,0-1.9,0-2.9,0c0.3,1.2,0.6,2.5,1,3.7c0.5,1.9,3.4,1.1,2.9-0.8c-0.3-1.2-0.6-2.5-1-3.7c-0.4-1.5-2.4-1.3-2.9,0
			c-5.6,16.4-12.3,32.5-20,48c-7.7,15.5-16.4,30.6-26,45c-5.4,8.1-11.1,16.1-17.1,23.8C421.5,574.9,423.6,577,424.8,575.5
			L424.8,575.5z"/>
	</g>
</g>
<g>
	<g>
		<path class="st0" d="M437.6,612.5c13.6-19,26-39,36.9-59.6c10.9-20.6,20.4-41.9,28.4-63.8c4.5-12.3,8.3-25,15.6-36
			c1.1-1.6-1.5-3.1-2.6-1.5c-6.4,9.8-10.2,20.9-14.1,31.9c-3.9,11-8.2,21.9-12.9,32.6c-9.3,21.4-20.1,42.1-32.2,62.1
			c-6.8,11.3-14.1,22.2-21.8,32.9C433.9,612.6,436.5,614.1,437.6,612.5L437.6,612.5z"/>
	</g>
</g>
<g>
	<g>
		<path class="st0" d="M504.8,568.7c10.7-18.1,20.9-36.5,30.6-55.2c9.7-18.6,19-37.5,27.8-56.7c4.9-10.8,9.7-21.6,14.4-32.6
			c0.3-0.8,0.2-1.6-0.5-2.1c-0.6-0.4-1.7-0.2-2.1,0.5c-8.2,19.4-16.9,38.5-26.1,57.4c-9.2,18.9-18.9,37.6-29,56
			c-5.7,10.4-11.6,20.7-17.6,30.9C501.2,568.8,503.8,570.4,504.8,568.7L504.8,568.7z"/>
	</g>
</g>
<g>
	<g>
		<path class="st0" d="M578.6,509.8c-2.1-2.1,0.7-6.2,1.7-8.2c1.6-3.3,3.2-6.7,4.8-10.1c3.1-6.8,6.1-13.7,8.9-20.7
			c5.5-13.8,10.4-27.9,14.6-42.3c2.3-8.1,4.4-16.2,6.3-24.3c0.4-1.9-2.5-2.7-2.9-0.8c-6.9,30.1-17,59.6-29.9,87.6
			c-1.8,3.9-3.7,7.8-5.6,11.7c-1.4,2.9-2.5,6.7,0.1,9.3C577.9,513.3,580,511.1,578.6,509.8L578.6,509.8z"/>
	</g>
</g>
<g>
	<g>
		<path class="st0" d="M523.9,444.1c5.1-14.1,11.5-27.8,18.9-40.9c1-1.7-1.6-3.2-2.6-1.5c-7.6,13.3-14,27.2-19.2,41.6
			C520.4,445.1,523.3,445.9,523.9,444.1L523.9,444.1z"/>
	</g>
</g>
<g>
	<g>
		<path class="st0" d="M594.1,414.7c5-7.6,10-15.1,15-22.8c2.3-3.6,4.5-7.2,6.3-11.1c1.8-3.9,3.1-8,4.1-12.1
			c1.1-4.7,1.9-9.5,2.6-14.3c0.3-1.9-2.6-2.7-2.9-0.8c-1.3,8.3-2.6,16.9-6,24.7c-3.4,7.9-8.6,14.9-13.2,22
			c-2.8,4.3-5.6,8.6-8.5,12.9C590.5,414.8,593.1,416.3,594.1,414.7L594.1,414.7z"/>
	</g>
</g>
<g>
	<g>
		<path class="st0" d="M476.5,585c10.7-18.7,20.9-37.8,30.4-57.1c9.6-19.3,18.5-38.9,26.9-58.8c4.7-11.1,9.2-22.4,13.6-33.6
			c0.7-1.8-2.2-2.6-2.9-0.8c-7.7,20-15.9,39.8-24.8,59.3c-8.8,19.5-18.3,38.7-28.3,57.7c-5.7,10.7-11.5,21.3-17.5,31.9
			C473,585.2,475.6,586.7,476.5,585L476.5,585z"/>
	</g>
</g>
<g>
	<g>
		<path class="st0" d="M554.1,525.6c11.6-21.5,17.6-45.3,26.7-67.8c2.6-6.3,5.4-12.5,8.7-18.5c0.9-1.7-1.7-3.2-2.6-1.5
			c-11.6,21.4-17.6,45.3-26.7,67.8c-2.6,6.3-5.4,12.5-8.6,18.6C550.6,525.7,553.2,527.3,554.1,525.6L554.1,525.6z"/>
	</g>
</g>
<g>
	<g>
		<path class="st0" d="M560.2,428.7c2.4-6.8,4.8-13.7,7.1-20.5c1.2-3.4,2.4-6.8,3.6-10.3c1.1-3.1,2-6.3,4-9c1.1-1.6-1.5-3.1-2.6-1.5
			c-1.9,2.7-2.9,5.9-4,9c-1.2,3.5-2.4,7-3.7,10.5c-2.4,7-4.9,14-7.3,21C556.7,429.7,559.6,430.5,560.2,428.7L560.2,428.7z"/>
	</g>
</g>
<g>
	<g>
		<path class="st0" d="M587.9,414.3c4.5-16.3,9.1-32.6,13.8-48.8c0.5-1.9-2.4-2.7-2.9-0.8c-4.7,16.2-9.3,32.5-13.8,48.8
			C584.5,415.4,587.4,416.1,587.9,414.3L587.9,414.3z"/>
	</g>
</g>
<g>
	<g>
		<path class="st0" d="M38.3,382c18.1-18.3,35.3-37.4,51.5-57.5c4.5-5.6,9-11.3,13.4-17.1c1.2-1.5-1.4-3-2.6-1.5
			c-15.5,20.3-32,39.8-49.4,58.5c-4.9,5.2-9.9,10.4-15,15.5C34.8,381.2,36.9,383.4,38.3,382L38.3,382z"/>
	</g>
</g>
<g>
	<g>
		<path class="st0" d="M35.3,325.9c22.6-22.7,44.9-45.6,66.8-68.9c6.2-6.6,12.4-13.1,18.5-19.7c1.3-1.4-0.8-3.5-2.1-2.1
			c-21.8,23.4-43.9,46.5-66.3,69.3c-6.3,6.4-12.7,12.9-19.1,19.3C31.9,325.1,34,327.2,35.3,325.9L35.3,325.9z"/>
	</g>
</g>
<g>
	<g>
		<path class="st0" d="M28.1,278.7c19.3-14.5,37.7-30.2,55.8-46.1c5-4.4,9.7-9.1,13.9-14.3c1.2-1.5-0.9-3.6-2.1-2.1
			c-7.4,9.2-16.6,16.7-25.5,24.3c-9.1,7.8-18.2,15.6-27.5,23.1c-5.3,4.3-10.6,8.4-16.1,12.5C25.1,277.3,26.6,279.9,28.1,278.7
			L28.1,278.7z"/>
	</g>
</g>
<g>
	<g>
		<path class="st0" d="M52.8,445.3c8.2-9.1,16.4-18.2,25.4-26.4c8.9-8.2,18.6-15.3,27-23.9c4.6-4.8,8.9-9.9,12.8-15.2
			c1.1-1.6-1.5-3.1-2.6-1.5c-7,9.6-15.3,18-24.4,25.6c-4.6,3.9-9.2,7.6-13.6,11.6c-4.5,4-8.8,8.3-12.9,12.7
			c-4.7,4.9-9.3,10-13.8,15.1C49.4,444.6,51.5,446.8,52.8,445.3L52.8,445.3z"/>
	</g>
</g>
<g>
	<g>
		<path class="st0" d="M275.9,143.9c12.4-13.8,22.8-29.2,33.7-44.1c11.3-15.5,22.6-31,34-46.5c6.4-8.7,12.7-17.4,19.1-26.1
			c1.1-1.6-1.5-3.1-2.6-1.5c-11.2,15.4-22.4,30.7-33.7,46.1c-11.2,15.3-22.4,30.7-33.7,46c-6,8.2-12.2,16.4-19,24
			C272.5,143.3,274.6,145.4,275.9,143.9L275.9,143.9z"/>
	</g>
</g>
<g>
	<g>
		<path class="st0" d="M327,138.2c10.4-13,20.7-26.2,30.8-39.4C368,85.6,378.1,72.2,388,58.8c5.6-7.6,11.1-15.2,16.6-22.8
			c1.1-1.6-1.5-3.1-2.6-1.5c-9.7,13.4-19.5,26.8-29.4,40c-10,13.3-20.1,26.6-30.4,39.7c-5.7,7.4-11.5,14.7-17.4,22
			C323.7,137.6,325.8,139.7,327,138.2L327,138.2z"/>
	</g>
</g>
<g>
	<g>
		<path class="st0" d="M367.7,145.4c3.7-6.6,8.8-12.2,13.9-17.8c5.4-5.9,10.4-11.9,15.1-18.3C407,95.6,417.3,81.8,427.6,68
			c5.8-7.8,11.6-15.5,17.4-23.3c1.2-1.5-1.4-3-2.6-1.5c-10.3,13.7-20.6,27.5-30.9,41.2c-5.2,6.9-10.3,13.8-15.5,20.7
			c-4.9,6.5-9.9,12.9-15.3,18.9c-5.7,6.2-11.5,12.4-15.7,19.8C364.2,145.6,366.7,147.1,367.7,145.4L367.7,145.4z"/>
	</g>
</g>
<g>
	<g>
		<path class="st0" d="M407.3,146.7c21.5-23.6,43.1-47,64.4-70.7c5.5-6.1,10.8-12.3,15.1-19.2c1-1.6-1.6-3.2-2.6-1.5
			c-3.9,6.2-8.5,11.8-13.4,17.3c-5.2,5.8-10.4,11.5-15.7,17.2c-10.6,11.7-21.2,23.3-31.8,35c-6,6.6-12.1,13.2-18.1,19.9
			C403.9,146,406,148.1,407.3,146.7L407.3,146.7z"/>
	</g>
</g>
</svg>
