<?xml version="1.0" encoding="utf-8"?>
<!-- Generator: Adobe Illustrator 24.0.2, SVG Export Plug-In . SVG Version: 6.00 Build 0)  -->
<svg version="1.1" id="Capa_1" xmlns="http://www.w3.org/2000/svg" xmlns:xlink="http://www.w3.org/1999/xlink" x="0px" y="0px"
	 viewBox="0 0 420 478" style="enable-background:new 0 0 420 478;" xml:space="preserve">
<style type="text/css">
	.st0{fill:#69EDFF;}
</style>
<g>
	<g>
		<path class="st0" d="M49.5,57.56c0.24,93.88,0.2,187.76-0.12,281.63c-0.09,26.63-0.21,53.26-0.35,79.9c-0.03,6.44,9.97,6.44,10,0
			c0.49-93.88,0.69-187.75,0.61-281.63c-0.02-26.63-0.07-53.26-0.14-79.9C59.48,51.13,49.48,51.11,49.5,57.56L49.5,57.56z"/>
	</g>
</g>
<g>
	<g>
		<path class="st0" d="M73.02,439.28c73.11,1.61,146.24,2.06,219.36,1.32c20.84-0.21,41.69-0.52,62.53-0.92
			c6.43-0.12,6.45-10.12,0-10c-73.11,1.4-146.24,1.65-219.36,0.7c-20.84-0.27-41.69-0.64-62.53-1.1
			C66.58,429.14,66.58,439.14,73.02,439.28L73.02,439.28z"/>
	</g>
</g>
<g>
	<g>
		<path class="st0" d="M287.86,40.37c0,14.05-0.01,28.09-0.01,42.14c0,6.86,0,13.72-0.01,20.58c0,5.09-0.42,10.71,4.03,14.17
			c4.17,3.24,10.7,3.34,15.76,3.45c6.6,0.14,13.22-0.15,19.82-0.27c14.34-0.26,28.68-0.51,43.02-0.77c6.43-0.11,6.45-10.11,0-10
			c-12.06,0.22-24.12,0.43-36.17,0.65c-6.19,0.11-12.38,0.22-18.58,0.33c-2.7,0.05-5.39,0.12-8.09,0.06
			c-2.25-0.05-6.98,0.27-8.91-1.06c-2.17-1.49-0.87-10.59-0.87-13.42c0-6.21,0-12.41,0-18.62c0-12.41,0.01-24.83,0.01-37.24
			C297.86,33.94,287.86,33.93,287.86,40.37L287.86,40.37z"/>
	</g>
</g>
<g>
	<g>
		<path class="st0" d="M378.64,128.24c-2.86,74.36-3.49,148.8-1.83,223.19c0.47,21.26,1.14,42.51,1.98,63.75
			c0.25,6.41,10.26,6.45,10,0c-2.94-74.35-3.65-148.79-2.07-223.19c0.45-21.26,1.1-42.51,1.91-63.75
			C388.89,121.8,378.89,121.81,378.64,128.24L378.64,128.24z"/>
	</g>
</g>
<g>
	<g>
		<path class="st0" d="M67.15,38.29c68.43,1.62,136.85,3.24,205.28,4.86c6.44,0.15,6.43-9.85,0-10
			C204,31.53,135.58,29.91,67.15,28.29C60.71,28.14,60.71,38.14,67.15,38.29L67.15,38.29z"/>
	</g>
</g>
<g>
	<g>
		<path class="st0" d="M302.55,50.1c2.21-1.7,4.28-3.55,6.17-5.6c0.53-0.58,0.61-1.56,0-2.12c-0.58-0.53-1.55-0.62-2.12,0
			c-0.89,0.96-1.81,1.89-2.78,2.78c-0.48,0.44-0.96,0.86-1.45,1.28c-0.25,0.21-0.5,0.41-0.75,0.62c-0.13,0.1-0.25,0.2-0.38,0.3
			c-0.06,0.04-0.11,0.09-0.17,0.13c-0.29,0.23,0.26-0.2-0.04,0.03c-0.32,0.25-0.58,0.49-0.69,0.9c-0.1,0.36-0.05,0.84,0.15,1.16
			C300.89,50.17,301.89,50.61,302.55,50.1L302.55,50.1z"/>
	</g>
</g>
<g>
	<g>
		<path class="st0" d="M304.93,67.26c4.08-3.84,7.91-7.95,11.46-12.29c0.51-0.63,0.61-1.51,0-2.12c-0.53-0.53-1.61-0.63-2.12,0
			c-3.55,4.34-7.37,8.45-11.46,12.29C301.4,66.46,303.53,68.58,304.93,67.26L304.93,67.26z"/>
	</g>
</g>
<g>
	<g>
		<path class="st0" d="M308.59,83.73c0.83-1.87,2.75-3.38,4.19-4.8c1.49-1.47,3.01-2.92,4.51-4.39c3.03-2.98,5.93-6.1,8.28-9.65
			c1.07-1.62-1.53-3.12-2.59-1.51c-2.32,3.52-5.26,6.56-8.27,9.5c-1.5,1.47-3.02,2.91-4.51,4.39c-1.48,1.47-3.34,3.02-4.2,4.96
			c-0.33,0.74-0.22,1.61,0.54,2.05C307.18,84.65,308.26,84.48,308.59,83.73L308.59,83.73z"/>
	</g>
</g>
<g>
	<g>
		<path class="st0" d="M304.39,106.03c12.52-10.72,25.05-21.44,37.57-32.17c1.47-1.26-0.66-3.37-2.12-2.12
			c-12.52,10.72-25.05,21.44-37.57,32.17C300.8,105.17,302.93,107.28,304.39,106.03L304.39,106.03z"/>
	</g>
</g>
<g>
	<g>
		<path class="st0" d="M326.87,103.49c7.34-5.9,14.01-12.59,19.89-19.94c0.51-0.64,0.61-1.5,0-2.12c-0.52-0.53-1.62-0.63-2.12,0
			c-5.88,7.35-12.55,14.04-19.89,19.94c-0.64,0.51-0.52,1.59,0,2.12C325.36,104.12,326.24,104,326.87,103.49L326.87,103.49z"/>
	</g>
</g>
<g>
	<g>
		<path class="st0" d="M342.7,103.49c4.76-4.53,9.25-9.33,13.44-14.38c0.52-0.62,0.61-1.51,0-2.12c-0.53-0.53-1.6-0.63-2.12,0
			c-4.19,5.05-8.68,9.85-13.44,14.38C339.18,102.71,341.3,104.83,342.7,103.49L342.7,103.49z"/>
	</g>
</g>
<g>
	<g>
		<path class="st0" d="M362.49,103.71c2.06-2.14,4.09-4.31,6.09-6.5c0.53-0.58,0.62-1.56,0-2.12c-0.58-0.53-1.56-0.62-2.12,0
			c-2,2.19-4.03,4.36-6.09,6.5c-0.54,0.57-0.61,1.57,0,2.12C360.96,104.25,361.91,104.31,362.49,103.71L362.49,103.71z"/>
	</g>
</g>
<g>
	<g>
		<path class="st0" d="M160.08,200.15c-17.14,15-35.23,28.8-54.22,41.37c-2.43,1.61-3.66,5.7-1.01,7.85
			c17.2,14,34.88,27.39,53.02,40.15c5.27,3.71,10.28-4.96,5.05-8.63c-17.44-12.27-34.45-25.13-50.99-38.59
			c-0.34,2.62-0.67,5.24-1.01,7.85c19.69-13.04,38.47-27.38,56.24-42.93C172.01,202.97,164.91,195.92,160.08,200.15L160.08,200.15z"
			/>
	</g>
</g>
<g>
	<g>
		<path class="st0" d="M194.76,317.29c6.69-24.67,18.8-47.16,29.49-70.23c10.82-23.34,20.51-47.18,29.14-71.41
			c2.16-6.07-7.5-8.69-9.64-2.66c-8.76,24.61-18.63,48.8-29.72,72.44c-10.62,22.65-22.32,44.93-28.91,69.2
			C183.43,320.86,193.07,323.51,194.76,317.29L194.76,317.29z"/>
	</g>
</g>
<g>
	<g>
		<path class="st0" d="M267.34,293.51c20.55-13.1,41.1-26.2,61.65-39.31c3.4-2.17,3.01-6.4,0-8.63
			c-19.16-14.25-37.14-30-53.89-47.02c-4.52-4.59-11.59,2.48-7.07,7.07c17.35,17.64,36.05,33.83,55.91,48.59c0-2.88,0-5.76,0-8.63
			c-20.55,13.1-41.1,26.2-61.65,39.31C256.88,288.32,261.89,296.98,267.34,293.51L267.34,293.51z"/>
	</g>
</g>
</svg>
