<?xml version="1.0" encoding="utf-8"?>
<!-- Generator: Adobe Illustrator 24.0.2, SVG Export Plug-In . SVG Version: 6.00 Build 0)  -->
<svg version="1.1" id="Capa_1" xmlns="http://www.w3.org/2000/svg" xmlns:xlink="http://www.w3.org/1999/xlink" x="0px" y="0px"
	 viewBox="0 0 650 650" style="enable-background:new 0 0 650 650;" xml:space="preserve">
<style type="text/css">
	.st0{fill:#170F00;}
</style>
<g>
	<g>
		<path class="st0" d="M24.9,336.8c0.1,37.6-0.1,75.1,0.2,112.7c0.1,17.4,0.8,35.1,5.6,52c4.5,16,12.3,31,22,44.5
			c17.3,24,40.4,43.9,67.2,56.7c30.7,14.6,64.1,17.8,97.7,17.3c37.4-0.6,74.8-2.8,112.2-4.3c37.9-1.5,75.8-3.1,113.6-4.6
			c31.9-1.3,65-1.6,95.4-12.5c27.8-10,49.8-29.4,64.2-55.1c34-61,20.2-132.4,19-198.8c-1.3-69.2,7.1-140.8-17-207.3
			c-10.4-28.6-26.8-56.8-51-75.9c-26.9-21.2-61.4-22.6-94.1-25.2c-74.5-5.9-149.5-7.3-224.2-3C198.5,35.4,161.5,39,124.7,44
			c-16.2,2.2-31.7,5.6-44.1,17C69.4,71.4,60.8,85.3,53.8,98.7C22,160.2,24,231.2,24.8,298.4c0.2,18.4,0.3,36.7-0.4,55.1
			c-0.3,6.4,9.7,6.4,10,0c2.7-67.9-6.4-137.2,10.9-203.8c3.9-15,9.1-29.7,16.1-43.6c6.8-13.5,15.1-27.6,26.3-37.9
			c12.4-11.4,29.2-13.1,45.2-15.2c17.9-2.4,35.8-4.4,53.8-6c71.2-6.6,142.9-7.7,214.3-4.4c18,0.8,36,1.9,54,3.3
			c16.9,1.3,34,2.2,50.7,5.4c15.5,2.9,30.2,8.4,42.6,18.4c11.8,9.5,21.7,21.6,29.7,34.4c34.7,55.4,35.2,123.2,34.4,186.4
			c-0.3,18.1-0.6,36.2-0.3,54.3c0.3,18,1.5,35.9,2.5,53.8c1.9,33.3,3.2,67.3-4.8,99.9c-6.6,26.8-19.1,52.8-40.1,71.2
			c-22.9,20.1-53.7,26.7-83.3,29.2c-34.1,2.9-68.5,3.3-102.7,4.7c-36.6,1.5-73.1,2.9-109.7,4.4c-34.7,1.4-70.4,4.9-104.8-0.5
			c-29.5-4.6-57.1-17.1-79.9-36.4c-23.1-19.6-42.4-45.9-49.8-75.6c-4.2-16.8-4.3-34.3-4.3-51.5c0-18.2-0.1-36.3-0.1-54.5
			c0-17.5-0.1-35.1-0.1-52.6C34.9,330.3,24.9,330.3,24.9,336.8L24.9,336.8z"/>
	</g>
</g>
<g>
	<g>
		<path class="st0" d="M82.9,309.7c5.5-52.6-7.9-109.4,15.4-159.1c10.7-22.7,28.2-38.9,51.7-47.8c25.9-9.9,53.8-12.9,81.4-13.4
			c28.6-0.5,57.3,0.9,85.9,1.7c29.6,0.8,59.1,1.6,88.7,2.5c49.4,1.4,113.9,2.4,139,54c11.4,23.6,12.4,51.6,14.1,77.2
			c2,29.6,2.5,59.3,2.2,89c-0.3,29.7-1.5,59.4-3,89.1c-0.8,15.2-1.7,30.4-2.6,45.5c-0.8,13.6-1.1,27.4-3.3,40.8
			c-2.2,12.9-6.5,25.2-15.2,35.2c-7.5,8.7-17,15.2-27.3,20.1c-25.1,11.9-54.3,13.3-81.6,15.2c-60.1,4.4-120.4,3.8-180.5,2
			c-14.6-0.4-29.1-0.9-43.7-1.4c-13.7-0.5-27.5-0.6-41.1-2.3c-25-3.1-46.9-13.8-60.8-35.4c-14.7-22.9-16-49.6-16.8-76
			c-1-29.9-1.9-59.9-2.9-89.8c-0.5-14.6-0.9-29.3-1.4-43.9c-0.2-6.4-10.2-6.4-10,0c1,31.9,2.1,63.9,3.1,95.8
			c0.5,15.8,0.9,31.7,1.6,47.5c0.5,14.3,1.5,28.8,5.2,42.7c6.1,22.9,20.3,44.5,41,56.6c23.5,13.8,51.8,13.8,78.1,14.7
			c62.8,2.2,125.7,4.3,188.6,1.8c29.9-1.2,60.3-2.4,89.8-7.7c25.3-4.5,51.2-14.6,67.7-35.2c17.5-21.8,17.6-50.2,19.2-76.7
			c1.9-31.7,3.7-63.3,4.8-95c1.1-31,1.5-62,0.6-93.1c-0.8-29.1-1.8-58.8-6.8-87.5c-4.5-25.8-15.1-49.3-36.3-65.4
			c-21.2-16.2-47.6-22.9-73.7-25.6c-30.9-3.2-62.4-2.7-93.4-3.6c-30.7-0.9-61.4-1.8-92.1-2.6c-29.1-0.8-58.3-1-87,4.2
			c-26,4.6-53.2,13.7-72.1,33c-38.2,39-35.4,97.9-34.8,148.3c0.2,14.9,0,29.7-1.6,44.5C72.3,316.1,82.3,316.1,82.9,309.7L82.9,309.7
			z"/>
	</g>
</g>
<g>
	<g>
		<path class="st0" d="M456.9,142.1c-10.5,11.2-14.2,28.1-8.6,42.5c5.5,14.2,19.2,23.5,34.2,24.9c7.7,0.7,16.3-0.9,22.6-5.5
			c7.1-5.1,10.4-14,12.9-22.1c5-16.6,6-36-10.4-46.3c-15.4-9.7-35.9-6.9-49.4,4.7c-4.9,4.2,2.2,11.3,7.1,7.1c11-9.5,30-11,40.9-0.3
			c6.5,6.3,5.8,15.8,4.2,24c-1.5,7.9-3.9,18.6-10.2,24.1c-10.9,9.4-29.7,3.5-38.1-6.5c-9.5-11.4-8-29,1.9-39.5
			C468.4,144.5,461.3,137.4,456.9,142.1L456.9,142.1z"/>
	</g>
</g>
<g>
	<g>
		<path class="st0" d="M234.4,349.8c-3.6-20.2-5.3-40.7,3.3-59.9c7.3-16.4,19.9-30.2,35.2-39.4c16.8-10.1,36.3-15,55.8-15.5
			c20-0.5,40.2,2.9,55.6,16.5c28.2,24.9,41.1,68.8,30.4,104.8c-4.8,16.3-14.5,31.2-27.7,42c-15.5,12.7-35.5,17.4-55.1,18.8
			c-22.3,1.5-45.5-2.2-64-15.5c-18-13-26.5-33.9-32.5-54.5c-1.8-6.2-11.4-3.5-9.6,2.7c5.8,20.1,13.9,40.5,29.9,54.7
			c16.2,14.5,37.6,21.5,59,22.7c22.5,1.3,47.7-2.1,67.4-13.5c16.4-9.4,29.5-24.5,37.3-41.7c17.5-38.7,8-85.9-18.8-118.1
			c-14.3-17.2-33.3-26.3-55.4-28.4c-21.6-2.1-43.9,0.9-64,9.4c-20.8,8.9-38.7,24.4-49.5,44.4c-12.5,23.2-11.5,47.9-7,73.1
			C225.8,358.8,235.5,356.1,234.4,349.8L234.4,349.8z"/>
	</g>
</g>
<g>
	<g>
		<path class="st0" d="M181.8,352.3c-10-28.2-5.1-58.9,7.3-85.5c13.4-28.6,33.8-53.5,62-68.2c53.3-27.8,122.4-25.1,168,16.3
			c10.1,9.2,18.8,19.9,25.4,31.9c7.7,14.1,12.2,29.6,16,45.2c4,16.4,8.4,33.2,8,50.2c-0.5,16.9-5.8,33.5-12.6,48.9
			c-6.4,14.4-14.3,28-26.3,38.5c-11.4,9.9-25.1,17.5-38.9,23.6c-27.3,12.1-57.7,17.9-87.5,15.3c-55.7-4.9-103.5-43.8-119.2-97.6
			c-1.9-6.4-3.3-13-4.2-19.6c-0.8-6.3-10.8-6.4-10,0c7.7,58.6,51.1,108.8,108.8,123.1c30.9,7.7,63.9,5.5,94.3-3.9
			c30.4-9.4,62.5-25.8,80.4-53.1c9.4-14.3,16.4-31,20.9-47.5c4.9-17.8,5.2-35.6,2-53.8c-5.9-32.6-14.5-66.5-35.4-92.8
			C399.8,171.9,328,158.8,268,180.4c-15.5,5.6-30.3,13.1-43.3,23.3c-13.4,10.5-24.3,24-33.4,38.4c-16.8,26.5-28,58.7-24.3,90.4
			c0.9,7.7,2.6,15.2,5.2,22.5C174.3,361,183.9,358.4,181.8,352.3L181.8,352.3z"/>
	</g>
</g>
<g>
	<g>
		<path class="st0" d="M469.4,153.6c3.1-1.5,6.1-3.1,9.2-4.6c0.7-0.4,1-1.4,0.5-2.1c-0.5-0.7-1.3-0.9-2.1-0.5
			c-3.1,1.5-6.1,3.1-9.2,4.6c-0.7,0.4-1,1.4-0.5,2.1C467.8,153.8,468.6,154,469.4,153.6L469.4,153.6z"/>
	</g>
</g>
<g>
	<g>
		<path class="st0" d="M466.1,162.1c8-4.5,15.9-9.2,23.7-14.2c1.6-1,0.1-3.6-1.5-2.6c-7.7,5-15.6,9.7-23.7,14.2
			C462.9,160.5,464.4,163.1,466.1,162.1L466.1,162.1z"/>
	</g>
</g>
<g>
	<g>
		<path class="st0" d="M465.2,171.5c11.4-5.3,22.8-10.7,34.1-16.2c1.7-0.9,0.2-3.4-1.5-2.6c-11.3,5.6-22.7,11-34.1,16.2
			C461.9,169.7,463.5,172.3,465.2,171.5L465.2,171.5z"/>
	</g>
</g>
<g>
	<g>
		<path class="st0" d="M465.5,181.7c13.9-5.2,27.5-10.9,40.9-17.2c1.7-0.8,0.2-3.4-1.5-2.6c-13.2,6.2-26.6,11.8-40.2,16.9
			C462.9,179.5,463.7,182.4,465.5,181.7L465.5,181.7z"/>
	</g>
</g>
<g>
	<g>
		<path class="st0" d="M474.7,189c9.6-3.5,19-7.5,28.1-12.1c1.7-0.9,0.2-3.4-1.5-2.6c-8.9,4.4-18.1,8.3-27.4,11.8
			C472.1,186.8,472.8,189.7,474.7,189L474.7,189z"/>
	</g>
</g>
<g>
	<g>
		<path class="st0" d="M483.8,193.3c5.8-1.9,11.4-4.2,16.7-7c1.7-0.9,0.2-3.5-1.5-2.6c-5.2,2.6-10.5,4.9-16,6.7
			C481.2,191,482,193.9,483.8,193.3L483.8,193.3z"/>
	</g>
</g>
<g>
	<g>
		<path class="st0" d="M189.2,358.5c8.9-7.1,17.2-15.1,24.5-23.8c1.2-1.5-0.9-3.6-2.1-2.1c-7.4,8.7-15.6,16.7-24.5,23.8
			C185.6,357.6,187.7,359.7,189.2,358.5L189.2,358.5z"/>
	</g>
</g>
<g>
	<g>
		<path class="st0" d="M195.7,376.4c4.5-7.3,9.6-14.2,15.3-20.6c1.3-1.4-0.8-3.6-2.1-2.1c-5.9,6.6-11.2,13.7-15.8,21.3
			C192.1,376.5,194.7,378,195.7,376.4L195.7,376.4z"/>
	</g>
</g>
<g>
	<g>
		<path class="st0" d="M202.9,391.6c5.8-6.9,11.7-13.7,17.7-20.5c1.3-1.4-0.8-3.6-2.1-2.1c-5.9,6.8-11.8,13.6-17.7,20.5
			C199.6,390.9,201.7,393,202.9,391.6L202.9,391.6z"/>
	</g>
</g>
<g>
	<g>
		<path class="st0" d="M212,404c6.1-6.6,11.9-13.4,17.4-20.4c0.5-0.6,0.6-1.5,0-2.1c-0.5-0.5-1.6-0.6-2.1,0
			c-5.5,7-11.3,13.8-17.4,20.4C208.6,403.3,210.7,405.4,212,404L212,404z"/>
	</g>
</g>
<g>
	<g>
		<path class="st0" d="M220.8,419c5.8-6.3,11.6-12.5,17.3-18.8c1.3-1.4-0.8-3.5-2.1-2.1c-5.8,6.3-11.6,12.5-17.3,18.8
			C217.4,418.3,219.5,420.4,220.8,419L220.8,419z"/>
	</g>
</g>
<g>
	<g>
		<path class="st0" d="M235.2,433.3c5.7-5.9,11.3-11.8,17-17.7c1.3-1.4-0.8-3.5-2.1-2.1c-5.7,5.9-11.3,11.8-17,17.7
			C231.7,432.6,233.8,434.7,235.2,433.3L235.2,433.3z"/>
	</g>
</g>
<g>
	<g>
		<path class="st0" d="M257.5,446.5c4.2-5.1,8.7-9.9,13.4-14.5c1.4-1.4-0.7-3.5-2.1-2.1c-4.7,4.6-9.2,9.5-13.4,14.5
			c-0.5,0.6-0.6,1.5,0,2.1C255.9,447,257,447.1,257.5,446.5L257.5,446.5z"/>
	</g>
</g>
<g>
	<g>
		<path class="st0" d="M282.8,455c6.5-6.4,12.8-12.9,18.9-19.6c1.3-1.4-0.8-3.5-2.1-2.1c-6.1,6.7-12.4,13.2-18.9,19.6
			C279.3,454.2,281.4,456.4,282.8,455L282.8,455z"/>
	</g>
</g>
<g>
	<g>
		<path class="st0" d="M312,461.1c5.7-7,11.4-14,17.1-21.1c0.5-0.6,0.6-1.5,0-2.1c-0.5-0.5-1.6-0.6-2.1,0c-5.7,7-11.4,14-17.1,21.1
			c-0.5,0.6-0.6,1.5,0,2.1C310.4,461.7,311.5,461.8,312,461.1L312,461.1z"/>
	</g>
</g>
<g>
	<g>
		<path class="st0" d="M340.7,460.5c8.7-7.9,16.3-17,22.6-26.9c1-1.6-1.6-3.1-2.6-1.5c-6.2,9.7-13.6,18.6-22.2,26.3
			C337.1,459.7,339.2,461.8,340.7,460.5L340.7,460.5z"/>
	</g>
</g>
<g>
	<g>
		<path class="st0" d="M368.6,452.9c5.4-12.2,13.2-23.1,21-33.8c1.1-1.6-1.5-3.1-2.6-1.5c-7.8,10.7-15.6,21.6-21,33.8
			C365.2,453.2,367.8,454.7,368.6,452.9L368.6,452.9z"/>
	</g>
</g>
<g>
	<g>
		<path class="st0" d="M389.9,443.4c5.5-3.4,9.4-8.9,13.8-13.5c4.8-4.9,9.8-9.6,15-13.9c1.5-1.2-0.6-3.3-2.1-2.1
			c-5.1,4.3-10.1,8.8-14.7,13.6c-2.3,2.3-4.4,4.7-6.6,7.1c-2.1,2.3-4.2,4.6-6.9,6.2C386.7,441.8,388.2,444.4,389.9,443.4
			L389.9,443.4z"/>
	</g>
</g>
<g>
	<g>
		<path class="st0" d="M190.7,336.4c8.3-8.6,16.9-16.9,25.9-24.9c1.4-1.3-0.7-3.4-2.1-2.1c-9,7.9-17.6,16.2-25.9,24.9
			C187.3,335.7,189.4,337.8,190.7,336.4L190.7,336.4z"/>
	</g>
</g>
<g>
	<g>
		<path class="st0" d="M196.2,305.8c9.8-9.2,19.9-18.1,30.2-26.6c1.5-1.2-0.6-3.3-2.1-2.1c-10.4,8.5-20.5,17.4-30.2,26.6
			C192.6,305,194.7,307.1,196.2,305.8L196.2,305.8z"/>
	</g>
</g>
<g>
	<g>
		<path class="st0" d="M200,276.9c14.5-11.5,28.9-23,43.4-34.5c1.5-1.2-0.6-3.3-2.1-2.1c-14.5,11.5-28.9,23-43.4,34.5
			C196.3,275.9,198.5,278,200,276.9L200,276.9z"/>
	</g>
</g>
<g>
	<g>
		<path class="st0" d="M218.7,242.9c12-9.5,23.9-18.9,35.9-28.4c1.5-1.2-0.6-3.3-2.1-2.1c-12,9.5-23.9,18.9-35.9,28.4
			C215.1,241.9,217.2,244.1,218.7,242.9L218.7,242.9z"/>
	</g>
</g>
<g>
	<g>
		<path class="st0" d="M262.2,226.2c10.5-10.5,21.6-20.4,33.2-29.7c1.5-1.2-0.6-3.3-2.1-2.1c-11.6,9.3-22.7,19.2-33.2,29.7
			C258.8,225.4,260.9,227.5,262.2,226.2L262.2,226.2z"/>
	</g>
</g>
<g>
	<g>
		<path class="st0" d="M280.1,231.4c11.8-11,23.8-21.8,36.1-32.4c1.5-1.3-0.7-3.4-2.1-2.1c-12.3,10.5-24.3,21.3-36.1,32.4
			C276.6,230.6,278.7,232.7,280.1,231.4L280.1,231.4z"/>
	</g>
</g>
<g>
	<g>
		<path class="st0" d="M316.9,222.3c8.6-9.3,17.3-18.6,25.9-27.8c1.3-1.4-0.8-3.5-2.1-2.1c-8.6,9.3-17.3,18.6-25.9,27.8
			C313.5,221.6,315.6,223.7,316.9,222.3L316.9,222.3z"/>
	</g>
</g>
<g>
	<g>
		<path class="st0" d="M338.4,221.9c12.8-6.9,25.2-14.3,37.3-22.3c1.6-1.1,0.1-3.7-1.5-2.6c-12.1,8-24.6,15.4-37.3,22.3
			C335.2,220.2,336.7,222.8,338.4,221.9L338.4,221.9z"/>
	</g>
</g>
<g>
	<g>
		<path class="st0" d="M368.2,227.1c10.1-6.7,20.4-13.2,30.7-19.6c1.6-1,0.1-3.6-1.5-2.6c-10.3,6.4-20.6,12.9-30.7,19.6
			C365.1,225.6,366.6,228.2,368.2,227.1L368.2,227.1z"/>
	</g>
</g>
<g>
	<g>
		<path class="st0" d="M392.1,234c8.3-5.3,16.3-10.9,24.1-16.8c0.6-0.5,1-1.3,0.5-2.1c-0.4-0.6-1.4-1-2.1-0.5
			c-7.8,6-15.8,11.6-24.1,16.8C389,232.5,390.5,235.1,392.1,234L392.1,234z"/>
	</g>
</g>
<g>
	<g>
		<path class="st0" d="M410.3,257.8c6.7-6,13.5-11.9,20.2-17.9c1.4-1.3-0.7-3.4-2.1-2.1c-6.7,6-13.5,11.9-20.2,17.9
			C406.7,256.9,408.8,259,410.3,257.8L410.3,257.8z"/>
	</g>
</g>
<g>
	<g>
		<path class="st0" d="M424.2,278.4c6.2-4.7,11.8-10.1,16.8-16.1c0.5-0.6,0.6-1.5,0-2.1c-0.5-0.5-1.6-0.6-2.1,0
			c-4.7,5.8-10.2,11.1-16.1,15.6c-0.6,0.5-1,1.3-0.5,2.1C422.5,278.5,423.5,278.9,424.2,278.4L424.2,278.4z"/>
	</g>
</g>
<g>
	<g>
		<path class="st0" d="M429.9,294.7c5.9-5.4,11.6-11.1,17-17c1.3-1.4-0.8-3.5-2.1-2.1c-5.4,5.9-11.1,11.6-17,17
			C426.3,293.9,428.5,296,429.9,294.7L429.9,294.7z"/>
	</g>
</g>
<g>
	<g>
		<path class="st0" d="M433.8,326.3c7.3-7.6,14.2-15.5,20.9-23.7c1.2-1.5-0.9-3.6-2.1-2.1c-6.7,8.1-13.7,16-20.9,23.7
			C430.4,325.5,432.5,327.7,433.8,326.3L433.8,326.3z"/>
	</g>
</g>
<g>
	<g>
		<path class="st0" d="M432.3,345.8c11.2-6.3,21.6-13.9,31.1-22.6c1.4-1.3-0.7-3.4-2.1-2.1c-9.3,8.5-19.5,15.9-30.5,22.1
			C429.1,344.1,430.7,346.7,432.3,345.8L432.3,345.8z"/>
	</g>
</g>
<g>
	<g>
		<path class="st0" d="M424.8,377.7c11.3-6.4,22.1-13.5,32.4-21.4c1.5-1.2,0-3.8-1.5-2.6c-10.3,7.9-21.1,15-32.4,21.4
			C421.6,376,423.1,378.6,424.8,377.7L424.8,377.7z"/>
	</g>
</g>
<g>
	<g>
		<path class="st0" d="M410.8,408.5c12.1-11.9,25-23.1,38.4-33.5c0.6-0.5,1-1.3,0.5-2.1c-0.4-0.6-1.4-1-2.1-0.5
			c-13.7,10.6-26.7,21.9-39,34C407.3,407.7,409.4,409.8,410.8,408.5L410.8,408.5z"/>
	</g>
</g>
<g>
	<g>
		<path class="st0" d="M72.4,106.6c10.7-7.7,21.4-15.3,32.2-23c1.6-1.1,0.1-3.7-1.5-2.6c-10.7,7.7-21.4,15.3-32.2,23
			C69.3,105.1,70.8,107.7,72.4,106.6L72.4,106.6z"/>
	</g>
</g>
<g>
	<g>
		<path class="st0" d="M56.3,153.3c7.5-5,14.6-10.7,21-17c1.4-1.4-0.7-3.5-2.1-2.1c-6.3,6.2-13.1,11.7-20.4,16.6
			C53.2,151.8,54.7,154.4,56.3,153.3L56.3,153.3z"/>
	</g>
</g>
<g>
	<g>
		<path class="st0" d="M45.9,185.3c6.6-6.6,13.3-13.3,19.9-19.9c1.4-1.4-0.8-3.5-2.1-2.1c-6.6,6.6-13.3,13.3-19.9,19.9
			C42.4,184.5,44.5,186.6,45.9,185.3L45.9,185.3z"/>
	</g>
</g>
<g>
	<g>
		<path class="st0" d="M42.8,215.9c8.6-10,18.1-19.2,28.3-27.6c1.5-1.2-0.6-3.3-2.1-2.1c-10.2,8.3-19.7,17.6-28.3,27.6
			C39.4,215.2,41.5,217.4,42.8,215.9L42.8,215.9z"/>
	</g>
</g>
<g>
	<g>
		<path class="st0" d="M44.3,234.3c7.2-6.6,14.3-13.2,21.5-19.8c1.4-1.3-0.7-3.4-2.1-2.1c-7.2,6.6-14.3,13.2-21.5,19.8
			C40.8,233.5,42.9,235.6,44.3,234.3L44.3,234.3z"/>
	</g>
</g>
<g>
	<g>
		<path class="st0" d="M39.5,256c8.9-5.7,17.4-11.9,25.5-18.7c1.5-1.2-0.6-3.3-2.1-2.1c-7.9,6.6-16.2,12.7-24.9,18.2
			C36.3,254.5,37.8,257.1,39.5,256L39.5,256z"/>
	</g>
</g>
<g>
	<g>
		<path class="st0" d="M44.3,281.8c4.9-4.6,9.7-9.2,14.6-13.8c1.4-1.3-0.7-3.4-2.1-2.1c-4.9,4.6-9.7,9.2-14.6,13.8
			C40.8,281,42.9,283.1,44.3,281.8L44.3,281.8z"/>
	</g>
</g>
<g>
	<g>
		<path class="st0" d="M42.9,317.1c7.3-9.3,15.1-18.1,23.4-26.4c1.4-1.4-0.8-3.5-2.1-2.1c-8.3,8.3-16.1,17.1-23.4,26.4
			C39.6,316.5,41.7,318.6,42.9,317.1L42.9,317.1z"/>
	</g>
</g>
<g>
	<g>
		<path class="st0" d="M39.2,344.9c7.3-6.5,14.3-13.3,21-20.3c1.3-1.4-0.8-3.5-2.1-2.1c-6.7,7.1-13.8,13.8-21,20.3
			C35.6,344,37.8,346.1,39.2,344.9L39.2,344.9z"/>
	</g>
</g>
<g>
	<g>
		<path class="st0" d="M44.1,372c4.5-5,9.2-9.7,14.1-14.3c1.4-1.3-0.7-3.4-2.1-2.1c-4.9,4.5-9.6,9.3-14.1,14.3
			C40.7,371.3,42.8,373.4,44.1,372L44.1,372z"/>
	</g>
</g>
<g>
	<g>
		<path class="st0" d="M47.4,402.8c5.9-6.6,11.7-13.3,17.6-19.9c1.3-1.4-0.8-3.6-2.1-2.1c-5.9,6.6-11.7,13.3-17.6,19.9
			C44,402.1,46.1,404.2,47.4,402.8L47.4,402.8z"/>
	</g>
</g>
<g>
	<g>
		<path class="st0" d="M46.1,430c6.6-9,13.7-17.5,21.3-25.7c1.3-1.4-0.8-3.5-2.1-2.1c-7.8,8.3-15,17.1-21.8,26.3
			C42.3,430.1,44.9,431.6,46.1,430L46.1,430z"/>
	</g>
</g>
<g>
	<g>
		<path class="st0" d="M46,465.3c5.9-10.7,12.7-20.9,20.5-30.3c1.2-1.5-0.9-3.6-2.1-2.1c-7.9,9.6-14.9,20-20.9,30.9
			C42.5,465.5,45.1,467,46,465.3L46,465.3z"/>
	</g>
</g>
<g>
	<g>
		<path class="st0" d="M53.7,497.4c4.8-9,10.4-17.7,16.7-25.7c1.2-1.5-0.9-3.6-2.1-2.1c-6.5,8.3-12.2,17.1-17.1,26.3
			C50.2,497.6,52.8,499.1,53.7,497.4L53.7,497.4z"/>
	</g>
</g>
<g>
	<g>
		<path class="st0" d="M59.7,522.3c4.8-5.2,9.2-10.6,13.3-16.4c0.5-0.7,0.1-1.7-0.5-2.1c-0.8-0.4-1.6-0.1-2.1,0.5
			c-3.9,5.5-8.2,10.8-12.8,15.8C56.2,521.6,58.3,523.7,59.7,522.3L59.7,522.3z"/>
	</g>
</g>
<g>
	<g>
		<path class="st0" d="M70.8,547.7c2.5-7.6,5.8-14.9,9.8-21.9c1-1.7-1.6-3.2-2.6-1.5c-4.1,7.1-7.5,14.7-10.1,22.6
			C67.3,548.7,70.2,549.5,70.8,547.7L70.8,547.7z"/>
	</g>
</g>
<g>
	<g>
		<path class="st0" d="M85.8,566.3c3.1-6.4,6.2-12.7,9.3-19.1c0.8-1.7-1.7-3.3-2.6-1.5c-3.1,6.4-6.2,12.7-9.3,19.1
			C82.3,566.6,84.9,568.1,85.8,566.3L85.8,566.3z"/>
	</g>
</g>
<g>
	<g>
		<path class="st0" d="M97.2,579c4.4-4.5,8.3-9.5,11.7-14.9c1-1.6-1.6-3.2-2.6-1.5c-3.2,5.2-6.9,10-11.2,14.3
			C93.7,578.3,95.9,580.4,97.2,579L97.2,579z"/>
	</g>
</g>
<g>
	<g>
		<path class="st0" d="M121,593.9c5-7.5,10.5-14.6,16.6-21.1c1.3-1.4-0.8-3.5-2.1-2.1c-6.3,6.8-12,14.1-17.1,21.8
			C117.4,594,120,595.5,121,593.9L121,593.9z"/>
	</g>
</g>
<g>
	<g>
		<path class="st0" d="M148.4,598.8c5.9-6.9,11.8-13.7,17.8-20.6c1.3-1.5-0.9-3.6-2.1-2.1c-5.9,6.9-11.8,13.7-17.8,20.6
			C145,598.1,147.2,600.3,148.4,598.8L148.4,598.8z"/>
	</g>
</g>
<g>
	<g>
		<path class="st0" d="M173.2,606.7c6.8-7.2,13.2-14.8,19.2-22.7c1.2-1.5-1.4-3-2.6-1.5c-5.8,7.7-12.1,15.1-18.7,22.1
			C169.7,606,171.8,608.1,173.2,606.7L173.2,606.7z"/>
	</g>
</g>
<g>
	<g>
		<path class="st0" d="M204.6,606.7c5.3-5.9,10.6-11.8,15.9-17.7c1.3-1.4-0.8-3.6-2.1-2.1c-5.3,5.9-10.6,11.8-15.9,17.7
			C201.2,606,203.3,608.1,204.6,606.7L204.6,606.7z"/>
	</g>
</g>
<g>
	<g>
		<path class="st0" d="M231.2,605c5.1-4.6,10.2-9.2,15.3-13.8c1.4-1.3-0.7-3.4-2.1-2.1c-5.1,4.6-10.2,9.2-15.3,13.8
			C227.6,604.1,229.7,606.2,231.2,605L231.2,605z"/>
	</g>
</g>
<g>
	<g>
		<path class="st0" d="M274.1,605c5.1-6.4,10.3-12.7,15.4-19.1c0.5-0.6,0.6-1.5,0-2.1c-0.5-0.5-1.6-0.6-2.1,0
			c-5.1,6.4-10.3,12.7-15.4,19.1c-0.5,0.6-0.6,1.5,0,2.1C272.5,605.5,273.6,605.6,274.1,605L274.1,605z"/>
	</g>
</g>
<g>
	<g>
		<path class="st0" d="M259,604.7c3.6-7.1,8.2-13.7,13.7-19.5c1.3-1.4-0.8-3.5-2.1-2.1c-5.6,6-10.4,12.8-14.2,20.1
			C255.6,604.9,258.1,606.4,259,604.7L259,604.7z"/>
	</g>
</g>
<g>
	<g>
		<path class="st0" d="M307.6,606c4.9-9.8,11.8-18.4,20.2-25.4c1.5-1.2-0.6-3.4-2.1-2.1c-8.6,7.2-15.6,16.1-20.7,26
			C304.1,606.2,306.7,607.7,307.6,606L307.6,606z"/>
	</g>
</g>
<g>
	<g>
		<path class="st0" d="M334.1,599.1c4.3-4.9,8.6-9.8,12.8-14.7c0.5-0.6,0.6-1.5,0-2.1c-0.5-0.5-1.6-0.6-2.1,0
			c-4.3,4.9-8.6,9.8-12.8,14.7c-0.5,0.6-0.6,1.5,0,2.1C332.5,599.6,333.6,599.7,334.1,599.1L334.1,599.1z"/>
	</g>
</g>
<g>
	<g>
		<path class="st0" d="M364.9,600.2c4-5.6,8.1-11.3,12.1-16.9c0.5-0.7,0.1-1.7-0.5-2.1c-0.8-0.4-1.6-0.1-2.1,0.5
			c-4,5.6-8.1,11.3-12.1,16.9c-0.5,0.7-0.1,1.7,0.5,2.1C363.6,601.2,364.4,600.9,364.9,600.2L364.9,600.2z"/>
	</g>
</g>
<g>
	<g>
		<path class="st0" d="M390.8,601.6c4.9-7.4,9.7-14.8,14.6-22.2c1.1-1.6-1.5-3.1-2.6-1.5c-4.9,7.4-9.7,14.8-14.6,22.2
			C387.1,601.7,389.7,603.3,390.8,601.6L390.8,601.6z"/>
	</g>
</g>
<g>
	<g>
		<path class="st0" d="M415.2,602c5.8-5.6,10.3-12.4,13.3-19.9c0.3-0.8-0.3-1.6-1-1.8c-0.9-0.2-1.5,0.3-1.8,1
			c-2.8,7-7.1,13.3-12.5,18.6C411.6,601.3,413.8,603.4,415.2,602L415.2,602z"/>
	</g>
</g>
<g>
	<g>
		<path class="st0" d="M442.3,600.2c3.6-5.4,7.1-10.7,10.7-16.1c1.1-1.6-1.5-3.1-2.6-1.5c-3.6,5.4-7.1,10.7-10.7,16.1
			C438.6,600.3,441.2,601.8,442.3,600.2L442.3,600.2z"/>
	</g>
</g>
<g>
	<g>
		<path class="st0" d="M474.8,602c5.9-7.2,11.2-15,15.6-23.3c0.9-1.7-1.7-3.2-2.6-1.5c-4.3,8-9.3,15.6-15.1,22.7
			C471.5,601.3,473.6,603.4,474.8,602L474.8,602z"/>
	</g>
</g>
<g>
	<g>
		<path class="st0" d="M462.8,598.6c5.8-8.2,11.6-16.4,17.4-24.6c1.1-1.6-1.5-3.1-2.6-1.5c-5.8,8.2-11.6,16.4-17.4,24.6
			C459.1,598.6,461.7,600.1,462.8,598.6L462.8,598.6z"/>
	</g>
</g>
<g>
	<g>
		<path class="st0" d="M504.2,590.9c4.3-9.2,8.5-18.4,12.8-27.7c0.8-1.7-1.8-3.3-2.6-1.5c-4.3,9.2-8.5,18.4-12.8,27.7
			C500.8,591.2,503.3,592.7,504.2,590.9L504.2,590.9z"/>
	</g>
</g>
<g>
	<g>
		<path class="st0" d="M530.4,586.4c5-10.8,10-21.5,15-32.3c0.8-1.7-1.8-3.3-2.6-1.5c-5,10.8-10,21.5-15,32.3
			C527,586.7,529.6,588.2,530.4,586.4L530.4,586.4z"/>
	</g>
</g>
<g>
	<g>
		<path class="st0" d="M555.2,568.5c8-11.1,15.7-22.4,22.9-34c1-1.6-1.6-3.1-2.6-1.5c-7.3,11.6-14.9,22.9-22.9,34
			C551.5,568.5,554.1,570,555.2,568.5L555.2,568.5z"/>
	</g>
</g>
<g>
	<g>
		<path class="st0" d="M562.2,530.8c8.2-12.2,16.7-24.1,25.6-35.8c1.2-1.5-1.4-3-2.6-1.5c-8.9,11.7-17.4,23.6-25.6,35.8
			C558.5,530.9,561.1,532.4,562.2,530.8L562.2,530.8z"/>
	</g>
</g>
<g>
	<g>
		<path class="st0" d="M573.2,489c10.6-12.5,22.1-24.2,34.4-35.1c1.4-1.3-0.7-3.4-2.1-2.1c-12.3,10.9-23.8,22.6-34.4,35.1
			C569.8,488.3,572,490.4,573.2,489L573.2,489z"/>
	</g>
</g>
<g>
	<g>
		<path class="st0" d="M572,456.1c12.4-7.2,25.1-13.8,38-19.9c1.7-0.8,0.2-3.4-1.5-2.6c-12.9,6.1-25.6,12.8-38,19.9
			C568.9,454.5,570.4,457.1,572,456.1L572,456.1z"/>
	</g>
</g>
<g>
	<g>
		<path class="st0" d="M572.8,436c11.6-11.6,23.1-23.2,34.7-34.8c1.4-1.4-0.8-3.5-2.1-2.1c-11.6,11.6-23.1,23.2-34.7,34.8
			C569.3,435.2,571.4,437.3,572.8,436L572.8,436z"/>
	</g>
</g>
<g>
	<g>
		<path class="st0" d="M574.5,402.8c9.8-6.7,19.5-13.4,29.3-20.1c1.6-1.1,0.1-3.7-1.5-2.6c-9.8,6.7-19.5,13.4-29.3,20.1
			C571.4,401.3,572.9,403.9,574.5,402.8L574.5,402.8z"/>
	</g>
</g>
<g>
	<g>
		<path class="st0" d="M577.4,378.2c8.6-7.2,17.4-14.1,26.6-20.6c1.6-1.1,0.1-3.7-1.5-2.6c-9.3,6.7-18.4,13.7-27.2,21.1
			C573.8,377.4,575.9,379.5,577.4,378.2L577.4,378.2z"/>
	</g>
</g>
<g>
	<g>
		<path class="st0" d="M575.3,347.6c10.2-9,20.4-18.1,30.6-27.1c1.4-1.3-0.7-3.4-2.1-2.1c-10.2,9-20.4,18.1-30.6,27.1
			C571.8,346.7,573.9,348.9,575.3,347.6L575.3,347.6z"/>
	</g>
</g>
<g>
	<g>
		<path class="st0" d="M576.6,321.4c8.9-11.1,18.5-21.7,28.8-31.6c1.4-1.3-0.7-3.5-2.1-2.1c-10.3,9.9-19.9,20.4-28.8,31.6
			C573.3,320.7,575.4,322.9,576.6,321.4L576.6,321.4z"/>
	</g>
</g>
<g>
	<g>
		<path class="st0" d="M577.8,290.6c8.9-9.5,18.4-18.4,28.5-26.7c1.5-1.2-0.6-3.3-2.1-2.1c-10,8.3-19.5,17.2-28.5,26.7
			C574.3,289.8,576.5,292,577.8,290.6L577.8,290.6z"/>
	</g>
</g>
<g>
	<g>
		<path class="st0" d="M577.1,267.4c7.7-6.9,15.3-14,22.6-21.3c1.4-1.4-0.7-3.5-2.1-2.1c-7.4,7.3-14.9,14.4-22.6,21.3
			C573.5,266.6,575.7,268.7,577.1,267.4L577.1,267.4z"/>
	</g>
</g>
<g>
	<g>
		<path class="st0" d="M578,249.6c8.4-10.6,16.4-21.4,24.2-32.5c1.1-1.6-1.5-3.1-2.6-1.5c-7.6,10.9-15.5,21.5-23.7,31.9
			C574.7,249,576.8,251.1,578,249.6L578,249.6z"/>
	</g>
</g>
<g>
	<g>
		<path class="st0" d="M576.3,224.9c7.1-11.3,15-22,23.7-32.1c1.3-1.5-0.9-3.6-2.1-2.1c-8.8,10.3-16.9,21.2-24.2,32.7
			C572.7,225,575.3,226.5,576.3,224.9L576.3,224.9z"/>
	</g>
</g>
<g>
	<g>
		<path class="st0" d="M572.7,191.5c4.5-8,9.7-15.7,15.5-22.8c1.2-1.5-0.9-3.6-2.1-2.1c-6,7.3-11.3,15.2-16,23.4
			C569.2,191.7,571.8,193.2,572.7,191.5L572.7,191.5z"/>
	</g>
</g>
<g>
	<g>
		<path class="st0" d="M568,166.6c5.3-8.1,10.6-16.2,15.8-24.2c1.1-1.6-1.5-3.1-2.6-1.5c-5.3,8.1-10.6,16.2-15.8,24.2
			C564.4,166.7,566.9,168.2,568,166.6L568,166.6z"/>
	</g>
</g>
<g>
	<g>
		<path class="st0" d="M556.3,141.6c4.6-8.2,8.8-16.5,12.7-25c0.8-1.7-1.8-3.3-2.6-1.5c-3.9,8.5-8.2,16.9-12.7,25
			C552.7,141.7,555.3,143.3,556.3,141.6L556.3,141.6z"/>
	</g>
</g>
<g>
	<g>
		<path class="st0" d="M546.1,119.2c0.3-2.3,1.3-4.3,2.4-6.4c0.9-1.9,1.8-3.9,2.7-5.9c1.7-4.2,3.2-8.4,4.5-12.7
			c0.5-1.9-2.4-2.7-2.9-0.8c-1.2,4.4-2.7,8.6-4.5,12.8c-0.9,2-1.8,4-2.7,5.9c-1,2-1.9,4.1-2.3,6.3c-0.1,0.8,0.2,1.6,1,1.8
			C545,120.5,546,120,546.1,119.2L546.1,119.2z"/>
	</g>
</g>
<g>
	<g>
		<path class="st0" d="M517.1,93.8c5.6-6.5,11.5-12.7,17.6-18.6c1.4-1.3-0.7-3.5-2.1-2.1c-6.2,5.9-12.1,12.1-17.6,18.6
			C513.8,93.2,515.9,95.3,517.1,93.8L517.1,93.8z"/>
	</g>
</g>
<g>
	<g>
		<path class="st0" d="M528.9,100c5.3-6.3,10.7-12.6,16.3-18.7c1.3-1.4-0.8-3.6-2.1-2.1c-5.6,6.1-11,12.3-16.3,18.7
			C525.6,99.3,527.7,101.5,528.9,100L528.9,100z"/>
	</g>
</g>
<g>
	<g>
		<path class="st0" d="M477.6,81.9c0.1,1,0.3,1.2,0.6,0.8c0.1-0.1,0.3-0.3,0.4-0.4c0.2-0.3,0.5-0.5,0.7-0.8c0.5-0.6,1-1.1,1.6-1.7
			c1-1,2-2,3-3c2.2-2.1,4.5-4.1,6.9-5.9c4.7-3.6,9.9-6.8,15.2-9.4c1.7-0.8,0.2-3.4-1.5-2.6c-6.3,3-12.1,6.8-17.5,11.2
			c-2.7,2.2-5.2,4.5-7.6,6.9c-1.4,1.4-6.4,5.5-3.2,7.4C477.7,85.4,479.2,82.8,477.6,81.9L477.6,81.9z"/>
	</g>
</g>
<g>
	<g>
		<path class="st0" d="M500.3,84.7c6.5-6,13-12,19.5-18.1c1.4-1.3-0.7-3.4-2.1-2.1c-6.5,6-13,12-19.5,18.1
			C496.8,83.9,498.9,86,500.3,84.7L500.3,84.7z"/>
	</g>
</g>
<g>
	<g>
		<path class="st0" d="M65.7,129.6c11.8-8.7,24.1-16.8,36.7-24.2c1.7-1,0.2-3.6-1.5-2.6C88.3,110.2,76,118.3,64.2,127
			C62.7,128.1,64.2,130.7,65.7,129.6L65.7,129.6z"/>
	</g>
</g>
<g>
	<g>
		<path class="st0" d="M111.1,93.4c8.9-10.8,18.1-21.4,27.7-31.5c1.3-1.4-0.8-3.5-2.1-2.1C127.1,70,117.9,80.5,109,91.3
			C107.8,92.8,109.9,94.9,111.1,93.4L111.1,93.4z"/>
	</g>
</g>
<g>
	<g>
		<path class="st0" d="M124.2,94.9c10.2-10.2,20.4-20.4,30.6-30.6c1.4-1.4-0.8-3.5-2.1-2.1c-10.2,10.2-20.4,20.4-30.6,30.6
			C120.7,94.2,122.8,96.3,124.2,94.9L124.2,94.9z"/>
	</g>
</g>
<g>
	<g>
		<path class="st0" d="M154.9,82.7c12.1-9.7,24.2-19.4,36.3-29c1.5-1.2-0.6-3.3-2.1-2.1c-12.1,9.7-24.2,19.4-36.3,29
			C151.2,81.8,153.4,83.9,154.9,82.7L154.9,82.7z"/>
	</g>
</g>
<g>
	<g>
		<path class="st0" d="M191.7,78c12.7-10.1,26-19.5,39.7-28.3c1.6-1,0.1-3.6-1.5-2.6c-13.9,8.9-27.3,18.5-40.3,28.8
			C188,77.1,190.2,79.2,191.7,78L191.7,78z"/>
	</g>
</g>
<g>
	<g>
		<path class="st0" d="M229.1,75.2c11.4-9,22.9-18,34.3-27c1.5-1.2-0.6-3.3-2.1-2.1c-11.4,9-22.9,18-34.3,27
			C225.5,74.3,227.6,76.4,229.1,75.2L229.1,75.2z"/>
	</g>
</g>
<g>
	<g>
		<path class="st0" d="M263.6,74.4c6.2-6.3,12.3-12.6,18.5-18.9c1.4-1.4-0.8-3.5-2.1-2.1c-6.2,6.3-12.3,12.6-18.5,18.9
			C260.2,73.6,262.3,75.7,263.6,74.4L263.6,74.4z"/>
	</g>
</g>
<g>
	<g>
		<path class="st0" d="M295.6,77c11.7-11.7,24.1-22.6,37.3-32.6c1.5-1.2,0-3.8-1.5-2.6C318,52,305.3,63,293.5,74.9
			C292.1,76.3,294.2,78.4,295.6,77L295.6,77z"/>
	</g>
</g>
<g>
	<g>
		<path class="st0" d="M336.7,77.9c11-8.6,21.7-17.6,32-27c1.4-1.3-0.7-3.4-2.1-2.1c-10.3,9.4-21,18.4-32,27
			C333,77,335.1,79.1,336.7,77.9L336.7,77.9z"/>
	</g>
</g>
<g>
	<g>
		<path class="st0" d="M286.2,71.4c7.4-6.9,14.7-13.9,22.1-20.8c1.4-1.3-0.7-3.4-2.1-2.1c-7.4,6.9-14.7,13.9-22.1,20.8
			C282.7,70.6,284.8,72.7,286.2,71.4L286.2,71.4z"/>
	</g>
</g>
<g>
	<g>
		<path class="st0" d="M370,77.9c9-9.6,18-19.2,27.1-28.8c1.3-1.4-0.8-3.5-2.1-2.1c-9,9.6-18,19.2-27.1,28.8
			C366.6,77.2,368.7,79.3,370,77.9L370,77.9z"/>
	</g>
</g>
<g>
	<g>
		<path class="st0" d="M406.2,78.7c8.4-9.6,17.7-18.5,27.7-26.5c1.5-1.2-0.6-3.3-2.1-2.1c-10,8-19.3,16.8-27.7,26.5
			C402.9,78.1,405,80.2,406.2,78.7L406.2,78.7z"/>
	</g>
</g>
<g>
	<g>
		<path class="st0" d="M442.3,77.3c7.3-6.8,13.8-14.4,19.4-22.7c1.1-1.6-1.5-3.1-2.6-1.5c-5.5,8-11.8,15.4-18.9,22
			C438.7,76.5,440.9,78.7,442.3,77.3L442.3,77.3z"/>
	</g>
</g>
<g>
	<g>
		<path class="st0" d="M462.2,81c5.7-8.4,11.7-16.6,18-24.7c1.2-1.5-0.9-3.6-2.1-2.1c-6.4,8.2-12.6,16.7-18.4,25.3
			C458.5,81.1,461.1,82.6,462.2,81L462.2,81z"/>
	</g>
</g>
</svg>
