<?xml version="1.0" encoding="utf-8"?>
<!-- Generator: Adobe Illustrator 24.0.2, SVG Export Plug-In . SVG Version: 6.00 Build 0)  -->
<svg version="1.1" id="Capa_1" xmlns="http://www.w3.org/2000/svg" xmlns:xlink="http://www.w3.org/1999/xlink" x="0px" y="0px"
	 viewBox="0 0 420 478" style="enable-background:new 0 0 420 478;" xml:space="preserve">
<style type="text/css">
	.st0{fill:#070707;}
</style>
<g>
	<g>
		<path class="st0" d="M144.51,65.2c-23.8-6.55-49.98-10.93-74.69-7.99c-21.94,2.61-40.6,13.04-52.71,31.73
			C4.16,108.91,1.24,133.37,2.81,156.65c1.65,24.46,6.71,48.95,13.19,72.56c6.48,23.61,14.97,46.66,25.24,68.88
			c5.11,11.05,10.68,21.89,16.69,32.47c4.66,8.2,10.11,20.96,21.18,21.35c11.34,0.4,19.62-11.48,26.57-18.77
			c8.96-9.39,18.59-18.46,27.02-28.33c8.27-9.69-0.58-17.63-7.48-24.5c-8.44-8.4-11.65-20.54-12.41-32.1
			c-0.96-14.61,0.52-29.47,1.19-44.08c0.68-14.96,1.16-29.95,2.3-44.88c2.13-27.86,7.79-56.14,25.15-78.77
			c3.91-5.1-4.77-10.09-8.63-5.05c-28.85,37.62-27,88.72-29.04,133.67c-1,21.94-4.41,46.13,5.89,66.51
			c2.18,4.31,5.06,8.36,8.49,11.77c1.45,1.44,3.05,2.72,4.5,4.16c2.5,2.47,4.43,4.12,2.03,7.23c-3.48,4.51-8.09,8.48-12.03,12.6
			c-4.46,4.67-8.91,9.33-13.37,14c-3.83,4.02-7.53,8.26-11.6,12.05c-4.46,4.15-9.05,6.37-13.36,0.93
			c-6.61-8.35-11.38-19.06-16.24-28.5c-10.42-20.21-19.2-41.23-26.28-62.83c-7.03-21.44-12.4-43.43-16.01-65.7
			c-3.71-22.84-5.9-47.06,1.42-69.43c7.31-22.37,23.84-39.11,47.23-43.79c25.12-5.02,53.08,0.06,77.4,6.74
			C148.06,76.55,150.71,66.91,144.51,65.2L144.51,65.2z"/>
	</g>
</g>
<g>
	<g>
		<path class="st0" d="M189.87,53.74c-16.49,2.22-27.41,16.39-36.35,29.11c-10.3,14.66-19.25,30.77-22.42,48.61
			c-3.44,19.36-3.57,39.55-4.94,59.14c-0.7,10.08-1.4,20.17-2.1,30.25c-0.66,9.56-1.76,19.23-1.45,28.82
			c0.52,16.33,7.09,30.9,20.45,40.65c5.91,4.31,12.87,7.24,20.1,8.35c7.6,1.17,15.29,0.79,22.91,1.64c7.6,0.85,14.5,3.6,17.59,11.12
			c3.4,8.27,3.31,18.26,4.26,27.04c2.18,20.12,4.37,40.24,6.55,60.37c1.86,17.12,1.66,37,12.66,51.26
			c9.18,11.9,24.66,19.06,39.72,17.56c14.46-1.44,27.71-10.15,35.09-22.63c9.19-15.54,6.08-34.5,8.37-51.68
			c5.02-37.63,21.38-72.55,28.93-109.61c7.93-38.9,7.22-78.82,5.95-118.29c-0.29-9.06,0.04-18.65-3.6-27.15
			c-3.5-8.19-10.11-14.81-15.31-21.94c-10.4-14.26-19.84-29.54-32.82-41.68c-22.67-21.18-55.05-31.6-85.84-28.08
			c-7.67,0.88-15.16,2.5-22.47,5c-6.05,2.07-3.45,11.73,2.66,9.64c27.8-9.51,59.1-5.88,84.12,9.52
			c13.65,8.41,24.02,20.32,33.33,33.21c4.84,6.71,9.48,13.56,14.43,20.19c5.03,6.73,11.66,13.13,13.9,21.44
			c2.26,8.39,1.55,17.9,1.81,26.53c0.29,9.56,0.52,19.13,0.57,28.7c0.11,18.12-0.41,36.27-2.36,54.3
			c-3.9,35.9-16.79,69.09-26.2,103.68c-4.52,16.63-7.83,33.61-8.42,50.88c-0.55,15.97-1.78,31.25-15.79,41.37
			c-11.63,8.4-26.65,8.86-38.85,1.34c-14.97-9.23-16.87-25.85-18.61-41.87c-2.04-18.82-4.08-37.65-6.13-56.47
			c-1.02-9.41-2.03-18.83-3.06-28.24c-0.81-7.38-1.58-15.02-5.29-21.62c-7.24-12.88-22.08-13.93-35.27-14.47
			c-14.52-0.59-27.81-4.35-36.48-16.97c-9.85-14.35-6.78-32.64-5.65-48.97c1.31-18.87,2.62-37.74,3.93-56.61
			c1.22-17.57,1.54-35.32,8.49-51.79c6.23-14.78,15.81-29.98,27.06-41.47c5.38-5.49,11.46-9.49,19.18-10.53
			C198.88,62.53,196.18,52.89,189.87,53.74L189.87,53.74z"/>
	</g>
</g>
<g>
	<g>
		<path class="st0" d="M156.38,170.61c4.86,19.62,36.76,22.74,45.22,4.25c1.8-3.93,3.23-9.35,1.23-13.46
			c-2.11-4.35-7.19-5.48-11.52-6.12c-10.89-1.6-21.63,0.34-31.52,5.05c-5.81,2.77-0.74,11.39,5.05,8.63
			c5.26-2.5,10.97-4.01,16.8-4.25c2.89-0.12,5.82-0.02,8.67,0.46c1.88,0.32,2.95,0.08,3.3,2.1c0.18,1.04-0.76,2.83-1.21,3.7
			c-2.52,4.87-9.7,6.47-14.76,6.1c-5.56-0.4-10.25-3.61-11.62-9.12C164.47,161.71,154.82,164.35,156.38,170.61L156.38,170.61z"/>
	</g>
</g>
<g>
	<g>
		<path class="st0" d="M290.38,160.65c2.44,8.01,8.67,14.64,16.94,16.69c8.67,2.15,18.34,0.64,22.48-8.12
			c2.95-6.24,4.57-19.01-3.77-21.6c-9.97-3.09-21.09-1.17-30.34,3.14c-5.83,2.72-0.76,11.34,5.05,8.63
			c5.15-2.4,10.75-3.48,16.42-3.14c1.48,0.09,3.12,0.63,4.56,0.61c0.55,0.13,1.1,0.27,1.65,0.4c-0.54-0.7-1.07-1.4-1.61-2.1
			c0.47-0.05-0.33,8.1-0.6,8.82c-1.81,4.96-7.44,4.85-11.85,3.54c-4.57-1.35-7.92-5.05-9.29-9.54
			C298.15,151.85,288.49,154.47,290.38,160.65L290.38,160.65z"/>
	</g>
</g>
<g>
	<g>
		<path class="st0" d="M166.53,305.71c-4.63,6.75-9.13,10.61-17.04,13.06c-6.75,2.09-14.25,2.67-20.75,5.34
			c-4.86,2-8.84,6.49-8.27,12.03c0.55,5.36,5.15,8.51,10.01,9.78c6.61,1.74,14,1.94,20.79,2.26c7.33,0.34,14.81,0.45,22.1-0.46
			c12.63-1.57,23.29-8.15,30.4-18.71c3.6-5.35-5.06-10.36-8.63-5.05c-5.85,8.69-14.97,13.3-25.29,14.12
			c-11.21,0.89-23.1,0.47-34.2-1.32c-0.98-0.16-4.3-0.39-4.83-1.36c-0.92-1.67,2.97-2.49,4.27-2.79c5.41-1.28,10.83-2.32,16.16-3.92
			c4.82-1.44,9.67-3.14,13.73-6.18c4.22-3.16,7.24-7.45,10.19-11.75C178.81,305.44,170.15,300.43,166.53,305.71L166.53,305.71z"/>
	</g>
</g>
<g>
	<g>
		<path class="st0" d="M344.01,303.19c10.1,4.9,20.01,8.86,31.29,9.88c5.44,0.49,10.92,0.36,16.35-0.18
			c2.57-0.26,5.13-0.59,7.68-0.99c1.2-0.19,2.41-0.39,3.6-0.61c0.9-0.16,1.79-0.34,2.68-0.52c1.02-0.25,1.18-0.26,0.5-0.04
			c-0.77-1-1.53-1.99-2.3-2.99c1.46,5.45-6.95,11.19-10.8,13.48c-4.76,2.83-10.02,4.59-15.41,5.77
			c-13.22,2.89-27.06,2.05-40.07-1.43c-6.22-1.67-8.88,7.98-2.66,9.64c23.5,6.29,59.73,6.25,75.43-16.23
			c2.91-4.16,5.84-11.66,1.87-16.1c-4.17-4.66-12.7-0.95-17.8-0.28c-7.32,0.95-14.92,1.22-22.23,0.12
			c-8.23-1.24-15.66-4.54-23.08-8.15C343.29,291.75,338.21,300.37,344.01,303.19L344.01,303.19z"/>
	</g>
</g>
<g>
	<g>
		<path class="st0" d="M281.81,58.92c10.01,9.82,21.97,17.14,33.06,25.61c12.19,9.32,21.38,20.34,26.54,34.95
			c11.24,31.8,11.56,67.36,9.57,100.64c-1.18,19.77-3.45,39.46-5.75,59.13c-0.62,5.35,6.84,6.2,9.32,2.52
			c25.89-38.4,44.84-81.5,55.34-126.62c2.65-11.4,5.04-23.03,5.72-34.74c0.68-11.73-2.77-21.93-9.16-31.67
			c-10.94-16.69-27.39-29.08-45.65-36.78c-24.63-10.38-51.9-11.92-78.24-9.6c-6.36,0.56-6.42,10.57,0,10
			c40.1-3.54,85.97,2.91,112.13,37c6.88,8.97,11.49,18.6,10.98,30.1c-0.49,11.13-2.9,22.21-5.42,33.03
			c-4.84,20.76-11.43,41.16-19.77,60.79c-9.43,22.21-21.08,43.44-34.56,63.44c3.11,0.84,6.21,1.68,9.32,2.52
			c4.16-35.7,8.33-71.73,5.84-107.72c-2.19-31.72-7.74-67.05-32.92-89.02c-12.54-10.94-27.35-18.98-39.27-30.67
			C284.29,47.34,277.21,54.4,281.81,58.92L281.81,58.92z"/>
	</g>
</g>
<g>
	<g>
		<path class="st0" d="M140.87,179.87c0.01-0.14,0.05-0.16,0-0.03c0.03-0.09,0.05-0.18,0.08-0.27c-0.06,0.15-0.02,0.05,0.03-0.03
			c0.05-0.08,0.1-0.17,0.15-0.25c0.04-0.06,0.12-0.18,0.03-0.06c0.07-0.1,0.16-0.19,0.24-0.29c0.14-0.16,0.28-0.32,0.42-0.48
			c0.66-0.73,1.32-1.45,1.98-2.18c1.32-1.45,2.65-2.9,3.98-4.34c0.53-0.58,0.61-1.56,0-2.12c-0.58-0.53-1.55-0.62-2.12,0
			c-1.45,1.57-2.9,3.15-4.34,4.73c-0.68,0.75-1.38,1.49-2.04,2.26c-0.77,0.9-1.35,1.84-1.41,3.05c-0.04,0.78,0.72,1.53,1.5,1.5
			C140.21,181.33,140.82,180.71,140.87,179.87L140.87,179.87z"/>
	</g>
</g>
<g>
	<g>
		<path class="st0" d="M139.3,192.95c5.12-5.94,10.25-11.87,15.37-17.81c1.26-1.46-0.86-3.59-2.12-2.12
			c-5.12,5.94-10.25,11.87-15.37,17.81C135.92,192.28,138.03,194.41,139.3,192.95L139.3,192.95z"/>
	</g>
</g>
<g>
	<g>
		<path class="st0" d="M140.96,205.65c6.61-6.89,12.79-14.16,18.54-21.77c0.49-0.65,0.1-1.67-0.54-2.05
			c-0.76-0.46-1.57-0.1-2.05,0.54c-5.6,7.4-11.65,14.47-18.07,21.17C137.5,204.92,139.62,207.05,140.96,205.65L140.96,205.65z"/>
	</g>
</g>
<g>
	<g>
		<path class="st0" d="M142.31,218.58c9.13-9.19,18.29-18.24,26.07-28.64c1.16-1.55-1.45-3.04-2.59-1.51
			c-7.61,10.19-16.66,19.03-25.6,28.04C138.82,217.83,140.94,219.95,142.31,218.58L142.31,218.58z"/>
	</g>
</g>
<g>
	<g>
		<path class="st0" d="M142.99,230.3c13.42-10.59,26.01-22.2,37.64-34.73c1.31-1.41-0.8-3.54-2.12-2.12
			c-11.63,12.53-24.22,24.15-37.64,34.73C139.35,229.37,141.49,231.48,142.99,230.3L142.99,230.3z"/>
	</g>
</g>
<g>
	<g>
		<path class="st0" d="M140.62,243.16c15.43-13.25,30.95-26.39,46.56-39.43c1.48-1.24-0.65-3.35-2.12-2.12
			c-15.61,13.03-31.13,26.18-46.56,39.43C137.03,242.3,139.17,244.41,140.62,243.16L140.62,243.16z"/>
	</g>
</g>
<g>
	<g>
		<path class="st0" d="M143.7,253.16c14.02-12.16,28.54-23.72,43.54-34.65c1.54-1.13,0.05-3.73-1.51-2.59
			c-15.2,11.08-29.93,22.79-44.14,35.12C140.12,252.3,142.25,254.42,143.7,253.16L143.7,253.16z"/>
	</g>
</g>
<g>
	<g>
		<path class="st0" d="M147.15,261.82c12.14-9.81,24.64-19.15,37.47-28.02c1.58-1.09,0.08-3.69-1.51-2.59
			c-13.04,9.02-25.75,18.53-38.08,28.49C143.53,260.91,145.66,263.02,147.15,261.82L147.15,261.82z"/>
	</g>
</g>
<g>
	<g>
		<path class="st0" d="M151.86,271.28c3.99-5.07,9.47-8.47,14.86-11.85c5.97-3.75,11.4-8.01,16.74-12.6
			c1.47-1.26-0.66-3.37-2.12-2.12c-2.83,2.43-5.67,4.88-8.66,7.12c-2.63,1.96-5.39,3.71-8.16,5.45
			c-5.36,3.37-10.82,6.85-14.78,11.89C148.55,270.66,150.66,272.79,151.86,271.28L151.86,271.28z"/>
	</g>
</g>
<g>
	<g>
		<path class="st0" d="M156.31,277.31c6.79-5.44,13.65-10.79,20.57-16.06c0.65-0.49,0.97-1.29,0.54-2.05
			c-0.36-0.64-1.41-1.03-2.05-0.54c-7.13,5.42-14.19,10.93-21.18,16.53c-0.64,0.51-0.52,1.59,0,2.12
			C154.81,277.95,155.68,277.82,156.31,277.31L156.31,277.31z"/>
	</g>
</g>
<g>
	<g>
		<path class="st0" d="M161.58,284.95c3.29-2.29,6.41-4.81,9.33-7.57c0.57-0.54,0.59-1.58,0-2.12c-0.61-0.56-1.51-0.58-2.12,0
			c-1.39,1.31-2.83,2.58-4.31,3.78c-1.43,1.16-2.83,2.21-4.41,3.31c-0.64,0.45-1,1.33-0.54,2.05
			C159.94,285.05,160.89,285.43,161.58,284.95L161.58,284.95z"/>
	</g>
</g>
<g>
	<g>
		<path class="st0" d="M285.93,174.38c1.9-1.18,3.67-2.58,5.24-4.18c0.55-0.56,0.6-1.57,0-2.12c-0.59-0.55-1.53-0.6-2.12,0
			c-0.73,0.74-1.5,1.44-2.32,2.09c-0.09,0.07-0.18,0.15-0.28,0.22c-0.14,0.11,0.27-0.21,0.06-0.05c-0.05,0.04-0.09,0.07-0.14,0.11
			c-0.21,0.16-0.42,0.31-0.64,0.47c-0.43,0.3-0.87,0.59-1.32,0.87c-0.67,0.41-0.98,1.36-0.54,2.05
			C284.31,174.51,285.22,174.82,285.93,174.38L285.93,174.38z"/>
	</g>
</g>
<g>
	<g>
		<path class="st0" d="M287.07,184.06c2.89-2.77,5.51-5.81,7.88-9.05c0.46-0.64,0.13-1.7-0.54-2.05c-0.78-0.41-1.56-0.14-2.05,0.54
			c-2.11,2.9-4.68,5.83-7.41,8.44c-0.57,0.54-0.59,1.58,0,2.12C285.56,184.62,286.47,184.64,287.07,184.06L287.07,184.06z"/>
	</g>
</g>
<g>
	<g>
		<path class="st0" d="M288.23,193.91c4.86-4.14,9.37-8.67,13.51-13.53c0.52-0.62,0.61-1.52,0-2.12c-0.54-0.54-1.59-0.62-2.12,0
			c-4.14,4.86-8.65,9.38-13.51,13.53c-0.62,0.53-0.54,1.58,0,2.12C286.72,194.53,287.62,194.44,288.23,193.91L288.23,193.91z"/>
	</g>
</g>
<g>
	<g>
		<path class="st0" d="M290.02,206.23c5.82-8.63,15.06-14.61,18.92-24.57c0.7-1.8-2.2-2.58-2.89-0.8
			c-3.71,9.56-13,15.54-18.62,23.85C286.35,206.32,288.94,207.83,290.02,206.23L290.02,206.23z"/>
	</g>
</g>
<g>
	<g>
		<path class="st0" d="M294.49,213.39c10.08-9.71,19.02-20.56,26.64-32.3c1.05-1.62-1.54-3.13-2.59-1.51
			c-7.49,11.53-16.27,22.15-26.17,31.69C290.97,212.61,293.1,214.73,294.49,213.39L294.49,213.39z"/>
	</g>
</g>
<g>
	<g>
		<path class="st0" d="M297.93,222.18c11.76-7.98,18.78-20.52,27.35-31.47c2.43-3.11,5.02-6.1,7.87-8.84
			c1.39-1.34-0.73-3.46-2.12-2.12c-9.98,9.59-16.38,22.12-25.81,32.18c-2.67,2.85-5.57,5.46-8.81,7.65
			C294.83,220.67,296.33,223.27,297.93,222.18L297.93,222.18z"/>
	</g>
</g>
<g>
	<g>
		<path class="st0" d="M303.62,228.46c5.81-3.86,11.77-7.83,16.98-12.49c4.85-4.34,8.23-9.94,11.51-15.5
			c0.98-1.67-1.61-3.18-2.59-1.51c-3.15,5.35-6.37,10.71-11.04,14.89c-5.02,4.49-10.77,8.3-16.37,12.02
			C300.5,226.94,302,229.54,303.62,228.46L303.62,228.46z"/>
	</g>
</g>
<g>
	<g>
		<path class="st0" d="M308.91,237.22c9.01-6.13,18.1-12.44,24.62-21.33c1.14-1.56-1.46-3.06-2.59-1.51
			c-6.19,8.45-14.99,14.43-23.54,20.25C305.81,235.71,307.31,238.31,308.91,237.22L308.91,237.22z"/>
	</g>
</g>
<g>
	<g>
		<path class="st0" d="M311.33,244.73c8.15-4.72,15.75-10.35,22.66-16.75c1.42-1.31-0.71-3.43-2.12-2.12
			c-6.73,6.23-14.12,11.68-22.05,16.28C308.15,243.11,309.66,245.7,311.33,244.73L311.33,244.73z"/>
	</g>
</g>
<g>
	<g>
		<path class="st0" d="M316.06,253.62c3.04-2.23,6.11-4.41,9.1-6.71c2.81-2.16,5.43-4.49,7.51-7.38c0.47-0.66,0.12-1.67-0.54-2.05
			c-0.75-0.44-1.58-0.12-2.05,0.54c-1.86,2.6-4.34,4.72-6.87,6.64c-2.85,2.17-5.77,4.26-8.66,6.38c-0.65,0.48-0.98,1.3-0.54,2.05
			C314.39,253.73,315.41,254.11,316.06,253.62L316.06,253.62z"/>
	</g>
</g>
<g>
	<g>
		<path class="st0" d="M321.48,261.87c3.62-3.68,7.24-7.37,10.86-11.05c1.35-1.38-0.77-3.5-2.12-2.12
			c-3.62,3.68-7.24,7.37-10.86,11.05C318,261.12,320.12,263.25,321.48,261.87L321.48,261.87z"/>
	</g>
</g>
<g>
	<g>
		<path class="st0" d="M325.43,270.37c2.61-3.89,5.17-7.83,7.67-11.79c1.03-1.64-1.56-3.15-2.59-1.51c-2.5,3.97-5.06,7.9-7.67,11.79
			c-0.45,0.67-0.13,1.66,0.54,2.05C324.11,271.34,324.97,271.05,325.43,270.37L325.43,270.37z"/>
	</g>
</g>
<g>
	<g>
		<path class="st0" d="M328.5,277.23c1.07-1.57,2.1-3.16,3.07-4.79c0.4-0.67,0.17-1.68-0.54-2.05c-0.73-0.38-1.62-0.18-2.05,0.54
			c-0.98,1.63-2,3.22-3.07,4.79c-0.44,0.65-0.14,1.69,0.54,2.05C327.21,278.17,328.03,277.92,328.5,277.23L328.5,277.23z"/>
	</g>
</g>
</svg>
