<?xml version="1.0" encoding="utf-8"?>
<!-- Generator: Adobe Illustrator 24.0.2, SVG Export Plug-In . SVG Version: 6.00 Build 0)  -->
<svg version="1.1" id="Capa_1" xmlns="http://www.w3.org/2000/svg" xmlns:xlink="http://www.w3.org/1999/xlink" x="0px" y="0px"
	 viewBox="0 0 420 478" style="enable-background:new 0 0 420 478;" xml:space="preserve">
<style type="text/css">
	.st0{fill:#69EDFF;}
</style>
<g>
	<g>
		<path class="st0" d="M36.93,192.24c-13.11,29.27-12.79,63.07,0.47,92.26c6.51,14.34,16.64,29.1,30.44,37.24
			c12.53,7.4,30.75,8.07,40.97-3.78c5.48-6.35,7.1-14.99,10.59-22.43c3.3-7.04,7.39-13.76,12.13-19.93
			c9.33-12.13,21.21-22.29,34.38-30.04c14.23-8.38,29.54-13.28,45.67-16.45c16.42-3.23,33.53-5.73,48.14-14.46
			c14.8-8.84,25-23.4,32.44-38.63c7.6-15.55,13.16-32.73,11.69-50.24c-2.58-30.67-23.48-58.59-51.19-71.48
			c-31.82-14.8-69.57-11.59-100.61,3.66c-14.37,7.06-28.57,18.32-31.61,34.95c-2.91,15.93,5.16,30.19,20.65,35.22
			c8.32,2.7,17.19,2.37,25.8,1.85c4.3-0.26,23.15-2.88,19.09,6.52c-3.14,7.26-17.06,8-23.59,8.66c-9.64,0.98-19.34,0.86-29.01,0.81
			c-18.18-0.11-36.84,0.08-53.89,7.19c-14.31,5.97-26.56,15.99-35.58,28.57c-4.46,6.22-7.85,13.05-10.43,20.24
			c-2.18,6.07,7.48,8.68,9.64,2.66c4.92-13.71,14.12-25.88,25.99-34.34c13.42-9.56,28.94-13.29,45.22-14.08
			c17.74-0.86,35.54,0.78,53.2-1.66c12.07-1.67,32.96-7.19,28.55-24.01c-4.21-16.07-27.79-10.07-39.37-10.18
			c-7.55-0.07-16.03-1.37-21.64-6.92c-5.24-5.19-6.22-13.12-4.52-20.03c3.84-15.57,19.95-24.45,33.72-30.02
			c15.19-6.14,31.59-9.26,47.97-8.63c31.11,1.19,59.96,17.6,74.22,45.72c14.91,29.39,5.05,63.32-13.69,88.68
			c-9.96,13.49-23.47,21.15-39.51,25.28c-15.15,3.91-30.83,5.46-45.73,10.41c-26.84,8.91-50.92,26.08-67.22,49.27
			c-4.2,5.98-7.82,12.37-10.75,19.06c-2.91,6.63-4.34,15.49-10.31,20.14c-13.21,10.29-29.76-0.65-38.78-10.98
			c-19.55-22.4-27.17-54.82-21.54-83.79c1.42-7.3,3.61-14.45,6.65-21.23C48.17,191.47,39.56,186.38,36.93,192.24L36.93,192.24z"/>
	</g>
</g>
<g>
	<g>
		<path class="st0" d="M220.31,358.36c15.33-0.99,33.39-2.39,45.78,8.57c11.54,10.21,9.19,25.85-0.94,36.22
			c-10.7,10.97-27.4,14.61-41.86,17.59c-16.63,3.43-32.88,1.81-48.12-5.91c-23.76-12.04-41.11-35.41-45.77-61.63
			c-4.76-26.75,5.79-55.91,26.84-73.14c24.31-19.89,59.05-18.94,87.6-28.89c14.95-5.21,29.94-12.15,42.55-21.84
			c12.84-9.86,19.23-23.08,27.04-36.81c6.52-11.47,18.47-26.12,33.5-20.78c13.32,4.73,20.98,21.09,25.95,33.2
			c10.94,26.63,16.13,66.19-5.58,89.16c-10.65,11.27-26.02,16.37-40.65,20.11c-16.77,4.28-33.97,6.63-51.27,7.02
			c-8.87,0.2-17.67-0.31-26.52-0.88c-7.93-0.52-16.07-0.51-23.51,2.64c-11.44,4.84-19.63,17.39-13.11,29.44
			c2.83,5.22,7.51,8.15,13.33,8.78c6.39,0.7,6.34-9.31,0-10c-7.66-0.83-6.09-11.29-2.33-15.13c6.12-6.24,15.64-6.28,23.75-5.85
			c18.94,1.01,37.38,1.33,56.24-1.28c31.36-4.33,68.93-13.26,82.48-45.44c12.97-30.78,5.21-68.38-10.48-96.66
			c-6.71-12.09-17.06-24.54-31.73-26.05c-15.51-1.59-28.27,10-36.03,22.21c-4.65,7.31-8.13,15.29-12.72,22.63
			c-4.64,7.41-10.72,13.44-17.93,18.35c-14.69,10.01-31.64,17.03-48.78,21.55c-31.16,8.23-65.14,10.16-87.78,36.14
			c-19.17,21.99-26.45,52.99-18.94,81.19c7.35,27.59,27.74,51.73,54.02,63.02c16.44,7.06,33.19,8.09,50.61,4.5
			c15.67-3.23,32.5-7.54,44.63-18.59c10.7-9.75,17-25.67,11.3-39.67c-5.59-13.71-19.8-21.4-33.85-23.49
			c-9.21-1.37-18.47-0.88-27.73-0.28C213.92,348.78,213.88,358.78,220.31,358.36L220.31,358.36z"/>
	</g>
</g>
<g>
	<g>
		<path class="st0" d="M217.39,374.37c-6.04,0.99-10.48,5.91-12.19,11.6c-0.9,2.99-1.29,6.48-0.48,9.54
			c0.76,2.88,2.79,5.06,5.13,6.79c2.81,2.09,5.83,3.07,9.3,3.33c3.12,0.24,6.32,0.11,9.17-1.31c5.17-2.58,7.83-8.55,7.17-14.15
			c-0.82-6.98-5.84-12.45-12.02-15.38c-1.73-0.82-3.26,1.76-1.51,2.59c4.45,2.12,8.43,5.58,9.97,10.39
			c1.45,4.55,0.5,9.73-3.33,12.82c-1.94,1.56-4.3,2.1-6.75,2.13c-2.76,0.03-5.68-0.18-8.15-1.51c-2.12-1.15-4.32-2.79-5.48-4.96
			c-1.19-2.23-1.05-5.05-0.6-7.47c1.04-5.58,4.74-10.57,10.58-11.52C220.08,376.95,219.28,374.06,217.39,374.37L217.39,374.37z"/>
	</g>
</g>
<g>
	<g>
		<path class="st0" d="M193.91,72.15c-7.81,0.45-11.79,7.89-12.67,14.85c-0.48,3.76-0.41,7.65,1.4,11.08
			c1.54,2.92,4.18,5.31,7.15,6.7c6.55,3.08,15.66,2,21.27-2.65c5.53-4.58,5.74-13.76,3.41-19.99c-2.83-7.53-9.57-12.95-17.38-14.62
			c-1.88-0.4-2.69,2.49-0.8,2.89c5.73,1.23,10.98,4.64,13.96,9.76c2.91,5.01,3.73,11.94,0.87,17.17c-1.53,2.8-4.35,4.24-7.29,5.17
			c-3.13,1-6.54,1.34-9.76,0.59c-2.76-0.64-5.27-2.06-7.18-4.17c-2.05-2.27-2.9-5.1-2.91-8.13c-0.01-6.19,2.39-15.22,9.94-15.66
			C195.83,75.04,195.84,72.04,193.91,72.15L193.91,72.15z"/>
	</g>
</g>
</svg>
