<?xml version="1.0" encoding="utf-8"?>
<!-- Generator: Adobe Illustrator 24.0.2, SVG Export Plug-In . SVG Version: 6.00 Build 0)  -->
<svg version="1.1" id="Capa_1" xmlns="http://www.w3.org/2000/svg" xmlns:xlink="http://www.w3.org/1999/xlink" x="0px" y="0px"
	 viewBox="0 0 1026 256" style="enable-background:new 0 0 1026 256;" xml:space="preserve">
<style type="text/css">
	.st0{fill:#070707;}
</style>
<g>
	<g>
		<path class="st0" d="M28.6,47.3C91.4,64.5,157,64.5,221.6,65c67.6,0.5,135.2,0.9,202.7-2.8c66.9-3.7,133.4-10.9,200.1-17.5
			c66.1-6.5,132.3-12.3,198.8-13.1c33-0.4,66.1,0.5,99.1,3.2c16.3,1.3,32.8,2.7,48.9,5.4c11.7,2,31,8.3,28.5,23.8
			c-1.1,7-7.9,11.8-13.3,15.4c-5.6,3.7-11.5,7-17.6,9.8c-12.5,5.7-26.1,9.3-39.6,11.6c-28.2,4.8-57.1,4-85.5,3.5
			c-68-1.2-135.9-2.5-203.9-3.7c-68.3-1.2-136.6-2.5-204.9-3.7c-8.3-0.2-16.7-0.3-25-0.5c-6.6-0.1-13.9-1-20.1,1.8
			c-12.4,5.6-9.5,19.6-2.1,28c8.6,9.8,22.9,15.2,34.8,19.6c13.3,5,27.2,8.3,41.2,10.9c14.2,2.7,28.6,4.6,42.9,6.8
			c13.7,2.1,27.9,3.9,41.2,8c11.4,3.5,20.9,11.6,18.1,24.5c-2.6,11.9-12.1,20.5-23.4,23.8c-13.8,4.1-28.7,2.1-42.7,0.3
			c-6.4-0.8-6.3,9.2,0,10c25.4,3.2,57.6,4.8,71.9-21.3c5.2-9.5,6.8-21.5,1.2-31.2c-6.5-11.4-19.8-15.5-31.9-18.1
			c-28.8-6.2-58.3-8.5-87-15c-14.2-3.2-28.3-7.4-41.4-13.8c-6.1-3-12.7-6.1-17.4-11.1c-4-4.4-7-11.6,1.1-13.1
			c7.5-1.4,15.9-0.1,23.5,0c8.7,0.2,17.3,0.3,26,0.5c17.3,0.3,34.6,0.6,52,0.9c35,0.6,70,1.3,104.9,1.9
			c69.3,1.3,138.6,2.5,207.9,3.8c30.9,0.6,62,2.1,92.9,0c27.7-1.9,55.8-7.1,80.3-20.9c11.1-6.3,24.6-14.8,25.9-28.8
			c1.2-13.4-9.2-24.5-20.8-29.3c-13.9-5.8-30.5-6.3-45.3-7.9c-16.8-1.8-33.6-3.1-50.4-3.9c-67.8-3.4-135.8,0.1-203.4,5.8
			c-67.7,5.7-135.2,13.6-202.9,19.2c-68.4,5.6-136.8,7.6-205.5,7.5c-34.3,0-68.7-0.2-103.1-0.8c-33.2-0.6-66.6-1.9-99.5-6.9
			c-16-2.4-31.8-5.7-47.4-9.9C25,36,22.4,45.6,28.6,47.3L28.6,47.3z"/>
	</g>
</g>
</svg>
