<?xml version="1.0" encoding="utf-8"?>
<!-- Generator: Adobe Illustrator 24.0.2, SVG Export Plug-In . SVG Version: 6.00 Build 0)  -->
<svg version="1.1" id="Capa_1" xmlns="http://www.w3.org/2000/svg" xmlns:xlink="http://www.w3.org/1999/xlink" x="0px" y="0px"
	 viewBox="0 0 505 436" style="enable-background:new 0 0 505 436;" xml:space="preserve">
<style type="text/css">
	.st0{fill:#013866;}
	.st1{fill:#001319;}
</style>
<image style="overflow:visible;enable-background:new    ;" width="370" height="375" xlink:href="C8B584C8.jpg"  transform="matrix(0.9987 0 0 0.9987 -711.3599 -16.1989)">
</image>
<rect x="-2790" y="-79" class="st0" width="600" height="444.4"/>
<rect x="-1476.7" y="-222.2" class="st1" width="600" height="444.4"/>
<g>
	<g>
		<g>
			<path d="M186.4,71.2c1.7,35.7-14.1,70.1-25.6,103.1c-11.9,34.2-23.9,68.5-38.8,101.5c-2.6,5.8,6,10.9,8.6,5
				c15.3-33.9,27.6-68.9,39.8-103.9c11.8-33.9,27.7-69.1,25.9-105.7C196.1,64.8,186.1,64.7,186.4,71.2L186.4,71.2z"/>
		</g>
	</g>
	<g>
		<g>
			<path d="M139.6,280.8c23-6,46.5-9.1,70.3-9.4c6.4-0.1,6.4-10.1,0-10c-24.6,0.3-49.1,3.6-72.9,9.8
				C130.7,272.8,133.3,282.4,139.6,280.8L139.6,280.8z"/>
		</g>
	</g>
	<g>
		<g>
			<path d="M124.5,375.9c33.6-30.5,66.2-62.1,97.7-94.8c4.5-4.6-2.6-11.7-7.1-7.1c-31.5,32.7-64.1,64.3-97.7,94.8
				C112.6,373.2,119.7,380.3,124.5,375.9L124.5,375.9z"/>
		</g>
	</g>
	<g>
		<g>
			<path d="M127.5,389.2c31.5-17,63-34.2,92.4-54.7c14.7-10.3,28.9-21.3,42.1-33.5c12.9-12,24.6-25.1,36.2-38.3
				c13.6-15.4,27.3-30.6,43.1-43.6c5-4.1-2.1-11.1-7.1-7.1c-27.5,22.6-48.3,51.8-73.6,76.5c-25.5,24.9-55.2,44.9-85.9,62.9
				c-17.2,10.1-34.8,19.7-52.4,29.2C116.8,383.6,121.9,392.3,127.5,389.2L127.5,389.2z"/>
		</g>
	</g>
	<g>
		<g>
			<path d="M262.7,188c19.3,6.7,39.1,11.3,59.4,13.9c6.4,0.8,6.3-9.2,0-10c-19.3-2.5-38.3-7.2-56.8-13.6
				C259.3,176.2,256.7,185.9,262.7,188L262.7,188z"/>
		</g>
	</g>
	<g>
		<g>
			<path d="M275.5,167.4c1.7-9.9,6.7-18.7,11.7-27.3s10.5-17,16.4-25.1c11.7-16,25.3-30.6,40.2-43.8c4.8-4.3-2.3-11.3-7.1-7.1
				c-15.5,13.7-29.5,29.1-41.8,45.8c-6.1,8.3-11.7,16.9-16.8,25.8c-5.2,9.1-10.5,18.5-12.3,28.9
				C264.7,171.1,274.4,173.8,275.5,167.4L275.5,167.4z"/>
		</g>
	</g>
	<g>
		<g>
			<path d="M200.6,63c39,0.2,78,0.4,116.9,0.5c6.4,0,6.4-10,0-10c-39-0.2-78-0.4-116.9-0.5C194.2,52.9,194.2,62.9,200.6,63L200.6,63
				z"/>
		</g>
	</g>
	<g>
		<g>
			<path d="M339.5,79.7c2,8.8,5.3,17.2,9.8,25.1c1,1.7,3.5,0.2,2.6-1.5c-4.3-7.6-7.5-15.8-9.5-24.4C341.9,77,339,77.8,339.5,79.7
				L339.5,79.7z"/>
		</g>
	</g>
	<g>
		<g>
			<path d="M289.5,183.1c11.5-20.8,24-40.9,37.5-60.4c3.9-5.6,7.8-11.1,11.8-16.5c1.1-1.6-1.5-3.1-2.6-1.5
				c-14.1,19.1-27.2,38.9-39.3,59.3c-3.4,5.8-6.8,11.7-10.1,17.6C286,183.3,288.6,184.8,289.5,183.1L289.5,183.1z"/>
		</g>
	</g>
	<g>
		<g>
			<path d="M340.8,226.9c2.1,9.7,5.2,19.2,9.3,28.3c0.8,1.8,3.4,0.2,2.6-1.5c-3.9-8.9-6.9-18.1-9-27.6
				C343.3,224.2,340.4,225,340.8,226.9L340.8,226.9z"/>
		</g>
	</g>
	<g>
		<g>
			<path d="M130.6,409.9c14.5-8.3,28.8-17.1,42.7-26.4c14-9.2,27.7-18.9,41.2-28.7c13.6-9.9,27-19.9,40.3-30.1
				c13.2-10,26.3-20.3,39.6-30.1c13-9.7,26.4-18.9,40.9-26.4c1.8-1,3.7-1.9,5.5-2.8c1.7-0.8,0.2-3.4-1.5-2.6
				c-14.7,7.1-28.4,16-41.6,25.6c-13.4,9.7-26.4,19.9-39.5,30c-13.3,10.2-26.7,20.3-40.2,30.2c-13.5,9.9-27.2,19.6-41.1,28.9
				c-13.8,9.3-27.9,18.2-42.3,26.6c-1.8,1.1-3.7,2.1-5.5,3.2C127.4,408.2,128.9,410.8,130.6,409.9L130.6,409.9z"/>
		</g>
	</g>
	<g>
		<g>
			<path d="M119.3,390.9c0.5,4.3,2,8.4,4.5,12c0.5,0.7,1.3,1,2.1,0.5c0.7-0.4,1-1.4,0.5-2c-2.1-3.1-3.6-6.7-4.1-10.4
				c-0.1-0.8-0.6-1.5-1.5-1.5C120.1,389.4,119.3,390,119.3,390.9L119.3,390.9z"/>
		</g>
	</g>
	<g>
		<g>
			<path d="M132.7,286.1c2.1,6.7,5.3,13,9.5,18.7c0.5,0.6,1.3,1,2.1,0.5c0.6-0.4,1-1.4,0.5-2c-4-5.4-7.2-11.5-9.2-18
				C135,283.5,132.1,284.2,132.7,286.1L132.7,286.1z"/>
		</g>
	</g>
	<g>
		<g>
			<path d="M149.4,305.7c15.6-7,31.8-14.3,49.2-14.6c1.9,0,1.9-3,0-3c-18,0.3-34.6,7.7-50.7,15C146.1,303.9,147.6,306.5,149.4,305.7
				L149.4,305.7z"/>
		</g>
	</g>
	<g>
		<g>
			<path d="M148.3,280.9c2.3,6.7,4,13.6,5.2,20.5c0.3,1.9,3.2,1.1,2.9-0.8c-1.2-7-3-13.8-5.2-20.5
				C150.6,278.3,147.7,279,148.3,280.9L148.3,280.9z"/>
		</g>
	</g>
	<g>
		<g>
			<path d="M169,276c2.3,4.5,3.2,9.8,2.4,14.8c-0.1,0.8,0.2,1.6,1.1,1.9c0.7,0.2,1.7-0.2,1.9-1c0.9-5.9,0-11.8-2.7-17.1
				C170.7,272.8,168.1,274.3,169,276L169,276z"/>
		</g>
	</g>
	<g>
		<g>
			<path d="M192.1,272.8c1.4,6.5,1.4,13.2,0,19.6c-0.4,1.9,2.5,2.7,2.9,0.8c1.5-7,1.5-14.2,0-21.3
				C194.6,270.1,191.7,270.9,192.1,272.8L192.1,272.8z"/>
		</g>
	</g>
	<g>
		<g>
			<path d="M142.9,378.5c1,6.5,4.7,12.4,10,16.2c0.7,0.5,1.7,0.1,2.1-0.5c0.4-0.8,0.1-1.6-0.5-2c-4.7-3.4-7.8-8.7-8.6-14.4
				c-0.1-0.8-1.1-1.2-1.9-1C143.1,376.9,142.8,377.7,142.9,378.5L142.9,378.5z"/>
		</g>
	</g>
	<g>
		<g>
			<path d="M175.7,360.2c0.5,4.9,3.1,9.4,7.3,12.1c0.7,0.5,1.7,0.1,2.1-0.5c0.4-0.7,0.1-1.6-0.5-2c-1.6-1-2.9-2.5-3.9-4.1
				c-0.5-0.9-0.9-1.7-1.2-2.5c-0.2-0.5-0.3-0.9-0.4-1.4c-0.1-0.3-0.1-0.5-0.2-0.8c-0.1-0.4,0-0.2-0.1-0.6c-0.1-0.8-0.6-1.5-1.5-1.5
				C176.5,358.7,175.7,359.4,175.7,360.2L175.7,360.2z"/>
		</g>
	</g>
	<g>
		<g>
			<path d="M201.9,346.1c3.7,2.4,7.4,4.9,11.1,7.3c0.7,0.4,1.7,0.1,2.1-0.5c0.4-0.7,0.1-1.6-0.5-2c-3.7-2.4-7.4-4.9-11.1-7.3
				c-0.7-0.4-1.7-0.1-2.1,0.5C201,344.8,201.3,345.7,201.9,346.1L201.9,346.1z"/>
		</g>
	</g>
	<g>
		<g>
			<path d="M227.1,326c3.3,4.3,7.5,7.8,12.5,10.1c0.7,0.3,1.6,0.2,2.1-0.5c0.4-0.6,0.2-1.7-0.5-2c-4.4-2.1-8.4-5.1-11.4-9
				c-0.5-0.6-1.3-1-2.1-0.5C227.1,324.4,226.6,325.4,227.1,326L227.1,326z"/>
		</g>
	</g>
	<g>
		<g>
			<path d="M251.6,308.2c2.9,2.4,5.8,4.8,8.7,7.1c0.6,0.5,1.5,0.6,2.1,0c0.5-0.5,0.6-1.6,0-2.1c-2.9-2.4-5.8-4.8-8.7-7.1
				c-0.6-0.5-1.5-0.6-2.1,0C251.1,306.6,251,307.7,251.6,308.2L251.6,308.2z"/>
		</g>
	</g>
	<g>
		<g>
			<path d="M278.1,287.8c2.3,3,4.9,5.7,7.7,8.1c0.6,0.5,1.5,0.6,2.1,0c0.5-0.6,0.6-1.6,0-2.1c-2.8-2.4-5.4-5.2-7.7-8.1
				c-0.5-0.6-1.6-0.5-2.1,0C277.5,286.3,277.6,287.1,278.1,287.8L278.1,287.8z"/>
		</g>
	</g>
	<g>
		<g>
			<path d="M296.4,267c2.8,4.8,6.5,9.1,11,12.5c0.6,0.5,1.5,0.6,2.1,0c0.5-0.5,0.6-1.6,0-2.1c-4.2-3.3-7.8-7.3-10.5-11.9
				C298,263.8,295.4,265.3,296.4,267L296.4,267z"/>
		</g>
	</g>
	<g>
		<g>
			<path d="M311.5,249.3c2,8.2,6.5,15.8,12.6,21.6c1.4,1.3,3.5-0.8,2.1-2.1c-5.8-5.5-10-12.5-11.9-20.3
				C314,246.6,311.1,247.4,311.5,249.3L311.5,249.3z"/>
		</g>
	</g>
	<g>
		<g>
			<path d="M325.8,237c3,9.1,8.6,17.3,16.2,23.2c1.5,1.2,3.6-0.9,2.1-2.1c-7.2-5.6-12.6-13.2-15.4-21.9
				C328.1,234.4,325.2,235.2,325.8,237L325.8,237z"/>
		</g>
	</g>
	<g>
		<g>
			<path d="M283.8,149.8c0.7,9,2.7,17.9,6,26.4c0.7,1.8,3.6,1,2.9-0.8c-3.3-8.2-5.3-16.8-5.9-25.6
				C286.6,147.9,283.6,147.9,283.8,149.8L283.8,149.8z"/>
		</g>
	</g>
	<g>
		<g>
			<path d="M296.1,129.4c-0.2,10.9,2.1,21.6,6.8,31.4c0.8,1.7,3.4,0.2,2.6-1.5c-4.5-9.3-6.6-19.6-6.4-29.9
				C299.2,127.4,296.2,127.4,296.1,129.4L296.1,129.4z"/>
		</g>
	</g>
	<g>
		<g>
			<path d="M307.5,110.4c2,6.4,4.4,12.7,7.2,18.8c0.3,0.7,1.4,0.9,2,0.5c0.8-0.4,0.9-1.3,0.5-2.1c-2.7-5.9-5-11.9-6.9-18.1
				C309.8,107.7,306.9,108.5,307.5,110.4L307.5,110.4z"/>
		</g>
	</g>
	<g>
		<g>
			<path d="M321.9,88.9c1.7,7.7,4,15.2,6.8,22.6c0.7,1.8,3.6,1,2.9-0.8c-2.8-7.4-5.1-14.9-6.8-22.6C324.4,86.2,321.5,87,321.9,88.9
				L321.9,88.9z"/>
		</g>
	</g>
	<g>
		<g>
			<path d="M132.9,325.5c-12.9,12.3-25.7,24.7-38.2,37.5c-1.3,1.4,0.8,3.5,2.1,2.1c12.5-12.7,25.2-25.2,38.1-37.5
				C136.4,326.3,134.3,324.2,132.9,325.5L132.9,325.5z"/>
		</g>
	</g>
	<g>
		<g>
			<path d="M173.5,402.9c28.1-16.9,56.2-33.9,84.4-50.8c8-4.8,16-9.6,24-14.4c1.6-1,0.1-3.6-1.5-2.6C252.3,352,224.2,369,196,385.9
				c-8,4.8-16,9.6-24,14.4C170.4,401.3,171.9,403.9,173.5,402.9L173.5,402.9z"/>
		</g>
	</g>
	<g>
		<g>
			<path d="M238.4,396.9c8.3-6.6,17.1-12.7,26.3-18.1c1.7-1,0.1-3.6-1.5-2.6c-9.4,5.5-18.4,11.8-26.9,18.6
				C234.8,396,236.9,398.1,238.4,396.9L238.4,396.9z"/>
		</g>
	</g>
	<g>
		<g>
			<path d="M339.1,171.9c12.1-14,24.9-27.5,38.3-40.4c1.4-1.3-0.7-3.5-2.1-2.1c-13.4,12.9-26.2,26.4-38.3,40.4
				C335.7,171.2,337.8,173.4,339.1,171.9L339.1,171.9z"/>
		</g>
	</g>
	<g>
		<g>
			<path d="M335.9,139.5c12.5-17.9,26.3-34.7,41.5-50.4c4.3-4.4,8.6-8.7,13.1-12.9c1.4-1.3-0.7-3.4-2.1-2.1
				c-16,15.1-30.7,31.5-44,48.9c-3.8,4.9-7.4,10-11,15.1C332.2,139.5,334.8,141,335.9,139.5L335.9,139.5z"/>
		</g>
	</g>
	<g>
		<g>
			<path d="M152.8,64c1.1,25.9-1.8,51.9-7.4,77.2c-5.6,25.4-13.8,50.1-23.3,74.3c-5.4,13.7-11.2,27.2-17.3,40.7
				c-0.8,1.8,1.8,3.3,2.6,1.5c10.8-24,20.9-48.3,29.2-73.3c8.2-24.8,14.4-50.3,17.5-76.3c1.7-14.6,2.3-29.3,1.7-44.1
				C155.7,62,152.7,62,152.8,64L152.8,64z"/>
		</g>
	</g>
</g>
<text transform="matrix(1 0 0 1 453.2764 689.1279)" style="font-family:'ArialMT'; font-size:12px;">fdfdsfsdfds</text>
</svg>
