<?xml version="1.0" encoding="utf-8"?>
<!-- Generator: Adobe Illustrator 24.0.2, SVG Export Plug-In . SVG Version: 6.00 Build 0)  -->
<svg version="1.1" id="Capa_1" xmlns="http://www.w3.org/2000/svg" xmlns:xlink="http://www.w3.org/1999/xlink" x="0px" y="0px"
	 viewBox="0 0 648.7 648.7" style="enable-background:new 0 0 648.7 648.7;" xml:space="preserve">
<style type="text/css">
	.st0{fill:#FFFFFF;}
	.st1{fill:#69EDFF;}
	.st2{fill:#FFB56C;}
	.st3{fill:#070707;}
	.st4{fill:#00E754;}
</style>
<image style="overflow:visible;enable-background:new    ;" width="225" height="225" xlink:href="BA125FC4.jpeg"  transform="matrix(1 0 0 1 -3854.0212 1616)">
</image>
<image style="overflow:visible;enable-background:new    ;" width="1917" height="1081" xlink:href="BA125FC4.jpeg"  transform="matrix(0.2113 0 0 0.2113 -163.5165 1645)">
</image>
<image style="overflow:visible;enable-background:new    ;" width="1028" height="1028" xlink:href="BA125FC4.jpeg"  transform="matrix(0.6313 0 0 0.6313 -803.0213 1645)">
</image>
<g>
	<path class="st0" d="M-1224.5,1982.3c-16,1.3-31.8,5.5-46.4,12.3c-4.5,2.1-9.6,5.8-8.9,10.7c0.4,3,3,5.2,5.6,6.8
		c7.4,4.4,16.3,5.5,24.9,6c13.5,0.8,27,0.3,40.5-0.2c41.9-1.6,84-3.2,124.9-12.6"/>
</g>
<g>
	<path class="st0" d="M-1277.5,2025.1c10.6,36.4,22.1,72.5,34.5,108.3"/>
</g>
<g>
	<path class="st0" d="M-1225.7,2139c36.9,7.1,75.5,5.4,111.7-4.8c7.1-2,14.3-4.4,20.3-8.7"/>
</g>
<g>
	<path class="st0" d="M-1071.7,2075.1c9.5-6.6,19-13.2,27.3-21.2c8.3-8,15.4-17.5,19.1-28.4c1.8-5.3,2.8-11.3,0.7-16.6
		c-1.1-2.8-2.9-5.2-5-7.3c-7.1-7.1-17.2-11.1-27.2-10.6"/>
</g>
<g>
	<g>
		<path class="st1" d="M-1260.2,2044.5c3.3-3.6,6.5-7.1,9.8-10.7c0.6-0.6,0.6-1.5,0-2.1c-0.5-0.6-1.6-0.6-2.1,0
			c-3.3,3.6-6.5,7.1-9.8,10.7c-0.5,0.6-0.6,1.5,0,2.1C-1261.8,2045.1-1260.8,2045.1-1260.2,2044.5L-1260.2,2044.5z"/>
	</g>
</g>
<g>
	<path class="st0" d="M-1252.5,2055c4.7-5.5,9.5-10.9,14.2-16.4"/>
</g>
<g>
	<path class="st0" d="M-1247.8,2068.5c8.7-9.5,17.5-18.9,26.4-28.1"/>
</g>
<g>
	<path class="st0" d="M-1240.9,2086.3c11.8-13.8,22.7-28.4,32.6-43.6"/>
</g>
<g>
	<path class="st0" d="M-1227.2,2108.5c14.3-19.9,29.1-39.6,44.3-58.8"/>
</g>
<g>
	<path class="st0" d="M-1217.5,2121.9c19.3-25.3,39.1-50.1,59.5-74.5"/>
</g>
<g>
	<path class="st0" d="M-1188.1,2120c22.4-27.4,44.9-54.7,67.3-82.1"/>
</g>
<g>
	<path class="st0" d="M-1157.2,2119.6c18-21.5,35.1-43.7,51.4-66.5"/>
</g>
<g>
	<path class="st0" d="M-1127.9,2117.3c9.5-13.1,18.1-26.7,25.9-40.8"/>
</g>
<g>
	<path class="st0" d="M-1106.4,2110.2c4.2-5.1,7.6-10.9,10.2-17"/>
</g>
<g>
	<path class="st0" d="M-1285.5,2112.4c-6.4,3.4-12.5,7.3-18.2,11.8c-3.8,3-7.7,6.6-8.4,11.4c-0.8,5,2.2,10,6.2,13
		c4.1,3,9.1,4.4,14,5.7c44.9,11.4,91.8,13.1,137.9,8.8c46.1-4.3,91.4-14.5,136-26.6"/>
</g>
<g>
	<path class="st0" d="M-1184.7,1982.1c-12.3-9.8-23.3-21.7-30.4-35.8c-7.1-14.1-9.9-30.6-6-45.9c5.2-20.1,21.1-35.7,28.7-55
		c5.2-13.2,6.3-28.1,2-41.6c-4.3-13.5-14.1-25.3-27-31.1"/>
</g>
<g>
	<path class="st0" d="M-1144.2,1990.7c9.3-10.8,15.4-25.3,12.8-39.3c-2.9-15.8-16-28.2-19.3-43.9c-3.3-15.6,3.5-31.3,10.1-45.8
		c5.7-12.4,11.4-24.9,17-37.3"/>
</g>
<image style="overflow:visible;enable-background:new    ;" width="2046" height="2046" xlink:href="BA125FCC.jpeg"  transform="matrix(0.2526 0 0 0.2526 -714.0213 2964)">
</image>
<g>
	
		<image style="overflow:visible;enable-background:new    ;" width="1391" height="696" xlink:href="BA125FCC.jpeg"  transform="matrix(1.1422 0 0 1.1422 -74.4501 2772)">
	</image>
	
		<image style="overflow:visible;enable-background:new    ;" width="1391" height="696" xlink:href="BA125FCC.jpeg"  transform="matrix(1.1422 0 0 1.1422 -74.4501 2772)">
	</image>
</g>
<g>
	<g>
		<path class="st1" d="M-1368.1,3134.9c-15.9,35.3-15.3,76.4,1,111.4c7.9,17.1,20.2,34.8,36.9,44.2c15.2,8.6,36.9,8.6,48.4-6.3
			c6-7.7,7.9-17.9,12.1-26.6c3.9-8.2,8.8-16,14.3-23.2c11.4-14.7,25.8-27.1,41.8-36.5c17-10,35.2-16,54.5-19.8
			c20-4,40.9-6.9,58.8-17.5c17.3-10.3,29.4-27.2,38.3-44.9c9.6-19.3,16.7-40.6,14.6-62.4c-3.4-36.4-28.4-69.4-61.3-84.7
			c-38.7-18-84.9-13.8-122.3,5.3c-16.6,8.5-32.7,21.8-36,41.2c-3.3,19.6,7.6,36.5,26.9,41.6c10.7,2.8,21.8,1.8,32.8,1.2
			c6-0.3,25-1.8,19.5,9.8c-4.3,9.1-20.7,10-29.3,10.9c-11.5,1.2-23,1.1-34.6,1c-22-0.1-44.7,0-65.3,8.6
			c-17.1,7.1-31.7,19.1-42.5,34.1c-5.3,7.4-9.4,15.6-12.5,24.2c-2.2,6.1,7.5,8.7,9.6,2.7c6-16.8,17.2-31.6,31.7-42
			c16.1-11.5,34.8-16.2,54.4-17.3c21.5-1.1,43.1,0.9,64.5-2c9.3-1.2,19.7-2.8,27.2-8.8c6.1-4.9,9.7-13.7,6.3-21.2
			c-3.4-7.6-11.9-10-19.6-10.3c-10.6-0.4-21.1,1.7-31.8,0.8c-9.2-0.8-19.2-4.1-24.3-12.2c-4.7-7.3-4.5-16.8-1.7-24.8
			c6.2-18.1,26.4-28.4,43.1-34.7c18.8-7.1,38.9-10.6,58.9-9.3c37.4,2.4,71.6,23.2,88.1,57.2c7.9,16.2,10.5,34.6,7,52.3
			c-3.9,19.8-13.2,39.9-25.5,55.9c-12.3,16-28.9,24.9-48.2,29.7c-18.4,4.6-37.4,6.6-55.4,12.7c-33,11.2-62.6,32.9-81.8,62.1
			c-4.6,6.9-8.4,14.3-11.7,21.9c-3.5,8.3-5.3,18.5-13.5,23.6c-16.7,10.4-35.5-2-46.5-14.6c-23.9-27.4-33.2-67-26.3-102.4
			c1.7-8.9,4.4-17.5,8.1-25.8C-1356.8,3134.1-1365.5,3129.1-1368.1,3134.9L-1368.1,3134.9z"/>
	</g>
</g>
<g>
	<g>
		<path class="st1" d="M-1147.4,3334.1c18.8-1.2,40.8-2.8,56,10.6c14.2,12.6,11.8,31.9-0.6,44.9c-13,13.6-33.3,18.2-51,21.9
			c-19.9,4.1-39.3,2.6-57.7-6.3c-29.3-14.2-51-42.5-57.2-74.4c-6.3-32.4,5.7-67.8,30.7-89.4c29.4-25.4,72-24.3,107.2-36.4
			c18-6.2,36.1-14.5,51.3-26c7.3-5.6,13.7-12,18.9-19.6c5.2-7.7,9.2-16.1,13.7-24.2c7.9-14,21.9-31.9,40.3-27
			c16.7,4.5,26.2,23.9,32.6,38.3c8.2,18.6,12.7,38.9,12.4,59.3c-0.3,18-4.5,37.4-16.7,51.2c-12.2,13.8-30,20.4-47.4,25.1
			c-20.5,5.5-41.6,8.7-62.8,9.4c-10.3,0.3-20.6,0.1-30.9-0.7c-9.4-0.7-19.3-1.5-28.5,1.4c-14.4,4.6-26.8,19-19.4,34.5
			c3.1,6.4,8.6,10.4,15.7,11.1c6.4,0.6,6.4-9.4,0-10c-8.3-0.8-9.4-12.1-5.6-17.7c5.7-8.3,16.7-10,26-9.9c11.1,0.1,22.2,1.5,33.4,1.5
			c11,0,22-0.6,32.9-1.9c20.7-2.4,41.8-6.5,61.3-14.3c17.7-7.1,33.3-18.2,42.2-35.5c18.5-36.3,9.9-82.7-8-117.4
			c-7.7-14.8-19.4-31.5-37.1-34.6c-18.5-3.2-34.3,9.7-44,24.2c-5.6,8.4-9.8,17.8-14.9,26.5c-5.1,8.6-11.4,16-19.4,22.1
			c-16.7,12.7-37.1,21.5-57.1,27.4c-37.8,11.2-80.3,11.7-109.3,42.3c-24.1,25.4-33.9,62.6-26.1,96.6c7.7,33.3,31.4,63,62.4,77.5
			c18.7,8.7,38.3,11.3,58.6,7.8c19.5-3.4,40.8-8.6,56.5-21.4c13.5-11.1,22.3-30.3,15.9-47.5c-6.4-17.2-24.2-26.5-41.5-28.9
			c-10.8-1.5-21.6-0.9-32.4-0.2C-1153.8,3324.5-1153.8,3334.5-1147.4,3334.1L-1147.4,3334.1z"/>
	</g>
</g>
<g>
	<g>
		<path class="st1" d="M-1150.8,3354.8c-7.1,1.1-12.3,6.9-14.4,13.5c-1.1,3.5-1.6,7.6-0.8,11.2c0.8,3.6,3.3,6.4,6.2,8.5
			c3.3,2.4,6.8,3.6,10.9,3.9c3.8,0.3,7.7,0.2,11.1-1.6c6.1-3.1,9.3-10.1,8.5-16.8c-1-8.3-7-14.9-14.4-18.4c-1.7-0.8-3.3,1.8-1.5,2.6
			c5.5,2.6,10.4,6.9,12.2,12.9c1.8,5.6,0.5,12-4.2,15.8c-2.4,1.9-5.3,2.6-8.3,2.6c-3.5,0-7.1-0.3-10.2-2c-2.6-1.4-5.2-3.4-6.6-6.1
			c-1.5-2.8-1.2-6.4-0.6-9.5c1.3-6.7,5.9-12.7,12.9-13.8C-1148.1,3357.4-1148.9,3354.5-1150.8,3354.8L-1150.8,3354.8z"/>
	</g>
</g>
<g>
	<g>
		<path class="st1" d="M-1179.3,2989.6c-4.1,0.2-7.8,2.3-10.3,5.4c-2.8,3.5-4.2,7.9-4.7,12.3c-0.6,4.5-0.5,9.2,1.8,13.3
			c1.8,3.4,4.9,6.1,8.4,7.8c4.1,2,8.7,2.4,13.2,1.8c4.4-0.6,9-2.2,12.4-5.1c3.3-2.8,4.8-7.2,5.3-11.3c0.6-4.3,0-8.7-1.6-12.8
			c-3.5-8.8-11.4-15.1-20.7-17.1c-1.9-0.4-2.7,2.5-0.8,2.9c6.9,1.5,13.3,5.6,16.9,11.7c3.7,6.2,4.7,14.8,1.2,21.3
			c-1.9,3.5-5.4,5.3-9,6.4c-3.9,1.2-8.1,1.6-12.1,0.7c-3.3-0.8-6.4-2.6-8.7-5.2c-2.5-2.8-3.5-6.3-3.5-10c0-7.6,3-18.7,12.3-19.2
			C-1177.4,2992.5-1177.3,2989.5-1179.3,2989.6L-1179.3,2989.6z"/>
	</g>
</g>
<image style="overflow:visible;enable-background:new    ;" width="1200" height="600" xlink:href="BA125FCC.jpeg"  transform="matrix(1 0 0 1 -565.0213 4186)">
</image>
<g>
	<g>
		<path class="st1" d="M-1357.9,4270.8c9.4,96.6,18.1,193.4,26.1,290.2c2.3,27.4,4.5,54.8,6.6,82.3c0.5,6.4,10.5,6.4,10,0
			c-7.6-96.8-15.9-193.6-24.9-290.3c-2.5-27.4-5.2-54.8-7.8-82.2C-1348.5,4264.5-1358.6,4264.4-1357.9,4270.8L-1357.9,4270.8z"/>
	</g>
</g>
<g>
	<g>
		<path class="st1" d="M-1310.6,4666.1c20.9,8.8,43.1,13.8,64.8,19.9c22.4,6.3,44.6,13.6,66.3,21.9c6,2.3,8.6-7.4,2.7-9.6
			c-21.8-8.3-43.9-15.6-66.3-21.9c-21.8-6.1-43.9-11.1-64.8-19.9C-1313.9,4654-1316.4,4663.6-1310.6,4666.1L-1310.6,4666.1z"/>
	</g>
</g>
<g>
	<g>
		<path class="st1" d="M-1148.8,4708.2c9.7-5.4,20.2-8.5,30.8-11.4c11.7-3.1,23.4-5.9,35.2-8.6c23.2-5.4,46.4-10.6,69.1-18
			c6.1-2,3.5-11.6-2.7-9.6c-23.3,7.6-47.1,13-70.9,18.5c-22.3,5.1-46.4,9.2-66.5,20.5C-1159.5,4702.8-1154.4,4711.4-1148.8,4708.2
			L-1148.8,4708.2z"/>
	</g>
</g>
<g>
	<g>
		<path class="st1" d="M-1335.4,4273.5c45.5-3.1,91.1,1.5,136.6,2.6c45.7,1.1,91.5,0.5,137.2-0.8c25.8-0.7,51.7-1.6,77.5-2.6
			c6.4-0.2,6.5-10.2,0-10c-45.7,1.6-91.4,3.3-137.2,3.8c-45.7,0.5-91.3-0.7-137-2.8c-25.7-1.2-51.4-2-77.2-0.2
			C-1341.8,4263.9-1341.9,4273.9-1335.4,4273.5L-1335.4,4273.5z"/>
	</g>
</g>
<g>
	<g>
		<path class="st1" d="M-975.5,4281c-9.2,96.1-18.4,192.2-27.5,288.4c-2.5,26.9-4.9,53.8-5,80.8c0,6.4,10,6.4,10,0
			c0.2-47.9,6.4-95.8,11-143.4c4.6-48.1,9.2-96.1,13.8-144.2c2.6-27.2,5.2-54.4,7.8-81.5C-964.9,4274.5-974.9,4274.6-975.5,4281
			L-975.5,4281z"/>
	</g>
</g>
<g>
	<g>
		<path class="st1" d="M-1283.9,4350.9c0.9,13.8,3.2,27.4,6.8,40.7c0.5,1.9,3.4,1.1,2.9-0.8c-3.5-13.1-5.8-26.4-6.7-39.9
			C-1281,4349-1284,4349-1283.9,4350.9L-1283.9,4350.9z"/>
	</g>
</g>
<g>
	<g>
		<path class="st1" d="M-1272.2,4348.7c14.4-1,28.8-0.3,43.1,0.7c14.4,1,28.7,2.2,43.1,3.1c28.6,1.9,57.2,3.2,85.9,3
			c16.2-0.1,32.4-0.6,48.6-1.8c1.9-0.1,1.9-3.1,0-3c-28.7,2.1-57.6,2.2-86.3,1.2c-28.7-1-57.2-3-85.8-5.2
			c-16.2-1.2-32.4-2.3-48.6-1.1C-1274.1,4345.9-1274.1,4348.9-1272.2,4348.7L-1272.2,4348.7z"/>
	</g>
</g>
<g>
	<g>
		<path class="st1" d="M-1266,4397.4c20.8,0,41.6,0,62.4,0c20.9,0,41.8,0,62.7,0c11.7,0,23.5,0,35.2,0c1.9,0,1.9-3,0-3
			c-20.8,0-41.6,0-62.4,0c-20.9,0-41.8,0-62.7,0c-11.7,0-23.5,0-35.2,0C-1267.9,4394.4-1267.9,4397.4-1266,4397.4L-1266,4397.4z"/>
	</g>
</g>
<g>
	<g>
		<path class="st1" d="M-1095.8,4402.6c-1.7,7.5-3.5,15-5.2,22.5c-0.4,1.9,2.5,2.7,2.9,0.8c1.7-7.5,3.5-15,5.2-22.5
			C-1092.5,4401.5-1095.4,4400.7-1095.8,4402.6L-1095.8,4402.6z"/>
	</g>
</g>
<g>
	<g>
		<path class="st1" d="M-1263.9,4446.1c20.2-0.5,40.4-0.9,60.6-1.3c20.1-0.4,40.3-0.7,60.4-0.9c11.4-0.1,22.8-0.3,34.2-0.4
			c1.9,0,1.9-3,0-3c-20.2,0.2-40.4,0.4-60.7,0.7c-20.1,0.3-40.3,0.7-60.4,1.1c-11.4,0.2-22.8,0.5-34.2,0.8
			C-1265.9,4443.2-1265.9,4446.2-1263.9,4446.1L-1263.9,4446.1z"/>
	</g>
</g>
<g>
	<g>
		<path class="st1" d="M-1278.8,4457.1c0.9,9.8,2.5,19.4,4.9,29c0.5,1.9,3.4,1.1,2.9-0.8c-2.3-9.3-3.9-18.7-4.8-28.2
			C-1276,4455.2-1279,4455.2-1278.8,4457.1L-1278.8,4457.1z"/>
	</g>
</g>
<g>
	<g>
		<path class="st1" d="M-1264.9,4494.3c19.5-0.9,39-1.3,58.5-1.1c19.6,0.1,39.2,0.8,58.7,1.9c11,0.6,21.9,1.5,32.9,2.4
			c1.9,0.2,1.9-2.8,0-3c-19.4-1.7-38.9-2.9-58.4-3.6c-19.6-0.7-39.2-0.9-58.8-0.6c-11,0.2-22,0.5-33,1
			C-1266.9,4491.4-1266.9,4494.4-1264.9,4494.3L-1264.9,4494.3z"/>
	</g>
</g>
<g>
	<g>
		<path class="st1" d="M-1106,4503c-0.9,13.9-2.6,27.7-4.8,41.4c-0.3,1.9,2.6,2.7,2.9,0.8c2.3-14,4-28.1,5-42.2
			C-1102.9,4501.1-1105.9,4501.1-1106,4503L-1106,4503z"/>
	</g>
</g>
<g>
	<g>
		<path class="st1" d="M-1214.6,4554.3c13.1,7.4,26.9,13.7,41.1,18.7c1.8,0.6,2.6-2.3,0.8-2.9c-14-5-27.5-11.1-40.4-18.4
			C-1214.8,4550.8-1216.3,4553.4-1214.6,4554.3L-1214.6,4554.3z"/>
	</g>
</g>
<g>
	<g>
		<path class="st1" d="M-1151.8,4570.8c12.8-6.3,26.2-11.2,40-14.7c1.9-0.5,1.1-3.4-0.8-2.9c-14,3.6-27.7,8.6-40.7,15
			C-1155.1,4569-1153.6,4571.6-1151.8,4570.8L-1151.8,4570.8z"/>
	</g>
</g>
<g>
	<g>
		<path class="st1" d="M-1216.6,4541.8c0.5-6.6,0.3-13.3-0.7-19.8c-0.1-0.8-1.1-1.2-1.8-1c-0.9,0.2-1.2,1-1,1.9
			c0.9,6.3,1.1,12.7,0.6,19C-1219.7,4543.8-1216.7,4543.8-1216.6,4541.8L-1216.6,4541.8z"/>
	</g>
</g>
<g>
	<g>
		<path class="st1" d="M-1259.8,4518.8c11.9-1,23.8-1.3,35.8-0.9c1.9,0.1,1.9-2.9,0-3c-11.9-0.4-23.9-0.1-35.8,0.9
			C-1261.8,4515.9-1261.8,4518.9-1259.8,4518.8L-1259.8,4518.8z"/>
	</g>
</g>
<g>
	<g>
		<path class="st1" d="M-1269.9,4525c4.7,15.4,8,31.1,9.7,47.1c0.5,4.5,0.8,9.1,1.1,13.6c0.1,1.9,3.1,1.9,3,0
			c-0.9-16.2-3.3-32.4-7.2-48.1c-1.1-4.5-2.4-9-3.7-13.4C-1267.6,4522.4-1270.5,4523.2-1269.9,4525L-1269.9,4525z"/>
	</g>
</g>
<g>
	<g>
		<path class="st1" d="M-1251.1,4596.6c21.6,4.9,43.2,9.7,64.9,14.6c6.2,1.4,12.3,2.8,18.5,4.2c1.9,0.4,2.7-2.5,0.8-2.9
			c-21.6-4.9-43.2-9.7-64.9-14.6c-6.2-1.4-12.3-2.8-18.5-4.2C-1252.2,4593.3-1253,4596.2-1251.1,4596.6L-1251.1,4596.6z"/>
	</g>
</g>
<g>
	<g>
		<path class="st1" d="M-1155.5,4621.4c22.1-7.6,44.1-15.5,66-23.6c6.2-2.3,12.3-4.6,18.5-6.9c1.8-0.7,1-3.6-0.8-2.9
			c-21.8,8.3-43.8,16.3-65.8,24.1c-6.2,2.2-12.4,4.4-18.6,6.5C-1158.1,4619.1-1157.3,4622-1155.5,4621.4L-1155.5,4621.4z"/>
	</g>
</g>
<g>
	<g>
		<path class="st1" d="M-1043.5,4357c-1.1,29.6-4.9,59-8.9,88.3c-3.9,29.2-8,58.5-9.6,88c-0.9,16.5-0.9,33,0.3,49.4
			c0.1,1.9,3.1,1.9,3,0c-2.2-29.4-0.3-58.9,3-88.1c3.3-29.4,7.9-58.7,11.2-88.1c1.9-16.4,3.3-32.9,3.9-49.5
			C-1040.4,4355.1-1043.4,4355.1-1043.5,4357L-1043.5,4357z"/>
	</g>
</g>
<g>
	<g>
		<path class="st1" d="M-1153.8,4337.3c11.6-16,22.5-32.5,32.8-49.4c1-1.6-1.6-3.2-2.6-1.5c-10.3,16.9-21.2,33.4-32.8,49.4
			C-1157.6,4337.3-1155,4338.8-1153.8,4337.3L-1153.8,4337.3z"/>
	</g>
</g>
<g>
	<g>
		<path class="st1" d="M-1131.9,4335.3c12-16.7,24.5-32.9,37.7-48.6c1.2-1.5-0.9-3.6-2.1-2.1c-10.3,12.4-20.3,25.1-29.9,38
			c-2.8,3.7-5.5,7.5-8.2,11.2C-1135.6,4335.4-1133,4336.9-1131.9,4335.3L-1131.9,4335.3z"/>
	</g>
</g>
<g>
	<g>
		<path class="st1" d="M-1107.4,4336c12.3-16.4,24.6-32.9,36.8-49.3c1.2-1.5-1.5-3-2.6-1.5c-12.3,16.4-24.6,32.9-36.8,49.3
			C-1111.1,4336-1108.5,4337.5-1107.4,4336L-1107.4,4336z"/>
	</g>
</g>
<g>
	<g>
		<path class="st1" d="M-1079.1,4334.9c11.1-16.6,22.4-33,34-49.3c1.1-1.6-1.5-3.1-2.6-1.5c-11.6,16.2-22.9,32.7-34,49.3
			C-1082.8,4335-1080.2,4336.5-1079.1,4334.9L-1079.1,4334.9z"/>
	</g>
</g>
<g>
	<g>
		<path class="st1" d="M-1052.6,4335.6c9.7-13.9,19.4-27.7,29.1-41.6c2.8-3.9,5.5-7.9,8.3-11.8c1.1-1.6-1.5-3.1-2.6-1.5
			c-9.7,13.9-19.4,27.7-29.1,41.6c-2.8,3.9-5.5,7.9-8.3,11.8C-1056.3,4335.7-1053.7,4337.2-1052.6,4335.6L-1052.6,4335.6z"/>
	</g>
</g>
<g>
	<g>
		<path class="st1" d="M-1025.7,4342.6c11.1-13.2,21.7-26.8,31.8-40.8c2.9-4,5.7-8,8.5-12c1.1-1.6-1.5-3.1-2.6-1.5
			c-9.7,14-19.9,27.7-30.6,41c-3,3.8-6.1,7.5-9.2,11.2C-1029.1,4342-1026.9,4344.1-1025.7,4342.6L-1025.7,4342.6z"/>
	</g>
</g>
<g>
	<g>
		<path class="st1" d="M-1032.1,4390.8c10.2-14.7,20.8-29.2,31.8-43.4c3.1-4,6.3-8,9.4-12c1.2-1.5-0.9-3.6-2.1-2.1
			c-11.3,14.2-22.2,28.7-32.8,43.4c-3,4.2-6,8.4-8.9,12.6C-1035.8,4390.8-1033.2,4392.4-1032.1,4390.8L-1032.1,4390.8z"/>
	</g>
</g>
<g>
	<g>
		<path class="st1" d="M-1032.9,4433.6c11.8-14.6,22.9-29.7,33.4-45.3c3-4.5,5.9-8.9,8.8-13.5c1-1.6-1.5-3.1-2.6-1.5
			c-10,15.6-20.6,30.9-31.9,45.6c-3.2,4.2-6.5,8.4-9.8,12.6C-1036.2,4432.9-1034.1,4435.1-1032.9,4433.6L-1032.9,4433.6z"/>
	</g>
</g>
<g>
	<g>
		<path class="st1" d="M-1038,4472.6c11-13.9,22-27.8,32.8-41.8c3-3.9,6.1-7.9,9.1-11.9c1.2-1.5-1.4-3-2.6-1.5
			c-10.7,13.9-21.4,27.7-32.3,41.4c-3.1,3.9-6.1,7.8-9.2,11.6C-1041.3,4472-1039.2,4474.1-1038,4472.6L-1038,4472.6z"/>
	</g>
</g>
<g>
	<g>
		<path class="st1" d="M-1043.2,4512c13.1-16.6,26-33.4,38.6-50.4c3.6-4.8,7.2-9.7,10.7-14.6c1.1-1.6-1.5-3.1-2.6-1.5
			c-12.3,17-25,33.7-37.8,50.3c-3.7,4.7-7.3,9.4-11,14C-1046.5,4511.4-1044.4,4513.6-1043.2,4512L-1043.2,4512z"/>
	</g>
</g>
<g>
	<g>
		<path class="st1" d="M-1044.5,4550.2c14.8-14.1,26.4-31.1,37-48.5c3-4.9,5.9-9.8,8.8-14.8c1-1.7-1.6-3.2-2.6-1.5
			c-10.2,17.3-20.5,34.8-33.6,50.2c-3.7,4.4-7.6,8.5-11.7,12.5C-1048,4549.5-1045.9,4551.6-1044.5,4550.2L-1044.5,4550.2z"/>
	</g>
</g>
<g>
	<g>
		<path class="st1" d="M-1048.5,4586.8c10.3-13.2,20.6-26.5,31-39.7c3-3.8,5.9-7.6,8.9-11.4c1.2-1.5-0.9-3.6-2.1-2.1
			c-10.3,13.2-20.6,26.5-31,39.7c-3,3.8-5.9,7.6-8.9,11.4C-1051.8,4586.1-1049.7,4588.3-1048.5,4586.8L-1048.5,4586.8z"/>
	</g>
</g>
<g>
	<g>
		<path class="st1" d="M-1140,4622.1c-4.2,14.9-9,29.6-14.3,44.1c-0.7,1.8,2.2,2.6,2.9,0.8c5.3-14.5,10-29.2,14.3-44.1
			C-1136.6,4621-1139.5,4620.2-1140,4622.1L-1140,4622.1z"/>
	</g>
</g>
<g>
	<g>
		<path class="st1" d="M-1118.3,4617c-5.4,19.4-11.7,38.5-18.9,57.2c-0.7,1.8,2.2,2.6,2.9,0.8c7.3-18.7,13.6-37.8,18.9-57.2
			C-1114.9,4616-1117.8,4615.2-1118.3,4617L-1118.3,4617z"/>
	</g>
</g>
<g>
	<g>
		<path class="st1" d="M-1097.6,4612c-4.4,16.5-9.3,32.8-14.5,49.1c-1.5,4.6-3,9.1-4.5,13.7c-0.6,1.8,2.3,2.6,2.9,0.8
			c5.5-16.1,10.5-32.4,15.2-48.9c1.3-4.6,2.6-9.3,3.8-13.9C-1094.2,4610.9-1097.1,4610.1-1097.6,4612L-1097.6,4612z"/>
	</g>
</g>
<g>
	<g>
		<path class="st1" d="M-1069.3,4604.8c-4,16.6-9.3,33-15.7,48.9c-1.8,4.5-3.8,9-5.8,13.5c-0.8,1.7,1.8,3.3,2.6,1.5
			c7.2-15.8,13.2-32.1,18-48.7c1.4-4.8,2.6-9.5,3.8-14.4C-1066,4603.7-1068.9,4602.9-1069.3,4604.8L-1069.3,4604.8z"/>
	</g>
</g>
<g>
	<g>
		<path class="st1" d="M-1067.6,4652.9c9.4-16.7,18.8-33.4,28.1-50c2.7-4.8,5.4-9.6,8.1-14.4c1-1.7-1.6-3.2-2.6-1.5
			c-9.4,16.7-18.8,33.4-28.1,50c-2.7,4.8-5.4,9.6-8.1,14.4C-1071.2,4653-1068.6,4654.5-1067.6,4652.9L-1067.6,4652.9z"/>
	</g>
</g>
<g>
	<g>
		<path class="st1" d="M-1037.8,4648c10.1-16.6,18.8-34,26.1-52c0.7-1.8-2.2-2.6-2.9-0.8c-7.2,17.7-15.9,34.9-25.8,51.3
			C-1041.4,4648.1-1038.8,4649.6-1037.8,4648L-1037.8,4648z"/>
	</g>
</g>
<g>
	
		<image style="overflow:visible;enable-background:new    ;" width="905" height="523" xlink:href="BA125FC4.jpeg"  transform="matrix(1.1998 0 0 1.1998 -564.9059 5186)">
	</image>
	
		<image style="overflow:visible;enable-background:new    ;" width="905" height="523" xlink:href="BA125FC4.jpeg"  transform="matrix(1.1998 0 0 1.1998 -564.9059 5186)">
	</image>
</g>
<g>
	<g>
		<path class="st1" d="M-1336.2,5345.6c0.2,93.9,0.2,187.8-0.1,281.6c-0.1,26.6-0.2,53.3-0.3,79.9c0,6.4,10,6.4,10,0
			c0.5-93.9,0.7-187.8,0.6-281.6c0-26.6-0.1-53.3-0.1-79.9C-1326.2,5339.2-1336.2,5339.1-1336.2,5345.6L-1336.2,5345.6z"/>
	</g>
</g>
<g>
	<g>
		<path class="st1" d="M-1310.6,5735.3c73.1,1.6,146.2,2.1,219.4,1.3c20.8-0.2,41.7-0.5,62.5-0.9c6.4-0.1,6.5-10.1,0-10
			c-73.1,1.4-146.2,1.6-219.4,0.7c-20.8-0.3-41.7-0.6-62.5-1.1C-1317.1,5725.2-1317.1,5735.2-1310.6,5735.3L-1310.6,5735.3z"/>
	</g>
</g>
<g>
	<g>
		<path class="st1" d="M-1095.8,5336.4c0,14,0,28.1,0,42.1c0,6.9,0,13.7,0,20.6c0,5.1-0.4,10.7,4,14.2c4.2,3.2,10.7,3.3,15.8,3.5
			c6.6,0.1,13.2-0.1,19.8-0.3c14.3-0.3,28.7-0.5,43-0.8c6.4-0.1,6.5-10.1,0-10c-12.1,0.2-24.1,0.4-36.2,0.6
			c-6.2,0.1-12.4,0.2-18.6,0.3c-2.7,0-5.4,0.1-8.1,0.1c-2.3,0-7,0.3-8.9-1.1c-2.2-1.5-0.9-10.6-0.9-13.4c0-6.2,0-12.4,0-18.6
			c0-12.4,0-24.8,0-37.2C-1085.8,5330-1095.8,5330-1095.8,5336.4L-1095.8,5336.4z"/>
	</g>
</g>
<g>
	<g>
		<path class="st1" d="M-1005,5424.3c-2.9,74.4-3.5,148.8-1.8,223.2c0.5,21.3,1.1,42.5,2,63.8c0.3,6.4,10.3,6.5,10,0
			c-2.9-74.4-3.6-148.8-2.1-223.2c0.5-21.3,1.1-42.5,1.9-63.8C-994.8,5417.8-1004.8,5417.8-1005,5424.3L-1005,5424.3z"/>
	</g>
</g>
<g>
	<g>
		<path class="st1" d="M-1316.5,5334.3c68.4,1.6,136.8,3.2,205.3,4.9c6.4,0.1,6.4-9.9,0-10c-68.4-1.6-136.8-3.2-205.3-4.9
			C-1323,5324.2-1323,5334.2-1316.5,5334.3L-1316.5,5334.3z"/>
	</g>
</g>
<g>
	<g>
		<path class="st1" d="M-1081.1,5346.1c2.2-1.7,4.3-3.5,6.2-5.6c0.5-0.6,0.6-1.6,0-2.1c-0.6-0.5-1.5-0.6-2.1,0
			c-0.9,1-1.8,1.9-2.8,2.8c-0.5,0.4-1,0.9-1.4,1.3c-0.3,0.2-0.5,0.4-0.8,0.6c-0.1,0.1-0.3,0.2-0.4,0.3c-0.1,0-0.1,0.1-0.2,0.1
			c-0.3,0.2,0.3-0.2,0,0c-0.3,0.3-0.6,0.5-0.7,0.9c-0.1,0.4-0.1,0.8,0.2,1.2C-1082.8,5346.2-1081.8,5346.6-1081.1,5346.1
			L-1081.1,5346.1z"/>
	</g>
</g>
<g>
	<g>
		<path class="st1" d="M-1078.7,5363.3c4.1-3.8,7.9-8,11.5-12.3c0.5-0.6,0.6-1.5,0-2.1c-0.5-0.5-1.6-0.6-2.1,0
			c-3.6,4.3-7.4,8.5-11.5,12.3C-1082.3,5362.5-1080.1,5364.6-1078.7,5363.3L-1078.7,5363.3z"/>
	</g>
</g>
<g>
	<g>
		<path class="st1" d="M-1075.1,5379.8c0.8-1.9,2.8-3.4,4.2-4.8c1.5-1.5,3-2.9,4.5-4.4c3-3,5.9-6.1,8.3-9.6c1.1-1.6-1.5-3.1-2.6-1.5
			c-2.3,3.5-5.3,6.6-8.3,9.5c-1.5,1.5-3,2.9-4.5,4.4c-1.5,1.5-3.3,3-4.2,5c-0.3,0.7-0.2,1.6,0.5,2
			C-1076.5,5380.7-1075.4,5380.5-1075.1,5379.8L-1075.1,5379.8z"/>
	</g>
</g>
<g>
	<g>
		<path class="st1" d="M-1079.3,5402.1c12.5-10.7,25-21.4,37.6-32.2c1.5-1.3-0.7-3.4-2.1-2.1c-12.5,10.7-25,21.4-37.6,32.2
			C-1082.9,5401.2-1080.7,5403.3-1079.3,5402.1L-1079.3,5402.1z"/>
	</g>
</g>
<g>
	<g>
		<path class="st1" d="M-1056.8,5399.5c7.3-5.9,14-12.6,19.9-19.9c0.5-0.6,0.6-1.5,0-2.1c-0.5-0.5-1.6-0.6-2.1,0
			c-5.9,7.4-12.6,14-19.9,19.9c-0.6,0.5-0.5,1.6,0,2.1C-1058.3,5400.2-1057.4,5400-1056.8,5399.5L-1056.8,5399.5z"/>
	</g>
</g>
<g>
	<g>
		<path class="st1" d="M-1041,5399.5c4.8-4.5,9.3-9.3,13.4-14.4c0.5-0.6,0.6-1.5,0-2.1c-0.5-0.5-1.6-0.6-2.1,0
			c-4.2,5-8.7,9.9-13.4,14.4C-1044.5,5398.7-1042.4,5400.9-1041,5399.5L-1041,5399.5z"/>
	</g>
</g>
<g>
	<g>
		<path class="st1" d="M-1021.2,5399.7c2.1-2.1,4.1-4.3,6.1-6.5c0.5-0.6,0.6-1.6,0-2.1c-0.6-0.5-1.6-0.6-2.1,0c-2,2.2-4,4.4-6.1,6.5
			c-0.5,0.6-0.6,1.6,0,2.1C-1022.7,5400.3-1021.8,5400.4-1021.2,5399.7L-1021.2,5399.7z"/>
	</g>
</g>
<g>
	<g>
		<path class="st1" d="M-1223.6,5496.2c-17.1,15-35.2,28.8-54.2,41.4c-2.4,1.6-3.7,5.7-1,7.9c17.2,14,34.9,27.4,53,40.1
			c5.3,3.7,10.3-5,5-8.6c-17.4-12.3-34.4-25.1-51-38.6c-0.3,2.6-0.7,5.2-1,7.9c19.7-13,38.5-27.4,56.2-42.9
			C-1211.7,5499-1218.8,5492-1223.6,5496.2L-1223.6,5496.2z"/>
	</g>
</g>
<g>
	<g>
		<path class="st1" d="M-1188.9,5613.3c6.7-24.7,18.8-47.2,29.5-70.2c10.8-23.3,20.5-47.2,29.1-71.4c2.2-6.1-7.5-8.7-9.6-2.7
			c-8.8,24.6-18.6,48.8-29.7,72.4c-10.6,22.6-22.3,44.9-28.9,69.2C-1200.2,5616.9-1190.6,5619.5-1188.9,5613.3L-1188.9,5613.3z"/>
	</g>
</g>
<g>
	<g>
		<path class="st1" d="M-1116.3,5589.5c20.6-13.1,41.1-26.2,61.7-39.3c3.4-2.2,3-6.4,0-8.6c-19.2-14.3-37.1-30-53.9-47
			c-4.5-4.6-11.6,2.5-7.1,7.1c17.3,17.6,36,33.8,55.9,48.6c0-2.9,0-5.8,0-8.6c-20.5,13.1-41.1,26.2-61.6,39.3
			C-1126.8,5584.4-1121.8,5593-1116.3,5589.5L-1116.3,5589.5z"/>
	</g>
</g>
<g>
	<g>
		<path class="st1" d="M-1349.3,6427.7c5.2,52.4,5,105.3-0.7,157.6c-0.4,3.9,4.5,6.1,7.5,4.3c10.4-6.1,20.8-12.2,31.3-18.3
			c5.1-3,10.1-5.9,15.2-8.9c4.1-2.4,10.1-4.7,12.7-9c2.3-3.9,1.7-9.8,2-14.1c0.4-5.9,0.8-11.9,1.2-17.8c0.8-12.5,1.6-25.1,2.5-37.6
			c-2.5,1.4-5,2.9-7.5,4.3c22.4,13.2,45.1,25.8,68.2,37.8c5.7,3,10.8-5.7,5-8.6c-23-12-45.8-24.6-68.2-37.8c-3.4-2-7.3,0.6-7.5,4.3
			c-0.7,10.9-1.4,21.8-2.1,32.7c-0.4,5.6-0.7,11.2-1.1,16.8c-0.2,2.6-0.4,5.3-0.5,7.9c-0.1,1.8,0.3,5.6-0.6,7.2
			c-0.8,1.4-4.3,2.6-5.6,3.4c-2.3,1.3-4.5,2.6-6.8,4c-4.8,2.8-9.6,5.6-14.4,8.4c-9.6,5.6-19.1,11.2-28.7,16.8c2.5,1.4,5,2.9,7.5,4.3
			c5.7-52.4,6-105.2,0.7-157.6C-1340,6421.4-1350,6421.3-1349.3,6427.7L-1349.3,6427.7z"/>
	</g>
</g>
<g>
	<g>
		<path class="st1" d="M-1334,6415.7c45-27.2,91-52.7,138-76.4c-2.5-1.9-4.9-3.8-7.4-5.6c-4.2,18.5-6.1,37.5-5.3,56.5
			c0.1,2.4,0.8,5.4,0.5,7.6c-0.4,2.6-1.5,2.6-4,3.9c-3.9,2.1-7.7,4.3-11.6,6.4c-8.5,4.8-17,9.7-25.4,14.7c-6.1,3.6-13.9,8-8,15.9
			c4.6,6.2,12,11.1,18.3,15.4c14,9.6,29.3,17,43.2,26.9c5.3,3.8,10.2-4.9,5.1-8.6c-12.7-9.1-26.7-16-39.7-24.6
			c-6.7-4.4-12.3-9.6-18.4-14.6c-1.6,2-1.4,2.2,0.6,0.7c0.8-0.5,1.6-1,2.4-1.5c1.9-1.1,3.8-2.3,5.7-3.4c3.8-2.2,7.6-4.5,11.5-6.7
			c7.7-4.4,15.4-8.7,23.1-12.9c3.1-1.7,6.1-3.5,7.1-7.2c0.9-3.8-0.1-8.2-0.2-12.1c-0.7-18.1,1-36.2,5-53.9c1-4.4-3.4-7.6-7.3-5.6
			c-47,23.7-93,49.2-138,76.4C-1344.6,6410.4-1339.5,6419.1-1334,6415.7L-1334,6415.7z"/>
	</g>
</g>
<g>
	<g>
		<path class="st1" d="M-1174.9,6479.7c14.1-12.3,30.2-21.8,46.6-30.5c4.2-2.2,8.5-4.4,12.7-6.6c3.2-1.7,6.4-3.7,6.8-7.6
			c0.7-6.9-10-12.4-14.8-15.4c-7.2-4.5-14.9-8.2-22.5-12c-3.9-2-7.9-4-11.7-6.2c-2.9-1.6-8.6-4-9.7-7.1c-0.5-1.6,0.2-4.3,0.3-5.9
			c0.2-2.6,0.3-5.3,0.5-7.9c0.3-5.3,0.7-10.5,1-15.8c0.7-10.5,1.3-21,2-31.5c-2.5,1.4-5,2.9-7.5,4.3c23.5,14.5,49.6,24.1,72.8,38.9
			c24.2,15.5,46.7,33.8,69.7,50.9c5.2,3.9,10.1-4.8,5-8.6c-23-17.1-45.5-35.5-69.7-50.9c-23.2-14.8-49.3-24.5-72.8-38.9
			c-3.4-2.1-7.3,0.7-7.5,4.3c-1.3,19.7-3,39.4-3.8,59.1c-0.3,8.5,5,12,11.8,16.1c7.3,4.4,15.1,8,22.7,11.9
			c7.3,3.7,14.7,7.6,21.2,12.7c0.7,0.5,1.4,1.1,2.1,1.7c1.6,1.8,1.8,1.3,0.7-1.4c-0.5-0.3-5.7,2.9-6.4,3.3c-4,2-7.9,4.1-11.9,6.3
			c-15.8,8.5-31.1,18-44.7,29.9C-1186.9,6476.9-1179.8,6483.9-1174.9,6479.7L-1174.9,6479.7z"/>
	</g>
</g>
<g>
	<g>
		<path class="st1" d="M-1151,6527.5c20.3-16.5,43.1-29.9,67.3-39.8c-2.1-1.6-4.2-3.2-6.3-4.8c-0.6,19.4-1.2,38.9,1.3,58.2
			c0.5,4.1,0.7,8.7,2.8,12.3c2.1,3.7,6.1,6,9.6,8.3c7.7,5.3,15.6,10.2,23.7,14.8c4.1,2.3,8.1,4.5,12.3,6.7c3.6,1.9,7.8,4.9,11.8,5.5
			c9.7,1.5,7.6-13.4,7.7-19c0.3-19.8,0.5-39.6,0.5-59.4c0-23.1-0.2-46.2-0.7-69.3c-0.1-6.4-10.1-6.5-10,0
			c0.5,23.4,0.7,46.8,0.7,70.3c0,11.5-0.1,23.1-0.2,34.6c-0.1,5.6-0.1,11.2-0.2,16.8c0,3-0.1,5.9-0.1,8.9c0,1.6-0.1,3.3-0.1,5
			c0,0.3,0.2,3.9,0.4,3.6c1.2-0.5,2.4-1,3.5-1.5c-1.4,0-4.4-2.3-5.7-2.9c-2.2-1.1-4.4-2.3-6.6-3.5c-4.7-2.5-9.3-5.1-13.8-7.8
			c-4.3-2.5-8.5-5.2-12.7-7.9c-3.9-2.6-10.9-5.6-12-10.5c-2.4-9.8-2.4-20.8-2.6-30.9c-0.2-10.9,0.1-21.7,0.5-32.5
			c0.1-3-3.3-6-6.3-4.8c-25.9,10.5-50,24.7-71.7,42.3C-1163.1,6524.5-1155.9,6531.5-1151,6527.5L-1151,6527.5z"/>
	</g>
</g>
<g>
	<g>
		<path class="st1" d="M-1217.1,6535.4c2.2,26.2,2.6,52.4,1.4,78.7c2.5-1.4,5-2.9,7.5-4.3c-18.6-9.4-36.7-19.8-54.2-31.2
			c-3.4-2.2-6.9-4.6-11.1-4.8c-4.7-0.2-8.8,2.9-12.7,5.2c-9.3,5.5-18.6,11.1-27.9,16.6c-4.4,2.6-8.8,5.2-13.2,7.9
			c-3.2,1.9-6.2,4.2-5.6,8.4c0.6,3.7,3.8,5.7,6.9,7.3c5.1,2.7,10.3,5.3,15.4,8c18.8,9.9,37.5,20,56.1,30.4
			c20.8,11.6,41.4,23.6,61.8,35.9c5.5,3.3,10.6-5.3,5.1-8.6c-22.4-13.5-44.9-26.5-67.7-39.2c-11.3-6.3-22.6-12.4-33.9-18.5
			c-5.7-3-11.4-6-17.1-9c-2-1-16.5-8-16.5-8c-0.5,1.2-1,2.4-1.5,3.5c1.2-1.5,3.6-2.4,5.3-3.4c2.5-1.5,5-3,7.4-4.4
			c4.8-2.9,9.6-5.7,14.4-8.5c4.8-2.9,9.6-5.7,14.4-8.5c2.2-1.3,4.3-2.9,6.6-3.9c3-1.3,4.6-0.1,7.2,1.5
			c18.1,11.6,36.5,22.5,55.7,32.2c3.4,1.8,7.3-0.4,7.5-4.3c1.2-26.2,0.8-52.5-1.4-78.7C-1207.6,6529-1217.6,6529-1217.1,6535.4
			L-1217.1,6535.4z"/>
	</g>
</g>
<g>
	<g>
		<path class="st1" d="M-1162.7,6541.5c-0.4,19,0,37.9,1.1,56.9c0.3,6.1,0.3,15.8,9,15.4c7.1-0.3,15.1-6.4,20.6-10.3
			c6.7-4.8,13.1-10.2,19.9-14.9c3.5-2.4,7-4.7,10.7-7c1-0.6,3.4-2.7,4.7-2.8c2.1-0.1,4.5,2.3,6.1,3.4c15.4,10.2,30.5,20.7,45.5,31.5
			c0-2.9,0-5.8,0-8.6c-44.9,27.3-89.6,54.9-134.3,82.7c-5.4,3.4-0.4,12,5.1,8.6c44.6-27.8,89.3-55.4,134.3-82.7c3.4-2.1,3-6.5,0-8.6
			c-14-10-28.1-19.8-42.3-29.3c-3.3-2.2-6.9-5.4-10.6-6.7c-3.5-1.2-6.4-0.1-9.5,1.6c-7.1,4-13.9,8.6-20.5,13.5
			c-5.8,4.3-11.4,9-17.4,13c-1.8,1.2-3.7,2.4-5.6,3.4c-1.4,0.8-3.7,1.3-4.8,2.3c-1.9,0.3-2,0.7-0.4,1.3c0-0.6-0.1-1.3-0.1-2
			c0.5-2.2-0.3-5.6-0.4-7.8c-0.9-17.6-1.2-35.3-0.8-52.9C-1152.5,6535.1-1162.5,6535.1-1162.7,6541.5L-1162.7,6541.5z"/>
	</g>
</g>
<g>
	<g>
		<path class="st1" d="M-1036.6,6568.3c1.4-1.4,2.5-3,3.3-4.8c0.2-0.4,0.3-0.7,0.2-1.2c-0.1-0.4-0.4-0.7-0.7-0.9
			c-0.4-0.2-0.8-0.3-1.2-0.1c-0.3,0.1-0.7,0.3-0.9,0.7c-0.5,1.1-1.1,2.1-1.8,3.1c0.1-0.1,0.2-0.2,0.2-0.3c-0.4,0.5-0.8,0.9-1.2,1.4
			c-0.6,0.6-0.6,1.6,0,2.1C-1038.2,6568.8-1037.2,6568.9-1036.6,6568.3L-1036.6,6568.3z"/>
	</g>
</g>
<g>
	<g>
		<path class="st1" d="M-1041.8,6563.9c2.7-4.5,5.3-9,7.7-13.7c0.4-0.7,0.2-1.6-0.5-2c-0.7-0.4-1.7-0.2-2.1,0.5
			c-2.4,4.7-4.9,9.2-7.7,13.7C-1045.4,6564.1-1042.8,6565.6-1041.8,6563.9L-1041.8,6563.9z"/>
	</g>
</g>
<g>
	<g>
		<path class="st1" d="M-1050.8,6560.9c6.1-7.8,11.9-15.8,17.3-24c1.1-1.6-1.5-3.1-2.6-1.5c-5.3,8-10.9,15.8-16.8,23.4
			C-1054.1,6560.2-1052,6562.4-1050.8,6560.9L-1050.8,6560.9z"/>
	</g>
</g>
<g>
	<g>
		<path class="st1" d="M-1057.8,6554.6c8.6-10,16.7-20.3,24.3-31c1.1-1.6-1.5-3.1-2.6-1.5c-7.5,10.5-15.5,20.6-23.9,30.4
			C-1061.1,6554-1059,6556.1-1057.8,6554.6L-1057.8,6554.6z"/>
	</g>
</g>
<g>
	<g>
		<path class="st1" d="M-1067.2,6549.3c11.9-10.5,22.8-22,32.6-34.5c1.2-1.5-0.9-3.6-2.1-2.1c-9.8,12.5-20.7,24-32.6,34.5
			C-1070.8,6548.4-1068.7,6550.5-1067.2,6549.3L-1067.2,6549.3z"/>
	</g>
</g>
<g>
	<g>
		<path class="st1" d="M-1070.6,6541.8c13.3-14.1,25.4-29.3,36.2-45.3c1.1-1.6-1.5-3.1-2.6-1.5c-10.7,15.9-22.6,30.8-35.8,44.7
			C-1074.1,6541-1072,6543.2-1070.6,6541.8L-1070.6,6541.8z"/>
	</g>
</g>
<g>
	<g>
		<path class="st1" d="M-1072.2,6526.6c10.5-14.9,21-29.8,31.4-44.7c2.9-4.2,5.9-8.4,8.9-12.6c1.1-1.6-1.5-3.1-2.6-1.5
			c-10.5,14.9-21,29.8-31.4,44.7c-2.9,4.2-5.9,8.4-8.9,12.6C-1075.9,6526.7-1073.3,6528.2-1072.2,6526.6L-1072.2,6526.6z"/>
	</g>
</g>
<g>
	<g>
		<path class="st1" d="M-1073.8,6502.6c10.3-14.2,20.7-28.5,31-42.7c2.9-4,5.8-8.1,8.8-12.1c1.1-1.6-1.5-3.1-2.6-1.5
			c-10.3,14.2-20.7,28.5-31,42.7c-2.9,4-5.8,8.1-8.8,12.1C-1077.5,6502.7-1074.9,6504.2-1073.8,6502.6L-1073.8,6502.6z"/>
	</g>
</g>
<g>
	<g>
		<path class="st1" d="M-1075,6486.4c10.7-17,21.4-33.9,32.1-50.9c1-1.6-1.6-3.1-2.6-1.5c-10.7,17-21.4,33.9-32.1,50.9
			C-1078.7,6486.5-1076.1,6488-1075,6486.4L-1075,6486.4z"/>
	</g>
</g>
<g>
	<g>
		<path class="st1" d="M-1067.6,6445.2c-3.3,7.7-7.4,15-12.1,21.9c-1.1,1.6,1.5,3.1,2.6,1.5c4.7-6.9,8.8-14.2,12.1-21.9
			c0.3-0.8,0.2-1.6-0.5-2C-1066.2,6444.3-1067.3,6444.5-1067.6,6445.2L-1067.6,6445.2z"/>
	</g>
</g>
<g>
	<g>
		<path class="st1" d="M-1084,6454.1c-4.3,6-7.9,12.6-10.7,19.5c-0.3,0.8,0.3,1.6,1,1.9c0.9,0.2,1.5-0.3,1.8-1
			c2.7-6.6,6.2-12.9,10.4-18.7c0.5-0.7,0.1-1.7-0.5-2C-1082.7,6453.1-1083.5,6453.4-1084,6454.1L-1084,6454.1z"/>
	</g>
</g>
<g>
	<g>
		<path class="st1" d="M-1102.1,6463.5c-2.8,5.1-4,12.1-9.3,15.5c-1.6,1-0.1,3.6,1.5,2.6c5.9-3.7,7.2-10.8,10.4-16.5
			C-1098.6,6463.4-1101.2,6461.9-1102.1,6463.5L-1102.1,6463.5z"/>
	</g>
</g>
<g>
	<g>
		<path class="st1" d="M-1121.6,6474.9c-2,6-4.5,11.8-7.5,17.4c-0.9,1.7,1.7,3.2,2.6,1.5c3.1-5.8,5.7-11.9,7.8-18.1
			C-1118.1,6473.9-1121,6473.1-1121.6,6474.9L-1121.6,6474.9z"/>
	</g>
</g>
<g>
	<g>
		<path class="st1" d="M-1134.6,6485.1c-2,5-4.5,9.9-7.5,14.4c-1.1,1.6,1.5,3.1,2.6,1.5c3.1-4.7,5.7-9.8,7.8-15.1
			c0.3-0.8-0.3-1.6-1.1-1.9C-1133.6,6483.8-1134.3,6484.3-1134.6,6485.1L-1134.6,6485.1z"/>
	</g>
</g>
<g>
	<g>
		<path class="st1" d="M-1151.4,6492.9c-2.8,6.7-5.7,13.4-8.6,20.1c-0.3,0.8-0.2,1.6,0.5,2c0.6,0.4,1.7,0.2,2.1-0.5
			c2.8-6.7,5.7-13.4,8.5-20.1c0.3-0.8,0.2-1.6-0.5-2C-1150,6492-1151.1,6492.1-1151.4,6492.9L-1151.4,6492.9z"/>
	</g>
</g>
<g>
	<g>
		<path class="st1" d="M-1166.5,6501.7c-4,7.3-8.5,14.3-13.6,20.9c-0.5,0.6-0.6,1.5,0,2.1c0.5,0.5,1.6,0.6,2.1,0
			c5.3-6.8,10-13.9,14.1-21.5C-1162.9,6501.5-1165.5,6500-1166.5,6501.7L-1166.5,6501.7z"/>
	</g>
</g>
<g>
	<g>
		<path class="st1" d="M-1170.5,6522.8c-3.8,5.9-7.6,11.8-11.5,17.8c-1,1.6,1.5,3.1,2.6,1.5c3.8-5.9,7.7-11.8,11.5-17.8
			C-1166.8,6522.7-1169.4,6521.2-1170.5,6522.8L-1170.5,6522.8z"/>
	</g>
</g>
<g>
	<g>
		<path class="st1" d="M-1168.4,6536.8c-3.8,5.4-7.1,11.1-9.8,17.1c-0.3,0.7-0.2,1.6,0.5,2c0.6,0.4,1.7,0.2,2.1-0.5
			c2.7-6,5.9-11.7,9.8-17.1c0.5-0.7,0.1-1.7-0.5-2C-1167.1,6535.9-1167.9,6536.2-1168.4,6536.8L-1168.4,6536.8z"/>
	</g>
</g>
<g>
	<g>
		<path class="st1" d="M-1170.4,6555.6c-3.7,8-7.5,16-11.4,23.9c-0.8,1.7,1.7,3.3,2.6,1.5c3.9-7.9,7.7-15.9,11.4-23.9
			C-1167,6555.3-1169.6,6553.8-1170.4,6555.6L-1170.4,6555.6z"/>
	</g>
</g>
<g>
	<g>
		<path class="st1" d="M-1169,6571.3c-4.9,9.8-8.8,20-11.5,30.6c-0.5,1.9,2.4,2.7,2.9,0.8c2.7-10.3,6.4-20.4,11.2-29.9
			C-1165.5,6571.1-1168.1,6569.5-1169,6571.3L-1169,6571.3z"/>
	</g>
</g>
<g>
	<g>
		<path class="st1" d="M-1166.2,6589.3c-5.2,11.4-10.4,22.8-15.6,34.3c-0.8,1.7,1.8,3.3,2.6,1.5c5.2-11.4,10.4-22.8,15.6-34.3
			C-1162.8,6589.1-1165.4,6587.6-1166.2,6589.3L-1166.2,6589.3z"/>
	</g>
</g>
<g>
	<g>
		<path class="st1" d="M-1164.4,6614c-5,8.1-9.1,16.7-12.1,25.7c-0.6,1.8,2.3,2.6,2.9,0.8c3-8.8,7-17.1,11.8-25
			C-1160.8,6613.9-1163.4,6612.4-1164.4,6614L-1164.4,6614z"/>
	</g>
</g>
<g>
	<g>
		<path class="st1" d="M-1160.3,6622c-5.1,17.5-10.7,34.7-17,51.8c-0.7,1.8,2.2,2.6,2.9,0.8c6.3-17,12-34.3,17-51.8
			C-1156.9,6620.9-1159.8,6620.1-1160.3,6622L-1160.3,6622z"/>
	</g>
</g>
<g>
	<g>
		<path class="st1" d="M-1151.4,6622.6c-2.8,15.8-6.5,31.5-10.8,47c-0.5,1.9,2.4,2.7,2.9,0.8c4.4-15.5,8-31.2,10.8-47
			C-1148.2,6621.6-1151.1,6620.8-1151.4,6622.6L-1151.4,6622.6z"/>
	</g>
</g>
<g>
	<g>
		<path class="st1" d="M-1139.7,6618.6c-2.5,14-5.6,27.8-9.3,41.5c-0.5,1.9,2.4,2.7,2.9,0.8c3.8-13.7,6.9-27.5,9.3-41.5
			C-1136.5,6617.5-1139.4,6616.7-1139.7,6618.6L-1139.7,6618.6z"/>
	</g>
</g>
<g>
	<g>
		<path class="st1" d="M-1127.7,6610.8c-1.3,14.1-3.3,28.2-5.9,42.1c-0.3,1.9,2.5,2.7,2.9,0.8c2.7-14.2,4.7-28.5,6-42.9
			C-1124.5,6608.9-1127.5,6608.9-1127.7,6610.8L-1127.7,6610.8z"/>
	</g>
</g>
<g>
	<g>
		<path class="st1" d="M-1112.1,6599.9c-1.8,14.7-4.7,29.3-8.7,43.5c-0.5,1.9,2.4,2.7,2.9,0.8c4-14.5,7-29.4,8.8-44.3
			C-1108.9,6598-1111.9,6598-1112.1,6599.9L-1112.1,6599.9z"/>
	</g>
</g>
<g>
	<g>
		<path class="st1" d="M-1099.8,6592.4c-1.5,14.7-4.3,29.3-8.4,43.5c-0.5,1.9,2.3,2.6,2.9,0.8c4.2-14.5,7.1-29.3,8.6-44.3
			C-1096.6,6590.5-1099.6,6590.5-1099.8,6592.4L-1099.8,6592.4z"/>
	</g>
</g>
<g>
	<g>
		<path class="st1" d="M-1088.8,6594.5c-0.8,10-2.4,19.8-4.9,29.5c-0.5,1.9,2.4,2.7,2.9,0.8c2.5-10,4.2-20.1,5-30.3
			C-1085.6,6592.5-1088.6,6592.5-1088.8,6594.5L-1088.8,6594.5z"/>
	</g>
</g>
<g>
	<g>
		<path class="st1" d="M-1078,6597.2c-0.3,6.5-1.5,12.9-3.6,19.1c-0.6,1.8,2.3,2.6,2.9,0.8c2.2-6.4,3.4-13.1,3.7-19.9
			C-1074.9,6595.2-1077.9,6595.2-1078,6597.2L-1078,6597.2z"/>
	</g>
</g>
<g>
	<g>
		<path class="st1" d="M-1069.2,6601.5c-1.3,4-2.2,8.1-2.7,12.3c-0.1,0.8,0.8,1.5,1.5,1.5c0.9,0,1.4-0.7,1.5-1.5
			c0.5-3.9,1.3-7.8,2.6-11.5c0.3-0.8-0.3-1.6-1.1-1.9C-1068.2,6600.2-1068.9,6600.7-1069.2,6601.5L-1069.2,6601.5z"/>
	</g>
</g>
<g>
	<g>
		<path class="st1" d="M-1063.7,6607.4c0,0.9,0,1.8,0,2.7c0,0.4,0.2,0.8,0.4,1.1c0.3,0.3,0.7,0.5,1.1,0.4c0.4,0,0.8-0.1,1.1-0.4
			c0.3-0.3,0.4-0.6,0.4-1.1c0-0.9,0-1.8,0-2.7c0-0.4-0.2-0.8-0.4-1.1c-0.3-0.3-0.7-0.5-1.1-0.4c-0.4,0-0.8,0.1-1.1,0.4
			C-1063.5,6606.6-1063.7,6607-1063.7,6607.4L-1063.7,6607.4z"/>
	</g>
</g>
<g>
	<g>
		<path class="st1" d="M-1305.7,6605.2c0.8,3.2,1.7,6.5,2.6,9.7c0.2,0.8,1.1,1.3,1.8,1c0.8-0.3,1.3-1,1.1-1.9
			c-0.9-3.2-1.7-6.5-2.6-9.7c-0.2-0.8-1.1-1.3-1.8-1C-1305.4,6603.6-1305.9,6604.4-1305.7,6605.2L-1305.7,6605.2z"/>
	</g>
</g>
<g>
	<g>
		<path class="st1" d="M-1295.6,6601.8c-0.1,5.7,0.9,11.5,3.2,16.7c0.3,0.8,1,1.3,1.8,1c0.7-0.2,1.4-1.1,1.1-1.9
			c-2.1-5-3.2-10.5-3-15.9C-1292.5,6599.8-1295.5,6599.8-1295.6,6601.8L-1295.6,6601.8z"/>
	</g>
</g>
<g>
	<g>
		<path class="st1" d="M-1286.7,6596.6c-1,10.3,0.4,20.8,4,30.5c0.7,1.8,3.6,1,2.9-0.8c-3.5-9.5-4.9-19.6-3.9-29.8
			C-1283.5,6594.7-1286.5,6594.7-1286.7,6596.6L-1286.7,6596.6z"/>
	</g>
</g>
<g>
	<g>
		<path class="st1" d="M-1275,6592.2c-1.7,12.4-0.9,25,2.5,37c0.5,1.9,3.4,1.1,2.9-0.8c-3.3-11.5-4.2-23.6-2.5-35.4
			c0.1-0.8-0.2-1.6-1.1-1.9C-1273.9,6590.9-1274.9,6591.4-1275,6592.2L-1275,6592.2z"/>
	</g>
</g>
<g>
	<g>
		<path class="st1" d="M-1263.8,6596.7c-0.6,12.5,0.4,25,2.9,37.2c0.4,1.9,3.3,1.1,2.9-0.8c-2.5-12-3.4-24.2-2.8-36.4
			C-1260.7,6594.7-1263.7,6594.7-1263.8,6596.7L-1263.8,6596.7z"/>
	</g>
</g>
<g>
	<g>
		<path class="st1" d="M-1250.4,6602.8c-0.9,13.6-1.8,27.2,0.5,40.7c0.3,1.9,3.2,1.1,2.9-0.8c-2.3-13.2-1.4-26.6-0.4-39.9
			C-1247.3,6600.9-1250.3,6600.9-1250.4,6602.8L-1250.4,6602.8z"/>
	</g>
</g>
<g>
	<g>
		<path class="st1" d="M-1239.4,6612c0.5,13.9,3.3,27.7,8.2,40.8c0.7,1.8,3.6,1,2.9-0.8c-4.8-12.8-7.6-26.3-8.1-40
			C-1236.5,6610-1239.5,6610-1239.4,6612L-1239.4,6612z"/>
	</g>
</g>
<g>
	<g>
		<path class="st1" d="M-1229.4,6615.5c2.4,14.8,6.9,29.1,13.1,42.8c0.8,1.8,3.4,0.2,2.6-1.5c-6.1-13.4-10.4-27.5-12.8-42
			C-1226.8,6612.8-1229.7,6613.6-1229.4,6615.5L-1229.4,6615.5z"/>
	</g>
</g>
<g>
	<g>
		<path class="st1" d="M-1216.3,6621.7c4.4,13.5,9.1,26.9,14.3,40.2c0.7,1.8,3.6,1,2.9-0.8c-5.1-13.3-9.9-26.6-14.3-40.2
			C-1214,6619.1-1216.8,6619.9-1216.3,6621.7L-1216.3,6621.7z"/>
	</g>
</g>
<g>
	<g>
		<path class="st1" d="M-1205.6,6624.1c3.1,6.1,6.3,12.2,9.4,18.3c0.9,1.7,3.5,0.2,2.6-1.5c-3.1-6.1-6.3-12.2-9.4-18.3
			C-1203.9,6620.8-1206.5,6622.3-1205.6,6624.1L-1205.6,6624.1z"/>
	</g>
</g>
<g>
	<g>
		<path class="st1" d="M-1201.6,6607.7c2.6,6.1,5.2,12.2,7.9,18.3c0.3,0.7,1.4,0.9,2,0.5c0.8-0.5,0.9-1.3,0.5-2
			c-2.6-6.1-5.2-12.2-7.8-18.3c-0.3-0.7-1.4-0.9-2.1-0.5C-1201.8,6606.1-1201.9,6607-1201.6,6607.7L-1201.6,6607.7z"/>
	</g>
</g>
<g>
	<g>
		<path class="st1" d="M-1200.5,6582.8c2.5,8.3,5.4,16.5,8.7,24.5c0.3,0.8,1,1.3,1.8,1c0.7-0.2,1.4-1.1,1.1-1.8
			c-3.3-8-6.2-16.2-8.7-24.5C-1198.2,6580.1-1201.1,6580.9-1200.5,6582.8L-1200.5,6582.8z"/>
	</g>
</g>
<g>
	<g>
		<path class="st1" d="M-1199.7,6558.3c1.7,6.5,4.2,12.8,7.5,18.7c0.9,1.7,3.5,0.2,2.6-1.5c-3.2-5.7-5.6-11.7-7.2-18
			C-1197.2,6555.6-1200.1,6556.4-1199.7,6558.3L-1199.7,6558.3z"/>
	</g>
</g>
<g>
	<g>
		<path class="st1" d="M-1196.8,6537.2c-3.1,1.8-0.7,5.7,0.5,7.9c1.8,3.3,3.5,6.5,5.3,9.8c0.9,1.7,3.5,0.2,2.6-1.5
			c-1.5-2.7-2.9-5.4-4.4-8.2c-0.7-1.3-1.5-2.6-2.1-4c-0.2-0.4-0.3-0.8-0.4-1.2c0,0.1,0-0.5,0-0.3c0,0.1,0.1-0.1,0,0
			C-1193.6,6538.9-1195.1,6536.3-1196.8,6537.2L-1196.8,6537.2z"/>
	</g>
</g>
<g>
	<g>
		<path class="st1" d="M-1197.5,6507.2c1.6,4.9,3.1,9.9,4.7,14.8c0.6,1.8,3.5,1,2.9-0.8c-1.6-4.9-3.1-9.9-4.7-14.8
			C-1195.2,6504.6-1198.1,6505.4-1197.5,6507.2L-1197.5,6507.2z"/>
	</g>
</g>
<g>
	<g>
		<path class="st1" d="M-1215.7,6500.4c4.6,8.5,8.6,17.2,12.1,26.2c0.7,1.8,3.6,1,2.9-0.8c-3.6-9.2-7.7-18.2-12.4-26.9
			C-1214,6497.2-1216.6,6498.7-1215.7,6500.4L-1215.7,6500.4z"/>
	</g>
</g>
<g>
	<g>
		<path class="st1" d="M-1228.1,6491.5c0.8,4.3,1.7,8.5,2.7,12.8c0.5,1.9,3.4,1.1,2.9-0.8c-1-4.2-2-8.5-2.7-12.8
			c-0.1-0.8-1.1-1.3-1.8-1C-1227.9,6489.9-1228.2,6490.7-1228.1,6491.5L-1228.1,6491.5z"/>
	</g>
</g>
<g>
	<g>
		<path class="st1" d="M-1239.7,6484.7c0.5,5.5,1.8,10.7,3.9,15.7c0.3,0.8,1.4,0.9,2,0.5c0.8-0.5,0.9-1.3,0.5-2
			c-1.9-4.5-3.1-9.4-3.5-14.2c-0.1-0.8-0.6-1.5-1.5-1.5C-1239,6483.2-1239.8,6483.9-1239.7,6484.7L-1239.7,6484.7z"/>
	</g>
</g>
<g>
	<g>
		<path class="st1" d="M-1254.7,6474.5c1,5.9,2.6,11.6,4.7,17.2c0.3,0.8,1,1.3,1.8,1c0.7-0.2,1.3-1.1,1-1.9
			c-2.2-5.5-3.8-11.3-4.7-17.2c-0.1-0.8-1.1-1.3-1.8-1C-1254.5,6472.9-1254.9,6473.7-1254.7,6474.5L-1254.7,6474.5z"/>
	</g>
</g>
<g>
	<g>
		<path class="st1" d="M-1268,6467c0.9,6.7,2.3,13.2,4.3,19.6c0.6,1.8,3.5,1,2.9-0.8c-1.9-6.1-3.3-12.5-4.2-18.9
			c-0.1-0.8-0.6-1.5-1.5-1.5C-1267.2,6465.5-1268.1,6466.1-1268,6467L-1268,6467z"/>
	</g>
</g>
<g>
	<g>
		<path class="st1" d="M-1281.3,6461.6c1.4,6.1,3.1,12.1,5,18c0.6,1.8,3.5,1,2.9-0.8c-1.9-5.9-3.6-12-5-18
			C-1278.8,6458.9-1281.7,6459.7-1281.3,6461.6L-1281.3,6461.6z"/>
	</g>
</g>
<g>
	<g>
		<path class="st1" d="M-1295,6450.4c1.4,8.5,3.3,16.9,5.8,25.2c0.5,1.8,3.4,1.1,2.9-0.8c-2.5-8.3-4.4-16.6-5.8-25.2
			C-1292.4,6447.7-1295.3,6448.5-1295,6450.4L-1295,6450.4z"/>
	</g>
</g>
<g>
	<g>
		<path class="st1" d="M-1315.9,6437.7c5.3,17.4,12.1,34.3,20.2,50.5c0.9,1.7,3.5,0.2,2.6-1.5c-8-16-14.6-32.7-19.9-49.8
			C-1313.6,6435.1-1316.5,6435.9-1315.9,6437.7L-1315.9,6437.7z"/>
	</g>
</g>
<g>
	<g>
		<path class="st1" d="M-1334.3,6448c7.4,14.8,17.3,28.2,27.8,41c3,3.6,5.9,7.2,8.9,10.8c1.2,1.5,3.3-0.6,2.1-2.1
			c-10.4-12.5-20.8-25.1-29.4-39c-2.4-4-4.7-8-6.8-12.2C-1332.6,6444.8-1335.2,6446.3-1334.3,6448L-1334.3,6448z"/>
	</g>
</g>
<g>
	<g>
		<path class="st1" d="M-1332.4,6475.5c6.9,13.9,15.9,26.8,26.7,37.9c3,3.1,6.2,6.2,9.5,9c1.4,1.3,3.6-0.9,2.1-2.1
			c-11.5-10-21.5-21.8-29.5-34.9c-2.3-3.7-4.4-7.6-6.3-11.5C-1330.7,6472.3-1333.3,6473.8-1332.4,6475.5L-1332.4,6475.5z"/>
	</g>
</g>
<g>
	<g>
		<path class="st1" d="M-1333.4,6503.9c10.2,12.8,22.7,23.4,35.2,33.9c1.5,1.2,3.6-0.9,2.1-2.1c-12.5-10.5-25.1-21.1-35.2-33.9
			C-1332.5,6500.3-1334.6,6502.4-1333.4,6503.9L-1333.4,6503.9z"/>
	</g>
</g>
<g>
	<g>
		<path class="st1" d="M-1332.8,6526c9.2,9.1,19,17.6,29.3,25.4c1.5,1.2,3-1.4,1.5-2.6c-10.1-7.7-19.6-16-28.6-24.9
			C-1332.1,6522.5-1334.2,6524.6-1332.8,6526L-1332.8,6526z"/>
	</g>
</g>
<g>
	<g>
		<path class="st1" d="M-1332.9,6540.8c1.4,1.7,2.5,3.5,3.7,5.3c1.2,1.7,2.5,3.4,3.9,5c2.7,3.2,5.7,6.1,8.9,8.8
			c0.6,0.5,1.5,0.6,2.1,0c0.5-0.5,0.6-1.6,0-2.1c-3.2-2.6-6.2-5.6-8.9-8.8c-2.8-3.3-4.9-7-7.6-10.4c-0.5-0.6-1.6-0.5-2.1,0
			C-1333.6,6539.3-1333.4,6540.1-1332.9,6540.8L-1332.9,6540.8z"/>
	</g>
</g>
<g>
	<g>
		<path class="st1" d="M-1335.3,6555.9c2.9,3.6,6.1,7.1,9.4,10.4c1.4,1.4,3.5-0.8,2.1-2.1c-3.3-3.3-6.4-6.8-9.4-10.4
			c-0.5-0.6-1.6-0.5-2.1,0C-1335.9,6554.4-1335.8,6555.2-1335.3,6555.9L-1335.3,6555.9z"/>
	</g>
</g>
<g>
	<g>
		<path class="st1" d="M-1336.3,6566.9c0.6,0.6,1.1,1.3,1.7,1.9c0.1,0.1,0.3,0.3,0.5,0.3c0.2,0.1,0.4,0.1,0.6,0.1
			c0.2,0,0.4,0,0.6-0.1c0.2-0.1,0.3-0.2,0.5-0.3c0.3-0.3,0.5-0.7,0.4-1.1c0-0.1,0-0.3-0.1-0.4c-0.1-0.3-0.2-0.5-0.4-0.7
			c-0.6-0.6-1.1-1.3-1.7-1.9c-0.1-0.1-0.3-0.3-0.5-0.3c-0.2-0.1-0.4-0.1-0.6-0.1c-0.2,0-0.4,0-0.6,0.1c-0.2,0.1-0.3,0.2-0.5,0.3
			c-0.3,0.3-0.5,0.7-0.4,1.1c0,0.1,0,0.3,0.1,0.4C-1336.6,6566.5-1336.5,6566.7-1336.3,6566.9L-1336.3,6566.9z"/>
	</g>
</g>
<g>
	
		<image style="overflow:visible;enable-background:new    ;" width="1202" height="1046" xlink:href="E4A7D7A3.jpeg"  transform="matrix(0.5102 0 0 0.5102 -545.6509 7249)">
	</image>
	
		<image style="overflow:visible;enable-background:new    ;" width="1202" height="1046" xlink:href="E4A7D7A1.jpeg"  transform="matrix(0.5102 0 0 0.5102 -545.6509 7249)">
	</image>
</g>
<g>
	<g>
		<path class="st2" d="M-1281.5,7391c-10.7-16.5-17.9-34.8-23.7-53.5c-5.9-19.3-11-39-13.6-59.1c-2.6-19.9-2.6-40.4,2.3-59.9
			c2.3-8.9,5-19.9,12.9-25.4c6-4.2,13.9-4.6,21-3.7c17.1,2.2,33.8,11.1,48.6,19.5c16.2,9.1,31.4,20,45.2,32.4
			c30.1,27.1,52.3,61.7,74.7,95c45.2,67.3,86.3,139.6,100.6,220.5c3.5,20.1,5.3,40.5,4.9,60.9c-0.1,7.5-0.1,16.6-5.2,22.7
			c-5.6,6.6-17,5.5-24.8,5.3c-36.5-1.2-71.2-17.1-99.8-39.1c-30.6-23.6-54.6-54.6-75.7-86.7c-21.7-33-43.2-67.3-59.4-103.4
			c-4.2-9.3-7.9-18.9-11-28.6c-2-6.1-11.6-3.5-9.6,2.7c13.3,40.9,36,77.9,58.6,114.2c21.8,35.1,45.7,69.8,76.6,97.6
			c28.5,25.6,63.7,45.7,102,51.5c9.5,1.5,19.2,2.2,28.9,1.7c8.6-0.5,17-2.6,22.5-9.7c4.9-6.4,6.3-14.8,6.7-22.7
			c0.6-10.7,0.3-21.5-0.5-32.2c-5.9-87.7-46.4-168-93.4-240.5c-11.7-18.1-23.9-35.9-36.3-53.5c-12.5-17.9-25.4-35.5-40.6-51.2
			c-26.5-27.3-60.5-50.9-96.8-62.8c-15-4.9-34-7.1-46.4,4.7c-7.2,6.8-10.4,17-12.9,26.3c-2.7,10-4.2,20.3-4.7,30.7
			c-1.1,21.5,2.2,43,7,63.9c4.7,20.4,10.6,40.8,18.9,60.1c4,9.5,8.8,18.6,14.4,27.3C-1286.6,7401.5-1278,7396.5-1281.5,7391
			L-1281.5,7391z"/>
	</g>
</g>
<g>
	<g>
		<path class="st2" d="M-1251,7509.8c-21.3,0.5-42.1-3.6-62.5-9.2c-17.4-4.8-34.8-10.3-51.4-17.6c-15.7-7-30.8-15.7-43.7-27.1
			c-6.5-5.8-13.1-12.3-17.9-19.7c-5.2-8-5.4-16.5-0.8-24.9c8.7-15.7,26.5-26.1,41.6-34.9c16.6-9.6,34.2-17.4,52.5-23.1
			c39.9-12.3,82.2-13.1,123.6-14.7c81.4-3.1,165-0.1,241.5,30.6c18,7.2,35.3,16,51.7,26.4c6.7,4.3,15.2,9.1,18.3,16.9
			c3.3,8.6-3.9,18-8.4,24.8c-18.7,28.1-47.6,48.4-78.5,61.3c-36.4,15.1-76,20-115,21.4c-20.8,0.7-41.5,0.6-62.3,0.3
			c-21-0.3-42.1-1.1-63-4c-10-1.4-19.9-3.2-29.7-5.6c-6.3-1.5-8.9,8.1-2.7,9.6c43.4,10.6,88.7,10.5,133.1,10.2
			c42.7-0.3,86.3-3,127-16.6c34.1-11.4,66.6-30.5,89.8-58.3c5.6-6.8,10.8-14,15.1-21.7c4.5-8,7.3-16.9,3.5-25.8
			c-3.5-8-10.7-13.5-17.7-18.3c-8.2-5.5-16.8-10.5-25.6-15.1c-77.3-40.8-166.4-48.7-252.4-46.9c-23.3,0.5-46.5,1.6-69.7,3
			c-21.7,1.3-43.4,3.3-64.6,8.3c-19.5,4.6-38.4,11.5-56.3,20.4c-17.5,8.7-35.8,19.2-49.8,33c-13.3,13.2-20.8,31.5-9.8,48.6
			c9.8,15.2,24.8,27.5,39.9,37c15.7,9.9,32.8,17.2,50.3,23.2c19.9,6.9,40.5,12.7,61.3,16c10.8,1.7,21.7,2.6,32.6,2.4
			C-1244.5,7519.7-1244.5,7509.7-1251,7509.8L-1251,7509.8z"/>
	</g>
</g>
<g>
	<g>
		<path class="st2" d="M-1194.1,7303.7c9.4-17.1,21.8-32,35.5-45.9c13.2-13.4,27.1-26.4,42.2-37.7c14.5-10.9,30.4-20.4,47.7-26.2
			c15.4-5.2,36.6-11.4,47.3,4.9c9.1,14,9.7,32.8,10.1,48.9c0.6,20.7-1.4,41.4-5.8,61.5c-8.9,40.4-29,77.2-48,113.5
			c-36.4,69.6-78.6,138.1-139.5,189.2c-14.3,12-29.6,22.9-45.8,32.3c-8,4.7-16.4,9.9-25.3,12.6c-4.6,1.4-9.6,2.1-13.9-0.3
			c-4.1-2.2-6.6-6.4-8.9-10.2c-19.2-32.8-23.2-72.8-17.8-109.9c5.8-39.7,22.1-76.9,40.9-112c18.9-35.1,38.9-70.6,63.3-102.2
			c6.1-7.9,12.6-15.5,19.5-22.7c4.4-4.7-2.6-11.7-7.1-7.1c-29.7,31.2-51.6,69-72.9,106.3c-21.1,37-40.8,75.7-50.2,117.6
			c-8.6,38.6-8.4,80.5,7,117.4c3.6,8.7,7.8,17.8,13.8,25.1c6.3,7.6,15.2,10.4,24.8,8.6c9.8-1.8,19-7.3,27.6-12.1
			c8.7-4.9,17.2-10.2,25.4-15.9c68.8-47.6,117-118,156.5-190.5c10.6-19.5,20.8-39.2,30.6-59.1c9.7-19.5,18.9-39.4,25.1-60.3
			c6.1-20.6,9.7-42.1,10.6-63.6c0.8-19.1,0.8-40.2-5.1-58.6c-5.1-15.7-15.9-29-33.6-29.3c-19.3-0.3-39.6,8.1-56.3,17.2
			c-17.2,9.3-32.7,21.4-47.3,34.4c-15,13.4-29.6,27.7-42,43.6c-6.3,8-12.1,16.4-16.9,25.4
			C-1205.8,7304.3-1197.2,7309.3-1194.1,7303.7L-1194.1,7303.7z"/>
	</g>
</g>
<g>
	<g>
		<path class="st2" d="M-1205.3,7388.6c-8.7,4.7-12.1,14.1-13.5,23.4c-1.7,11.6-2.5,24.1,0.7,35.5c5.9,20.9,24.3,36.1,45.7,38.3
			c22.7,2.3,45-11.5,56.5-30.8c11.8-20,5-45.1-9.7-61.7c-17.4-19.7-45.1-26-70.1-19.5c-6.2,1.6-3.6,11.3,2.7,9.6
			c18.2-4.7,38.5-1.8,53.3,10.2c13.4,10.8,23.1,29.3,19,46.8c-4.1,17.7-23.4,33.1-41.1,35.3c-18,2.2-35.3-7.1-43.7-23.1
			c-5.1-9.8-5.2-20.8-4.4-31.6c0.7-8.3,1.3-19.4,9.5-23.9C-1194.6,7394.2-1199.6,7385.6-1205.3,7388.6L-1205.3,7388.6z"/>
	</g>
</g>
<g>
	<g>
		<path class="st1" d="M-1196.3,7402.4c4.5-4,9-8,13.6-12c0.6-0.5,0.5-1.6,0-2.1c-0.6-0.6-1.5-0.5-2.1,0c-4.5,4-9.1,8-13.6,12
			c-0.6,0.5-0.6,1.6,0,2.1C-1197.8,7403-1196.9,7402.9-1196.3,7402.4L-1196.3,7402.4z"/>
	</g>
</g>
<g>
	<g>
		<path class="st1" d="M-1198.6,7416c10-8.2,19.6-16.9,28.7-26.1c1.4-1.4-0.8-3.5-2.1-2.1c-9.1,9.2-18.7,17.9-28.7,26.1
			C-1202.2,7415.1-1200.1,7417.2-1198.6,7416L-1198.6,7416z"/>
	</g>
</g>
<g>
	<g>
		<path class="st1" d="M-1199.9,7430.4c13.7-12.7,27.2-25.7,40.5-38.8c1.4-1.4-0.8-3.5-2.1-2.1c-13.3,13.1-26.8,26.1-40.5,38.8
			C-1203.5,7429.5-1201.4,7431.7-1199.9,7430.4L-1199.9,7430.4z"/>
	</g>
</g>
<g>
	<g>
		<path class="st1" d="M-1198.2,7441.5c14.1-9.3,27.3-20,39.4-31.8c3.5-3.4,6.8-6.9,10.1-10.5c1.3-1.4-0.8-3.5-2.1-2.1
			c-11.3,12.3-23.8,23.6-37.2,33.6c-3.8,2.9-7.8,5.6-11.7,8.2C-1201.3,7440-1199.8,7442.6-1198.2,7441.5L-1198.2,7441.5z"/>
	</g>
</g>
<g>
	<g>
		<path class="st1" d="M-1194.2,7451.7c15.2-10.2,29.7-21.4,43.4-33.6c3.9-3.5,7.7-7,11.4-10.6c1.4-1.4-0.7-3.5-2.1-2.1
			c-13,12.6-26.9,24.3-41.6,35c-4.1,3-8.3,5.9-12.6,8.8C-1197.3,7450.1-1195.8,7452.8-1194.2,7451.7L-1194.2,7451.7z"/>
	</g>
</g>
<g>
	<g>
		<path class="st1" d="M-1186.5,7460.6c15.7-8.7,30.6-18.8,44.6-30.2c4-3.2,7.9-6.6,11.7-10c1.4-1.3-0.7-3.4-2.1-2.1
			c-13.2,11.9-27.5,22.6-42.6,32c-4.3,2.7-8.7,5.2-13.1,7.7C-1189.7,7459-1188.1,7461.6-1186.5,7460.6L-1186.5,7460.6z"/>
	</g>
</g>
<g>
	<g>
		<path class="st1" d="M-1176.6,7468.1c13.5-8.2,26.2-17.6,38-28.1c3.4-3,6.7-6.1,9.9-9.2c1.4-1.4-0.7-3.5-2.1-2.1
			c-11.2,10.9-23.2,20.8-36.1,29.6c-3.7,2.5-7.4,4.9-11.2,7.2C-1179.8,7466.5-1178.3,7469.1-1176.6,7468.1L-1176.6,7468.1z"/>
	</g>
</g>
<g>
	<g>
		<path class="st1" d="M-1158.2,7466.9c7.1-5.1,13.9-10.5,20.4-16.2c1.5-1.3-0.7-3.4-2.1-2.1c-6.4,5.5-13,10.8-19.8,15.7
			C-1161.2,7465.4-1159.7,7468-1158.2,7466.9L-1158.2,7466.9z"/>
	</g>
</g>
<g>
	<g>
		<path class="st1" d="M-1148.5,7468c3.6-2.3,6.9-5.2,9.7-8.6c0.5-0.6,0.6-1.5,0-2.1c-0.6-0.5-1.6-0.6-2.1,0
			c-1.3,1.6-2.8,3.1-4.3,4.5c-1.6,1.4-3,2.5-4.8,3.6c-0.7,0.4-1,1.4-0.5,2C-1150.2,7468.2-1149.2,7468.5-1148.5,7468L-1148.5,7468z"
			/>
	</g>
</g>
<g>
	<g>
		<path class="st3" d="M-1255.4,8002.3c-30.5-8.4-64.2-14.1-95.8-10.3c-14.5,1.7-28.9,5.7-41.3,13.8c-11.1,7.3-20.3,17.2-27.2,28.5
			c-15.9,25.8-19.1,56.9-16.9,86.6c2.3,31.7,9,63.4,17.5,93.9c8.4,30.1,19.3,59.5,32.5,87.9c6.6,14.3,13.9,28.2,21.7,41.9
			c5.9,10.3,12.9,26.4,27.1,25.7c6.4-0.3,11.9-4.1,16.6-8.3c6.2-5.6,11.7-12,17.5-18.1c5.9-6.2,11.8-12.4,17.7-18.5
			c5.3-5.6,11.7-11,16.2-17.3c9-12.6-6.1-22.1-13.4-30.4c-9.9-11.3-13.4-27-14.2-41.7c-0.9-17,0.7-34.2,1.4-51.2
			c0.8-17.1,1.4-34.2,2.4-51.3c1.9-32.4,6-65.7,21.4-94.8c3.5-6.6,7.5-12.8,12-18.7c3.9-5.1-4.8-10.1-8.6-5
			c-38.1,49.5-34.9,117.5-37.6,176.6c-1.3,28.2-5.5,60.1,10.2,85.3c3.3,5.2,7.3,9.6,11.8,13.7c2.2,2,4.6,4,6.1,6.6
			c2.2,3.7-0.1,5.6-2.7,8.3c-11.3,11.9-22.7,23.8-34,35.7c-6.9,7.2-20.5,27-30.9,15.1c-4.3-4.8-7.3-11.2-10.4-16.8
			c-3.8-6.7-7.5-13.5-11.1-20.3c-13.7-26.5-25.3-54-34.6-82.4c-9.1-27.6-16-55.9-20.7-84.6c-4.9-30.2-8-62.3,1.9-91.8
			c4.4-13.2,11.4-25.7,21-35.7c10.8-11.2,24.6-18.1,39.8-21.3c16.1-3.4,32.9-2.8,49.2-1.3c17.9,1.7,35.5,5,52.8,9.8
			C-1251.9,8013.7-1249.2,8004.1-1255.4,8002.3L-1255.4,8002.3z"/>
	</g>
</g>
<g>
	<g>
		<path class="st3" d="M-1198.5,7992.5c-21,2.7-34.6,19.1-46.2,35.4c-13.4,18.8-25.3,39.4-29.8,62.3c-2.4,12.5-3,25.4-3.9,38.1
			c-0.9,13.3-1.8,26.5-2.8,39.8c-0.9,13.3-1.8,26.5-2.8,39.8c-0.9,12.7-2.4,25.7-1.8,38.4c1,21,10.4,39.8,28.3,51.5
			c8.1,5.3,17.2,8.2,26.8,9.3c9.6,1.1,19.3,0.4,28.8,2c9.8,1.7,17.8,6.3,21.3,16.1c3.9,10.7,3.9,23.1,5.1,34.3
			c2.8,25.8,5.6,51.7,8.4,77.6c2.4,22.2,2.1,48.1,16.5,66.4c11.6,14.7,31,23.5,49.8,21.6c18.7-1.9,35.8-13.5,44.9-29.8
			c11.3-20.3,7-45.2,10.2-67.3c7-48.2,27.7-92.9,37.3-140.4c10.1-50.3,9.1-101.8,7.5-152.7c-0.4-11.8,0-24.1-5.1-35
			c-4.8-10.3-13.4-18.9-20-28.1c-13.1-18-25.1-37.3-41.5-52.5c-29-26.9-70.2-40.1-109.4-35.7c-9.9,1.1-19.6,3.2-29,6.5
			c-6.1,2.1-3.5,11.7,2.7,9.6c35.8-12.3,76.3-7.7,108.8,11.8c18,10.8,31.7,26.2,43.9,43c6.1,8.4,11.9,16.9,18,25.2
			c6.4,8.7,15.3,17.1,18.8,27.4c3.9,11.1,2.8,24,3.2,35.6c0.4,11.9,0.7,23.8,0.8,35.7c0.2,24-0.3,48.1-2.9,72
			c-2.5,23.6-7.3,46.6-13.9,69.3c-6.3,21.8-13.8,43.3-19.8,65.3c-5.9,21.6-10.4,43.7-11.2,66.1c-0.4,11-0.1,22.3-3.9,32.8
			c-3,8.5-8.8,16-15.8,21.5c-14.4,11.3-33.9,13.2-50.2,4.6c-8.2-4.3-15.1-10.9-19.5-19.1c-5.4-10.1-6.6-21.9-7.8-33
			c-2.7-24.2-5.3-48.4-7.9-72.7c-1.3-12.4-2.7-24.9-4.1-37.3c-1.1-9.8-1.6-20.1-5.8-29.2c-8-17.5-26.5-19.9-43.7-20.6
			c-9.2-0.4-18.4-0.6-27.1-4.1c-8.7-3.4-16.4-9.5-22-16.9c-13.9-18.3-10.5-41.8-9-63.2c1.7-24.9,3.5-49.8,5.2-74.6
			c1.7-23.9,2-48,11.8-70.3c4.5-10.1,10.1-19.7,16.3-28.8c5.6-8.3,11.4-16.7,18.5-23.9c6.6-6.7,14.5-12.5,24.1-13.7
			C-1192.2,8001.7-1192.1,7991.7-1198.5,7992.5L-1198.5,7992.5z"/>
	</g>
</g>
<g>
	<g>
		<path class="st3" d="M-1242.1,8142c5.8,24.7,46.3,27.7,56.1,4.5c2-4.7,3.7-11.2,1-15.9c-2.9-5.1-9.2-6-14.5-6.8
			c-13.4-1.8-26.7,0.7-38.8,6.5c-5.8,2.8-0.7,11.4,5,8.6c7.5-3.6,15.6-5.6,23.9-5.7c4.1-0.1,8.3,0.1,12.3,1.1
			c2.1,0.5,3.3,0.6,3.4,2.9c0.1,1.6-0.7,3.7-1.3,5.2c-3.2,7.7-13.6,10.3-21.3,9.8c-7.6-0.6-14.3-5.3-16.1-12.9
			C-1234,8133.1-1243.6,8135.8-1242.1,8142L-1242.1,8142z"/>
	</g>
</g>
<g>
	<g>
		<path class="st3" d="M-1068.8,8129.1c2.9,9.7,10.5,17.8,20.4,20.5c10.8,3,23.1,1,28.1-10.1c2.3-5.3,2.6-11.4,2.2-17
			c-0.5-6-4.1-8-9.6-9.1c-11.9-2.3-23.9-0.5-34.8,4.7c-5.8,2.8-0.7,11.4,5,8.6c6.8-3.2,14.3-4.7,21.8-4.3c1.8,0.1,3.6,0.3,5.3,0.6
			c1.1,0.2,2.2,0.5,3.3,0.8c-0.9-1.6-1.2-1.8-1-0.5c-0.6,1.3,0.1,4.3,0,5.8c-0.1,1.7-0.3,3.5-0.9,5.2c-2.6,7.6-11.5,7.7-18.1,5.3
			c-6-2.1-10.3-7.1-12.1-13.1C-1061,8120.3-1070.7,8123-1068.8,8129.1L-1068.8,8129.1z"/>
	</g>
</g>
<g>
	<g>
		<path class="st3" d="M-1229.2,8317.9c-5.3,7.7-10.6,13.4-19.6,16.5c-8.4,2.9-17.1,4.4-25.8,6.6c-6.8,1.7-14.1,6.2-14.2,14.2
			c0,6.8,5.7,10.9,11.6,12.5c8.3,2.3,17.8,2.5,26.4,3c9.5,0.5,19.2,0.6,28.6-0.5c15.9-1.9,29.6-10.1,38.5-23.5
			c3.6-5.4-5.1-10.4-8.6-5c-7.7,11.5-19.9,17.8-33.5,19c-15.1,1.2-31.4,0.8-46.3-1.9c-1.6-0.3-5.6-0.8-6.5-2.6
			c-1.5-3.3,4.7-4.9,6.6-5.3c6.9-1.7,13.9-3,20.7-5c6.2-1.8,12.5-4,17.8-7.9c5.3-4,9.1-9.4,12.8-14.8
			C-1216.9,8317.6-1225.5,8312.6-1229.2,8317.9L-1229.2,8317.9z"/>
	</g>
</g>
<g>
	<g>
		<path class="st3" d="M-1000.1,8312.6c14.1,6.9,28,12.1,43.9,12.9c7.8,0.4,15.5-0.2,23.2-1.3c1.8-0.3,3.6-0.5,5.4-0.8
			c1.4-0.2,5.2-0.3,6.3-1.2c1.5,0,1.4-0.7-0.5-2c0,1-0.1,2-0.4,3c-0.5,1.7-1.4,3.3-2.3,4.7c-8,11.5-23.1,16.7-36.3,19
			c-16.2,2.9-33,1.7-48.8-2.6c-6.2-1.7-8.9,8-2.7,9.6c18.1,4.9,37.2,5.9,55.7,2.3c15.2-2.9,31.8-10,40.7-23.3
			c3.3-4.9,7-14.5,1.3-19.1c-3.1-2.5-6.7-1.7-10.3-1c-5,0.9-9.9,1.8-15,2.3c-9.2,0.9-18.6,0.9-27.7-0.8c-9.8-1.9-18.7-5.9-27.6-10.2
			C-1000.9,8301.2-1005.9,8309.8-1000.1,8312.6L-1000.1,8312.6z"/>
	</g>
</g>
<g>
	<g>
		<path class="st3" d="M-1085.5,7996.9c13.1,12.9,28.9,22.4,43.3,33.6c15.7,12.1,27.4,26.5,34.1,45.3
			c14.6,41.4,15.1,87.8,12.4,131.1c-1.5,25.4-4.5,50.7-7.4,76c-0.6,5.3,6.8,6.2,9.3,2.5c33-48.9,57.2-103.7,70.9-161.1
			c3.6-15,6.8-30.4,7.8-45.8c1-15.2-3.2-28.4-11.5-41.1c-14-21.4-35.1-37.3-58.4-47.1c-31.7-13.4-66.8-15.3-100.6-12.3
			c-6.4,0.6-6.4,10.6,0,10c52.5-4.7,113.3,4.1,146.9,49.5c8.1,10.9,14.1,22.7,13.8,36.6c-0.3,15.1-3.7,30.3-7.1,45
			c-6.3,27.1-14.9,53.7-25.8,79.3c-12.2,28.7-27.3,56.2-44.7,82c3.1,0.8,6.2,1.7,9.3,2.5c5.4-45.9,10.7-92.3,7.6-138.6
			c-1.5-22.3-4.7-44.9-11.3-66.2c-6.1-19.4-16.2-36-31.6-49.3c-16.1-13.8-34.9-24.1-50-39C-1083,7985.4-1090.1,7992.4-1085.5,7996.9
			L-1085.5,7996.9z"/>
	</g>
</g>
<g>
	<g>
		<path class="st3" d="M-1265.4,8153c0-0.7,0.8-1.5,1.4-2.1c0.8-0.9,1.7-1.9,2.6-2.8c1.7-1.9,3.4-3.8,5.2-5.6
			c1.3-1.4-0.8-3.5-2.1-2.1c-1.9,2-3.8,4.1-5.6,6.1c-0.9,1-1.8,1.9-2.6,2.9c-0.9,1.1-1.6,2.2-1.7,3.6c0,0.8,0.7,1.5,1.5,1.5
			C-1266.1,8154.5-1265.5,8153.8-1265.4,8153L-1265.4,8153z"/>
	</g>
</g>
<g>
	<g>
		<path class="st3" d="M-1267.3,8169.6c6.6-7.7,13.3-15.4,19.9-23c1.3-1.5-0.9-3.6-2.1-2.1c-6.6,7.7-13.3,15.4-19.9,23
			C-1270.7,8169-1268.6,8171.1-1267.3,8169.6L-1267.3,8169.6z"/>
	</g>
</g>
<g>
	<g>
		<path class="st3" d="M-1265.2,8186.1c8.5-8.9,16.5-18.3,23.9-28.1c1.2-1.5-1.4-3-2.6-1.5c-7.3,9.6-15.1,18.8-23.4,27.5
			C-1268.6,8185.3-1266.5,8187.5-1265.2,8186.1L-1265.2,8186.1z"/>
	</g>
</g>
<g>
	<g>
		<path class="st3" d="M-1263.4,8202.8c6-6,12-12,17.8-18.1c5.6-6,10.9-12.3,15.8-18.9c1.2-1.5-1.5-3-2.6-1.5
			c-9.9,13.2-21.6,24.7-33.2,36.3C-1266.9,8202-1264.8,8204.2-1263.4,8202.8L-1263.4,8202.8z"/>
	</g>
</g>
<g>
	<g>
		<path class="st3" d="M-1262.5,8217.9c13.5-10.7,26.4-22.2,38.6-34.4c3.4-3.5,6.8-7,10.1-10.5c1.3-1.4-0.8-3.5-2.1-2.1
			c-11.7,12.6-24.2,24.6-37.4,35.7c-3.7,3.1-7.5,6.2-11.3,9.2C-1266.2,8217-1264,8219.1-1262.5,8217.9L-1262.5,8217.9z"/>
	</g>
</g>
<g>
	<g>
		<path class="st3" d="M-1264.2,8236c15.6-13.4,31.2-26.6,46.9-39.8c4.4-3.7,8.9-7.4,13.3-11.1c1.5-1.2-0.7-3.4-2.1-2.1
			c-15.8,13.1-31.4,26.4-47,39.7c-4.4,3.8-8.8,7.5-13.2,11.3C-1267.8,8235.1-1265.7,8237.2-1264.2,8236L-1264.2,8236z"/>
	</g>
</g>
<g>
	<g>
		<path class="st3" d="M-1260.3,8248.9c14.2-12.3,28.7-24.1,43.7-35.4c4.2-3.2,8.5-6.3,12.7-9.4c1.5-1.1,0.1-3.7-1.5-2.6
			c-15.3,11.2-30.2,22.8-44.8,34.9c-4.1,3.4-8.2,6.9-12.2,10.4C-1263.8,8248-1261.7,8250.1-1260.3,8248.9L-1260.3,8248.9z"/>
	</g>
</g>
<g>
	<g>
		<path class="st3" d="M-1255.8,8260.1c15.7-12.7,31.9-24.8,48.5-36.3c1.6-1.1,0.1-3.7-1.5-2.6c-16.8,11.6-33.2,23.9-49.2,36.8
			C-1259.4,8259.2-1257.3,8261.3-1255.8,8260.1L-1255.8,8260.1z"/>
	</g>
</g>
<g>
	<g>
		<path class="st3" d="M-1249.7,8272.3c5.1-6.5,12.2-10.9,19.1-15.3c3.6-2.3,7.1-4.5,10.5-7.1c3.9-2.9,7.6-6.1,11.3-9.3
			c1.5-1.3-0.7-3.4-2.1-2.1c-3.7,3.2-7.5,6.4-11.4,9.4c-3.4,2.5-6.9,4.7-10.5,7c-6.9,4.3-13.9,8.8-19,15.3
			C-1253,8271.7-1250.9,8273.8-1249.7,8272.3L-1249.7,8272.3z"/>
	</g>
</g>
<g>
	<g>
		<path class="st3" d="M-1243.9,8280.1c8.8-7,17.7-14,26.7-20.8c1.5-1.2,0-3.8-1.5-2.6c-9.2,7-18.3,14.1-27.3,21.3
			C-1247.6,8279.2-1245.4,8281.3-1243.9,8280.1L-1243.9,8280.1z"/>
	</g>
</g>
<g>
	<g>
		<path class="st3" d="M-1237,8289.9c4.2-2.9,8.2-6.2,12-9.7c1.4-1.3-0.7-3.5-2.1-2.1c-3.6,3.4-7.3,6.5-11.4,9.3
			c-0.7,0.5-1,1.3-0.5,2C-1238.7,8290-1237.7,8290.4-1237,8289.9L-1237,8289.9z"/>
	</g>
</g>
<g>
	<g>
		<path class="st3" d="M-1073.5,8145.5c2.4-1.5,4.7-3.3,6.7-5.3c0.5-0.6,0.6-1.6,0-2.1c-0.6-0.5-1.5-0.6-2.1,0c-0.9,1-1.9,1.9-3,2.7
			c-0.1,0.1-0.2,0.2-0.4,0.3c-0.1,0.1,0.2-0.2,0,0c-0.1,0-0.1,0.1-0.2,0.1c-0.3,0.2-0.5,0.4-0.8,0.6c-0.6,0.4-1.1,0.8-1.7,1.1
			c-0.7,0.4-1,1.4-0.5,2C-1075.1,8145.7-1074.2,8146-1073.5,8145.5L-1073.5,8145.5z"/>
	</g>
</g>
<g>
	<g>
		<path class="st3" d="M-1072.1,8158.1c3.7-3.6,7.1-7.5,10.1-11.6c0.5-0.6,0.1-1.7-0.5-2c-0.8-0.4-1.6-0.1-2,0.5
			c-2.9,4-6.1,7.6-9.7,11C-1075.6,8157.4-1073.5,8159.5-1072.1,8158.1L-1072.1,8158.1z"/>
	</g>
</g>
<g>
	<g>
		<path class="st3" d="M-1070.6,8170.9c6.3-5.4,12.1-11.2,17.5-17.5c1.2-1.5-0.9-3.6-2.1-2.1c-5.3,6.3-11.2,12.1-17.5,17.5
			C-1074.2,8170-1072,8172.1-1070.6,8170.9L-1070.6,8170.9z"/>
	</g>
</g>
<g>
	<g>
		<path class="st3" d="M-1068.3,8186.9c7.5-11.1,19.5-18.8,24.4-31.7c0.7-1.8-2.2-2.6-2.9-0.8c-4.8,12.4-16.9,20.1-24.1,31
			C-1072,8187-1069.4,8188.5-1068.3,8186.9L-1068.3,8186.9z"/>
	</g>
</g>
<g>
	<g>
		<path class="st3" d="M-1062.5,8196.1c13-12.5,24.6-26.5,34.4-41.7c1.1-1.6-1.5-3.1-2.6-1.5c-9.7,14.9-21.1,28.7-33.9,41.1
			C-1066,8195.3-1063.9,8197.4-1062.5,8196.1L-1062.5,8196.1z"/>
	</g>
</g>
<g>
	<g>
		<path class="st3" d="M-1056.6,8206c15.2-10.3,24.2-26.5,35.3-40.6c3.2-4,6.5-7.9,10.2-11.5c1.4-1.3-0.7-3.5-2.1-2.1
			c-13,12.5-21.3,28.8-33.5,41.8c-3.4,3.6-7.2,7-11.3,9.8C-1059.7,8204.5-1058.2,8207.1-1056.6,8206L-1056.6,8206z"/>
	</g>
</g>
<g>
	<g>
		<path class="st3" d="M-1053.3,8216.9c3.9-2.6,7.7-5.2,11.5-8c3.5-2.6,7.1-5.1,10.3-8c6.3-5.6,10.7-12.8,14.9-20
			c1-1.7-1.6-3.2-2.6-1.5c-4.1,7-8.3,14-14.4,19.4c-3.2,2.8-6.7,5.3-10.1,7.8c-3.6,2.7-7.3,5.2-11.1,7.7
			C-1056.5,8215.3-1055,8217.9-1053.3,8216.9L-1053.3,8216.9z"/>
	</g>
</g>
<g>
	<g>
		<path class="st3" d="M-1046.5,8228.2c11.6-7.9,23.3-16,31.7-27.4c1.1-1.6-1.5-3.1-2.6-1.5c-8,11-19.5,18.8-30.6,26.3
			C-1049.6,8226.7-1048.1,8229.3-1046.5,8228.2L-1046.5,8228.2z"/>
	</g>
</g>
<g>
	<g>
		<path class="st3" d="M-1043.4,8237.9c10.5-6.1,20.3-13.3,29.2-21.6c1.4-1.3-0.7-3.4-2.1-2.1c-8.7,8.1-18.3,15.2-28.6,21.1
			C-1046.6,8236.3-1045,8238.9-1043.4,8237.9L-1043.4,8237.9z"/>
	</g>
</g>
<g>
	<g>
		<path class="st3" d="M-1037.2,8249.4c3.9-2.9,7.9-5.7,11.8-8.7c3.6-2.8,6.9-5.7,9.5-9.4c1.1-1.6-1.5-3.1-2.6-1.5
			c-2.5,3.4-5.7,6.2-9,8.7c-3.7,2.8-7.5,5.5-11.2,8.3c-0.7,0.5-1,1.3-0.5,2C-1038.9,8249.5-1037.9,8249.9-1037.2,8249.4
			L-1037.2,8249.4z"/>
	</g>
</g>
<g>
	<g>
		<path class="st3" d="M-1030.3,8260.1c4.7-4.8,9.4-9.5,14-14.3c1.4-1.4-0.8-3.5-2.1-2.1c-4.7,4.8-9.4,9.5-14,14.3
			C-1033.8,8259.4-1031.7,8261.5-1030.3,8260.1L-1030.3,8260.1z"/>
	</g>
</g>
<g>
	<g>
		<path class="st3" d="M-1025.3,8271.2c3.4-5,6.7-10.1,9.9-15.3c1-1.6-1.6-3.2-2.6-1.5c-3.2,5.1-6.5,10.2-9.9,15.3
			C-1029,8271.3-1026.4,8272.8-1025.3,8271.2L-1025.3,8271.2z"/>
	</g>
</g>
<g>
	<g>
		<path class="st3" d="M-1021.3,8280.1c1.4-2,2.7-4.1,4-6.2c0.4-0.7,0.2-1.7-0.5-2c-0.7-0.4-1.6-0.2-2,0.5c-1.3,2.1-2.6,4.2-4,6.2
			c-0.4,0.7-0.1,1.7,0.5,2C-1022.6,8281-1021.8,8280.8-1021.3,8280.1L-1021.3,8280.1z"/>
	</g>
</g>
<g>
	<g>
		<path class="st4" d="M-1432.5,1266.8c-0.8-66.1-1.6-132.2-2.4-198.3c-0.2-16.3-0.6-32.6-0.4-48.9c0.2-15.6,0.8-31.5,4.7-46.7
			c1.7-6.5,4.1-13,8.2-18.4c4.5-6.1,10.9-10.5,17.3-14.4c12.7-7.9,25.9-15.1,39.3-21.9c26.8-13.7,54.2-26.1,80.9-40.2
			c12.7-6.7,25.3-13.8,37.4-21.7c11.7-7.5,23-15.8,34.7-23.4c23.2-14.9,48.8-26.2,76.7-18.6c27,7.3,49.1,26.6,71.2,42.9
			c27.7,20.5,56.9,39.2,87.1,55.9c27.4,15.1,58.5,26.9,79.5,51c4.2,4.9,11.3-2.2,7.1-7.1c-19-21.8-45.9-33.5-71-46.8
			c-28-14.9-55.2-31.5-81.2-49.7c-24.1-16.9-46.7-37.6-73.7-49.8c-12.4-5.5-25.6-9.2-39.2-8.9c-13.8,0.2-27,4.3-39.4,10.1
			c-26.2,12.3-48.7,31.7-73.7,46.2c-26.8,15.6-55,28.5-82.8,42.2c-14,6.9-28,14-41.6,21.7c-12.5,7-26.7,14.2-35.7,25.7
			c-8.8,11.3-11.8,25.6-13.6,39.5c-2.2,16.5-2.2,33.2-2,49.8c0.8,68.1,1.7,136.1,2.5,204.1c0.1,8.6,0.2,17.2,0.3,25.8
			C-1442.4,1273.3-1432.4,1273.3-1432.5,1266.8L-1432.5,1266.8z"/>
	</g>
</g>
<g>
	<g>
		<path class="st4" d="M-1426,1289.2c46.2,36.8,95.1,70.4,146.2,100.2c25,14.6,50.7,30.1,78.2,39.7c13.3,4.7,27.7,7.6,41.8,6.5
			c14.2-1.2,27.1-6.6,39.3-13.7c27.3-15.8,53.9-32.9,80.9-49.3c27.8-17,55.6-34,83.4-51c12.9-7.9,26-15.6,38.8-23.8
			c9.9-6.4,19.8-13.7,26.1-23.9c7.4-11.9,7.4-25.8,6.3-39.3c-1.2-15.3-1-29.9,1.7-45.1c2.9-16.7,6.4-33.3,8.6-50.2
			c2.2-17.1,3.5-34.4,3.9-51.7c0.8-35-2.3-70-9-104.4c-1.2-6.3-10.9-3.6-9.6,2.7c11.4,58.8,11.7,119.7,0.7,178.6
			c-2.6,14.1-5.8,28.1-6.9,42.3c-1.2,14.8,2.1,29.3,1.1,44c-1.8,27.7-30.8,40.2-51.4,52.8c-52.8,32.3-105.6,64.5-158.3,96.8
			c-12.2,7.5-24.4,16.1-37.9,21.1c-13,4.9-26.9,5.3-40.5,2.5c-27.8-5.7-53.3-21.3-77.7-35.1c-55.5-31.3-108.6-67-158.5-106.8
			C-1423.9,1278.1-1431.1,1285.2-1426,1289.2L-1426,1289.2z"/>
	</g>
</g>
<g>
	<g>
		<path class="st4" d="M-1072.6,1061.3c-21-34.3-62-55.3-102.2-50.8c-39.2,4.4-74,31.8-87.9,68.7c-14.2,37.6-3.7,83.1,24.5,111.4
			c15.7,15.7,36.3,26.1,57.9,31c22.3,5.1,47,5.6,68.1-4.6c10.1-4.9,19.1-12.5,25.3-22c3-4.5,4.7-9.3,6.6-14.3c1.3-3.3,2.3-4.8,6-3.6
			c3.5,1.1,6.8,3.4,10.1,5.1c27,14.1,54,28.1,81,42.2c-0.6-2.3-1.2-4.6-1.8-6.8c-35.9,66.7-111.9,97-184.3,101.6
			c-20.2,1.3-40.4,0.2-59.7-6.2c-18.1-5.9-34.7-15.6-50.8-25.6c-15.2-9.4-30.1-19.5-42.8-32.1c-13.2-13-23.1-28.3-29.6-45.7
			c-6.7-17.8-10.4-36.5-14-55.1c-3.7-19.7-6.8-39.6-5.7-59.7c1.9-34.8,15.2-68.3,34.9-96.8c39.7-57.1,108-93.8,177.8-93.7
			c64.1,0.1,127.1,34.3,159.5,90.1c4,6.8,7.4,13.8,10.4,21.2c0.8-1.9,1.5-3.8,2.3-5.7c-29.1,19.8-59.4,37.9-90.6,54.1
			c-5.7,3-0.7,11.6,5,8.6c31.3-16.3,61.5-34.3,90.6-54.1c1.7-1.1,3.2-3.5,2.3-5.7c-25-62.5-85.3-107.3-151.7-116.6
			c-73-10.2-148.9,20.5-197.4,75.3c-24,27.1-42,60.2-49.4,95.8c-8.3,39.7-1,80.3,8.5,119.2c4.7,19.1,11.3,38.2,22.3,54.6
			c10.3,15.5,24.1,28.1,39,39.1c15.6,11.5,32.4,21.8,49.6,30.7c18.1,9.3,37,15.8,57.4,17.8c21.1,2.1,42.6,0.1,63.5-3.2
			c20.4-3.2,40.5-8.4,59.7-16.1c34-13.7,64.9-35.1,87.3-64.3c5.5-7.1,10.3-14.7,14.6-22.6c1.2-2.3,0.7-5.6-1.8-6.8
			c-22.6-11.8-45.2-23.5-67.8-35.3c-5.6-2.9-11.2-5.8-16.7-8.7c-4.3-2.3-8.9-5.1-14-5.2c-10.9-0.1-12.2,10.6-15.9,18.3
			c-19.9,40.9-79.8,34.2-113.3,16.9c-35.5-18.3-56.2-56.5-52.6-96.3c3.4-37.4,31.4-69.9,66.9-81.3c41.2-13.2,88.1,5.4,110.5,42.1
			C-1077.9,1071.8-1069.3,1066.8-1072.6,1061.3L-1072.6,1061.3z"/>
	</g>
</g>
<g>
	<g>
		<path class="st4" d="M-1037.3,1097.7c30.6,2.5,61.2,3.4,91.9,2.6c6.4-0.2,6.5-10.2,0-10c-30.7,0.7-61.3-0.2-91.9-2.6
			C-1043.7,1087.2-1043.7,1097.2-1037.3,1097.7L-1037.3,1097.7z"/>
	</g>
</g>
<g>
	<g>
		<path class="st4" d="M-1037.4,1144c18.3-0.3,36.6-0.4,54.8-0.3c9,0.1,17.9,0.2,26.9,0.3c4.7,0.1,9.3,0.2,14,0.3
			c3.2,0.1,6.1,0.5,8.7-1.9c2-1.8,1.8-5.2,0-7.1c-0.1-0.1-0.2-0.2-0.4-0.4c-1.9-1.9-5.1-1.9-7.1,0c-0.1,0.1-0.2,0.2-0.3,0.3
			c-4.6,4.5,2.5,11.6,7.1,7.1c0.1-0.1,0.2-0.2,0.3-0.3c-2.4,0-4.7,0-7.1,0c0.1,0.1,0.2,0.2,0.4,0.4c0-2.4,0-4.7,0-7.1
			c-0.2,0.1-0.3,0.3-0.5,0.4c1.2-0.5,2.4-1,3.5-1.5c-7.9,0.9-16.6-0.3-24.6-0.4c-8.3-0.1-16.6-0.2-24.9-0.2c-17-0.1-33.9,0-50.8,0.3
			C-1043.8,1134.1-1043.8,1144.1-1037.4,1144L-1037.4,1144z"/>
	</g>
</g>
<g>
	<g>
		<path class="st4" d="M-1014.4,1072.8c-1.3,30.8-1.7,61.7-1,92.6c0.1,6.4,10.1,6.4,10,0c-0.6-30.9-0.3-61.8,1-92.6
			C-1004.1,1066.3-1014.1,1066.3-1014.4,1072.8L-1014.4,1072.8z"/>
	</g>
</g>
<g>
	<g>
		<path class="st4" d="M-967.7,1074.2c-4.3,30.7-3.9,61.6,1.3,92.2c1.1,6.3,10.7,3.7,9.6-2.7c-4.9-28.7-5.3-58.1-1.3-86.9
			C-957.2,1070.5-966.8,1067.8-967.7,1074.2L-967.7,1074.2z"/>
	</g>
</g>
<g>
	<g>
		<path class="st4" d="M-1413.3,1269.5c0.9,3.1,1.2,6.3,0.8,9.4c-0.1,0.8,0.2,1.6,1,1.8c0.7,0.2,1.7-0.2,1.8-1.1
			c0.6-3.7,0.4-7.5-0.8-11.1c-0.2-0.8-1.1-1.3-1.9-1.1C-1413,1267.9-1413.5,1268.7-1413.3,1269.5L-1413.3,1269.5z"/>
	</g>
</g>
<g>
	<g>
		<path class="st4" d="M-1404.2,1267.5c1,6.5,2.3,13,3.9,19.4c0.5,1.9,3.3,1.1,2.9-0.8c-1.5-6.4-2.8-12.9-3.9-19.4
			c-0.1-0.8-1.1-1.3-1.8-1.1C-1404,1265.9-1404.3,1266.7-1404.2,1267.5L-1404.2,1267.5z"/>
	</g>
</g>
<g>
	<g>
		<path class="st4" d="M-1393.9,1260.4c2.1,12.6,4.5,25.2,7.1,37.8c0.4,1.9,3.3,1.1,2.9-0.8c-2.6-12.6-5-25.2-7.1-37.8
			C-1391.4,1257.7-1394.2,1258.5-1393.9,1260.4L-1393.9,1260.4z"/>
	</g>
</g>
<g>
	<g>
		<path class="st4" d="M-1379.7,1246.7c2.2,20.6,4.9,41.2,8.2,61.7c0.3,1.9,3.2,1.1,2.9-0.8c-3.2-20.2-5.9-40.5-8.1-60.9
			C-1376.9,1244.8-1379.9,1244.8-1379.7,1246.7L-1379.7,1246.7z"/>
	</g>
</g>
<g>
	<g>
		<path class="st4" d="M-1364.5,1249.2c5.4,20.7,3.7,42.3,8.4,63.1c1.3,5.8,3.2,11.5,5.8,16.9c0.8,1.7,3.4,0.2,2.6-1.5
			c-9.1-19.3-8.2-41.2-10.7-61.9c-0.7-5.9-1.7-11.7-3.2-17.4C-1362.1,1246.5-1365,1247.3-1364.5,1249.2L-1364.5,1249.2z"/>
	</g>
</g>
<g>
	<g>
		<path class="st4" d="M-1343.9,1267.5c3.4,20,8.9,39.6,16.5,58.4c2.1,5.3,4.4,10.5,6.9,15.7c0.8,1.7,3.4,0.2,2.6-1.5
			c-8.6-18.1-15.2-37.2-19.7-56.7c-1.3-5.5-2.4-11-3.3-16.6C-1341.3,1264.8-1344.2,1265.6-1343.9,1267.5L-1343.9,1267.5z"/>
	</g>
</g>
<g>
	<g>
		<path class="st4" d="M-1316.1,1288.9c3.1,19.8,6.1,39.7,12.6,58.6c1.8,5.3,3.9,10.5,6.3,15.6c0.8,1.8,3.4,0.2,2.6-1.5
			c-8.4-18-12.6-37.5-15.9-57c-0.9-5.5-1.8-11-2.6-16.6C-1313.5,1286.2-1316.4,1287-1316.1,1288.9L-1316.1,1288.9z"/>
	</g>
</g>
<g>
	<g>
		<path class="st4" d="M-1292.3,1303.9c1.6,15.9,5.5,31.6,11.5,46.4c1.7,4.2,3.6,8.3,5.7,12.4c0.9,1.7,3.5,0.2,2.6-1.5
			c-7-13.9-12-28.8-14.9-44.1c-0.8-4.4-1.4-8.8-1.9-13.2C-1289.5,1302-1292.5,1302-1292.3,1303.9L-1292.3,1303.9z"/>
	</g>
</g>
<g>
	<g>
		<path class="st4" d="M-1268.2,1324.6c4.5,19.7,9.1,39.5,16.2,58.5c0.7,1.8,3.6,1,2.9-0.8c-7.1-19-11.7-38.8-16.2-58.5
			C-1265.7,1321.9-1268.6,1322.7-1268.2,1324.6L-1268.2,1324.6z"/>
	</g>
</g>
<g>
	<g>
		<path class="st4" d="M-1245.8,1331.8c3.4,20.4,10.8,40.1,21.7,57.6c3.1,4.9,6.5,9.7,10.1,14.3c1.2,1.5,3.3-0.6,2.1-2.1
			c-12.5-15.9-21.8-34.3-27.3-53.8c-1.5-5.5-2.8-11.1-3.7-16.7C-1243.2,1329.1-1246.1,1329.9-1245.8,1331.8L-1245.8,1331.8z"/>
	</g>
</g>
<g>
	<g>
		<path class="st4" d="M-1215.6,1338.6c0.9,10.1,4.1,19.8,7,29.4c2.7,8.8,5.6,17.7,9.8,25.9c2.4,4.7,5.2,9.1,8.4,13.1
			c1.2,1.5,3.3-0.6,2.1-2.1c-5.6-7-9.6-15.1-12.7-23.5c-3.2-8.6-5.8-17.4-8.2-26.2c-1.5-5.5-2.8-11-3.4-16.7
			C-1212.8,1336.7-1215.8,1336.7-1215.6,1338.6L-1215.6,1338.6z"/>
	</g>
</g>
<g>
	<g>
		<path class="st4" d="M-1184.3,1345.5c4,16.9,8.1,34.1,15.8,49.8c2.2,4.4,4.6,8.6,7.4,12.6c1.1,1.6,3.7,0.1,2.6-1.5
			c-9.8-14.2-15.2-30.7-19.4-47.3c-1.2-4.8-2.3-9.6-3.5-14.3C-1181.9,1342.9-1184.7,1343.7-1184.3,1345.5L-1184.3,1345.5z"/>
	</g>
</g>
<g>
	<g>
		<path class="st4" d="M-1158.3,1346.8c0,4.8,1.1,9.4,2.7,13.9c1.6,4.7,3.3,9.3,5.2,13.9c3.7,9.2,7.7,18.3,12,27.3
			c0.8,1.7,3.4,0.2,2.6-1.5c-4.2-8.7-8.1-17.6-11.7-26.5c-1.8-4.4-3.5-8.9-5-13.4c-1.5-4.4-2.7-8.9-2.7-13.6
			C-1155.2,1344.8-1158.2,1344.8-1158.3,1346.8L-1158.3,1346.8z"/>
	</g>
</g>
<g>
	<g>
		<path class="st4" d="M-1143.2,1348.3c4.5,15.6,10.5,30.7,18,45.2c0.9,1.7,3.5,0.2,2.6-1.5c-7.3-14.2-13.3-29.1-17.7-44.4
			C-1140.9,1345.7-1143.8,1346.5-1143.2,1348.3L-1143.2,1348.3z"/>
	</g>
</g>
<g>
	<g>
		<path class="st4" d="M-1124.1,1336.9c5.3,17.2,11.6,34.2,18.8,50.7c0.8,1.8,3.4,0.2,2.6-1.5c-7.1-16.3-13.3-33-18.5-50
			C-1121.8,1334.2-1124.7,1335-1124.1,1336.9L-1124.1,1336.9z"/>
	</g>
</g>
<g>
	<g>
		<path class="st4" d="M-1096.7,1329.2c6.2,13.5,13.8,26.3,22.9,38.1c2.5,3.3,5.2,6.6,7.9,9.8c1.3,1.5,3.4-0.7,2.1-2.1
			c-12.3-14.2-22.5-30.2-30.3-47.3C-1094.9,1325.9-1097.5,1327.4-1096.7,1329.2L-1096.7,1329.2z"/>
	</g>
</g>
<g>
	<g>
		<path class="st4" d="M-1069,1325c5.5,11,11.7,21.6,18.7,31.7c1.1,1.6,3.7,0.1,2.6-1.5c-7-10.1-13.3-20.7-18.7-31.7
			C-1067.3,1321.8-1069.9,1323.3-1069,1325L-1069,1325z"/>
	</g>
</g>
<g>
	<g>
		<path class="st4" d="M-1053.7,1306.6c9.1,12.6,18.3,25.3,27.4,37.9c1.1,1.6,3.7,0.1,2.6-1.5c-9.1-12.6-18.3-25.3-27.4-37.9
			C-1052.2,1303.6-1054.8,1305.1-1053.7,1306.6L-1053.7,1306.6z"/>
	</g>
</g>
<g>
	<g>
		<path class="st4" d="M-1031.2,1294.8c9.2,9.2,17.7,19.2,25.3,29.8c1.1,1.6,3.7,0.1,2.6-1.5c-7.8-10.8-16.4-21-25.8-30.4
			C-1030.4,1291.3-1032.6,1293.4-1031.2,1294.8L-1031.2,1294.8z"/>
	</g>
</g>
<g>
	<g>
		<path class="st4" d="M-1011.8,1284.2c6.8,10.6,15.1,20.2,24.6,28.5c1.5,1.3,3.6-0.8,2.1-2.1c-9.3-8.1-17.5-17.5-24.1-27.9
			C-1010.3,1281-1012.9,1282.5-1011.8,1284.2L-1011.8,1284.2z"/>
	</g>
</g>
<g>
	<g>
		<path class="st4" d="M-990.9,1267.2c3.3,2.3,6,5.3,8.6,8.3c2.6,3,5.3,6,8.1,8.8c5.8,5.7,12.2,10.7,19,15.1c1.6,1,3.1-1.6,1.5-2.6
			c-6.9-4.4-13.3-9.4-19-15.2c-5.6-5.6-10.1-12.4-16.7-17C-990.9,1263.5-992.4,1266.1-990.9,1267.2L-990.9,1267.2z"/>
	</g>
</g>
<g>
	<g>
		<path class="st4" d="M-974.6,1246.4c11.9,11,25,20.7,39,28.7c4,2.3,8,4.4,12.1,6.4c1.7,0.8,3.3-1.7,1.5-2.6
			c-14.3-7-27.8-15.6-40.2-25.7c-3.5-2.9-7-5.9-10.3-9C-973.9,1243-976,1245.1-974.6,1246.4L-974.6,1246.4z"/>
	</g>
</g>
<g>
	<g>
		<path class="st4" d="M-1233.3,1164.3c2.3,6.9,4.7,13.8,7,20.7c0.6,1.8,3.5,1,2.9-0.8c-2.3-6.9-4.7-13.8-7-20.7
			C-1231.1,1161.6-1234,1162.4-1233.3,1164.3L-1233.3,1164.3z"/>
	</g>
</g>
<g>
	<g>
		<path class="st4" d="M-1221.4,1162.4c0.9,0.3,1.3,1.4,1.7,2.2c0.5,1.4,1,2.8,1.5,4.1c1.1,2.9,2.2,5.9,3.3,8.9
			c2.2,5.8,4.3,11.7,6.5,17.5c0.7,1.8,3.6,1,2.9-0.8c-2.4-6.4-4.8-12.9-7.2-19.4c-1.2-3.2-2.4-6.4-3.5-9.6c-0.9-2.3-1.7-5.1-4.3-5.9
			C-1222.5,1159-1223.3,1161.9-1221.4,1162.4L-1221.4,1162.4z"/>
	</g>
</g>
<g>
	<g>
		<path class="st4" d="M-1207,1157.2c6,16.1,14.1,31.3,23.9,45.4c1.1,1.6,3.7,0.1,2.6-1.5c-9.7-13.8-17.7-28.9-23.6-44.7
			C-1204.8,1154.6-1207.7,1155.3-1207,1157.2L-1207,1157.2z"/>
	</g>
</g>
<g>
	<g>
		<path class="st4" d="M-1186.7,1145.4c10.1,16.6,21.2,32.5,33.3,47.7c3.4,4.3,6.9,8.6,10.5,12.7c1.3,1.5,3.4-0.7,2.1-2.1
			c-12.5-14.6-24.1-30-34.6-46.1c-3-4.5-5.9-9.1-8.7-13.7C-1185.1,1142.3-1187.7,1143.8-1186.7,1145.4L-1186.7,1145.4z"/>
	</g>
</g>
<g>
	<g>
		<path class="st4" d="M-1158,1144.3c8,14.7,18,28.3,29.7,40.2c3.3,3.4,6.7,6.6,10.3,9.7c1.4,1.3,3.6-0.8,2.1-2.1
			c-12.4-10.8-23.3-23.3-32.3-37.2c-2.6-4-5-8-7.2-12.2C-1156.3,1141.1-1158.9,1142.6-1158,1144.3L-1158,1144.3z"/>
	</g>
</g>
<g>
	<g>
		<path class="st4" d="M-1125.2,1147.3c4.8,8.2,9.7,16.4,14.5,24.7c1,1.7,3.6,0.2,2.6-1.5c-4.8-8.2-9.7-16.4-14.5-24.7
			C-1123.5,1144.1-1126.1,1145.6-1125.2,1147.3L-1125.2,1147.3z"/>
	</g>
</g>
<g>
	<g>
		<path class="st4" d="M-1138.7,1113.3c1.4,5,4,9.6,7.4,13.5c0.5,0.6,1.6,0.6,2.1,0c0.6-0.6,0.5-1.5,0-2.1
			c-3.1-3.5-5.3-7.7-6.6-12.2C-1136.3,1110.7-1139.2,1111.4-1138.7,1113.3L-1138.7,1113.3z"/>
	</g>
</g>
<g>
	<g>
		<path class="st4" d="M-1124.9,1108.3c3.4,13,9.3,25.3,17.3,36.1c1.1,1.5,3.7,0,2.6-1.5c-7.8-10.6-13.6-22.6-17-35.4
			C-1122.5,1105.7-1125.3,1106.4-1124.9,1108.3L-1124.9,1108.3z"/>
	</g>
</g>
<g>
	<g>
		<path class="st4" d="M-1109.6,1105.1c8.2,15.4,16.5,30.8,27,44.8c2.9,3.9,6,7.7,9.3,11.3c1.3,1.4,3.4-0.7,2.1-2.1
			c-11.6-12.7-20.5-27.5-28.8-42.5c-2.4-4.3-4.7-8.7-7.1-13C-1107.9,1101.9-1110.5,1103.4-1109.6,1105.1L-1109.6,1105.1z"/>
	</g>
</g>
<g>
	<g>
		<path class="st4" d="M-1087.8,1103.9c7.8,19.8,15.8,39.9,28.4,57.2c3.5,4.8,7.4,9.4,11.6,13.6c1.4,1.4,3.5-0.8,2.1-2.1
			c-14.9-14.8-24.6-33.9-32.6-53.1c-2.3-5.4-4.5-10.9-6.6-16.4C-1085.6,1101.3-1088.5,1102.1-1087.8,1103.9L-1087.8,1103.9z"/>
	</g>
</g>
<g>
	<g>
		<path class="st4" d="M-993.3,1180.9c5.6,9.9,11.8,19.6,18.6,28.8c1.1,1.6,3.7,0.1,2.6-1.5c-6.7-9.2-12.9-18.8-18.6-28.8
			C-991.7,1177.7-994.2,1179.2-993.3,1180.9L-993.3,1180.9z"/>
	</g>
</g>
<g>
	<g>
		<path class="st4" d="M-961.8,1195.8c4,8.7,8.6,17,14,24.9c2.6,3.9,5.4,7.6,8.3,11.3c2.5,3.2,5.5,6.4,9.7,7.3
			c1.9,0.4,2.7-2.5,0.8-2.9c-3.9-0.8-6.5-4.2-8.9-7.2c-2.8-3.6-5.5-7.3-8-11.1c-5-7.6-9.4-15.5-13.2-23.8
			C-960,1192.6-962.6,1194.1-961.8,1195.8L-961.8,1195.8z"/>
	</g>
</g>
<g>
	<g>
		<path class="st4" d="M-936.7,1191.5c8,12.9,17,25.1,27.1,36.3c1.3,1.4,3.4-0.7,2.1-2.1c-9.9-11.1-18.9-23.1-26.7-35.7
			C-935.1,1188.3-937.7,1189.8-936.7,1191.5L-936.7,1191.5z"/>
	</g>
</g>
<g>
	<g>
		<path class="st4" d="M-924.3,1165.9c5.6,9.8,13.1,18.3,22,25.2c0.7,0.5,1.7,0.1,2-0.5c0.5-0.8,0.1-1.6-0.5-2.1
			c-8.5-6.5-15.7-14.8-21-24.1C-922.7,1162.7-925.3,1164.2-924.3,1165.9L-924.3,1165.9z"/>
	</g>
</g>
<g>
	<g>
		<path class="st4" d="M-916.3,1138.4c4.3,11.9,11.6,22.7,21.1,31.1c1.4,1.3,3.6-0.8,2.1-2.1c-9.2-8-16.2-18.3-20.3-29.8
			C-914,1135.8-916.9,1136.6-916.3,1138.4L-916.3,1138.4z"/>
	</g>
</g>
<g>
	<g>
		<path class="st4" d="M-915.3,1111.8c1.3,9.8,9.9,16.1,14.3,24.4c0.9,1.7,3.5,0.2,2.6-1.5c-4.3-8-12.8-14.3-14-23.7
			c-0.1-0.8-1.1-1.2-1.8-1.1C-915.2,1110.1-915.5,1110.9-915.3,1111.8L-915.3,1111.8z"/>
	</g>
</g>
<g>
	<g>
		<path class="st4" d="M-943.3,1112.9c3.1,3.9,6.3,7.6,9.8,11.2c1.3,1.4,3.5-0.7,2.1-2.1c-3.4-3.6-6.7-7.3-9.8-11.2
			c-0.5-0.6-1.6-0.5-2.1,0C-943.9,1111.5-943.8,1112.3-943.3,1112.9L-943.3,1112.9z"/>
	</g>
</g>
<g>
	<g>
		<path class="st4" d="M-965.2,1031.3c14.5,17.5,30.5,33.8,47.7,48.7c4.9,4.2,9.8,8.3,14.9,12.3c1.5,1.2,3.6-0.9,2.1-2.1
			c-17.9-14.1-34.6-29.6-50-46.4c-4.3-4.8-8.5-9.6-12.6-14.6C-964.3,1027.7-966.4,1029.8-965.2,1031.3L-965.2,1031.3z"/>
	</g>
</g>
<g>
	<g>
		<path class="st4" d="M-945.4,1021.1c10.5,12.2,22.2,23.5,34.7,33.6c3.5,2.8,7.2,5.6,10.8,8.3c1.6,1.1,3.1-1.5,1.5-2.6
			c-12.9-9.3-24.9-19.9-35.9-31.4c-3.1-3.3-6.1-6.6-9.1-10C-944.5,1017.5-946.6,1019.6-945.4,1021.1L-945.4,1021.1z"/>
	</g>
</g>
<g>
	<g>
		<path class="st4" d="M-927.2,1006.4c7.1,9.7,15.5,18.3,25,25.6c1.5,1.2,3-1.4,1.5-2.6c-9.1-6.9-17.2-15.2-24-24.5
			C-925.7,1003.4-928.3,1004.9-927.2,1006.4L-927.2,1006.4z"/>
	</g>
</g>
<g>
	<g>
		<path class="st4" d="M-915.7,994.5c5.1,6,10.2,12,15.2,18c1.3,1.5,3.4-0.7,2.1-2.1c-5.1-6-10.2-12-15.2-18
			C-914.9,990.9-917,993-915.7,994.5L-915.7,994.5z"/>
	</g>
</g>
<g>
	<g>
		<path class="st4" d="M-904.4,990.3c2.5,3.3,5,6.5,7.6,9.8c0.5,0.6,1.6,0.5,2.1,0c0.6-0.6,0.5-1.5,0-2.1c-2.5-3.3-5-6.5-7.6-9.8
			c-0.5-0.6-1.6-0.5-2.1,0C-905,988.8-904.9,989.7-904.4,990.3L-904.4,990.3z"/>
	</g>
</g>
<g>
	<g>
		<path class="st4" d="M-990.5,1038.1c5.8,4.7,11.8,9.1,18,13.2c1.6,1.1,3.1-1.5,1.5-2.6c-6-4-11.8-8.2-17.4-12.7
			c-0.6-0.5-1.5-0.6-2.1,0C-991.1,1036.5-991.2,1037.6-990.5,1038.1L-990.5,1038.1z"/>
	</g>
</g>
<g>
	<g>
		<path class="st4" d="M-1074.5,1093.4c6,12,12.5,23.8,19.5,35.2c1,1.7,3.6,0.1,2.6-1.5c-7-11.5-13.5-23.2-19.5-35.2
			C-1072.8,1090.1-1075.3,1091.6-1074.5,1093.4L-1074.5,1093.4z"/>
	</g>
</g>
<g>
	<g>
		<path class="st4" d="M-1459.5,75.1c4.2,126.3,6.6,252.6,7.2,378.9c0.2,35.9,0.2,71.8,0.1,107.7c0,5.9,7.9,6.4,9.8,1.3
			c24.1-64.2,49.1-128,74.9-191.5c26-64,53-127.6,80.8-190.8c15.6-35.4,31.4-70.7,47.5-105.8c1.5-3.4-0.3-7.5-4.3-7.5
			c-69.1-0.3-138.1-0.5-207.2-0.8c-6.4,0-6.4,10,0,10c69.1,0.3,138.1,0.5,207.2,0.8c-1.4-2.5-2.9-5-4.3-7.5
			c-28.8,62.9-56.8,126.2-83.8,189.9c-27,63.5-53.1,127.3-78.4,191.5c-14.3,36.3-28.3,72.7-42,109.2c3.3,0.4,6.6,0.9,9.8,1.3
			c0.4-126.3-0.9-252.7-4.1-379c-0.9-35.9-2-71.8-3.1-107.7C-1449.7,68.7-1459.7,68.7-1459.5,75.1L-1459.5,75.1z"/>
	</g>
</g>
<g>
	<g>
		<path class="st4" d="M-1102,72.8c25,65.5,50.5,130.7,76.7,195.8c26,64.5,52.5,128.8,79.5,192.8c15.4,36.5,31,72.9,46.8,109.3
			c1.6,3.8,8.5,2.9,9.1-1.2c6.7-46.4,4.7-93.8,4.7-140.5c0-47.8,0-95.6,0-143.4s0-95.6,0-143.4c0-11.9,0-23.9,0-35.8
			c0-5.6,0-11.3,0-16.9c0-5.6,0.5-11.4-0.3-16.9c-1.5-10.9-11.8-10.8-20.7-11c-11.9-0.3-23.9-0.5-35.8-0.8
			c-53.7-1.1-107.4-2.3-161.1-3.4c-3.3-0.1-5.7,3.3-4.8,6.3c0.7,2.7,1.5,5.5,2.2,8.2c1.7,6.2,11.3,3.6,9.6-2.7
			c-0.7-2.7-1.5-5.5-2.2-8.2c-1.6,2.1-3.2,4.2-4.8,6.3c46.1,1,92.2,1.9,138.2,2.9c11.6,0.3,23.2,0.5,34.8,0.7
			c5.3,0.1,10.6,0.2,15.9,0.3c2.7,0.1,5.3,0.1,8,0.2c2.6,0.1,6.6-0.6,9.1,0.4c3.5,1.4,1.9,9.5,1.9,12.6c0,6,0,11.9,0,17.9
			c0,11.6,0,23.2,0,34.8c0,91.9,0,183.9,0.1,275.8c0,25.8,0.1,51.6,0,77.4c-0.1,25.5-0.7,51.2-4.3,76.5c3-0.4,6.1-0.8,9.1-1.2
			c-27.8-63.9-55-128-81.6-192.4c-26.5-64.1-52.5-128.5-77.9-193.1c-14.4-36.6-28.6-73.2-42.6-109.9
			C-1094.7,64.2-1104.3,66.8-1102,72.8L-1102,72.8z"/>
	</g>
</g>
<g>
	<g>
		<path class="st4" d="M-1257.5,468.6c13.8-36,27.7-72,41.5-108c13.1-34.2,25.9-68.6,43.5-100.8c-2.9,0-5.8,0-8.6,0
			c10.3,17.9,16.1,37.8,22.8,57.2c7.1,20.6,16.4,40.2,25.7,59.9c19.5,41.4,38.9,82.9,58.3,124.3c11,23.4,22,46.8,33,70.3
			c1.4-2.5,2.9-5,4.3-7.5c-19.5-0.2-39.1-0.3-58.6-0.5c-5,0-9.9-0.1-14.9-0.1c-3.7,0-11.5,1.4-13.9-1.9c-2.3-3.2-3.4-8.9-4.8-12.6
			c-1.7-4.6-3.4-9.2-5.1-13.8c-6.9-18.3-13.7-36.7-20.6-55c-2.6-7-4.6-14.4-13.1-15.7c-9.2-1.3-18.9-1-28.1-1.3
			c-22.1-0.9-44.2-1.9-66.3-2.8c-6.4-0.3-6.4,9.7,0,10c19.4,0.8,38.9,1.6,58.4,2.5c9.9,0.4,19.8,0.8,29.7,1.2
			c1.6,0.1,4.2-0.3,5.7,0.4c1.9,1,2.4,3.7,3.1,5.6c1.7,4.6,3.4,9.2,5.1,13.8c6.8,18.3,13.7,36.7,20.5,55c1.6,4.3,3.2,8.6,4.8,12.8
			c1.3,3.4,2.4,6.9,5.4,9.2s6.6,2.4,10.2,2.5c5.3,0.1,10.6,0.1,15.9,0.1c22.2,0.2,44.4,0.4,66.6,0.6c4.1,0,5.9-4.2,4.3-7.5
			c-19.5-41.4-38.9-82.9-58.3-124.3c-9.7-20.7-19.4-41.4-29.2-62.2c-9.5-20.2-19.5-40.3-27-61.4c-7.7-21.6-13.7-43.8-25.2-63.8
			c-1.8-3.2-6.8-3.3-8.6,0c-17.7,32.4-30.6,67-43.8,101.4c-14.1,36.6-28.1,73.2-42.2,109.9C-1269.4,471.9-1259.8,474.5-1257.5,468.6
			L-1257.5,468.6z"/>
	</g>
</g>
<g>
	<g>
		<path class="st4" d="M-1437.5,487.4c2,1.8,4.1,3.5,6.4,4.9c0.7,0.4,1.7,0.2,2.1-0.5c0.4-0.7,0.2-1.6-0.5-2
			c-1.1-0.7-2.1-1.4-3.1-2.1c0,0-0.1-0.1-0.2-0.1c0.1,0.1,0.2,0.1,0,0c-0.1-0.1-0.2-0.2-0.3-0.3c-0.3-0.2-0.5-0.4-0.7-0.6
			c-0.5-0.4-1-0.9-1.4-1.3c-0.6-0.5-1.6-0.6-2.1,0C-1438,485.8-1438.1,486.8-1437.5,487.4L-1437.5,487.4z"/>
	</g>
</g>
<g>
	<g>
		<path class="st4" d="M-1438.6,462.9c3.9,4.5,7.8,8.9,11.6,13.4c0.5,0.6,1.6,0.5,2.1,0c0.6-0.6,0.5-1.5,0-2.1
			c-3.9-4.5-7.8-8.9-11.6-13.4c-0.5-0.6-1.6-0.5-2.1,0C-1439.2,461.4-1439.1,462.3-1438.6,462.9L-1438.6,462.9z"/>
	</g>
</g>
<g>
	<g>
		<path class="st4" d="M-1437.5,434.3c6.6,5.8,12.7,12.3,18.1,19.3c0.5,0.6,1.6,0.5,2.1,0c0.6-0.6,0.5-1.5,0-2.1
			c-5.4-7-11.5-13.4-18.1-19.3C-1436.8,430.9-1439,433-1437.5,434.3L-1437.5,434.3z"/>
	</g>
</g>
<g>
	<g>
		<path class="st4" d="M-1435.7,403.3c6.7,8.9,14,17.3,21.8,25.2c1.4,1.4,3.5-0.8,2.1-2.1c-7.6-7.7-14.8-15.9-21.4-24.6
			C-1434.3,400.3-1436.9,401.8-1435.7,403.3L-1435.7,403.3z"/>
	</g>
</g>
<g>
	<g>
		<path class="st4" d="M-1435.2,372.7c4.8,5,8.6,10.9,13.1,16.2c4.7,5.5,9.7,10.6,14.7,15.7c1.4,1.4,3.5-0.7,2.1-2.1
			c-5-5.1-10.1-10.2-14.7-15.7c-4.5-5.3-8.3-11.1-13.1-16.2C-1434.4,369.2-1436.6,371.3-1435.2,372.7L-1435.2,372.7z"/>
	</g>
</g>
<g>
	<g>
		<path class="st4" d="M-1435.6,338.5c7.5,7.4,15,14.8,22.5,22.1c3.7,3.7,7.5,7.3,11.2,11c1.8,1.8,3.6,3.6,5.5,5.4
			c1.6,1.5,3.2,2.9,5.2,3.8c1.8,0.8,3.3-1.8,1.5-2.6c-2-0.9-3.6-2.3-5.2-3.9c-1.8-1.7-3.5-3.5-5.3-5.2c-3.7-3.7-7.4-7.3-11.2-11
			c-7.4-7.3-14.8-14.5-22.2-21.8C-1434.9,335-1437,337.1-1435.6,338.5L-1435.6,338.5z"/>
	</g>
</g>
<g>
	<g>
		<path class="st4" d="M-1435.6,305.1c11.7,15.5,26.6,28,42,39.6c4.4,3.3,8.9,6.6,13.4,9.9c1.6,1.1,3.1-1.5,1.5-2.6
			c-15.3-11.2-30.7-22.5-43.8-36.2c-3.7-3.9-7.3-8-10.5-12.3C-1434.1,302-1436.7,303.5-1435.6,305.1L-1435.6,305.1z"/>
	</g>
</g>
<g>
	<g>
		<path class="st4" d="M-1435.3,268.7c12.6,15.5,26.7,29.7,41.9,42.6c4.3,3.6,8.7,7.1,13.2,10.5c1.5,1.2,3-1.4,1.5-2.6
			c-15.8-11.9-30.4-25.3-43.7-39.9c-3.8-4.1-7.4-8.4-10.9-12.7C-1434.4,265-1436.5,267.2-1435.3,268.7L-1435.3,268.7z"/>
	</g>
</g>
<g>
	<g>
		<path class="st4" d="M-1433,227.6c17.4,16.9,35.7,32.8,54.8,47.7c5.4,4.2,10.9,8.4,16.4,12.4c1.6,1.1,3.1-1.5,1.5-2.6
			c-19.4-14.2-38-29.5-55.8-45.6c-5-4.6-10-9.2-14.9-14C-1432.3,224.1-1434.4,226.2-1433,227.6L-1433,227.6z"/>
	</g>
</g>
<g>
	<g>
		<path class="st4" d="M-1436.8,182.7c25.3,19.5,51,38.6,77.1,57c7.3,5.2,14.6,10.3,21.9,15.4c1.6,1.1,3.1-1.5,1.5-2.6
			c-26.3-18.2-52.2-36.9-77.8-56.1c-7.1-5.4-14.2-10.8-21.3-16.2c-0.7-0.5-1.7-0.1-2.1,0.5C-1437.8,181.4-1437.4,182.2-1436.8,182.7
			L-1436.8,182.7z"/>
	</g>
</g>
<g>
	<g>
		<path class="st4" d="M-1429.5,146.6c7,5,13.2,11.2,19.8,16.7c6.1,5.1,12.5,10,18.9,14.8c12.9,9.6,26,18.9,38.1,29.4
			c6.8,5.9,13.2,12.1,19,19c1.3,1.5,3.4-0.7,2.1-2.1c-10.4-12.3-22.8-22.6-35.5-32.3c-12.9-9.8-26.3-19.1-38.8-29.4
			c-7.5-6.1-14.3-13-22.2-18.7C-1429.6,142.9-1431.1,145.5-1429.5,146.6L-1429.5,146.6z"/>
	</g>
</g>
<g>
	<g>
		<path class="st4" d="M-1432,109.3c7.7,3.5,13.6,9.6,19.3,15.7c5.8,6.3,11.8,12.2,18.6,17.4c13.7,10.7,29,19,43.9,27.8
			c8.4,5,16.8,10.3,24.6,16.2c1.5,1.2,3-1.4,1.5-2.6c-13.9-10.5-29.3-18.8-44.2-27.7c-7.4-4.5-14.8-9.1-21.8-14.3
			c-6.9-5.1-13.1-10.9-19-17.2c-6.4-6.8-12.9-14-21.6-17.9C-1432.2,105.9-1433.7,108.5-1432,109.3L-1432,109.3z"/>
	</g>
</g>
<g>
	<g>
		<path class="st4" d="M-1404.4,87.6c11.2,10.8,22.7,21.2,34.7,31.2c12,10,24.4,19.5,37.1,28.5c7.1,5.1,14.4,10,21.7,14.8
			c1.6,1.1,3.1-1.5,1.5-2.6c-13-8.4-25.6-17.3-37.9-26.7c-12.3-9.3-24.2-19.2-35.7-29.4c-6.6-5.8-13-11.8-19.3-17.9
			C-1403.7,84.2-1405.8,86.3-1404.4,87.6L-1404.4,87.6z"/>
	</g>
</g>
<g>
	<g>
		<path class="st4" d="M-1356.2,88.1c4.5,0.9,8,4,11.3,7c3.6,3.3,7.2,6.6,11,9.7c7.6,6.3,15.7,12,24.1,17.2
			c4.8,2.9,9.7,5.6,14.7,8.2c1.7,0.9,3.2-1.7,1.5-2.6c-17.9-9-34.3-20.6-49-34.3c-3.7-3.5-7.8-7.1-12.9-8.1
			C-1357.3,84.8-1358.1,87.7-1356.2,88.1L-1356.2,88.1z"/>
	</g>
</g>
<g>
	<g>
		<path class="st4" d="M-1320.1,87.4c3.3,0.3,6.1,2.2,8.7,4.1c3,2.2,5.9,4.6,8.9,6.8c6.1,4.7,12.2,9.4,18.3,14.1
			c0.7,0.5,1.7,0.1,2-0.5c0.5-0.8,0.1-1.6-0.5-2.1c-6.4-4.9-12.8-9.8-19.1-14.7c-3-2.3-5.9-4.7-9-6.8c-2.8-2-5.9-3.6-9.3-3.9
			C-1322,84.3-1322,87.3-1320.1,87.4L-1320.1,87.4z"/>
	</g>
</g>
<g>
	<g>
		<path class="st4" d="M-1292.9,86.4c2.9,0.9,4.9,3.6,6.8,5.9c2.5,3,4.9,6,7.4,9c0.5,0.6,1.6,0.5,2.1,0c0.6-0.6,0.5-1.5,0-2.1
			c-2.6-3.2-5.2-6.3-7.8-9.5c-2.1-2.6-4.5-5.2-7.8-6.2C-1294,82.9-1294.7,85.8-1292.9,86.4L-1292.9,86.4z"/>
	</g>
</g>
<g>
	<g>
		<path class="st4" d="M-1271.9,80.8c1.3,1.4,2.4,2.6,3.4,4.2c1,1.6,1.9,3.2,2.7,4.9c0.3,0.7,1.4,0.9,2,0.5c0.8-0.5,0.9-1.3,0.5-2.1
			c-1.5-3.6-3.8-6.9-6.5-9.7c-0.6-0.6-1.6-0.6-2.1,0C-1272.5,79.3-1272.5,80.2-1271.9,80.8L-1271.9,80.8z"/>
	</g>
</g>
<g>
	<g>
		<path class="st4" d="M-908,513.1c2.3-5.5,5.1-10.9,8.1-16.1c1-1.7-1.6-3.2-2.6-1.5c-3.1,5.2-5.8,10.5-8.1,16.1
			c-0.3,0.8-0.2,1.6,0.5,2C-909.4,514-908.3,513.8-908,513.1L-908,513.1z"/>
	</g>
</g>
<g>
	<g>
		<path class="st4" d="M-912.3,490.7c4.9-8.2,9.9-16.3,14.8-24.5c1-1.7-1.6-3.2-2.6-1.5c-4.9,8.2-9.9,16.3-14.8,24.5
			C-915.9,490.8-913.3,492.4-912.3,490.7L-912.3,490.7z"/>
	</g>
</g>
<g>
	<g>
		<path class="st4" d="M-921.8,464.4c-0.1-1.5,0.7-2.8,1.5-4.1c0.9-1.5,1.9-2.9,2.8-4.4c1.9-2.9,3.8-5.9,5.8-8.8
			c3.8-5.9,7.7-11.7,11.5-17.6c1.1-1.6-1.5-3.1-2.6-1.5c-4,6.1-8,12.3-12,18.4c-2,3.1-4,6.1-6,9.2c-1.7,2.6-4.2,5.4-3.9,8.7
			C-924.7,466.3-921.7,466.3-921.8,464.4L-921.8,464.4z"/>
	</g>
</g>
<g>
	<g>
		<path class="st4" d="M-933.6,432.7c9.3-10.5,18.1-21.5,26.4-32.9c1.1-1.6-1.5-3.1-2.6-1.5c-8.1,11.2-16.8,22-25.9,32.3
			C-937,432-934.9,434.1-933.6,432.7L-933.6,432.7z"/>
	</g>
</g>
<g>
	<g>
		<path class="st4" d="M-940.8,400.6c2.1-3.4,5-6.3,7.8-9.1c2.9-2.9,5.8-5.9,8.6-8.9c5.6-6.1,10.8-12.4,15.9-18.9
			c2.9-3.8,5.7-7.6,8.4-11.5c1.1-1.6-1.5-3.1-2.6-1.5c-9.4,13.6-20,26.4-31.7,38.1c-3.2,3.2-6.5,6.4-8.9,10.3
			C-944.4,400.8-941.8,402.3-940.8,400.6L-940.8,400.6z"/>
	</g>
</g>
<g>
	<g>
		<path class="st4" d="M-954,369.4c13.9-11.1,26.3-23.9,37.1-38c3.1-4,6.1-8.2,8.9-12.5c1.1-1.6-1.5-3.1-2.6-1.5
			c-9.7,14.7-21.3,28.2-34.3,40.2c-3.7,3.4-7.4,6.6-11.3,9.7C-957.6,368.5-955.4,370.6-954,369.4L-954,369.4z"/>
	</g>
</g>
<g>
	<g>
		<path class="st4" d="M-971.8,342.5c6.5-8.1,14.7-14.6,23.1-20.7c9.3-6.8,18.6-13.6,27.9-20.4c5.3-3.9,10.7-7.8,16-11.7
			c1.5-1.1,0-3.7-1.5-2.6c-9.6,7-19.1,14-28.7,21c-8.9,6.5-18,12.7-26.4,19.8c-4.5,3.8-8.8,7.9-12.5,12.6
			C-975.1,341.9-973,344-971.8,342.5L-971.8,342.5z"/>
	</g>
</g>
<g>
	<g>
		<path class="st4" d="M-984.9,303.3c19.7-15.1,39.7-29.7,60.2-43.8c5.8-4,11.6-7.9,17.5-11.8c1.6-1.1,0.1-3.7-1.5-2.6
			c-20.6,13.8-40.9,28.1-60.8,42.9c-5.6,4.2-11.2,8.5-16.8,12.7c-0.6,0.5-1,1.3-0.5,2C-986.6,303.4-985.5,303.8-984.9,303.3
			L-984.9,303.3z"/>
	</g>
</g>
<g>
	<g>
		<path class="st4" d="M-998.6,263.5c1-3.2,4.6-4.8,7.4-6.2c3.7-1.9,7.5-3.8,11.3-5.6c7.6-3.6,15.3-6.9,22.9-10.3
			c14.2-6.3,28.3-13,41-22.1c6.8-4.9,13.2-10.5,18.8-16.9c1.3-1.4-0.9-3.6-2.1-2.1c-10,11.5-22.7,20.2-36,27.4
			c-14.7,7.9-30.2,14-45.2,21c-4.4,2-8.7,4.1-13,6.4c-3.3,1.8-6.8,3.8-7.9,7.6C-1002.1,264.6-999.2,265.4-998.6,263.5L-998.6,263.5z
			"/>
	</g>
</g>
<g>
	<g>
		<path class="st4" d="M-1013.3,231.1c13.1-9.3,26.4-18.3,39.9-26.9c13.6-8.6,27.4-16.8,41.4-24.7c7.9-4.4,15.9-8.7,24-12.9
			c1.7-0.9,0.2-3.5-1.5-2.6c-14.3,7.4-28.3,15.2-42.1,23.3S-979,204-992.4,213c-7.5,5.1-15,10.2-22.4,15.5
			C-1016.3,229.6-1014.8,232.2-1013.3,231.1L-1013.3,231.1z"/>
	</g>
</g>
<g>
	<g>
		<path class="st4" d="M-1029.3,194c15.6-12.6,33.5-21.9,50.5-32.3c8.6-5.3,16.9-10.9,24.9-17.1c4-3.1,8.1-6.2,12.4-8.9
			c3.8-2.3,7.7-4.4,11.6-6.6c8.7-4.8,17.4-9.9,23.6-17.8c1.2-1.5-0.9-3.6-2.1-2.1c-5.5,7-13,11.7-20.6,16c-3.9,2.2-7.8,4.3-11.7,6.5
			c-4.2,2.5-8.2,5.3-12.1,8.2c-4.1,3.1-8.2,6.4-12.4,9.3c-4.1,2.9-8.3,5.6-12.5,8.2c-8.5,5.3-17.2,10.2-25.8,15.3
			c-9.7,5.8-19.2,11.9-28,19C-1032.9,193.1-1030.8,195.2-1029.3,194L-1029.3,194z"/>
	</g>
</g>
<g>
	<g>
		<path class="st4" d="M-1041,152.7c6.8-5.8,14-11.1,21.6-15.8c7.7-4.9,15.8-9.1,24-13.2c16.8-8.3,33.6-16.6,50.1-25.4
			c9.3-5,18.5-10.1,27.7-15.4c1.7-1,0.2-3.6-1.5-2.6c-16.3,9.5-33,18.4-49.8,26.9c-16.6,8.4-33.8,15.9-49.7,25.6
			c-8.6,5.3-16.8,11.2-24.5,17.7C-1044.6,151.8-1042.5,153.9-1041,152.7L-1041,152.7z"/>
	</g>
</g>
<g>
	<g>
		<path class="st4" d="M-1053.1,116.1c11.9-11.3,24.5-21.8,37.7-31.5c3.8-2.8,7.6-5.4,11.5-8.1c1.6-1.1,0.1-3.7-1.5-2.6
			c-13.7,9.3-26.9,19.4-39.3,30.4c-3.6,3.2-7.1,6.4-10.5,9.7C-1056.6,115.3-1054.5,117.4-1053.1,116.1L-1053.1,116.1z"/>
	</g>
</g>
<g>
	<g>
		<path class="st4" d="M-1072.8,90.8c6.6-4.9,12.7-10.4,18.3-16.4c1.3-1.4-0.8-3.5-2.1-2.1c-5.4,5.8-11.3,11.2-17.7,15.9
			c-0.7,0.5-1,1.3-0.5,2.1C-1074.5,90.9-1073.4,91.3-1072.8,90.8L-1072.8,90.8z"/>
	</g>
</g>
<g>
	<g>
		<path class="st4" d="M-1061.2,98.3c7.8-5.7,15.3-12,22.2-18.8c1.4-1.3-0.7-3.5-2.1-2.1c-6.8,6.6-14,12.7-21.6,18.3
			C-1064.3,96.9-1062.8,99.5-1061.2,98.3L-1061.2,98.3z"/>
	</g>
</g>
<g>
	<g>
		<path class="st4" d="M-1082.3,78.7c0.9-0.2,1.8-0.8,2.4-1.5c0.3-0.4,0.6-0.8,0.8-1.2c0.1-0.3,0.3-0.6,0.3-0.8
			c0.1-0.3,0.1-0.6,0.2-0.9c0-0.3-0.2-0.8-0.4-1.1c-0.3-0.3-0.7-0.5-1.1-0.4c-0.4,0-0.8,0.1-1.1,0.4c-0.1,0.1-0.2,0.2-0.2,0.3
			c-0.1,0.2-0.2,0.5-0.2,0.8c0,0,0,0,0,0c0-0.1,0-0.3,0.1-0.4c0,0.3-0.1,0.6-0.2,0.9c0-0.1,0.1-0.2,0.2-0.4
			c-0.1,0.3-0.3,0.6-0.5,0.8c0.1-0.1,0.2-0.2,0.2-0.3c-0.2,0.3-0.4,0.5-0.7,0.7c0.1-0.1,0.2-0.2,0.3-0.2c-0.2,0.2-0.5,0.3-0.8,0.4
			c0.1-0.1,0.2-0.1,0.4-0.2c-0.2,0.1-0.3,0.1-0.5,0.2c-0.4,0.1-0.7,0.4-0.9,0.7c-0.2,0.3-0.3,0.8-0.1,1.2s0.3,0.7,0.7,0.9
			C-1083.1,78.8-1082.7,78.8-1082.3,78.7L-1082.3,78.7z"/>
	</g>
</g>
<g>
	<g>
		<path class="st4" d="M-1181.7,294.4c0,0,0.2-0.3,0.1-0.1c-0.1,0.2,0.1-0.1,0.1-0.1c0.1-0.1,0.2-0.3,0.3-0.4
			c0.3-0.3,0.5-0.5,0.8-0.8c0.3-0.3,0.5-0.5,0.8-0.8c0.1-0.1,0.3-0.2,0.4-0.3c-0.2,0.1-0.1,0.1,0,0c0.1-0.1,0.2-0.1,0.2-0.2
			c0.6-0.4,1.2-0.8,1.9-1.1c0.2-0.1,0.3-0.2,0.5-0.3c0.1,0,0.2-0.1,0.3-0.1c0.2-0.1,0.1,0,0,0c0.3-0.2,0.7-0.3,1.1-0.4
			c0.7-0.2,1.3-1,1.1-1.9c-0.2-0.7-1.1-1.3-1.9-1c-3.4,1.1-6.2,3.2-8.3,6c-0.5,0.6-0.1,1.7,0.5,2
			C-1182.9,295.4-1182.2,295.1-1181.7,294.4L-1181.7,294.4z"/>
	</g>
</g>
<g>
	<g>
		<path class="st4" d="M-1189.7,314.5c6.8-5.5,13.5-11,20.3-16.5c0.6-0.5,0.5-1.6,0-2.1c-0.6-0.6-1.5-0.5-2.1,0
			c-6.8,5.5-13.5,11-20.3,16.5c-0.6,0.5-0.5,1.6,0,2.1C-1191.2,315.1-1190.3,315-1189.7,314.5L-1189.7,314.5z"/>
	</g>
</g>
<g>
	<g>
		<path class="st4" d="M-1204.6,348.6c10.4-10.7,21.6-20.7,33.2-30.1c1.5-1.2-0.6-3.3-2.1-2.1c-11.7,9.3-22.8,19.4-33.2,30.1
			C-1208.1,347.8-1206,350-1204.6,348.6L-1204.6,348.6z"/>
	</g>
</g>
<g>
	<g>
		<path class="st4" d="M-1215.7,378.9c14.2-10.2,27.5-21.7,39.7-34.3c3.4-3.6,6.8-7.2,10-11c1.3-1.5-0.8-3.6-2.1-2.1
			c-11.3,13-23.8,25-37.2,35.8c-3.9,3.1-7.8,6.1-11.9,9C-1218.8,377.4-1217.3,380-1215.7,378.9L-1215.7,378.9z"/>
	</g>
</g>
<g>
	<g>
		<path class="st4" d="M-1221.8,404.9c17.9-12.4,36-24.9,51.1-40.7c4.4-4.6,8.5-9.6,12.5-14.5c1.2-1.5-0.9-3.6-2.1-2.1
			c-7,8.6-14.3,16.8-22.5,24.2c-8,7.2-16.6,13.8-25.4,20c-5,3.6-10.1,7.1-15.1,10.6C-1224.9,403.4-1223.4,406-1221.8,404.9
			L-1221.8,404.9z"/>
	</g>
</g>
<g>
	<g>
		<path class="st4" d="M-1228.2,427.3c22.8-10.6,44.3-23.9,64.2-39.3c5.6-4.4,11.1-8.9,16.4-13.6c1.4-1.3-0.7-3.4-2.1-2.1
			c-18.7,16.5-39.3,30.9-61.2,42.9c-6.2,3.4-12.4,6.5-18.8,9.5C-1231.5,425.6-1229.9,428.2-1228.2,427.3L-1228.2,427.3z"/>
	</g>
</g>
<g>
	<g>
		<path class="st4" d="M-1234.1,451.2c14.2-6.5,28.4-13.1,42.6-19.6c12.8-5.9,25.9-11.3,38.1-18.4c6.5-3.8,12.6-8.1,18-13.4
			c1.4-1.4-0.7-3.5-2.1-2.1c-9.5,9.3-21.4,15.5-33.3,21.1c-13.7,6.4-27.4,12.6-41.2,19c-7.8,3.6-15.7,7.2-23.6,10.9
			C-1237.4,449.4-1235.9,452-1234.1,451.2L-1234.1,451.2z"/>
	</g>
</g>
<g>
	<g>
		<path class="st4" d="M-1193.4,457.2c17.1-10,34.1-20.4,50.8-31.1c4.8-3.1,9.6-6.2,14.3-9.3c1.6-1.1,0.1-3.6-1.5-2.6
			c-16.6,10.9-33.4,21.5-50.4,31.7c-4.9,2.9-9.8,5.8-14.7,8.7C-1196.6,455.6-1195.1,458.2-1193.4,457.2L-1193.4,457.2z"/>
	</g>
</g>
<g>
	<g>
		<path class="st4" d="M-1149.2,466.8c11.1-7,22-14.4,32.6-22.1c1.5-1.1,0.1-3.7-1.5-2.6c-10.7,7.7-21.5,15-32.6,22.1
			C-1152.4,465.2-1150.9,467.8-1149.2,466.8L-1149.2,466.8z"/>
	</g>
</g>
<g>
	<g>
		<path class="st4" d="M-1136,495.4c11.9-8.8,23.1-18.4,33.4-28.9c1.4-1.4-0.8-3.5-2.1-2.1c-10.2,10.3-21.2,19.8-32.8,28.5
			C-1139,493.9-1137.5,496.5-1136,495.4L-1136,495.4z"/>
	</g>
</g>
<g>
	<g>
		<path class="st4" d="M-1121.1,519.9c10.3-8.7,20.5-17.3,30.8-26c1.5-1.3-0.6-3.4-2.1-2.1c-10.3,8.7-20.5,17.3-30.8,26
			C-1124.7,519-1122.6,521.2-1121.1,519.9L-1121.1,519.9z"/>
	</g>
</g>
<g>
	<g>
		<path class="st4" d="M-1113.8,543c12.3-8.6,23.6-18.5,33.7-29.5c1.3-1.4-0.8-3.5-2.1-2.1c-10,10.8-21.1,20.6-33.1,29
			C-1116.9,541.5-1115.4,544.1-1113.8,543L-1113.8,543z"/>
	</g>
</g>
<g>
	<g>
		<path class="st4" d="M-1093.8,553.4c7.4-6.2,13.9-13.5,19.4-21.4c1.1-1.6-1.5-3.1-2.6-1.5c-5.3,7.8-11.7,14.8-18.9,20.8
			C-1097.4,552.5-1095.2,554.6-1093.8,553.4L-1093.8,553.4z"/>
	</g>
</g>
<g>
	<g>
		<path class="st4" d="M-1069.8,558.5c3-3,5.8-6.2,8.3-9.6c0.5-0.6,0.1-1.7-0.5-2c-0.8-0.4-1.6-0.1-2.1,0.5c-2.3,3.2-4.9,6.2-7.8,9
			c-0.6,0.5-0.6,1.6,0,2.1C-1071.3,559-1070.4,559-1069.8,558.5L-1069.8,558.5z"/>
	</g>
</g>
<g>
	<g>
		<g>
			<path d="M406.1,87c0.4-9.5-14.1-9.3-14.4,0c-2.6,53.2,20.5,104.4,37.7,153.8c17.7,50.9,35.6,101.8,57.9,151.1
				c3.8,8.6,16.3,1.2,12.5-7.3c-21.7-48-39.1-97.9-56.4-147.6C426.6,189,403.7,139,406.1,87L406.1,87z"/>
		</g>
	</g>
	<g>
		<g>
			<path d="M474.2,391.9c9.2,2.3,12.9-11.6,3.8-14c-34.6-9-70.3-13.8-106-14.3c-9.3-0.1-9.3,14.4,0,14.5
				C406.6,378.7,440.7,383.2,474.2,391.9L474.2,391.9z"/>
		</g>
	</g>
	<g>
		<g>
			<path d="M496.2,530.2c7,6.4,17.3-3.9,10.3-10.3c-48.9-44.4-96.3-90.3-142.1-137.9c-6.5-6.7-16.9,3.6-10.3,10.3
				C399.9,439.9,447.3,485.9,496.2,530.2L496.2,530.2z"/>
		</g>
	</g>
	<g>
		<g>
			<path d="M491.8,549.6c8.1,4.5,15.6-8.1,7.6-12.5c-25.6-13.8-51.2-27.8-76.2-42.5c-44.7-26.2-87.9-55.3-125-91.5
				c-36.8-35.9-67.1-78.4-107.1-111.3c-7.3-5.8-17.6,4.4-10.3,10.3c23,18.9,42.9,41,62.7,63.4c16.9,19.2,33.9,38.3,52.7,55.7
				C315.4,439,336,455,357.4,470C400.2,499.8,446,524.9,491.8,549.6L491.8,549.6z"/>
		</g>
	</g>
	<g>
		<g>
			<path d="M295.1,256.9c8.7-3.1,4.9-17.2-3.8-14.1c-26.9,9.3-54.5,16.1-82.6,19.8c-9.2,1.2-9.3,15.7,0,14.5
				C238.3,273.4,267.1,266.7,295.1,256.9L295.1,256.9z"/>
		</g>
	</g>
	<g>
		<g>
			<path d="M276.5,227c1.6,9.3,15.7,5.4,14.1-4.1c-2.6-15.1-10.3-28.8-17.9-42c-7.4-12.9-15.6-25.5-24.4-37.5
				C230.4,119,210,96.6,187.5,76.7c-7-6.1-17.3,4.1-10.3,10.3c21.7,19.2,41.5,40.4,58.5,63.7c8.6,11.8,16.6,24,23.9,36.5
				C266.8,199.8,274,212.6,276.5,227L276.5,227z"/>
		</g>
	</g>
	<g>
		<g>
			<path d="M385.5,75.1c9.3-0.1,9.3-14.7,0-14.5c-56.6,0.1-113.3,0.4-170,0.7c-9.3,0-9.3,14.5,0,14.5
				C272,75.7,328.7,75.4,385.5,75.1L385.5,75.1z"/>
		</g>
	</g>
	<g>
		<g>
			<path d="M183.4,99.4c0.7-2.8-3.5-3.9-4.2-1.2c-2.9,12.5-7.6,24.4-13.8,35.5c-1.3,2.5,2.3,4.7,3.8,2.2
				C175.7,124.4,180.5,112.2,183.4,99.4L183.4,99.4z"/>
		</g>
	</g>
	<g>
		<g>
			<path d="M256.2,249.8c1.3,2.5,5.1,0.3,3.9-2.2c-4.8-8.6-9.7-17.2-14.7-25.6c-17.6-29.7-36.7-58.5-57.2-86.3
				c-1.6-2.3-5.4-0.1-3.8,2.2c5.8,7.9,11.5,15.9,17.2,24C221.2,190.3,239.4,219.5,256.2,249.8L256.2,249.8z"/>
		</g>
	</g>
	<g>
		<g>
			<path d="M181.5,313.5c0.6-2.8-3.6-3.9-4.2-1.2c-3.1,13.8-7.4,27.2-13.1,40.1c-1.2,2.5,2.6,4.8,3.8,2.2
				C174,341.4,178.5,327.6,181.5,313.5L181.5,313.5z"/>
		</g>
	</g>
	<g>
		<g>
			<path d="M487.3,579.7c2.5,1.3,4.7-2.5,2.2-3.8c-2.6-1.6-5.4-3.1-8-4.7c-20.9-12.2-41.5-25.2-61.5-38.7
				c-20.2-13.5-40.1-27.6-59.8-42c-19.6-14.4-39.1-29.1-58.5-43.9c-19.1-14.7-38-29.5-57.5-43.6c-19.2-14-39.1-26.9-60.5-37.2
				c-2.5-1.2-4.7,2.6-2.2,3.8c2.6,1.3,5.4,2.6,8,4.1c21.1,10.9,40.6,24.3,59.5,38.4c19.3,14.3,38.4,29.2,57.6,43.8
				c19.3,14.8,38.8,29.4,58.6,43.8c19.6,14.3,39.6,28.4,59.9,41.7C445.4,554.8,466.2,567.6,487.3,579.7L487.3,579.7z"/>
		</g>
	</g>
	<g>
		<g>
			<path d="M503.7,552.1c0-1.3-1.2-2.2-2.2-2c-1.3,0-2,1-2.2,2.2c-0.7,5.4-2.9,10.6-6,15.1c-0.7,0.9-0.3,2.3,0.7,2.9
				c1.2,0.7,2.3,0.3,3.1-0.7C500.8,564.3,503,558.3,503.7,552.1L503.7,552.1z"/>
		</g>
	</g>
	<g>
		<g>
			<path d="M484.2,399.6c0.9-2.8-3.3-3.8-4.2-1.2c-2.9,9.5-7.6,18.3-13.4,26.2c-0.7,0.9-0.1,2.3,0.7,2.9c1.2,0.7,2.3,0.1,3.1-0.7
				C476.5,418.5,481.2,409.4,484.2,399.6L484.2,399.6z"/>
		</g>
	</g>
	<g>
		<g>
			<path d="M459.9,428.1c2.6,1.2,4.8-2.6,2.2-3.8c-23.4-10.6-47.6-21.4-73.7-21.8c-2.8,0-2.8,4.4,0,4.4
				C413.7,407.3,437.3,418,459.9,428.1L459.9,428.1z"/>
		</g>
	</g>
	<g>
		<g>
			<path d="M461.5,392.1c0.9-2.8-3.3-3.8-4.2-1.2c-3.2,9.7-5.8,19.6-7.6,29.8c-0.4,2.8,3.8,3.9,4.2,1.2
				C455.7,411.8,458.2,401.8,461.5,392.1L461.5,392.1z"/>
		</g>
	</g>
	<g>
		<g>
			<path d="M431.4,384.9c1.3-2.5-2.5-4.7-3.9-2c-3.9,7.7-5.2,16.3-3.9,24.9c0.3,1.2,1.7,1.7,2.8,1.5c1.3-0.4,1.7-1.6,1.6-2.8
				C426.8,399.2,428.1,391.5,431.4,384.9L431.4,384.9z"/>
		</g>
	</g>
	<g>
		<g>
			<path d="M397.8,380.3c0.6-2.8-3.6-3.9-4.2-1.3c-2.2,10.3-2.2,20.8,0,31c0.6,2.8,4.8,1.6,4.2-1.2
				C395.8,399.5,395.8,389.7,397.8,380.3L397.8,380.3z"/>
		</g>
	</g>
	<g>
		<g>
			<path d="M469.4,534c0.1-1.2-0.3-2.3-1.6-2.5c-1.2-0.3-2.6,0.3-2.8,1.5c-1.2,8.3-5.7,16-12.5,20.9c-0.9,0.6-1.3,1.7-0.7,2.9
				c0.6,0.9,2,1.5,3.1,0.7C462.6,552.1,468,543.5,469.4,534L469.4,534z"/>
		</g>
	</g>
	<g>
		<g>
			<path d="M421.7,507.4c0-1.2-1.2-2.2-2.3-1.9c-1.3,0-2,1-2.2,2.2c-0.1,0.6,0,0.3-0.1,0.9c-0.1,0.4-0.1,0.7-0.3,1.2
				c-0.1,0.7-0.3,1.3-0.6,2c-0.4,1.2-1,2.3-1.7,3.6c-1.5,2.3-3.3,4.5-5.7,6c-0.9,0.6-1.3,1.9-0.7,2.9c0.6,0.9,2,1.5,3.1,0.7
				C417.2,521.1,421,514.5,421.7,507.4L421.7,507.4z"/>
		</g>
	</g>
	<g>
		<g>
			<path d="M383.6,486.9c0.9-0.6,1.3-1.9,0.7-2.9c-0.6-0.9-2-1.3-3.1-0.7c-5.4,3.5-10.8,7.1-16.1,10.6c-0.9,0.6-1.3,1.9-0.7,2.9
				c0.6,0.9,2,1.3,3.1,0.7C372.8,494,378.2,490.4,383.6,486.9L383.6,486.9z"/>
		</g>
	</g>
	<g>
		<g>
			<path d="M346.9,457.7c0.7-0.9,0-2.3-0.9-2.8c-1.2-0.7-2.3-0.1-3.1,0.7c-4.4,5.7-10.2,10-16.6,13.1c-1,0.4-1.3,2-0.7,2.9
				c0.7,1,2,1.2,3.1,0.7C336,469,342.1,463.9,346.9,457.7L346.9,457.7z"/>
		</g>
	</g>
	<g>
		<g>
			<path d="M311.3,431.8c0.9-0.7,0.7-2.3,0-3.1c-0.9-0.9-2.2-0.7-3.1,0c-4.2,3.3-8.4,6.8-12.7,10.3c-0.9,0.7-0.7,2.3,0,3.1
				c0.9,0.9,2.2,0.7,3.1,0C302.8,438.8,307.1,435.3,311.3,431.8L311.3,431.8z"/>
		</g>
	</g>
	<g>
		<g>
			<path d="M272.7,402.1c0.7-1,0.9-2.2,0-3.1c-0.7-0.7-2.3-0.9-3.1,0c-3.3,4.2-7.1,8.3-11.2,11.8c-0.9,0.7-0.7,2.2,0,3.1
				c0.9,0.9,2.2,0.7,3.1,0C265.6,410.4,269.4,406.5,272.7,402.1L272.7,402.1z"/>
		</g>
	</g>
	<g>
		<g>
			<path d="M246.1,371.8c1.5-2.5-2.3-4.7-3.8-2.2c-3.9,6.7-9.2,12.5-15.3,17.3c-0.9,0.7-0.7,2.3,0,3.1c0.9,0.9,2.2,0.7,3.1,0
				C236.7,385.1,242,378.8,246.1,371.8L246.1,371.8z"/>
		</g>
	</g>
	<g>
		<g>
			<path d="M224.2,346.1c0.6-2.8-3.6-3.9-4.1-1.2c-2.8,11.3-8.9,21.5-17.3,29.5c-2,1.9,1,4.9,3.1,3.1
				C214.7,369.1,221.2,358,224.2,346.1L224.2,346.1z"/>
		</g>
	</g>
	<g>
		<g>
			<path d="M203.4,328.2c0.9-2.6-3.3-3.8-4.2-1.2c-4.1,12.7-11.9,23.7-22.4,31.9c-2.2,1.7,0.9,4.8,3.1,3.1
				C190.8,353.4,199,341.4,203.4,328.2L203.4,328.2z"/>
		</g>
	</g>
	<g>
		<g>
			<path d="M264.4,201.4c0.3-2.8-4.1-2.8-4.4,0c-0.9,12.8-3.8,25.3-8.6,37.2c-1,2.6,3.2,3.8,4.2,1.2
				C260.5,227.4,263.4,214.5,264.4,201.4L264.4,201.4z"/>
		</g>
	</g>
	<g>
		<g>
			<path d="M246.6,171.7c-0.1-2.9-4.5-2.9-4.4,0c0.3,15-2.8,30-9.3,43.5c-1.2,2.5,2.6,4.7,3.8,2.2
				C243.5,203.1,246.8,187.5,246.6,171.7L246.6,171.7z"/>
		</g>
	</g>
	<g>
		<g>
			<path d="M230,144c0.9-2.8-3.3-3.9-4.1-1.3c-2.8,9-6.1,17.7-10,26.3c-0.6,1.2-0.4,2.5,0.7,3.1c0.9,0.6,2.5,0.3,2.9-0.7
				C223.6,162.5,227.1,153.4,230,144L230,144z"/>
		</g>
	</g>
	<g>
		<g>
			<path d="M209,112.8c0.6-2.8-3.6-3.9-4.2-1.2c-2.5,11.2-5.8,22.1-9.9,32.9c-1,2.6,3.2,3.8,4.2,1.2
				C203.2,134.9,206.6,124,209,112.8L209,112.8z"/>
		</g>
	</g>
	<g>
		<g>
			<path d="M484,456.9c-2-1.9-5.1,1.2-2.9,3.1c18.8,17.9,37.2,36.1,55.4,54.5c1.9,2,4.9-1,3.1-3.1
				C521.3,492.9,502.7,474.8,484,456.9L484,456.9z"/>
		</g>
	</g>
	<g>
		<g>
			<path d="M424.9,569.5c2.3,1.5,4.5-2.3,2.2-3.8c-11.6-7-23.3-14-34.9-20.9c-41-24.6-81.9-49.3-122.8-73.9
				c-2.3-1.5-4.5,2.3-2.2,3.8c11.6,7,23.3,14,34.9,20.9C343.1,520.2,384,544.9,424.9,569.5L424.9,569.5z"/>
		</g>
	</g>
	<g>
		<g>
			<path d="M330.5,560.8c2.2,1.7,5.2-1.3,3.1-3.1c-12.4-9.9-25.5-19.1-39.1-27.1c-2.3-1.5-4.7,2.3-2.2,3.8
				C305.6,542.3,318.4,551.2,330.5,560.8L330.5,560.8z"/>
		</g>
	</g>
	<g>
		<g>
			<path d="M184,233.5c1.9,2.2,4.9-1,3.1-3.1c-17.6-20.4-36.2-40-55.7-58.8c-2-2-5.1,1.2-3.1,3.1C147.8,193.5,166.4,213.1,184,233.5
				L184,233.5z"/>
		</g>
	</g>
	<g>
		<g>
			<path d="M188.7,186.4c1.6,2.2,5.4,0,3.6-2c-5.2-7.4-10.5-14.8-16-22c-19.3-25.3-40.7-49.2-64-71.1c-2-1.9-5.1,1.2-3.1,3.1
				c6.5,6.1,12.8,12.4,19.1,18.8C150.4,135.9,170.5,160.3,188.7,186.4L188.7,186.4z"/>
		</g>
	</g>
	<g>
		<g>
			<path d="M455,76.6c0.1-2.9-4.2-2.9-4.4,0c-0.9,21.5,0,42.9,2.5,64.1c4.5,37.8,13.5,74.9,25.5,111c12.1,36.4,26.8,71.7,42.5,106.6
				c1.2,2.6,4.9,0.4,3.8-2.2c-8.9-19.6-17.3-39.3-25.2-59.2c-13.8-35.2-25.7-71.1-33.9-108.1C457.6,152,453.4,114.2,455,76.6
				L455,76.6z"/>
		</g>
	</g>
</g>
</svg>
