<?xml version="1.0" encoding="utf-8"?>
<!-- Generator: Adobe Illustrator 24.0.2, SVG Export Plug-In . SVG Version: 6.00 Build 0)  -->
<svg version="1.1" id="Capa_1" xmlns="http://www.w3.org/2000/svg" xmlns:xlink="http://www.w3.org/1999/xlink" x="0px" y="0px"
	 viewBox="0 0 420 478" style="enable-background:new 0 0 420 478;" xml:space="preserve">
<style type="text/css">
	.st0{fill:#070707;}
</style>
<g>
	<g>
		<path class="st0" d="M28.63,149.13c5.81,58.08,5.54,116.64-0.82,174.66c-0.43,3.89,4.52,6.07,7.52,4.32
			c11.41-6.67,22.83-13.34,34.24-20.02c5.71-3.34,11.41-6.67,17.12-10.01c4.73-2.77,11.56-5.35,14.22-10.45
			c2.43-4.66,1.7-11.65,2.04-16.74c0.43-6.5,0.85-13,1.28-19.5c0.87-13.33,1.74-26.65,2.62-39.98c-2.51,1.44-5.02,2.88-7.52,4.32
			c24.82,14.58,50.01,28.53,75.54,41.84c5.7,2.97,10.76-5.66,5.05-8.63c-25.53-13.31-50.72-27.25-75.54-41.84
			c-3.44-2.02-7.28,0.62-7.52,4.32c-0.79,12.03-1.57,24.05-2.36,36.08c-0.38,5.85-0.77,11.7-1.15,17.55
			c-0.19,2.93-0.38,5.85-0.57,8.78c-0.15,2.22,0.43,7.33-0.71,9.27c-0.95,1.61-4.61,2.97-6.12,3.85c-2.57,1.5-5.14,3-7.7,4.5
			c-5.14,3-10.27,6.01-15.41,9.01c-10.84,6.34-21.69,12.68-32.53,19.02c2.51,1.44,5.02,2.88,7.52,4.32
			c6.36-58.02,6.63-116.58,0.82-174.66C37.99,142.78,27.99,142.72,28.63,149.13L28.63,149.13z"/>
	</g>
</g>
<g>
	<g>
		<path class="st0" d="M44.79,135.34c49.86-30.18,100.86-58.43,152.9-84.67c-2.45-1.88-4.9-3.76-7.35-5.65
			c-3.61,15.83-5.71,32.01-6.05,48.25c-0.08,3.79-0.07,7.58,0.04,11.37c0.05,1.89,0.13,3.79,0.23,5.68
			c0.11,1.98,0.99,5.04,0.45,6.97c-0.67,2.4-5.73,4.03-7.99,5.27c-4,2.2-8,4.43-11.98,6.67c-7.11,4.01-14.18,8.08-21.22,12.22
			c-4.95,2.92-15.03,6.39-15.52,13.17c-0.47,6.46,7.08,11.63,11.49,15.25c5.41,4.45,11.15,8.47,17.06,12.21
			c13.76,8.72,28.3,16.15,41.57,25.65c5.24,3.75,10.24-4.92,5.05-8.63c-13.94-9.97-29.29-17.66-43.65-26.98
			c-6.97-4.52-15.78-9.77-20.86-16.49c-1.57,1.33-1.35,1.32,0.65-0.04c1.12-0.67,2.24-1.34,3.36-2.01c2.24-1.34,4.49-2.67,6.74-3.99
			c4.22-2.48,8.46-4.94,12.71-7.37c8.77-5.02,17.86-9.58,26.52-14.79c7.8-4.69,5.81-12.02,5.49-19.96
			c-0.82-20.11,1.09-40.18,5.55-59.8c1-4.38-3.42-7.63-7.34-5.65C140.6,68.28,89.59,96.53,39.74,126.71
			C34.24,130.04,39.26,138.69,44.79,135.34L44.79,135.34z"/>
	</g>
</g>
<g>
	<g>
		<path class="st0" d="M220.94,206.33c11.86-10.38,25.06-18.96,38.74-26.72c6.92-3.92,13.96-7.64,21.02-11.3
			c5.02-2.6,14.69-5.65,13.36-13.08c-1.02-5.73-9.09-10.02-13.54-13c-6.17-4.12-12.73-7.59-19.35-10.94
			c-6.66-3.36-13.38-6.59-19.9-10.23c-2.88-1.61-5.72-3.3-8.49-5.11c-2.11-1.39-3.5-2.24-3.82-4.7c-0.26-2.02,0.26-4.41,0.39-6.44
			c1.28-20.19,2.56-40.37,3.84-60.56c-2.51,1.44-5.02,2.88-7.52,4.32c13.2,8.12,26.84,15.41,40.82,22.08
			c13.72,6.54,27.36,13.04,40.17,21.26c26.64,17.1,51.5,37.28,76.87,56.19c5.16,3.85,10.15-4.83,5.05-8.63
			c-25.37-18.91-50.22-39.09-76.87-56.19c-12.81-8.22-26.46-14.72-40.17-21.26c-13.99-6.67-27.62-13.96-40.82-22.08
			c-3.41-2.1-7.29,0.68-7.52,4.32c-1.09,17.21-2.18,34.41-3.28,51.62c-0.41,6.53-2.84,16.12,0.49,22.16
			c3.08,5.59,11.18,9.11,16.53,12.07c12.29,6.8,25.34,12.22,37.15,19.87c3.07,1.99,5.8,4.62,8.87,6.52
			c0.21,0.18,0.41,0.36,0.62,0.54c0.77,0.84,0.86,0.7,0.26-0.42c-0.12-0.32-0.24-0.64-0.36-0.96c-0.52,0.27-1.05,0.54-1.57,0.8
			c-1.84,0.49-3.8,1.95-5.5,2.83c-6.81,3.52-13.59,7.08-20.27,10.83c-14.98,8.41-29.36,17.82-42.31,29.15
			C209.02,203.5,216.11,210.55,220.94,206.33L220.94,206.33z"/>
	</g>
</g>
<g>
	<g>
		<path class="st0" d="M247.49,259.34c22.59-18.29,47.89-33.24,74.82-44.19c-2.11-1.61-4.22-3.21-6.33-4.82
			c-0.69,21.99-1.32,44.06,1.62,65.93c0.54,3.98,0.8,8.4,2.88,11.95c2.28,3.88,6.37,6.3,9.99,8.77c8.53,5.83,17.3,11.31,26.26,16.45
			c4.22,2.42,8.48,4.76,12.78,7.02c4.14,2.17,8.87,5.5,13.44,6.6c10.54,2.52,8.42-13.48,8.52-19.21c0.4-22.29,0.6-44.58,0.61-66.87
			c0.01-25.62-0.24-51.24-0.74-76.85c-0.12-6.43-10.13-6.45-10,0c0.51,26.28,0.76,52.56,0.74,78.85
			c-0.01,12.98-0.09,25.95-0.23,38.93c-0.07,6.65-0.16,13.31-0.27,19.96c-0.05,2.99-0.1,5.99-0.16,8.98
			c-0.03,1.66-0.06,3.33-0.1,4.99c-0.01,0.67-0.03,1.33-0.04,2c-0.25,2.36-0.14,2.65,0.34,0.87c1.18-0.49,2.36-0.98,3.54-1.46
			c-1.78,0.01-5.71-2.87-7.37-3.72c-2.43-1.25-4.85-2.52-7.26-3.82c-4.81-2.6-9.57-5.3-14.27-8.09c-4.96-2.95-9.86-6.01-14.69-9.18
			c-3.86-2.53-10.81-5.63-12.74-10c-2.12-4.8-1.97-11.57-2.42-16.75c-0.53-6.12-0.83-12.26-0.95-18.4
			c-0.26-12.31,0.13-24.63,0.51-36.93c0.09-2.96-3.32-6.04-6.33-4.82c-28.65,11.64-55.2,27.3-79.23,46.76
			C235.42,256.31,242.53,263.35,247.49,259.34L247.49,259.34z"/>
	</g>
</g>
<g>
	<g>
		<path class="st0" d="M175.18,268.43c2.41,29,2.93,58.1,1.57,87.17c2.51-1.44,5.02-2.88,7.52-4.32
			c-20.69-10.47-40.75-22.06-60.2-34.69c-3.89-2.53-7.85-5.16-12.67-5.09c-4.92,0.06-9.19,3.38-13.24,5.79
			c-10.22,6.08-20.43,12.16-30.65,18.24c-4.47,2.66-8.94,5.32-13.41,7.98c-3.8,2.26-8.14,4.73-7.08,9.92
			c0.8,3.95,4.75,5.94,7.97,7.59c5.42,2.78,10.83,5.59,16.23,8.41c20.75,10.85,41.34,21.99,61.78,33.42
			c23.23,13,46.25,26.38,69.06,40.1c5.53,3.33,10.56-5.32,5.05-8.63c-35.72-21.5-71.97-42.13-108.72-61.82
			c-9.33-5-18.69-9.94-28.08-14.82c-1.99-1.03-3.99-2.07-5.98-3.1c-1.59-0.82-5.13-3.57-6.85-3.52c-0.33-0.21-0.67-0.41-1-0.62
			c-0.1,1.15-0.2,2.31-0.3,3.46c0.2,0.08,2.54-1.51,2.98-1.77c2.26-1.34,4.52-2.69,6.78-4.03c9.11-5.42,18.22-10.84,27.34-16.27
			c4.14-2.46,8.28-4.93,12.43-7.39c1.76-1.05,3.78-2.7,5.88-2.82c2.63-0.16,5.34,2.23,7.45,3.61c19.44,12.63,39.51,24.22,60.2,34.69
			c3.45,1.75,7.34-0.41,7.52-4.32c1.37-29.07,0.84-58.17-1.57-87.17C184.65,262.07,174.65,262.01,175.18,268.43L175.18,268.43z"/>
	</g>
</g>
<g>
	<g>
		<path class="st0" d="M235.47,275.2c-0.41,21.19-0.03,42.39,1.21,63.55c0.37,6.36,0.31,16.39,9.34,15.96
			c7.97-0.38,16.94-7.26,23.13-11.74c7.61-5.51,14.83-11.52,22.58-16.83c3.63-2.49,7.33-4.89,11.09-7.18
			c1.3-0.79,4.27-3.38,5.81-3.36c1.5,0.02,4.66,3.05,5.93,3.89c17.16,11.42,34.11,23.15,50.87,35.15c0-2.88,0-5.76,0-8.63
			c-49.76,30.28-99.34,60.84-148.76,91.68c-5.45,3.4-0.43,12.05,5.05,8.63c49.42-30.84,99-61.39,148.76-91.68
			c3.42-2.08,3.01-6.48,0-8.63c-15.71-11.25-31.59-22.26-47.66-33.01c-6.72-4.49-12.12-9.8-20.17-5.57
			c-8.28,4.34-16.16,9.99-23.65,15.56c-6.8,5.06-13.29,10.56-20.43,15.15c-3.39,2.18-7.2,3.6-10.59,5.69
			c-1.8,0.1-2.06,0.72-0.78,1.86c-0.2-0.98-0.3-1.97-0.29-2.97c-0.22-2.64-0.32-5.29-0.46-7.93c-1.06-19.84-1.37-39.71-0.98-59.58
			C245.59,268.76,235.59,268.76,235.47,275.2L235.47,275.2z"/>
	</g>
</g>
<g>
	<g>
		<path class="st0" d="M374.47,304.76c1.49-1.51,2.74-3.29,3.6-5.23c0.17-0.38,0.27-0.74,0.15-1.16c-0.1-0.35-0.36-0.73-0.69-0.9
			c-0.35-0.18-0.77-0.28-1.16-0.15c-0.35,0.11-0.74,0.34-0.9,0.69c-0.4,0.9-0.88,1.76-1.44,2.58c-0.13,0.2-0.27,0.39-0.42,0.58
			c-0.03,0.05-0.07,0.09-0.1,0.13c-0.11,0.14,0.24-0.3,0.05-0.07c-0.07,0.09-0.14,0.18-0.21,0.26c-0.32,0.39-0.66,0.77-1.02,1.13
			c-0.55,0.56-0.6,1.57,0,2.12C372.94,305.3,373.88,305.35,374.47,304.76L374.47,304.76z"/>
	</g>
</g>
<g>
	<g>
		<path class="st0" d="M368.75,299.97c3.01-4.96,5.85-10.03,8.5-15.19c0.88-1.71-1.71-3.23-2.59-1.51
			c-2.65,5.16-5.49,10.23-8.5,15.19C365.16,300.11,367.75,301.62,368.75,299.97L368.75,299.97z"/>
	</g>
</g>
<g>
	<g>
		<path class="st0" d="M358.72,296.53c6.74-8.59,13.13-17.45,19.15-26.56c1.07-1.62-1.53-3.12-2.59-1.51
			c-5.88,8.9-12.11,17.56-18.68,25.95C355.42,295.91,357.53,298.05,358.72,296.53L358.72,296.53z"/>
	</g>
</g>
<g>
	<g>
		<path class="st0" d="M351.06,289.65c9.48-11.03,18.47-22.48,26.94-34.3c1.13-1.57-1.47-3.07-2.59-1.51
			c-8.33,11.61-17.16,22.86-26.48,33.7C347.68,288.98,349.8,291.12,351.06,289.65L351.06,289.65z"/>
	</g>
</g>
<g>
	<g>
		<path class="st0" d="M340.56,283.68c13.19-11.58,25.3-24.37,36.13-38.18c1.18-1.5-0.93-3.64-2.12-2.12
			c-10.84,13.81-22.94,26.6-36.13,38.18C336.98,282.84,339.11,284.95,340.56,283.68L340.56,283.68z"/>
	</g>
</g>
<g>
	<g>
		<path class="st0" d="M336.77,275.36c11.42-12.12,22.08-24.95,31.87-38.42c2.82-3.87,5.56-7.79,8.23-11.77
			c1.08-1.61-1.52-3.11-2.59-1.51c-9.2,13.67-19.26,26.74-30.13,39.13c-3.11,3.54-6.28,7.02-9.51,10.45
			C333.33,274.65,335.45,276.77,336.77,275.36L336.77,275.36z"/>
	</g>
</g>
<g>
	<g>
		<path class="st0" d="M334.98,258.61c11.59-16.49,23.19-32.99,34.78-49.48c3.29-4.68,6.58-9.37,9.88-14.05
			c1.11-1.58-1.49-3.08-2.59-1.51c-11.59,16.49-23.19,32.99-34.78,49.48c-3.29,4.68-6.58,9.37-9.88,14.05
			C331.28,258.68,333.87,260.18,334.98,258.61L334.98,258.61z"/>
	</g>
</g>
<g>
	<g>
		<path class="st0" d="M333.25,232.06c11.44-15.76,22.89-31.51,34.33-47.27c3.26-4.49,6.52-8.98,9.79-13.48
			c1.14-1.56-1.47-3.06-2.59-1.51c-11.44,15.76-22.89,31.51-34.33,47.27c-3.26,4.49-6.52,8.98-9.79,13.48
			C329.53,232.11,332.13,233.61,333.25,232.06L333.25,232.06z"/>
	</g>
</g>
<g>
	<g>
		<path class="st0" d="M331.88,214.03c9.26-14.65,18.51-29.3,27.77-43.94c2.61-4.14,5.23-8.27,7.84-12.41
			c1.03-1.64-1.56-3.14-2.59-1.51c-9.26,14.65-18.51,29.3-27.77,43.94c-2.61,4.14-5.23,8.27-7.84,12.41
			C328.26,214.16,330.85,215.66,331.88,214.03L331.88,214.03z"/>
	</g>
</g>
<g>
	<g>
		<path class="st0" d="M340.36,168.61c-3.68,8.5-8.17,16.61-13.42,24.24c-1.1,1.59,1.5,3.1,2.59,1.51
			c5.25-7.62,9.75-15.74,13.42-24.24C343.7,168.37,341.12,166.84,340.36,168.61L340.36,168.61z"/>
	</g>
</g>
<g>
	<g>
		<path class="st0" d="M322.24,178.4c-4.78,6.68-8.71,13.91-11.79,21.52c-0.31,0.76,0.33,1.64,1.05,1.85
			c0.85,0.25,1.54-0.3,1.85-1.05c2.98-7.37,6.87-14.35,11.49-20.81C325.95,178.34,323.35,176.84,322.24,178.4L322.24,178.4z"/>
	</g>
</g>
<g>
	<g>
		<path class="st0" d="M302.17,188.9c-3.14,5.72-4.5,13.46-10.38,17.19c-1.63,1.03-0.12,3.63,1.51,2.59
			c6.51-4.13,7.99-11.93,11.46-18.26C305.69,188.72,303.1,187.2,302.17,188.9L302.17,188.9z"/>
	</g>
</g>
<g>
	<g>
		<path class="st0" d="M280.61,201.42c-2.25,6.67-5.04,13.13-8.36,19.33c-0.91,1.7,1.68,3.22,2.59,1.51
			c3.44-6.43,6.34-13.14,8.66-20.05C284.12,200.38,281.22,199.6,280.61,201.42L280.61,201.42z"/>
	</g>
</g>
<g>
	<g>
		<path class="st0" d="M266.19,212.7c-2.2,5.6-5.01,10.94-8.33,15.96c-1.07,1.61,1.53,3.12,2.59,1.51
			c3.47-5.24,6.33-10.83,8.63-16.67c0.3-0.75-0.33-1.65-1.05-1.85C267.19,211.42,266.49,211.94,266.19,212.7L266.19,212.7z"/>
	</g>
</g>
<g>
	<g>
		<path class="st0" d="M247.51,221.4c-3.16,7.41-6.31,14.83-9.47,22.24c-0.32,0.75-0.22,1.6,0.54,2.05
			c0.63,0.38,1.74,0.21,2.05-0.54c3.16-7.41,6.31-14.83,9.47-22.24c0.32-0.75,0.22-1.6-0.54-2.05
			C248.93,220.49,247.83,220.66,247.51,221.4L247.51,221.4z"/>
	</g>
</g>
<g>
	<g>
		<path class="st0" d="M230.86,231.17c-4.42,8.09-9.47,15.85-15.12,23.13c-1.17,1.51,0.94,3.65,2.12,2.12
			c5.82-7.49,11.04-15.41,15.59-23.74C234.37,230.99,231.78,229.47,230.86,231.17L230.86,231.17z"/>
	</g>
</g>
<g>
	<g>
		<path class="st0" d="M226.4,254.58c-4.24,6.56-8.48,13.12-12.72,19.68c-1.05,1.63,1.54,3.13,2.59,1.51
			c4.24-6.56,8.48-13.12,12.72-19.68C230.04,254.47,227.44,252.96,226.4,254.58L226.4,254.58z"/>
	</g>
</g>
<g>
	<g>
		<path class="st0" d="M228.73,270.09c-4.23,5.93-7.85,12.27-10.81,18.92c-0.33,0.74-0.22,1.61,0.54,2.05
			c0.64,0.37,1.72,0.21,2.05-0.54c2.96-6.66,6.58-12.99,10.81-18.92c0.47-0.66,0.12-1.67-0.54-2.05
			C230.03,269.11,229.21,269.43,228.73,270.09L228.73,270.09z"/>
	</g>
</g>
<g>
	<g>
		<path class="st0" d="M226.48,290.85c-4.09,8.89-8.31,17.72-12.65,26.49c-0.85,1.72,1.73,3.25,2.59,1.51
			c4.34-8.77,8.56-17.6,12.65-26.49C229.87,290.62,227.29,289.1,226.48,290.85L226.48,290.85z"/>
	</g>
</g>
<g>
	<g>
		<path class="st0" d="M228.09,308.25c-5.45,10.8-9.73,22.16-12.72,33.88c-0.48,1.87,2.41,2.67,2.89,0.8
			c2.93-11.47,7.09-22.59,12.42-33.16C231.55,308.05,228.96,306.52,228.09,308.25L228.09,308.25z"/>
	</g>
</g>
<g>
	<g>
		<path class="st0" d="M231.17,328.27c-5.77,12.65-11.54,25.3-17.3,37.95c-0.8,1.74,1.79,3.27,2.59,1.51
			c5.77-12.65,11.54-25.3,17.3-37.95C234.56,328.04,231.98,326.51,231.17,328.27L231.17,328.27z"/>
	</g>
</g>
<g>
	<g>
		<path class="st0" d="M233.1,355.62c-5.54,8.93-10.04,18.48-13.43,28.42c-0.62,1.83,2.27,2.62,2.89,0.8
			c3.31-9.71,7.72-18.99,13.13-27.71C236.71,355.49,234.12,353.99,233.1,355.62L233.1,355.62z"/>
	</g>
</g>
<g>
	<g>
		<path class="st0" d="M237.72,364.41c-5.59,19.33-11.88,38.46-18.85,57.35c-0.67,1.81,2.23,2.6,2.89,0.8
			c6.97-18.88,13.26-38.01,18.85-57.35C241.15,363.35,238.26,362.56,237.72,364.41L237.72,364.41z"/>
	</g>
</g>
<g>
	<g>
		<path class="st0" d="M247.53,365.16c-3.15,17.54-7.15,34.93-11.98,52.09c-0.52,1.86,2.37,2.66,2.89,0.8
			c4.83-17.16,8.82-34.54,11.98-52.09C250.76,364.07,247.87,363.26,247.53,365.16L247.53,365.16z"/>
	</g>
</g>
<g>
	<g>
		<path class="st0" d="M260.5,360.66c-2.75,15.48-6.2,30.83-10.35,46c-0.51,1.86,2.38,2.66,2.89,0.8c4.15-15.16,7.61-30.51,10.35-46
			C263.73,359.57,260.84,358.76,260.5,360.66L260.5,360.66z"/>
	</g>
</g>
<g>
	<g>
		<path class="st0" d="M273.84,351.97c-1.47,15.67-3.65,31.25-6.54,46.72c-0.35,1.89,2.54,2.7,2.89,0.8
			c2.93-15.73,5.15-31.59,6.64-47.52C277.02,350.05,274.02,350.06,273.84,351.97L273.84,351.97z"/>
	</g>
</g>
<g>
	<g>
		<path class="st0" d="M291.11,339.89c-1.99,16.31-5.22,32.46-9.63,48.29c-0.52,1.86,2.38,2.66,2.89,0.8
			c4.47-16.09,7.71-32.5,9.73-49.09C294.34,337.98,291.34,337.99,291.11,339.89L291.11,339.89z"/>
	</g>
</g>
<g>
	<g>
		<path class="st0" d="M304.77,331.6c-1.62,16.34-4.77,32.51-9.36,48.27c-0.54,1.86,2.35,2.65,2.89,0.8
			c4.66-16.03,7.82-32.46,9.47-49.07C307.96,329.68,304.96,329.69,304.77,331.6L304.77,331.6z"/>
	</g>
</g>
<g>
	<g>
		<path class="st0" d="M316.94,333.87c-0.88,11.06-2.69,22.02-5.39,32.78c-0.47,1.87,2.42,2.67,2.89,0.8
			c2.76-11.02,4.59-22.25,5.5-33.57C320.1,331.94,317.09,331.95,316.94,333.87L316.94,333.87z"/>
	</g>
</g>
<g>
	<g>
		<path class="st0" d="M328.92,336.88c-0.3,7.21-1.65,14.32-3.96,21.16c-0.62,1.83,2.28,2.62,2.89,0.8
			c2.4-7.08,3.75-14.48,4.07-21.96C332,334.95,329,334.95,328.92,336.88L328.92,336.88z"/>
	</g>
</g>
<g>
	<g>
		<path class="st0" d="M338.66,341.73c-1.47,4.43-2.44,8.99-2.97,13.63c-0.09,0.81,0.76,1.5,1.5,1.5c0.89,0,1.41-0.69,1.5-1.5
			c0.5-4.36,1.49-8.67,2.87-12.83c0.25-0.77-0.29-1.64-1.05-1.85C339.69,340.46,338.91,340.96,338.66,341.73L338.66,341.73z"/>
	</g>
</g>
<g>
	<g>
		<path class="st0" d="M344.73,348.19c0,1.01,0,2.01,0,3.02c0,0.38,0.17,0.79,0.44,1.06c0.26,0.26,0.69,0.46,1.06,0.44
			c0.39-0.02,0.79-0.14,1.06-0.44c0.27-0.29,0.44-0.65,0.44-1.06c0-1.01,0-2.01,0-3.02c0-0.38-0.17-0.79-0.44-1.06
			c-0.26-0.26-0.69-0.46-1.06-0.44c-0.39,0.02-0.79,0.14-1.06,0.44C344.9,347.43,344.73,347.79,344.73,348.19L344.73,348.19z"/>
	</g>
</g>
<g>
	<g>
		<path class="st0" d="M76.59,345.76c0.94,3.58,1.89,7.17,2.83,10.75c0.21,0.78,1.07,1.26,1.85,1.05c0.79-0.22,1.25-1.06,1.05-1.85
			c-0.94-3.58-1.89-7.17-2.83-10.75c-0.21-0.78-1.07-1.26-1.85-1.05C76.84,344.13,76.38,344.98,76.59,345.76L76.59,345.76z"/>
	</g>
</g>
<g>
	<g>
		<path class="st0" d="M87.82,341.97c-0.15,6.33,1.02,12.66,3.48,18.5c0.31,0.75,0.99,1.28,1.85,1.05c0.7-0.19,1.36-1.09,1.05-1.85
			c-2.37-5.61-3.52-11.61-3.38-17.7C90.87,340.04,87.87,340.04,87.82,341.97L87.82,341.97z"/>
	</g>
</g>
<g>
	<g>
		<path class="st0" d="M97.66,336.27c-1.11,11.43,0.41,23.05,4.42,33.81c0.67,1.79,3.57,1.02,2.89-0.8
			c-3.93-10.54-5.4-21.81-4.31-33.01C100.85,334.35,97.84,334.37,97.66,336.27L97.66,336.27z"/>
	</g>
</g>
<g>
	<g>
		<path class="st0" d="M110.59,331.39c-1.89,13.7-0.97,27.64,2.81,40.96c0.53,1.85,3.42,1.07,2.89-0.8
			c-3.62-12.76-4.62-26.21-2.81-39.36c0.11-0.81-0.2-1.6-1.05-1.85C111.73,330.14,110.7,330.59,110.59,331.39L110.59,331.39z"/>
	</g>
</g>
<g>
	<g>
		<path class="st0" d="M123.01,336.31c-0.68,13.8,0.43,27.64,3.26,41.16c0.4,1.89,3.29,1.09,2.89-0.8
			c-2.78-13.26-3.82-26.83-3.15-40.36C126.1,334.39,123.1,334.39,123.01,336.31L123.01,336.31z"/>
	</g>
</g>
<g>
	<g>
		<path class="st0" d="M137.86,343.1c-1.03,15.02-1.98,30.16,0.61,45.08c0.33,1.9,3.22,1.09,2.89-0.8
			c-2.53-14.63-1.51-29.56-0.5-44.28C140.99,341.17,137.99,341.18,137.86,343.1L137.86,343.1z"/>
	</g>
</g>
<g>
	<g>
		<path class="st0" d="M150.08,353.29c0.58,15.41,3.64,30.68,9.09,45.11c0.68,1.79,3.58,1.01,2.89-0.8
			c-5.35-14.19-8.4-29.16-8.98-44.31C153.01,351.36,150.01,351.35,150.08,353.29L150.08,353.29z"/>
	</g>
</g>
<g>
	<g>
		<path class="st0" d="M161.17,357.13c2.69,16.35,7.58,32.26,14.45,47.33c0.8,1.75,3.39,0.23,2.59-1.51
			c-6.76-14.83-11.5-30.54-14.15-46.62C163.75,354.43,160.86,355.23,161.17,357.13L161.17,357.13z"/>
	</g>
</g>
<g>
	<g>
		<path class="st0" d="M175.71,364.02c4.85,14.99,10.13,29.83,15.83,44.52c0.69,1.78,3.59,1.01,2.89-0.8
			c-5.7-14.68-10.98-29.53-15.83-44.52C178.01,361.39,175.11,362.17,175.71,364.02L175.71,364.02z"/>
	</g>
</g>
<g>
	<g>
		<path class="st0" d="M187.45,366.59c3.47,6.75,6.93,13.51,10.4,20.26c0.88,1.72,3.47,0.2,2.59-1.51
			c-3.47-6.75-6.93-13.51-10.4-20.26C189.15,363.36,186.56,364.87,187.45,366.59L187.45,366.59z"/>
	</g>
</g>
<g>
	<g>
		<path class="st0" d="M191.9,348.5c2.9,6.76,5.8,13.52,8.7,20.28c0.32,0.75,1.41,0.9,2.05,0.54c0.77-0.44,0.86-1.31,0.54-2.05
			c-2.9-6.76-5.8-13.52-8.7-20.28c-0.32-0.75-1.41-0.9-2.05-0.54C191.67,346.88,191.59,347.76,191.9,348.5L191.9,348.5z"/>
	</g>
</g>
<g>
	<g>
		<path class="st0" d="M193.12,320.87c2.76,9.21,5.98,18.27,9.65,27.15c0.73,1.76,3.63,0.99,2.89-0.8
			c-3.67-8.88-6.89-17.94-9.65-27.15C195.46,318.23,192.57,319.02,193.12,320.87L193.12,320.87z"/>
	</g>
</g>
<g>
	<g>
		<path class="st0" d="M194.09,293.75c1.86,7.21,4.64,14.17,8.27,20.68c0.94,1.69,3.53,0.18,2.59-1.51
			c-3.51-6.29-6.17-12.98-7.97-19.96C196.5,291.09,193.61,291.88,194.09,293.75L194.09,293.75z"/>
	</g>
</g>
<g>
	<g>
		<path class="st0" d="M197.18,270.61c-3.34,1.96-0.61,6.22,0.64,8.56c1.94,3.62,3.88,7.24,5.82,10.86c0.91,1.7,3.5,0.19,2.59-1.51
			c-1.62-3.02-3.23-6.03-4.85-9.05c-0.78-1.46-1.65-2.91-2.36-4.41c-0.22-0.46-0.68-1.65-0.33-1.85
			C200.36,272.23,198.85,269.63,197.18,270.61L197.18,270.61z"/>
	</g>
</g>
<g>
	<g>
		<path class="st0" d="M196.49,237.14c1.73,5.46,3.46,10.92,5.19,16.38c0.58,1.83,3.48,1.05,2.89-0.8
			c-1.73-5.46-3.46-10.92-5.19-16.38C198.8,234.51,195.9,235.29,196.49,237.14L196.49,237.14z"/>
	</g>
</g>
<g>
	<g>
		<path class="st0" d="M176.32,229.56c5.06,9.41,9.53,19.12,13.38,29.08c0.69,1.78,3.59,1.01,2.89-0.8
			c-3.94-10.21-8.5-20.16-13.69-29.8C178,226.35,175.41,227.86,176.32,229.56L176.32,229.56z"/>
	</g>
</g>
<g>
	<g>
		<path class="st0" d="M162.59,219.77c0.85,4.75,1.86,9.46,3.02,14.15c0.47,1.87,3.36,1.08,2.89-0.8c-1.16-4.68-2.17-9.4-3.02-14.15
			c-0.14-0.8-1.12-1.25-1.85-1.05C162.8,218.16,162.45,218.97,162.59,219.77L162.59,219.77z"/>
	</g>
</g>
<g>
	<g>
		<path class="st0" d="M149.72,212.21c0.53,6,1.99,11.81,4.35,17.36c0.32,0.75,1.42,0.91,2.05,0.54c0.77-0.45,0.86-1.3,0.54-2.05
			c-2.13-5.02-3.46-10.41-3.94-15.84c-0.07-0.81-0.64-1.5-1.5-1.5C150.46,210.71,149.65,211.4,149.72,212.21L149.72,212.21z"/>
	</g>
</g>
<g>
	<g>
		<path class="st0" d="M133.05,200.93c1.07,6.51,2.82,12.88,5.25,19.02c0.3,0.75,1,1.28,1.85,1.05c0.72-0.2,1.35-1.09,1.05-1.85
			c-2.42-6.14-4.18-12.51-5.25-19.02c-0.13-0.8-1.12-1.25-1.85-1.05C133.25,199.32,132.92,200.13,133.05,200.93L133.05,200.93z"/>
	</g>
</g>
<g>
	<g>
		<path class="st0" d="M118.39,192.59c0.94,7.37,2.49,14.64,4.71,21.73c0.57,1.84,3.47,1.05,2.89-0.8
			c-2.13-6.83-3.69-13.84-4.6-20.93c-0.1-0.81-0.62-1.49-1.5-1.5C119.16,191.09,118.29,191.79,118.39,192.59L118.39,192.59z"/>
	</g>
</g>
<g>
	<g>
		<path class="st0" d="M103.66,186.6c1.55,6.74,3.39,13.41,5.52,19.99c0.59,1.83,3.49,1.05,2.89-0.8
			c-2.13-6.58-3.97-13.25-5.52-19.99C106.12,183.92,103.23,184.72,103.66,186.6L103.66,186.6z"/>
	</g>
</g>
<g>
	<g>
		<path class="st0" d="M88.48,174.16c1.54,9.42,3.69,18.73,6.43,27.87c0.55,1.84,3.45,1.06,2.89-0.8
			c-2.74-9.14-4.89-18.45-6.43-27.87C91.06,171.46,88.17,172.27,88.48,174.16L88.48,174.16z"/>
	</g>
</g>
<g>
	<g>
		<path class="st0" d="M65.26,160.18c5.92,19.21,13.4,37.93,22.34,55.94c0.86,1.73,3.45,0.21,2.59-1.51
			c-8.83-17.78-16.2-36.25-22.04-55.22C67.59,157.54,64.69,158.32,65.26,160.18L65.26,160.18z"/>
	</g>
</g>
<g>
	<g>
		<path class="st0" d="M44.83,171.56C53,187.97,64,202.72,75.5,216.92c3.28,4.05,6.61,8.06,9.93,12.07
			c1.23,1.49,3.35-0.65,2.12-2.12c-11.57-13.94-23.18-27.95-32.68-43.41c-2.68-4.36-5.18-8.83-7.46-13.41
			C46.56,168.32,43.97,169.83,44.83,171.56L44.83,171.56z"/>
	</g>
</g>
<g>
	<g>
		<path class="st0" d="M46.97,202.01c7.62,15.39,17.62,29.59,29.55,41.95c3.39,3.51,6.94,6.87,10.62,10.07
			c1.45,1.26,3.58-0.85,2.12-2.12c-12.84-11.15-23.92-24.24-32.76-38.77c-2.5-4.11-4.81-8.33-6.94-12.64
			C48.7,198.76,46.12,200.28,46.97,202.01L46.97,202.01z"/>
	</g>
</g>
<g>
	<g>
		<path class="st0" d="M45.85,233.39c11.27,14.23,25.2,25.96,39.05,37.57c1.47,1.23,3.6-0.88,2.12-2.12
			c-13.85-11.61-27.78-23.34-39.05-37.57C46.78,229.76,44.67,231.89,45.85,233.39L45.85,233.39z"/>
	</g>
</g>
<g>
	<g>
		<path class="st0" d="M46.48,257.91c10.17,10.07,20.99,19.45,32.38,28.12c1.54,1.17,3.03-1.44,1.51-2.59
			c-11.18-8.51-21.79-17.76-31.77-27.65C47.23,254.43,45.1,256.55,46.48,257.91L46.48,257.91z"/>
	</g>
</g>
<g>
	<g>
		<path class="st0" d="M46.38,274.24c1.51,1.87,2.75,3.95,4.12,5.92c1.34,1.92,2.77,3.77,4.27,5.56c2.97,3.53,6.26,6.77,9.82,9.69
			c1.48,1.22,3.61-0.89,2.12-2.12c-3.56-2.93-6.85-6.17-9.82-9.69c-3.06-3.65-5.41-7.79-8.39-11.48c-0.51-0.64-1.59-0.52-2.12,0
			C45.75,272.74,45.87,273.61,46.38,274.24L46.38,274.24z"/>
	</g>
</g>
<g>
	<g>
		<path class="st0" d="M43.78,290.97c3.26,4.01,6.72,7.85,10.38,11.49c1.37,1.36,3.49-0.76,2.12-2.12
			c-3.66-3.65-7.13-7.48-10.38-11.49c-0.51-0.63-1.59-0.53-2.12,0C43.16,289.47,43.27,290.34,43.78,290.97L43.78,290.97z"/>
	</g>
</g>
<g>
	<g>
		<path class="st0" d="M42.64,303.24c0.63,0.69,1.26,1.38,1.89,2.07c0.14,0.15,0.3,0.25,0.48,0.31c0.18,0.09,0.37,0.14,0.58,0.13
			c0.21,0.01,0.4-0.04,0.58-0.13c0.19-0.06,0.35-0.16,0.48-0.31c0.26-0.29,0.46-0.66,0.44-1.06c-0.02-0.13-0.04-0.27-0.05-0.4
			c-0.07-0.25-0.2-0.47-0.39-0.66c-0.63-0.69-1.26-1.38-1.89-2.07c-0.14-0.15-0.3-0.25-0.48-0.31c-0.18-0.09-0.37-0.14-0.58-0.13
			c-0.21-0.01-0.4,0.04-0.58,0.13c-0.19,0.06-0.35,0.16-0.48,0.31c-0.26,0.29-0.46,0.66-0.44,1.06c0.02,0.13,0.04,0.27,0.05,0.4
			C42.33,302.83,42.46,303.05,42.64,303.24L42.64,303.24z"/>
	</g>
</g>
</svg>
